M48
; DRILL file {KiCad (5.1.9)-1} date 01/17/22 18:13:02
; FORMAT={-:-/ absolute / inch / decimal}
; #@! TF.CreationDate,2022-01-17T18:13:02-05:00
; #@! TF.GenerationSoftware,Kicad,Pcbnew,(5.1.9)-1
; #@! TF.FileFunction,Plated,1,2,PTH
FMAT,2
INCH
T1C0.0157
T2C0.0276
T3C0.0315
T4C0.0394
%
G90
G05
T1
X6.56Y-5.6
X6.8188Y-5.3688
X6.8188Y-5.4712
X6.83Y-5.65
X6.9581Y-5.5481
X6.96Y-5.64
X7.02Y-5.32
X7.03Y-5.59
X7.07Y-5.36
X7.09Y-5.74
X7.1Y-5.48
X7.28Y-5.47
X7.29Y-5.55
X7.33Y-5.69
T4
X6.85Y-5.88
X6.95Y-5.88
X7.05Y-5.88
T2
G00X6.8161Y-5.2302
M15
G01X6.824Y-5.2302
M16
G05
G00X7.076Y-5.2302
M15
G01X7.0839Y-5.2302
M16
G05
T3
G00X6.8083Y-5.1102
M15
G01X6.8083Y-5.1298
M16
G05
G00X7.0917Y-5.1102
M15
G01X7.0917Y-5.1298
M16
G05
T0
M30
