%TF.GenerationSoftware,KiCad,Pcbnew,(5.1.9)-1*%
%TF.CreationDate,2022-01-17T18:13:00-05:00*%
%TF.ProjectId,USBUPDI,55534255-5044-4492-9e6b-696361645f70,rev?*%
%TF.SameCoordinates,Original*%
%TF.FileFunction,Paste,Top*%
%TF.FilePolarity,Positive*%
%FSLAX46Y46*%
G04 Gerber Fmt 4.6, Leading zero omitted, Abs format (unit mm)*
G04 Created by KiCad (PCBNEW (5.1.9)-1) date 2022-01-17 18:13:00*
%MOMM*%
%LPD*%
G01*
G04 APERTURE LIST*
%ADD10R,1.400000X0.300000*%
%ADD11R,1.060000X0.650000*%
%ADD12R,1.100000X1.350000*%
%ADD13R,0.400000X2.000000*%
%ADD14R,0.900000X1.200000*%
%ADD15R,0.450000X0.600000*%
G04 APERTURE END LIST*
D10*
%TO.C,U2*%
X182794000Y-138700000D03*
X182794000Y-139200000D03*
X182794000Y-139700000D03*
X182794000Y-140200000D03*
X182794000Y-140700000D03*
X178394000Y-140700000D03*
X178394000Y-140200000D03*
X178394000Y-139700000D03*
X178394000Y-139200000D03*
X178394000Y-138700000D03*
%TD*%
D11*
%TO.C,U1*%
X169970000Y-141266000D03*
X169970000Y-143166000D03*
X167770000Y-143166000D03*
X167770000Y-142216000D03*
X167770000Y-141266000D03*
%TD*%
%TO.C,R2*%
G36*
G01*
X175063999Y-146196000D02*
X175964001Y-146196000D01*
G75*
G02*
X176214000Y-146445999I0J-249999D01*
G01*
X176214000Y-146971001D01*
G75*
G02*
X175964001Y-147221000I-249999J0D01*
G01*
X175063999Y-147221000D01*
G75*
G02*
X174814000Y-146971001I0J249999D01*
G01*
X174814000Y-146445999D01*
G75*
G02*
X175063999Y-146196000I249999J0D01*
G01*
G37*
G36*
G01*
X175063999Y-144371000D02*
X175964001Y-144371000D01*
G75*
G02*
X176214000Y-144620999I0J-249999D01*
G01*
X176214000Y-145146001D01*
G75*
G02*
X175964001Y-145396000I-249999J0D01*
G01*
X175063999Y-145396000D01*
G75*
G02*
X174814000Y-145146001I0J249999D01*
G01*
X174814000Y-144620999D01*
G75*
G02*
X175063999Y-144371000I249999J0D01*
G01*
G37*
%TD*%
%TO.C,R1*%
G36*
G01*
X183026000Y-143706001D02*
X183026000Y-142805999D01*
G75*
G02*
X183275999Y-142556000I249999J0D01*
G01*
X183801001Y-142556000D01*
G75*
G02*
X184051000Y-142805999I0J-249999D01*
G01*
X184051000Y-143706001D01*
G75*
G02*
X183801001Y-143956000I-249999J0D01*
G01*
X183275999Y-143956000D01*
G75*
G02*
X183026000Y-143706001I0J249999D01*
G01*
G37*
G36*
G01*
X181201000Y-143706001D02*
X181201000Y-142805999D01*
G75*
G02*
X181450999Y-142556000I249999J0D01*
G01*
X181976001Y-142556000D01*
G75*
G02*
X182226000Y-142805999I0J-249999D01*
G01*
X182226000Y-143706001D01*
G75*
G02*
X181976001Y-143956000I-249999J0D01*
G01*
X181450999Y-143956000D01*
G75*
G02*
X181201000Y-143706001I0J249999D01*
G01*
G37*
%TD*%
D12*
%TO.C,J1*%
X174330000Y-130048000D03*
X178730000Y-130048000D03*
D13*
X177830000Y-132648000D03*
X177180000Y-132648000D03*
X176530000Y-132648000D03*
X175880000Y-132648000D03*
X175230000Y-132648000D03*
%TD*%
D14*
%TO.C,D3*%
X171068000Y-138684000D03*
X167768000Y-138684000D03*
%TD*%
D15*
%TO.C,D2*%
X172974000Y-146846000D03*
X172974000Y-144746000D03*
%TD*%
%TO.C,D1*%
G36*
G01*
X183076000Y-146252250D02*
X183076000Y-145339750D01*
G75*
G02*
X183319750Y-145096000I243750J0D01*
G01*
X183807250Y-145096000D01*
G75*
G02*
X184051000Y-145339750I0J-243750D01*
G01*
X184051000Y-146252250D01*
G75*
G02*
X183807250Y-146496000I-243750J0D01*
G01*
X183319750Y-146496000D01*
G75*
G02*
X183076000Y-146252250I0J243750D01*
G01*
G37*
G36*
G01*
X181201000Y-146252250D02*
X181201000Y-145339750D01*
G75*
G02*
X181444750Y-145096000I243750J0D01*
G01*
X181932250Y-145096000D01*
G75*
G02*
X182176000Y-145339750I0J-243750D01*
G01*
X182176000Y-146252250D01*
G75*
G02*
X181932250Y-146496000I-243750J0D01*
G01*
X181444750Y-146496000D01*
G75*
G02*
X181201000Y-146252250I0J243750D01*
G01*
G37*
%TD*%
%TO.C,C4*%
G36*
G01*
X185932000Y-142565000D02*
X186432000Y-142565000D01*
G75*
G02*
X186657000Y-142790000I0J-225000D01*
G01*
X186657000Y-143240000D01*
G75*
G02*
X186432000Y-143465000I-225000J0D01*
G01*
X185932000Y-143465000D01*
G75*
G02*
X185707000Y-143240000I0J225000D01*
G01*
X185707000Y-142790000D01*
G75*
G02*
X185932000Y-142565000I225000J0D01*
G01*
G37*
G36*
G01*
X185932000Y-141015000D02*
X186432000Y-141015000D01*
G75*
G02*
X186657000Y-141240000I0J-225000D01*
G01*
X186657000Y-141690000D01*
G75*
G02*
X186432000Y-141915000I-225000J0D01*
G01*
X185932000Y-141915000D01*
G75*
G02*
X185707000Y-141690000I0J225000D01*
G01*
X185707000Y-141240000D01*
G75*
G02*
X185932000Y-141015000I225000J0D01*
G01*
G37*
%TD*%
%TO.C,C3*%
G36*
G01*
X185932000Y-139009000D02*
X186432000Y-139009000D01*
G75*
G02*
X186657000Y-139234000I0J-225000D01*
G01*
X186657000Y-139684000D01*
G75*
G02*
X186432000Y-139909000I-225000J0D01*
G01*
X185932000Y-139909000D01*
G75*
G02*
X185707000Y-139684000I0J225000D01*
G01*
X185707000Y-139234000D01*
G75*
G02*
X185932000Y-139009000I225000J0D01*
G01*
G37*
G36*
G01*
X185932000Y-137459000D02*
X186432000Y-137459000D01*
G75*
G02*
X186657000Y-137684000I0J-225000D01*
G01*
X186657000Y-138134000D01*
G75*
G02*
X186432000Y-138359000I-225000J0D01*
G01*
X185932000Y-138359000D01*
G75*
G02*
X185707000Y-138134000I0J225000D01*
G01*
X185707000Y-137684000D01*
G75*
G02*
X185932000Y-137459000I225000J0D01*
G01*
G37*
%TD*%
%TO.C,C2*%
G36*
G01*
X171708000Y-141015000D02*
X172208000Y-141015000D01*
G75*
G02*
X172433000Y-141240000I0J-225000D01*
G01*
X172433000Y-141690000D01*
G75*
G02*
X172208000Y-141915000I-225000J0D01*
G01*
X171708000Y-141915000D01*
G75*
G02*
X171483000Y-141690000I0J225000D01*
G01*
X171483000Y-141240000D01*
G75*
G02*
X171708000Y-141015000I225000J0D01*
G01*
G37*
G36*
G01*
X171708000Y-142565000D02*
X172208000Y-142565000D01*
G75*
G02*
X172433000Y-142790000I0J-225000D01*
G01*
X172433000Y-143240000D01*
G75*
G02*
X172208000Y-143465000I-225000J0D01*
G01*
X171708000Y-143465000D01*
G75*
G02*
X171483000Y-143240000I0J225000D01*
G01*
X171483000Y-142790000D01*
G75*
G02*
X171708000Y-142565000I225000J0D01*
G01*
G37*
%TD*%
%TO.C,C1*%
G36*
G01*
X170251000Y-145538000D02*
X170251000Y-145038000D01*
G75*
G02*
X170476000Y-144813000I225000J0D01*
G01*
X170926000Y-144813000D01*
G75*
G02*
X171151000Y-145038000I0J-225000D01*
G01*
X171151000Y-145538000D01*
G75*
G02*
X170926000Y-145763000I-225000J0D01*
G01*
X170476000Y-145763000D01*
G75*
G02*
X170251000Y-145538000I0J225000D01*
G01*
G37*
G36*
G01*
X168701000Y-145538000D02*
X168701000Y-145038000D01*
G75*
G02*
X168926000Y-144813000I225000J0D01*
G01*
X169376000Y-144813000D01*
G75*
G02*
X169601000Y-145038000I0J-225000D01*
G01*
X169601000Y-145538000D01*
G75*
G02*
X169376000Y-145763000I-225000J0D01*
G01*
X168926000Y-145763000D01*
G75*
G02*
X168701000Y-145538000I0J225000D01*
G01*
G37*
%TD*%
M02*
