%TF.GenerationSoftware,KiCad,Pcbnew,(5.1.9)-1*%
%TF.CreationDate,2022-01-17T18:13:00-05:00*%
%TF.ProjectId,USBUPDI,55534255-5044-4492-9e6b-696361645f70,rev?*%
%TF.SameCoordinates,Original*%
%TF.FileFunction,Copper,L2,Bot*%
%TF.FilePolarity,Positive*%
%FSLAX46Y46*%
G04 Gerber Fmt 4.6, Leading zero omitted, Abs format (unit mm)*
G04 Created by KiCad (PCBNEW (5.1.9)-1) date 2022-01-17 18:13:00*
%MOMM*%
%LPD*%
G01*
G04 APERTURE LIST*
%TA.AperFunction,ComponentPad*%
%ADD10O,1.700000X1.700000*%
%TD*%
%TA.AperFunction,ComponentPad*%
%ADD11R,1.700000X1.700000*%
%TD*%
%TA.AperFunction,ViaPad*%
%ADD12C,0.800000*%
%TD*%
%TA.AperFunction,Conductor*%
%ADD13C,0.381000*%
%TD*%
%TA.AperFunction,Conductor*%
%ADD14C,0.254000*%
%TD*%
%TA.AperFunction,Conductor*%
%ADD15C,0.100000*%
%TD*%
G04 APERTURE END LIST*
D10*
%TO.P,J2,3*%
%TO.N,GND*%
X179070000Y-149352000D03*
%TO.P,J2,2*%
%TO.N,VCC*%
X176530000Y-149352000D03*
D11*
%TO.P,J2,1*%
%TO.N,/UPDI*%
X173990000Y-149352000D03*
%TD*%
%TO.P,J1,6*%
%TO.N,GND*%
%TA.AperFunction,ComponentPad*%
G36*
G01*
X179380000Y-130773000D02*
X179380000Y-129323000D01*
G75*
G02*
X179755000Y-128948000I375000J0D01*
G01*
X180505000Y-128948000D01*
G75*
G02*
X180880000Y-129323000I0J-375000D01*
G01*
X180880000Y-130773000D01*
G75*
G02*
X180505000Y-131148000I-375000J0D01*
G01*
X179755000Y-131148000D01*
G75*
G02*
X179380000Y-130773000I0J375000D01*
G01*
G37*
%TD.AperFunction*%
%TA.AperFunction,ComponentPad*%
G36*
G01*
X172180000Y-130773000D02*
X172180000Y-129323000D01*
G75*
G02*
X172555000Y-128948000I375000J0D01*
G01*
X173305000Y-128948000D01*
G75*
G02*
X173680000Y-129323000I0J-375000D01*
G01*
X173680000Y-130773000D01*
G75*
G02*
X173305000Y-131148000I-375000J0D01*
G01*
X172555000Y-131148000D01*
G75*
G02*
X172180000Y-130773000I0J375000D01*
G01*
G37*
%TD.AperFunction*%
%TA.AperFunction,ComponentPad*%
G36*
G01*
X172380000Y-133223000D02*
X172380000Y-132473000D01*
G75*
G02*
X172755000Y-132098000I375000J0D01*
G01*
X173705000Y-132098000D01*
G75*
G02*
X174080000Y-132473000I0J-375000D01*
G01*
X174080000Y-133223000D01*
G75*
G02*
X173705000Y-133598000I-375000J0D01*
G01*
X172755000Y-133598000D01*
G75*
G02*
X172380000Y-133223000I0J375000D01*
G01*
G37*
%TD.AperFunction*%
%TA.AperFunction,ComponentPad*%
G36*
G01*
X178980000Y-133223000D02*
X178980000Y-132473000D01*
G75*
G02*
X179355000Y-132098000I375000J0D01*
G01*
X180305000Y-132098000D01*
G75*
G02*
X180680000Y-132473000I0J-375000D01*
G01*
X180680000Y-133223000D01*
G75*
G02*
X180305000Y-133598000I-375000J0D01*
G01*
X179355000Y-133598000D01*
G75*
G02*
X178980000Y-133223000I0J375000D01*
G01*
G37*
%TD.AperFunction*%
%TD*%
D12*
%TO.N,GND*%
X173482000Y-143510000D03*
X180340000Y-139192000D03*
X178562000Y-141986000D03*
X186182000Y-144526000D03*
X180086000Y-145796000D03*
X184912000Y-138938000D03*
X166624000Y-142240000D03*
%TO.N,+5V*%
X178308000Y-135128000D03*
X173198000Y-136368000D03*
%TO.N,+3V3*%
X173198000Y-138968000D03*
X179578000Y-136144000D03*
%TO.N,VCC*%
X176734699Y-140920699D03*
X185166000Y-140970052D03*
X176783997Y-143256003D03*
%TD*%
D13*
%TO.N,+5V*%
X175006000Y-135128000D02*
X175006000Y-135128000D01*
X178308000Y-135128000D02*
X174438000Y-135128000D01*
X174438000Y-135128000D02*
X173198000Y-136368000D01*
%TO.N,+3V3*%
X173198000Y-138968000D02*
X176754000Y-138968000D01*
X176754000Y-138968000D02*
X179578000Y-136144000D01*
X179578000Y-136144000D02*
X179578000Y-136144000D01*
D14*
%TO.N,VCC*%
X176734699Y-140920699D02*
X176734699Y-140920699D01*
X176734699Y-140920699D02*
X185116647Y-140920699D01*
X185116647Y-140920699D02*
X185166000Y-140970052D01*
D13*
X176784000Y-143256006D02*
X176783997Y-143256003D01*
X176784000Y-149098000D02*
X176784000Y-143256006D01*
X176530000Y-149352000D02*
X176784000Y-149098000D01*
%TD*%
D14*
%TO.N,GND*%
X171819052Y-128587052D02*
X171755570Y-128664405D01*
X171708398Y-128752656D01*
X171679350Y-128848415D01*
X171669542Y-128948000D01*
X171672000Y-129794000D01*
X171799000Y-129921000D01*
X172803000Y-129921000D01*
X172803000Y-129901000D01*
X173057000Y-129901000D01*
X173057000Y-129921000D01*
X174061000Y-129921000D01*
X174188000Y-129794000D01*
X174190458Y-128948000D01*
X174180650Y-128848415D01*
X174151602Y-128752656D01*
X174104430Y-128664405D01*
X174040948Y-128587052D01*
X173994582Y-128549000D01*
X179065418Y-128549000D01*
X179019052Y-128587052D01*
X178955570Y-128664405D01*
X178908398Y-128752656D01*
X178879350Y-128848415D01*
X178869542Y-128948000D01*
X178872000Y-129794000D01*
X178999000Y-129921000D01*
X180003000Y-129921000D01*
X180003000Y-129901000D01*
X180257000Y-129901000D01*
X180257000Y-129921000D01*
X181261000Y-129921000D01*
X181388000Y-129794000D01*
X181390458Y-128948000D01*
X181380650Y-128848415D01*
X181351602Y-128752656D01*
X181304430Y-128664405D01*
X181240948Y-128587052D01*
X181194582Y-128549000D01*
X186665000Y-128549000D01*
X186665001Y-150343000D01*
X179994989Y-150343000D01*
X180156459Y-150166731D01*
X180294529Y-149939119D01*
X180385541Y-149688944D01*
X180295054Y-149479000D01*
X179197000Y-149479000D01*
X179197000Y-149499000D01*
X178943000Y-149499000D01*
X178943000Y-149479000D01*
X178923000Y-149479000D01*
X178923000Y-149225000D01*
X178943000Y-149225000D01*
X178943000Y-148127569D01*
X179197000Y-148127569D01*
X179197000Y-149225000D01*
X180295054Y-149225000D01*
X180385541Y-149015056D01*
X180294529Y-148764881D01*
X180156459Y-148537269D01*
X179976637Y-148340966D01*
X179761973Y-148183517D01*
X179520717Y-148070972D01*
X179406943Y-148036465D01*
X179197000Y-148127569D01*
X178943000Y-148127569D01*
X178733057Y-148036465D01*
X178619283Y-148070972D01*
X178378027Y-148183517D01*
X178163363Y-148340966D01*
X177983541Y-148537269D01*
X177845471Y-148764881D01*
X177803960Y-148878987D01*
X177733444Y-148708746D01*
X177584828Y-148486325D01*
X177482500Y-148383997D01*
X177482500Y-143841605D01*
X177489286Y-143834819D01*
X177588656Y-143686102D01*
X177657103Y-143520857D01*
X177691997Y-143345433D01*
X177691997Y-143166573D01*
X177657103Y-142991149D01*
X177588656Y-142825904D01*
X177489286Y-142677187D01*
X177362813Y-142550714D01*
X177214096Y-142451344D01*
X177048851Y-142382897D01*
X176873427Y-142348003D01*
X176694567Y-142348003D01*
X176519143Y-142382897D01*
X176353898Y-142451344D01*
X176205181Y-142550714D01*
X176078708Y-142677187D01*
X175979338Y-142825904D01*
X175910891Y-142991149D01*
X175875997Y-143166573D01*
X175875997Y-143345433D01*
X175910891Y-143520857D01*
X175979338Y-143686102D01*
X176078708Y-143834819D01*
X176085501Y-143841612D01*
X176085500Y-148066229D01*
X175886746Y-148148556D01*
X175664325Y-148297172D01*
X175475172Y-148486325D01*
X175350457Y-148672975D01*
X175350457Y-148502000D01*
X175340649Y-148402415D01*
X175311601Y-148306657D01*
X175264429Y-148218405D01*
X175200948Y-148141052D01*
X175123595Y-148077571D01*
X175035343Y-148030399D01*
X174939585Y-148001351D01*
X174840000Y-147991543D01*
X173140000Y-147991543D01*
X173040415Y-148001351D01*
X172944657Y-148030399D01*
X172856405Y-148077571D01*
X172779052Y-148141052D01*
X172715571Y-148218405D01*
X172668399Y-148306657D01*
X172639351Y-148402415D01*
X172629543Y-148502000D01*
X172629543Y-150202000D01*
X172639351Y-150301585D01*
X172651914Y-150343000D01*
X166395000Y-150343000D01*
X166395000Y-140831269D01*
X175826699Y-140831269D01*
X175826699Y-141010129D01*
X175861593Y-141185553D01*
X175930040Y-141350798D01*
X176029410Y-141499515D01*
X176155883Y-141625988D01*
X176304600Y-141725358D01*
X176469845Y-141793805D01*
X176645269Y-141828699D01*
X176824129Y-141828699D01*
X176999553Y-141793805D01*
X177164798Y-141725358D01*
X177313515Y-141625988D01*
X177383804Y-141555699D01*
X184467542Y-141555699D01*
X184587184Y-141675341D01*
X184735901Y-141774711D01*
X184901146Y-141843158D01*
X185076570Y-141878052D01*
X185255430Y-141878052D01*
X185430854Y-141843158D01*
X185596099Y-141774711D01*
X185744816Y-141675341D01*
X185871289Y-141548868D01*
X185970659Y-141400151D01*
X186039106Y-141234906D01*
X186074000Y-141059482D01*
X186074000Y-140880622D01*
X186039106Y-140705198D01*
X185970659Y-140539953D01*
X185871289Y-140391236D01*
X185744816Y-140264763D01*
X185596099Y-140165393D01*
X185430854Y-140096946D01*
X185255430Y-140062052D01*
X185076570Y-140062052D01*
X184901146Y-140096946D01*
X184735901Y-140165393D01*
X184587184Y-140264763D01*
X184566248Y-140285699D01*
X177383804Y-140285699D01*
X177313515Y-140215410D01*
X177164798Y-140116040D01*
X176999553Y-140047593D01*
X176824129Y-140012699D01*
X176645269Y-140012699D01*
X176469845Y-140047593D01*
X176304600Y-140116040D01*
X176155883Y-140215410D01*
X176029410Y-140341883D01*
X175930040Y-140490600D01*
X175861593Y-140655845D01*
X175826699Y-140831269D01*
X166395000Y-140831269D01*
X166395000Y-136278570D01*
X172290000Y-136278570D01*
X172290000Y-136457430D01*
X172324894Y-136632854D01*
X172393341Y-136798099D01*
X172492711Y-136946816D01*
X172619184Y-137073289D01*
X172767901Y-137172659D01*
X172933146Y-137241106D01*
X173108570Y-137276000D01*
X173287430Y-137276000D01*
X173462854Y-137241106D01*
X173628099Y-137172659D01*
X173776816Y-137073289D01*
X173903289Y-136946816D01*
X174002659Y-136798099D01*
X174071106Y-136632854D01*
X174106000Y-136457430D01*
X174106000Y-136447827D01*
X174727328Y-135826500D01*
X177722395Y-135826500D01*
X177729184Y-135833289D01*
X177877901Y-135932659D01*
X178043146Y-136001106D01*
X178218570Y-136036000D01*
X178397430Y-136036000D01*
X178572854Y-136001106D01*
X178690312Y-135952453D01*
X178670000Y-136054570D01*
X178670000Y-136064171D01*
X176464673Y-138269500D01*
X173783605Y-138269500D01*
X173776816Y-138262711D01*
X173628099Y-138163341D01*
X173462854Y-138094894D01*
X173287430Y-138060000D01*
X173108570Y-138060000D01*
X172933146Y-138094894D01*
X172767901Y-138163341D01*
X172619184Y-138262711D01*
X172492711Y-138389184D01*
X172393341Y-138537901D01*
X172324894Y-138703146D01*
X172290000Y-138878570D01*
X172290000Y-139057430D01*
X172324894Y-139232854D01*
X172393341Y-139398099D01*
X172492711Y-139546816D01*
X172619184Y-139673289D01*
X172767901Y-139772659D01*
X172933146Y-139841106D01*
X173108570Y-139876000D01*
X173287430Y-139876000D01*
X173462854Y-139841106D01*
X173628099Y-139772659D01*
X173776816Y-139673289D01*
X173783605Y-139666500D01*
X176719702Y-139666500D01*
X176754000Y-139669878D01*
X176788298Y-139666500D01*
X176788309Y-139666500D01*
X176890930Y-139656393D01*
X177022597Y-139616452D01*
X177143943Y-139551591D01*
X177250303Y-139464303D01*
X177272175Y-139437652D01*
X179657829Y-137052000D01*
X179667430Y-137052000D01*
X179842854Y-137017106D01*
X180008099Y-136948659D01*
X180156816Y-136849289D01*
X180283289Y-136722816D01*
X180382659Y-136574099D01*
X180451106Y-136408854D01*
X180486000Y-136233430D01*
X180486000Y-136054570D01*
X180451106Y-135879146D01*
X180382659Y-135713901D01*
X180283289Y-135565184D01*
X180156816Y-135438711D01*
X180008099Y-135339341D01*
X179842854Y-135270894D01*
X179667430Y-135236000D01*
X179488570Y-135236000D01*
X179313146Y-135270894D01*
X179195688Y-135319547D01*
X179216000Y-135217430D01*
X179216000Y-135038570D01*
X179181106Y-134863146D01*
X179112659Y-134697901D01*
X179013289Y-134549184D01*
X178886816Y-134422711D01*
X178738099Y-134323341D01*
X178572854Y-134254894D01*
X178397430Y-134220000D01*
X178218570Y-134220000D01*
X178043146Y-134254894D01*
X177877901Y-134323341D01*
X177729184Y-134422711D01*
X177722395Y-134429500D01*
X174472298Y-134429500D01*
X174438000Y-134426122D01*
X174403702Y-134429500D01*
X174403691Y-134429500D01*
X174301070Y-134439607D01*
X174169403Y-134479548D01*
X174112917Y-134509740D01*
X174048056Y-134544409D01*
X173968346Y-134609826D01*
X173968343Y-134609829D01*
X173941697Y-134631697D01*
X173919829Y-134658343D01*
X173118173Y-135460000D01*
X173108570Y-135460000D01*
X172933146Y-135494894D01*
X172767901Y-135563341D01*
X172619184Y-135662711D01*
X172492711Y-135789184D01*
X172393341Y-135937901D01*
X172324894Y-136103146D01*
X172290000Y-136278570D01*
X166395000Y-136278570D01*
X166395000Y-133598000D01*
X171869542Y-133598000D01*
X171879350Y-133697585D01*
X171908398Y-133793344D01*
X171955570Y-133881595D01*
X172019052Y-133958948D01*
X172096405Y-134022430D01*
X172184656Y-134069602D01*
X172280415Y-134098650D01*
X172380000Y-134108458D01*
X172976000Y-134106000D01*
X173103000Y-133979000D01*
X173103000Y-132975000D01*
X173357000Y-132975000D01*
X173357000Y-133979000D01*
X173484000Y-134106000D01*
X174080000Y-134108458D01*
X174179585Y-134098650D01*
X174275344Y-134069602D01*
X174363595Y-134022430D01*
X174440948Y-133958948D01*
X174504430Y-133881595D01*
X174551602Y-133793344D01*
X174580650Y-133697585D01*
X174590458Y-133598000D01*
X178469542Y-133598000D01*
X178479350Y-133697585D01*
X178508398Y-133793344D01*
X178555570Y-133881595D01*
X178619052Y-133958948D01*
X178696405Y-134022430D01*
X178784656Y-134069602D01*
X178880415Y-134098650D01*
X178980000Y-134108458D01*
X179576000Y-134106000D01*
X179703000Y-133979000D01*
X179703000Y-132975000D01*
X179957000Y-132975000D01*
X179957000Y-133979000D01*
X180084000Y-134106000D01*
X180680000Y-134108458D01*
X180779585Y-134098650D01*
X180875344Y-134069602D01*
X180963595Y-134022430D01*
X181040948Y-133958948D01*
X181104430Y-133881595D01*
X181151602Y-133793344D01*
X181180650Y-133697585D01*
X181190458Y-133598000D01*
X181188000Y-133102000D01*
X181061000Y-132975000D01*
X179957000Y-132975000D01*
X179703000Y-132975000D01*
X178599000Y-132975000D01*
X178472000Y-133102000D01*
X178469542Y-133598000D01*
X174590458Y-133598000D01*
X174588000Y-133102000D01*
X174461000Y-132975000D01*
X173357000Y-132975000D01*
X173103000Y-132975000D01*
X171999000Y-132975000D01*
X171872000Y-133102000D01*
X171869542Y-133598000D01*
X166395000Y-133598000D01*
X166395000Y-131148000D01*
X171669542Y-131148000D01*
X171679350Y-131247585D01*
X171708398Y-131343344D01*
X171755570Y-131431595D01*
X171819052Y-131508948D01*
X171896405Y-131572430D01*
X171984656Y-131619602D01*
X172080415Y-131648650D01*
X172133285Y-131653857D01*
X172096405Y-131673570D01*
X172019052Y-131737052D01*
X171955570Y-131814405D01*
X171908398Y-131902656D01*
X171879350Y-131998415D01*
X171869542Y-132098000D01*
X171872000Y-132594000D01*
X171999000Y-132721000D01*
X173103000Y-132721000D01*
X173103000Y-132701000D01*
X173357000Y-132701000D01*
X173357000Y-132721000D01*
X174242464Y-132721000D01*
X174315146Y-132751106D01*
X174490570Y-132786000D01*
X174669430Y-132786000D01*
X174844854Y-132751106D01*
X175010099Y-132682659D01*
X175158816Y-132583289D01*
X175285289Y-132456816D01*
X175384659Y-132308099D01*
X175453106Y-132142854D01*
X175488000Y-131967430D01*
X175488000Y-131788570D01*
X177572000Y-131788570D01*
X177572000Y-131967430D01*
X177606894Y-132142854D01*
X177675341Y-132308099D01*
X177774711Y-132456816D01*
X177901184Y-132583289D01*
X178049901Y-132682659D01*
X178215146Y-132751106D01*
X178390570Y-132786000D01*
X178569430Y-132786000D01*
X178744854Y-132751106D01*
X178817536Y-132721000D01*
X179703000Y-132721000D01*
X179703000Y-132701000D01*
X179957000Y-132701000D01*
X179957000Y-132721000D01*
X181061000Y-132721000D01*
X181188000Y-132594000D01*
X181190458Y-132098000D01*
X181180650Y-131998415D01*
X181151602Y-131902656D01*
X181104430Y-131814405D01*
X181040948Y-131737052D01*
X180963595Y-131673570D01*
X180926715Y-131653857D01*
X180979585Y-131648650D01*
X181075344Y-131619602D01*
X181163595Y-131572430D01*
X181240948Y-131508948D01*
X181304430Y-131431595D01*
X181351602Y-131343344D01*
X181380650Y-131247585D01*
X181390458Y-131148000D01*
X181388000Y-130302000D01*
X181261000Y-130175000D01*
X180257000Y-130175000D01*
X180257000Y-130195000D01*
X180003000Y-130195000D01*
X180003000Y-130175000D01*
X178999000Y-130175000D01*
X178872000Y-130302000D01*
X178869807Y-131056652D01*
X178744854Y-131004894D01*
X178569430Y-130970000D01*
X178390570Y-130970000D01*
X178215146Y-131004894D01*
X178049901Y-131073341D01*
X177901184Y-131172711D01*
X177774711Y-131299184D01*
X177675341Y-131447901D01*
X177606894Y-131613146D01*
X177572000Y-131788570D01*
X175488000Y-131788570D01*
X175453106Y-131613146D01*
X175384659Y-131447901D01*
X175285289Y-131299184D01*
X175158816Y-131172711D01*
X175010099Y-131073341D01*
X174844854Y-131004894D01*
X174669430Y-130970000D01*
X174490570Y-130970000D01*
X174315146Y-131004894D01*
X174190193Y-131056652D01*
X174188000Y-130302000D01*
X174061000Y-130175000D01*
X173057000Y-130175000D01*
X173057000Y-130195000D01*
X172803000Y-130195000D01*
X172803000Y-130175000D01*
X171799000Y-130175000D01*
X171672000Y-130302000D01*
X171669542Y-131148000D01*
X166395000Y-131148000D01*
X166395000Y-128549000D01*
X171865418Y-128549000D01*
X171819052Y-128587052D01*
%TA.AperFunction,Conductor*%
D15*
G36*
X171819052Y-128587052D02*
G01*
X171755570Y-128664405D01*
X171708398Y-128752656D01*
X171679350Y-128848415D01*
X171669542Y-128948000D01*
X171672000Y-129794000D01*
X171799000Y-129921000D01*
X172803000Y-129921000D01*
X172803000Y-129901000D01*
X173057000Y-129901000D01*
X173057000Y-129921000D01*
X174061000Y-129921000D01*
X174188000Y-129794000D01*
X174190458Y-128948000D01*
X174180650Y-128848415D01*
X174151602Y-128752656D01*
X174104430Y-128664405D01*
X174040948Y-128587052D01*
X173994582Y-128549000D01*
X179065418Y-128549000D01*
X179019052Y-128587052D01*
X178955570Y-128664405D01*
X178908398Y-128752656D01*
X178879350Y-128848415D01*
X178869542Y-128948000D01*
X178872000Y-129794000D01*
X178999000Y-129921000D01*
X180003000Y-129921000D01*
X180003000Y-129901000D01*
X180257000Y-129901000D01*
X180257000Y-129921000D01*
X181261000Y-129921000D01*
X181388000Y-129794000D01*
X181390458Y-128948000D01*
X181380650Y-128848415D01*
X181351602Y-128752656D01*
X181304430Y-128664405D01*
X181240948Y-128587052D01*
X181194582Y-128549000D01*
X186665000Y-128549000D01*
X186665001Y-150343000D01*
X179994989Y-150343000D01*
X180156459Y-150166731D01*
X180294529Y-149939119D01*
X180385541Y-149688944D01*
X180295054Y-149479000D01*
X179197000Y-149479000D01*
X179197000Y-149499000D01*
X178943000Y-149499000D01*
X178943000Y-149479000D01*
X178923000Y-149479000D01*
X178923000Y-149225000D01*
X178943000Y-149225000D01*
X178943000Y-148127569D01*
X179197000Y-148127569D01*
X179197000Y-149225000D01*
X180295054Y-149225000D01*
X180385541Y-149015056D01*
X180294529Y-148764881D01*
X180156459Y-148537269D01*
X179976637Y-148340966D01*
X179761973Y-148183517D01*
X179520717Y-148070972D01*
X179406943Y-148036465D01*
X179197000Y-148127569D01*
X178943000Y-148127569D01*
X178733057Y-148036465D01*
X178619283Y-148070972D01*
X178378027Y-148183517D01*
X178163363Y-148340966D01*
X177983541Y-148537269D01*
X177845471Y-148764881D01*
X177803960Y-148878987D01*
X177733444Y-148708746D01*
X177584828Y-148486325D01*
X177482500Y-148383997D01*
X177482500Y-143841605D01*
X177489286Y-143834819D01*
X177588656Y-143686102D01*
X177657103Y-143520857D01*
X177691997Y-143345433D01*
X177691997Y-143166573D01*
X177657103Y-142991149D01*
X177588656Y-142825904D01*
X177489286Y-142677187D01*
X177362813Y-142550714D01*
X177214096Y-142451344D01*
X177048851Y-142382897D01*
X176873427Y-142348003D01*
X176694567Y-142348003D01*
X176519143Y-142382897D01*
X176353898Y-142451344D01*
X176205181Y-142550714D01*
X176078708Y-142677187D01*
X175979338Y-142825904D01*
X175910891Y-142991149D01*
X175875997Y-143166573D01*
X175875997Y-143345433D01*
X175910891Y-143520857D01*
X175979338Y-143686102D01*
X176078708Y-143834819D01*
X176085501Y-143841612D01*
X176085500Y-148066229D01*
X175886746Y-148148556D01*
X175664325Y-148297172D01*
X175475172Y-148486325D01*
X175350457Y-148672975D01*
X175350457Y-148502000D01*
X175340649Y-148402415D01*
X175311601Y-148306657D01*
X175264429Y-148218405D01*
X175200948Y-148141052D01*
X175123595Y-148077571D01*
X175035343Y-148030399D01*
X174939585Y-148001351D01*
X174840000Y-147991543D01*
X173140000Y-147991543D01*
X173040415Y-148001351D01*
X172944657Y-148030399D01*
X172856405Y-148077571D01*
X172779052Y-148141052D01*
X172715571Y-148218405D01*
X172668399Y-148306657D01*
X172639351Y-148402415D01*
X172629543Y-148502000D01*
X172629543Y-150202000D01*
X172639351Y-150301585D01*
X172651914Y-150343000D01*
X166395000Y-150343000D01*
X166395000Y-140831269D01*
X175826699Y-140831269D01*
X175826699Y-141010129D01*
X175861593Y-141185553D01*
X175930040Y-141350798D01*
X176029410Y-141499515D01*
X176155883Y-141625988D01*
X176304600Y-141725358D01*
X176469845Y-141793805D01*
X176645269Y-141828699D01*
X176824129Y-141828699D01*
X176999553Y-141793805D01*
X177164798Y-141725358D01*
X177313515Y-141625988D01*
X177383804Y-141555699D01*
X184467542Y-141555699D01*
X184587184Y-141675341D01*
X184735901Y-141774711D01*
X184901146Y-141843158D01*
X185076570Y-141878052D01*
X185255430Y-141878052D01*
X185430854Y-141843158D01*
X185596099Y-141774711D01*
X185744816Y-141675341D01*
X185871289Y-141548868D01*
X185970659Y-141400151D01*
X186039106Y-141234906D01*
X186074000Y-141059482D01*
X186074000Y-140880622D01*
X186039106Y-140705198D01*
X185970659Y-140539953D01*
X185871289Y-140391236D01*
X185744816Y-140264763D01*
X185596099Y-140165393D01*
X185430854Y-140096946D01*
X185255430Y-140062052D01*
X185076570Y-140062052D01*
X184901146Y-140096946D01*
X184735901Y-140165393D01*
X184587184Y-140264763D01*
X184566248Y-140285699D01*
X177383804Y-140285699D01*
X177313515Y-140215410D01*
X177164798Y-140116040D01*
X176999553Y-140047593D01*
X176824129Y-140012699D01*
X176645269Y-140012699D01*
X176469845Y-140047593D01*
X176304600Y-140116040D01*
X176155883Y-140215410D01*
X176029410Y-140341883D01*
X175930040Y-140490600D01*
X175861593Y-140655845D01*
X175826699Y-140831269D01*
X166395000Y-140831269D01*
X166395000Y-136278570D01*
X172290000Y-136278570D01*
X172290000Y-136457430D01*
X172324894Y-136632854D01*
X172393341Y-136798099D01*
X172492711Y-136946816D01*
X172619184Y-137073289D01*
X172767901Y-137172659D01*
X172933146Y-137241106D01*
X173108570Y-137276000D01*
X173287430Y-137276000D01*
X173462854Y-137241106D01*
X173628099Y-137172659D01*
X173776816Y-137073289D01*
X173903289Y-136946816D01*
X174002659Y-136798099D01*
X174071106Y-136632854D01*
X174106000Y-136457430D01*
X174106000Y-136447827D01*
X174727328Y-135826500D01*
X177722395Y-135826500D01*
X177729184Y-135833289D01*
X177877901Y-135932659D01*
X178043146Y-136001106D01*
X178218570Y-136036000D01*
X178397430Y-136036000D01*
X178572854Y-136001106D01*
X178690312Y-135952453D01*
X178670000Y-136054570D01*
X178670000Y-136064171D01*
X176464673Y-138269500D01*
X173783605Y-138269500D01*
X173776816Y-138262711D01*
X173628099Y-138163341D01*
X173462854Y-138094894D01*
X173287430Y-138060000D01*
X173108570Y-138060000D01*
X172933146Y-138094894D01*
X172767901Y-138163341D01*
X172619184Y-138262711D01*
X172492711Y-138389184D01*
X172393341Y-138537901D01*
X172324894Y-138703146D01*
X172290000Y-138878570D01*
X172290000Y-139057430D01*
X172324894Y-139232854D01*
X172393341Y-139398099D01*
X172492711Y-139546816D01*
X172619184Y-139673289D01*
X172767901Y-139772659D01*
X172933146Y-139841106D01*
X173108570Y-139876000D01*
X173287430Y-139876000D01*
X173462854Y-139841106D01*
X173628099Y-139772659D01*
X173776816Y-139673289D01*
X173783605Y-139666500D01*
X176719702Y-139666500D01*
X176754000Y-139669878D01*
X176788298Y-139666500D01*
X176788309Y-139666500D01*
X176890930Y-139656393D01*
X177022597Y-139616452D01*
X177143943Y-139551591D01*
X177250303Y-139464303D01*
X177272175Y-139437652D01*
X179657829Y-137052000D01*
X179667430Y-137052000D01*
X179842854Y-137017106D01*
X180008099Y-136948659D01*
X180156816Y-136849289D01*
X180283289Y-136722816D01*
X180382659Y-136574099D01*
X180451106Y-136408854D01*
X180486000Y-136233430D01*
X180486000Y-136054570D01*
X180451106Y-135879146D01*
X180382659Y-135713901D01*
X180283289Y-135565184D01*
X180156816Y-135438711D01*
X180008099Y-135339341D01*
X179842854Y-135270894D01*
X179667430Y-135236000D01*
X179488570Y-135236000D01*
X179313146Y-135270894D01*
X179195688Y-135319547D01*
X179216000Y-135217430D01*
X179216000Y-135038570D01*
X179181106Y-134863146D01*
X179112659Y-134697901D01*
X179013289Y-134549184D01*
X178886816Y-134422711D01*
X178738099Y-134323341D01*
X178572854Y-134254894D01*
X178397430Y-134220000D01*
X178218570Y-134220000D01*
X178043146Y-134254894D01*
X177877901Y-134323341D01*
X177729184Y-134422711D01*
X177722395Y-134429500D01*
X174472298Y-134429500D01*
X174438000Y-134426122D01*
X174403702Y-134429500D01*
X174403691Y-134429500D01*
X174301070Y-134439607D01*
X174169403Y-134479548D01*
X174112917Y-134509740D01*
X174048056Y-134544409D01*
X173968346Y-134609826D01*
X173968343Y-134609829D01*
X173941697Y-134631697D01*
X173919829Y-134658343D01*
X173118173Y-135460000D01*
X173108570Y-135460000D01*
X172933146Y-135494894D01*
X172767901Y-135563341D01*
X172619184Y-135662711D01*
X172492711Y-135789184D01*
X172393341Y-135937901D01*
X172324894Y-136103146D01*
X172290000Y-136278570D01*
X166395000Y-136278570D01*
X166395000Y-133598000D01*
X171869542Y-133598000D01*
X171879350Y-133697585D01*
X171908398Y-133793344D01*
X171955570Y-133881595D01*
X172019052Y-133958948D01*
X172096405Y-134022430D01*
X172184656Y-134069602D01*
X172280415Y-134098650D01*
X172380000Y-134108458D01*
X172976000Y-134106000D01*
X173103000Y-133979000D01*
X173103000Y-132975000D01*
X173357000Y-132975000D01*
X173357000Y-133979000D01*
X173484000Y-134106000D01*
X174080000Y-134108458D01*
X174179585Y-134098650D01*
X174275344Y-134069602D01*
X174363595Y-134022430D01*
X174440948Y-133958948D01*
X174504430Y-133881595D01*
X174551602Y-133793344D01*
X174580650Y-133697585D01*
X174590458Y-133598000D01*
X178469542Y-133598000D01*
X178479350Y-133697585D01*
X178508398Y-133793344D01*
X178555570Y-133881595D01*
X178619052Y-133958948D01*
X178696405Y-134022430D01*
X178784656Y-134069602D01*
X178880415Y-134098650D01*
X178980000Y-134108458D01*
X179576000Y-134106000D01*
X179703000Y-133979000D01*
X179703000Y-132975000D01*
X179957000Y-132975000D01*
X179957000Y-133979000D01*
X180084000Y-134106000D01*
X180680000Y-134108458D01*
X180779585Y-134098650D01*
X180875344Y-134069602D01*
X180963595Y-134022430D01*
X181040948Y-133958948D01*
X181104430Y-133881595D01*
X181151602Y-133793344D01*
X181180650Y-133697585D01*
X181190458Y-133598000D01*
X181188000Y-133102000D01*
X181061000Y-132975000D01*
X179957000Y-132975000D01*
X179703000Y-132975000D01*
X178599000Y-132975000D01*
X178472000Y-133102000D01*
X178469542Y-133598000D01*
X174590458Y-133598000D01*
X174588000Y-133102000D01*
X174461000Y-132975000D01*
X173357000Y-132975000D01*
X173103000Y-132975000D01*
X171999000Y-132975000D01*
X171872000Y-133102000D01*
X171869542Y-133598000D01*
X166395000Y-133598000D01*
X166395000Y-131148000D01*
X171669542Y-131148000D01*
X171679350Y-131247585D01*
X171708398Y-131343344D01*
X171755570Y-131431595D01*
X171819052Y-131508948D01*
X171896405Y-131572430D01*
X171984656Y-131619602D01*
X172080415Y-131648650D01*
X172133285Y-131653857D01*
X172096405Y-131673570D01*
X172019052Y-131737052D01*
X171955570Y-131814405D01*
X171908398Y-131902656D01*
X171879350Y-131998415D01*
X171869542Y-132098000D01*
X171872000Y-132594000D01*
X171999000Y-132721000D01*
X173103000Y-132721000D01*
X173103000Y-132701000D01*
X173357000Y-132701000D01*
X173357000Y-132721000D01*
X174242464Y-132721000D01*
X174315146Y-132751106D01*
X174490570Y-132786000D01*
X174669430Y-132786000D01*
X174844854Y-132751106D01*
X175010099Y-132682659D01*
X175158816Y-132583289D01*
X175285289Y-132456816D01*
X175384659Y-132308099D01*
X175453106Y-132142854D01*
X175488000Y-131967430D01*
X175488000Y-131788570D01*
X177572000Y-131788570D01*
X177572000Y-131967430D01*
X177606894Y-132142854D01*
X177675341Y-132308099D01*
X177774711Y-132456816D01*
X177901184Y-132583289D01*
X178049901Y-132682659D01*
X178215146Y-132751106D01*
X178390570Y-132786000D01*
X178569430Y-132786000D01*
X178744854Y-132751106D01*
X178817536Y-132721000D01*
X179703000Y-132721000D01*
X179703000Y-132701000D01*
X179957000Y-132701000D01*
X179957000Y-132721000D01*
X181061000Y-132721000D01*
X181188000Y-132594000D01*
X181190458Y-132098000D01*
X181180650Y-131998415D01*
X181151602Y-131902656D01*
X181104430Y-131814405D01*
X181040948Y-131737052D01*
X180963595Y-131673570D01*
X180926715Y-131653857D01*
X180979585Y-131648650D01*
X181075344Y-131619602D01*
X181163595Y-131572430D01*
X181240948Y-131508948D01*
X181304430Y-131431595D01*
X181351602Y-131343344D01*
X181380650Y-131247585D01*
X181390458Y-131148000D01*
X181388000Y-130302000D01*
X181261000Y-130175000D01*
X180257000Y-130175000D01*
X180257000Y-130195000D01*
X180003000Y-130195000D01*
X180003000Y-130175000D01*
X178999000Y-130175000D01*
X178872000Y-130302000D01*
X178869807Y-131056652D01*
X178744854Y-131004894D01*
X178569430Y-130970000D01*
X178390570Y-130970000D01*
X178215146Y-131004894D01*
X178049901Y-131073341D01*
X177901184Y-131172711D01*
X177774711Y-131299184D01*
X177675341Y-131447901D01*
X177606894Y-131613146D01*
X177572000Y-131788570D01*
X175488000Y-131788570D01*
X175453106Y-131613146D01*
X175384659Y-131447901D01*
X175285289Y-131299184D01*
X175158816Y-131172711D01*
X175010099Y-131073341D01*
X174844854Y-131004894D01*
X174669430Y-130970000D01*
X174490570Y-130970000D01*
X174315146Y-131004894D01*
X174190193Y-131056652D01*
X174188000Y-130302000D01*
X174061000Y-130175000D01*
X173057000Y-130175000D01*
X173057000Y-130195000D01*
X172803000Y-130195000D01*
X172803000Y-130175000D01*
X171799000Y-130175000D01*
X171672000Y-130302000D01*
X171669542Y-131148000D01*
X166395000Y-131148000D01*
X166395000Y-128549000D01*
X171865418Y-128549000D01*
X171819052Y-128587052D01*
G37*
%TD.AperFunction*%
%TD*%
M02*
