%TF.GenerationSoftware,KiCad,Pcbnew,(5.1.9)-1*%
%TF.CreationDate,2022-01-17T18:13:00-05:00*%
%TF.ProjectId,USBUPDI,55534255-5044-4492-9e6b-696361645f70,rev?*%
%TF.SameCoordinates,Original*%
%TF.FileFunction,Legend,Bot*%
%TF.FilePolarity,Positive*%
%FSLAX46Y46*%
G04 Gerber Fmt 4.6, Leading zero omitted, Abs format (unit mm)*
G04 Created by KiCad (PCBNEW (5.1.9)-1) date 2022-01-17 18:13:00*
%MOMM*%
%LPD*%
G01*
G04 APERTURE LIST*
%ADD10C,0.100000*%
%ADD11C,0.010000*%
G04 APERTURE END LIST*
D10*
X167097904Y-128525476D02*
X166297904Y-128525476D01*
X166297904Y-128715952D01*
X166336000Y-128830238D01*
X166412190Y-128906428D01*
X166488380Y-128944523D01*
X166640761Y-128982619D01*
X166755047Y-128982619D01*
X166907428Y-128944523D01*
X166983619Y-128906428D01*
X167059809Y-128830238D01*
X167097904Y-128715952D01*
X167097904Y-128525476D01*
X167059809Y-129630238D02*
X167097904Y-129554047D01*
X167097904Y-129401666D01*
X167059809Y-129325476D01*
X166983619Y-129287380D01*
X166678857Y-129287380D01*
X166602666Y-129325476D01*
X166564571Y-129401666D01*
X166564571Y-129554047D01*
X166602666Y-129630238D01*
X166678857Y-129668333D01*
X166755047Y-129668333D01*
X166831238Y-129287380D01*
X167059809Y-129973095D02*
X167097904Y-130049285D01*
X167097904Y-130201666D01*
X167059809Y-130277857D01*
X166983619Y-130315952D01*
X166945523Y-130315952D01*
X166869333Y-130277857D01*
X166831238Y-130201666D01*
X166831238Y-130087380D01*
X166793142Y-130011190D01*
X166716952Y-129973095D01*
X166678857Y-129973095D01*
X166602666Y-130011190D01*
X166564571Y-130087380D01*
X166564571Y-130201666D01*
X166602666Y-130277857D01*
X167097904Y-130658809D02*
X166564571Y-130658809D01*
X166297904Y-130658809D02*
X166336000Y-130620714D01*
X166374095Y-130658809D01*
X166336000Y-130696904D01*
X166297904Y-130658809D01*
X166374095Y-130658809D01*
X166564571Y-131382619D02*
X167212190Y-131382619D01*
X167288380Y-131344523D01*
X167326476Y-131306428D01*
X167364571Y-131230238D01*
X167364571Y-131115952D01*
X167326476Y-131039761D01*
X167059809Y-131382619D02*
X167097904Y-131306428D01*
X167097904Y-131154047D01*
X167059809Y-131077857D01*
X167021714Y-131039761D01*
X166945523Y-131001666D01*
X166716952Y-131001666D01*
X166640761Y-131039761D01*
X166602666Y-131077857D01*
X166564571Y-131154047D01*
X166564571Y-131306428D01*
X166602666Y-131382619D01*
X166564571Y-131763571D02*
X167097904Y-131763571D01*
X166640761Y-131763571D02*
X166602666Y-131801666D01*
X166564571Y-131877857D01*
X166564571Y-131992142D01*
X166602666Y-132068333D01*
X166678857Y-132106428D01*
X167097904Y-132106428D01*
X167059809Y-132792142D02*
X167097904Y-132715952D01*
X167097904Y-132563571D01*
X167059809Y-132487380D01*
X166983619Y-132449285D01*
X166678857Y-132449285D01*
X166602666Y-132487380D01*
X166564571Y-132563571D01*
X166564571Y-132715952D01*
X166602666Y-132792142D01*
X166678857Y-132830238D01*
X166755047Y-132830238D01*
X166831238Y-132449285D01*
X167097904Y-133515952D02*
X166297904Y-133515952D01*
X167059809Y-133515952D02*
X167097904Y-133439761D01*
X167097904Y-133287380D01*
X167059809Y-133211190D01*
X167021714Y-133173095D01*
X166945523Y-133135000D01*
X166716952Y-133135000D01*
X166640761Y-133173095D01*
X166602666Y-133211190D01*
X166564571Y-133287380D01*
X166564571Y-133439761D01*
X166602666Y-133515952D01*
X167097904Y-134506428D02*
X166297904Y-134506428D01*
X166602666Y-134506428D02*
X166564571Y-134582619D01*
X166564571Y-134735000D01*
X166602666Y-134811190D01*
X166640761Y-134849285D01*
X166716952Y-134887380D01*
X166945523Y-134887380D01*
X167021714Y-134849285D01*
X167059809Y-134811190D01*
X167097904Y-134735000D01*
X167097904Y-134582619D01*
X167059809Y-134506428D01*
X166564571Y-135154047D02*
X167097904Y-135344523D01*
X166564571Y-135535000D02*
X167097904Y-135344523D01*
X167288380Y-135268333D01*
X167326476Y-135230238D01*
X167364571Y-135154047D01*
X168169333Y-128487380D02*
X168169333Y-128868333D01*
X168397904Y-128411190D02*
X167597904Y-128677857D01*
X168397904Y-128944523D01*
X168397904Y-129325476D02*
X168359809Y-129249285D01*
X168283619Y-129211190D01*
X167597904Y-129211190D01*
X168397904Y-129973095D02*
X167978857Y-129973095D01*
X167902666Y-129935000D01*
X167864571Y-129858809D01*
X167864571Y-129706428D01*
X167902666Y-129630238D01*
X168359809Y-129973095D02*
X168397904Y-129896904D01*
X168397904Y-129706428D01*
X168359809Y-129630238D01*
X168283619Y-129592142D01*
X168207428Y-129592142D01*
X168131238Y-129630238D01*
X168093142Y-129706428D01*
X168093142Y-129896904D01*
X168055047Y-129973095D01*
X167864571Y-130354047D02*
X168397904Y-130354047D01*
X167940761Y-130354047D02*
X167902666Y-130392142D01*
X167864571Y-130468333D01*
X167864571Y-130582619D01*
X167902666Y-130658809D01*
X167978857Y-130696904D01*
X168397904Y-130696904D01*
X168397904Y-131687380D02*
X167597904Y-131687380D01*
X167978857Y-131687380D02*
X167978857Y-132144523D01*
X168397904Y-132144523D02*
X167597904Y-132144523D01*
X168321714Y-132525476D02*
X168359809Y-132563571D01*
X168397904Y-132525476D01*
X168359809Y-132487380D01*
X168321714Y-132525476D01*
X168397904Y-132525476D01*
D11*
%TO.C,REF\u002A\u002A*%
G36*
X186069918Y-129425744D02*
G01*
X186097568Y-129481201D01*
X186148480Y-129530148D01*
X186167338Y-129543629D01*
X186192015Y-129558314D01*
X186218816Y-129567842D01*
X186254587Y-129573293D01*
X186306169Y-129575747D01*
X186374267Y-129576286D01*
X186467588Y-129573852D01*
X186537657Y-129565394D01*
X186589931Y-129549174D01*
X186629869Y-129523454D01*
X186662929Y-129486497D01*
X186664886Y-129483782D01*
X186684908Y-129447360D01*
X186694815Y-129403502D01*
X186697257Y-129347724D01*
X186697257Y-129257048D01*
X186785283Y-129257010D01*
X186834308Y-129256166D01*
X186863065Y-129251024D01*
X186880311Y-129237587D01*
X186894808Y-129211858D01*
X186897769Y-129205679D01*
X186911648Y-129176764D01*
X186920414Y-129154376D01*
X186921171Y-129137729D01*
X186911023Y-129126036D01*
X186887073Y-129118510D01*
X186846426Y-129114366D01*
X186786186Y-129112815D01*
X186703455Y-129113071D01*
X186595339Y-129114349D01*
X186563000Y-129114748D01*
X186451524Y-129116185D01*
X186378603Y-129117472D01*
X186378603Y-129256971D01*
X186440499Y-129257755D01*
X186480997Y-129261240D01*
X186507708Y-129269124D01*
X186528244Y-129283105D01*
X186538260Y-129292597D01*
X186567567Y-129331404D01*
X186569952Y-129365763D01*
X186545750Y-129401216D01*
X186544857Y-129402114D01*
X186526153Y-129416539D01*
X186500732Y-129425313D01*
X186461584Y-129429739D01*
X186401697Y-129431118D01*
X186388430Y-129431143D01*
X186305901Y-129427812D01*
X186248691Y-129416969D01*
X186213766Y-129397340D01*
X186198094Y-129367650D01*
X186196514Y-129350491D01*
X186203926Y-129309766D01*
X186228330Y-129281832D01*
X186272980Y-129265017D01*
X186341130Y-129257650D01*
X186378603Y-129256971D01*
X186378603Y-129117472D01*
X186365245Y-129117708D01*
X186300333Y-129119677D01*
X186252958Y-129122450D01*
X186219290Y-129126388D01*
X186195498Y-129131849D01*
X186177753Y-129139192D01*
X186162224Y-129148777D01*
X186156381Y-129152887D01*
X186101185Y-129207405D01*
X186069890Y-129276336D01*
X186061165Y-129356072D01*
X186069918Y-129425744D01*
G37*
X186069918Y-129425744D02*
X186097568Y-129481201D01*
X186148480Y-129530148D01*
X186167338Y-129543629D01*
X186192015Y-129558314D01*
X186218816Y-129567842D01*
X186254587Y-129573293D01*
X186306169Y-129575747D01*
X186374267Y-129576286D01*
X186467588Y-129573852D01*
X186537657Y-129565394D01*
X186589931Y-129549174D01*
X186629869Y-129523454D01*
X186662929Y-129486497D01*
X186664886Y-129483782D01*
X186684908Y-129447360D01*
X186694815Y-129403502D01*
X186697257Y-129347724D01*
X186697257Y-129257048D01*
X186785283Y-129257010D01*
X186834308Y-129256166D01*
X186863065Y-129251024D01*
X186880311Y-129237587D01*
X186894808Y-129211858D01*
X186897769Y-129205679D01*
X186911648Y-129176764D01*
X186920414Y-129154376D01*
X186921171Y-129137729D01*
X186911023Y-129126036D01*
X186887073Y-129118510D01*
X186846426Y-129114366D01*
X186786186Y-129112815D01*
X186703455Y-129113071D01*
X186595339Y-129114349D01*
X186563000Y-129114748D01*
X186451524Y-129116185D01*
X186378603Y-129117472D01*
X186378603Y-129256971D01*
X186440499Y-129257755D01*
X186480997Y-129261240D01*
X186507708Y-129269124D01*
X186528244Y-129283105D01*
X186538260Y-129292597D01*
X186567567Y-129331404D01*
X186569952Y-129365763D01*
X186545750Y-129401216D01*
X186544857Y-129402114D01*
X186526153Y-129416539D01*
X186500732Y-129425313D01*
X186461584Y-129429739D01*
X186401697Y-129431118D01*
X186388430Y-129431143D01*
X186305901Y-129427812D01*
X186248691Y-129416969D01*
X186213766Y-129397340D01*
X186198094Y-129367650D01*
X186196514Y-129350491D01*
X186203926Y-129309766D01*
X186228330Y-129281832D01*
X186272980Y-129265017D01*
X186341130Y-129257650D01*
X186378603Y-129256971D01*
X186378603Y-129117472D01*
X186365245Y-129117708D01*
X186300333Y-129119677D01*
X186252958Y-129122450D01*
X186219290Y-129126388D01*
X186195498Y-129131849D01*
X186177753Y-129139192D01*
X186162224Y-129148777D01*
X186156381Y-129152887D01*
X186101185Y-129207405D01*
X186069890Y-129276336D01*
X186061165Y-129356072D01*
X186069918Y-129425744D01*
G36*
X186077780Y-130542093D02*
G01*
X186104723Y-130588672D01*
X186131466Y-130621057D01*
X186159484Y-130644742D01*
X186193748Y-130661059D01*
X186239227Y-130671339D01*
X186300892Y-130676914D01*
X186383711Y-130679116D01*
X186443246Y-130679371D01*
X186662391Y-130679371D01*
X186690044Y-130617686D01*
X186717697Y-130556000D01*
X186477670Y-130548743D01*
X186388028Y-130545744D01*
X186322962Y-130542598D01*
X186278026Y-130538701D01*
X186248770Y-130533447D01*
X186230748Y-130526231D01*
X186219511Y-130516450D01*
X186217079Y-130513312D01*
X186198083Y-130465761D01*
X186205600Y-130417697D01*
X186225543Y-130389086D01*
X186239675Y-130377447D01*
X186258220Y-130369391D01*
X186286334Y-130364271D01*
X186329173Y-130361441D01*
X186391895Y-130360256D01*
X186457261Y-130360057D01*
X186539268Y-130360018D01*
X186597316Y-130358614D01*
X186636465Y-130353914D01*
X186661780Y-130343987D01*
X186678323Y-130326903D01*
X186691156Y-130300732D01*
X186704491Y-130265775D01*
X186719007Y-130227596D01*
X186461389Y-130232141D01*
X186368519Y-130233971D01*
X186299889Y-130236112D01*
X186250711Y-130239181D01*
X186216198Y-130243794D01*
X186191562Y-130250568D01*
X186172016Y-130260119D01*
X186154770Y-130271634D01*
X186099680Y-130327190D01*
X186067822Y-130394980D01*
X186060191Y-130468713D01*
X186077780Y-130542093D01*
G37*
X186077780Y-130542093D02*
X186104723Y-130588672D01*
X186131466Y-130621057D01*
X186159484Y-130644742D01*
X186193748Y-130661059D01*
X186239227Y-130671339D01*
X186300892Y-130676914D01*
X186383711Y-130679116D01*
X186443246Y-130679371D01*
X186662391Y-130679371D01*
X186690044Y-130617686D01*
X186717697Y-130556000D01*
X186477670Y-130548743D01*
X186388028Y-130545744D01*
X186322962Y-130542598D01*
X186278026Y-130538701D01*
X186248770Y-130533447D01*
X186230748Y-130526231D01*
X186219511Y-130516450D01*
X186217079Y-130513312D01*
X186198083Y-130465761D01*
X186205600Y-130417697D01*
X186225543Y-130389086D01*
X186239675Y-130377447D01*
X186258220Y-130369391D01*
X186286334Y-130364271D01*
X186329173Y-130361441D01*
X186391895Y-130360256D01*
X186457261Y-130360057D01*
X186539268Y-130360018D01*
X186597316Y-130358614D01*
X186636465Y-130353914D01*
X186661780Y-130343987D01*
X186678323Y-130326903D01*
X186691156Y-130300732D01*
X186704491Y-130265775D01*
X186719007Y-130227596D01*
X186461389Y-130232141D01*
X186368519Y-130233971D01*
X186299889Y-130236112D01*
X186250711Y-130239181D01*
X186216198Y-130243794D01*
X186191562Y-130250568D01*
X186172016Y-130260119D01*
X186154770Y-130271634D01*
X186099680Y-130327190D01*
X186067822Y-130394980D01*
X186060191Y-130468713D01*
X186077780Y-130542093D01*
G36*
X186071962Y-128867115D02*
G01*
X186107733Y-128935145D01*
X186165301Y-128985351D01*
X186202312Y-129003185D01*
X186257882Y-129017063D01*
X186328096Y-129024167D01*
X186404727Y-129024840D01*
X186479552Y-129019427D01*
X186544342Y-129008270D01*
X186590873Y-128991714D01*
X186598887Y-128986626D01*
X186658707Y-128926355D01*
X186694535Y-128854769D01*
X186705020Y-128777092D01*
X186688810Y-128698548D01*
X186679092Y-128676689D01*
X186649143Y-128634122D01*
X186609433Y-128596763D01*
X186604397Y-128593232D01*
X186580124Y-128578881D01*
X186554178Y-128569394D01*
X186520022Y-128563790D01*
X186471119Y-128561086D01*
X186400935Y-128560299D01*
X186385200Y-128560286D01*
X186380192Y-128560322D01*
X186380192Y-128705429D01*
X186446430Y-128706273D01*
X186490386Y-128709596D01*
X186518779Y-128716583D01*
X186538325Y-128728416D01*
X186544857Y-128734457D01*
X186569680Y-128769186D01*
X186568548Y-128802903D01*
X186547016Y-128836995D01*
X186524029Y-128857329D01*
X186490478Y-128869371D01*
X186437569Y-128876134D01*
X186431399Y-128876598D01*
X186335513Y-128877752D01*
X186264299Y-128865688D01*
X186218194Y-128840570D01*
X186197635Y-128802560D01*
X186196514Y-128788992D01*
X186202152Y-128753364D01*
X186221686Y-128728994D01*
X186259042Y-128714093D01*
X186318150Y-128706875D01*
X186380192Y-128705429D01*
X186380192Y-128560322D01*
X186310413Y-128560826D01*
X186258159Y-128563096D01*
X186221949Y-128568068D01*
X186195299Y-128576713D01*
X186171722Y-128590005D01*
X186167338Y-128592943D01*
X186108249Y-128642313D01*
X186073947Y-128696109D01*
X186060331Y-128761602D01*
X186059665Y-128783842D01*
X186071962Y-128867115D01*
G37*
X186071962Y-128867115D02*
X186107733Y-128935145D01*
X186165301Y-128985351D01*
X186202312Y-129003185D01*
X186257882Y-129017063D01*
X186328096Y-129024167D01*
X186404727Y-129024840D01*
X186479552Y-129019427D01*
X186544342Y-129008270D01*
X186590873Y-128991714D01*
X186598887Y-128986626D01*
X186658707Y-128926355D01*
X186694535Y-128854769D01*
X186705020Y-128777092D01*
X186688810Y-128698548D01*
X186679092Y-128676689D01*
X186649143Y-128634122D01*
X186609433Y-128596763D01*
X186604397Y-128593232D01*
X186580124Y-128578881D01*
X186554178Y-128569394D01*
X186520022Y-128563790D01*
X186471119Y-128561086D01*
X186400935Y-128560299D01*
X186385200Y-128560286D01*
X186380192Y-128560322D01*
X186380192Y-128705429D01*
X186446430Y-128706273D01*
X186490386Y-128709596D01*
X186518779Y-128716583D01*
X186538325Y-128728416D01*
X186544857Y-128734457D01*
X186569680Y-128769186D01*
X186568548Y-128802903D01*
X186547016Y-128836995D01*
X186524029Y-128857329D01*
X186490478Y-128869371D01*
X186437569Y-128876134D01*
X186431399Y-128876598D01*
X186335513Y-128877752D01*
X186264299Y-128865688D01*
X186218194Y-128840570D01*
X186197635Y-128802560D01*
X186196514Y-128788992D01*
X186202152Y-128753364D01*
X186221686Y-128728994D01*
X186259042Y-128714093D01*
X186318150Y-128706875D01*
X186380192Y-128705429D01*
X186380192Y-128560322D01*
X186310413Y-128560826D01*
X186258159Y-128563096D01*
X186221949Y-128568068D01*
X186195299Y-128576713D01*
X186171722Y-128590005D01*
X186167338Y-128592943D01*
X186108249Y-128642313D01*
X186073947Y-128696109D01*
X186060331Y-128761602D01*
X186059665Y-128783842D01*
X186071962Y-128867115D01*
G36*
X186081239Y-129994303D02*
G01*
X186119735Y-130051527D01*
X186175335Y-130095749D01*
X186246086Y-130122167D01*
X186298162Y-130127510D01*
X186319893Y-130126903D01*
X186336531Y-130121822D01*
X186351437Y-130107855D01*
X186367973Y-130080589D01*
X186389498Y-130035612D01*
X186419374Y-129968511D01*
X186419524Y-129968171D01*
X186447813Y-129906407D01*
X186472933Y-129855759D01*
X186492179Y-129821404D01*
X186502848Y-129808518D01*
X186502934Y-129808514D01*
X186526166Y-129819872D01*
X186551774Y-129846431D01*
X186570221Y-129876923D01*
X186573886Y-129892370D01*
X186561212Y-129934515D01*
X186529471Y-129970808D01*
X186494572Y-129988517D01*
X186468845Y-130005552D01*
X186439546Y-130038922D01*
X186414235Y-130078149D01*
X186400471Y-130112756D01*
X186399714Y-130119993D01*
X186412160Y-130128139D01*
X186443972Y-130128630D01*
X186486866Y-130122643D01*
X186532558Y-130111357D01*
X186572761Y-130095950D01*
X186574322Y-130095171D01*
X186639062Y-130048804D01*
X186683097Y-129988711D01*
X186704711Y-129920465D01*
X186702185Y-129849638D01*
X186673804Y-129781804D01*
X186671808Y-129778788D01*
X186623448Y-129725427D01*
X186560352Y-129690340D01*
X186477387Y-129670922D01*
X186454078Y-129668316D01*
X186344055Y-129663701D01*
X186292748Y-129669233D01*
X186292748Y-129808514D01*
X186324753Y-129810324D01*
X186334093Y-129820222D01*
X186327105Y-129844898D01*
X186310587Y-129883795D01*
X186289881Y-129927275D01*
X186289333Y-129928356D01*
X186269949Y-129965209D01*
X186257013Y-129980000D01*
X186243451Y-129976353D01*
X186225632Y-129960995D01*
X186199845Y-129921923D01*
X186197950Y-129879846D01*
X186216717Y-129842103D01*
X186252915Y-129816034D01*
X186292748Y-129808514D01*
X186292748Y-129669233D01*
X186256027Y-129673194D01*
X186186212Y-129697550D01*
X186137302Y-129731456D01*
X186087878Y-129792653D01*
X186063359Y-129860063D01*
X186061797Y-129928880D01*
X186081239Y-129994303D01*
G37*
X186081239Y-129994303D02*
X186119735Y-130051527D01*
X186175335Y-130095749D01*
X186246086Y-130122167D01*
X186298162Y-130127510D01*
X186319893Y-130126903D01*
X186336531Y-130121822D01*
X186351437Y-130107855D01*
X186367973Y-130080589D01*
X186389498Y-130035612D01*
X186419374Y-129968511D01*
X186419524Y-129968171D01*
X186447813Y-129906407D01*
X186472933Y-129855759D01*
X186492179Y-129821404D01*
X186502848Y-129808518D01*
X186502934Y-129808514D01*
X186526166Y-129819872D01*
X186551774Y-129846431D01*
X186570221Y-129876923D01*
X186573886Y-129892370D01*
X186561212Y-129934515D01*
X186529471Y-129970808D01*
X186494572Y-129988517D01*
X186468845Y-130005552D01*
X186439546Y-130038922D01*
X186414235Y-130078149D01*
X186400471Y-130112756D01*
X186399714Y-130119993D01*
X186412160Y-130128139D01*
X186443972Y-130128630D01*
X186486866Y-130122643D01*
X186532558Y-130111357D01*
X186572761Y-130095950D01*
X186574322Y-130095171D01*
X186639062Y-130048804D01*
X186683097Y-129988711D01*
X186704711Y-129920465D01*
X186702185Y-129849638D01*
X186673804Y-129781804D01*
X186671808Y-129778788D01*
X186623448Y-129725427D01*
X186560352Y-129690340D01*
X186477387Y-129670922D01*
X186454078Y-129668316D01*
X186344055Y-129663701D01*
X186292748Y-129669233D01*
X186292748Y-129808514D01*
X186324753Y-129810324D01*
X186334093Y-129820222D01*
X186327105Y-129844898D01*
X186310587Y-129883795D01*
X186289881Y-129927275D01*
X186289333Y-129928356D01*
X186269949Y-129965209D01*
X186257013Y-129980000D01*
X186243451Y-129976353D01*
X186225632Y-129960995D01*
X186199845Y-129921923D01*
X186197950Y-129879846D01*
X186216717Y-129842103D01*
X186252915Y-129816034D01*
X186292748Y-129808514D01*
X186292748Y-129669233D01*
X186256027Y-129673194D01*
X186186212Y-129697550D01*
X186137302Y-129731456D01*
X186087878Y-129792653D01*
X186063359Y-129860063D01*
X186061797Y-129928880D01*
X186081239Y-129994303D01*
G36*
X186001289Y-131201886D02*
G01*
X186060613Y-131206139D01*
X186095572Y-131211025D01*
X186110820Y-131217795D01*
X186111015Y-131227702D01*
X186109195Y-131230914D01*
X186096015Y-131273644D01*
X186096785Y-131329227D01*
X186110333Y-131385737D01*
X186127861Y-131421082D01*
X186155861Y-131457321D01*
X186187549Y-131483813D01*
X186227813Y-131501999D01*
X186281543Y-131513322D01*
X186353626Y-131519222D01*
X186448951Y-131521143D01*
X186467237Y-131521177D01*
X186672646Y-131521200D01*
X186688580Y-131475491D01*
X186699420Y-131443027D01*
X186704468Y-131425215D01*
X186704514Y-131424691D01*
X186690828Y-131422937D01*
X186653076Y-131421444D01*
X186596224Y-131420326D01*
X186525234Y-131419697D01*
X186482073Y-131419600D01*
X186396973Y-131419398D01*
X186335981Y-131418358D01*
X186294177Y-131415831D01*
X186266642Y-131411164D01*
X186248456Y-131403707D01*
X186234698Y-131392811D01*
X186228073Y-131386007D01*
X186201375Y-131339272D01*
X186199375Y-131288272D01*
X186221955Y-131242001D01*
X186230107Y-131233444D01*
X186245436Y-131220893D01*
X186263618Y-131212188D01*
X186289909Y-131206631D01*
X186329562Y-131203526D01*
X186387832Y-131202176D01*
X186468173Y-131201886D01*
X186672646Y-131201886D01*
X186688580Y-131156177D01*
X186699420Y-131123713D01*
X186704468Y-131105901D01*
X186704514Y-131105377D01*
X186690623Y-131104037D01*
X186651439Y-131102828D01*
X186590700Y-131101801D01*
X186512141Y-131101002D01*
X186419498Y-131100481D01*
X186316509Y-131100286D01*
X185919342Y-131100286D01*
X185899444Y-131147457D01*
X185879547Y-131194629D01*
X186001289Y-131201886D01*
G37*
X186001289Y-131201886D02*
X186060613Y-131206139D01*
X186095572Y-131211025D01*
X186110820Y-131217795D01*
X186111015Y-131227702D01*
X186109195Y-131230914D01*
X186096015Y-131273644D01*
X186096785Y-131329227D01*
X186110333Y-131385737D01*
X186127861Y-131421082D01*
X186155861Y-131457321D01*
X186187549Y-131483813D01*
X186227813Y-131501999D01*
X186281543Y-131513322D01*
X186353626Y-131519222D01*
X186448951Y-131521143D01*
X186467237Y-131521177D01*
X186672646Y-131521200D01*
X186688580Y-131475491D01*
X186699420Y-131443027D01*
X186704468Y-131425215D01*
X186704514Y-131424691D01*
X186690828Y-131422937D01*
X186653076Y-131421444D01*
X186596224Y-131420326D01*
X186525234Y-131419697D01*
X186482073Y-131419600D01*
X186396973Y-131419398D01*
X186335981Y-131418358D01*
X186294177Y-131415831D01*
X186266642Y-131411164D01*
X186248456Y-131403707D01*
X186234698Y-131392811D01*
X186228073Y-131386007D01*
X186201375Y-131339272D01*
X186199375Y-131288272D01*
X186221955Y-131242001D01*
X186230107Y-131233444D01*
X186245436Y-131220893D01*
X186263618Y-131212188D01*
X186289909Y-131206631D01*
X186329562Y-131203526D01*
X186387832Y-131202176D01*
X186468173Y-131201886D01*
X186672646Y-131201886D01*
X186688580Y-131156177D01*
X186699420Y-131123713D01*
X186704468Y-131105901D01*
X186704514Y-131105377D01*
X186690623Y-131104037D01*
X186651439Y-131102828D01*
X186590700Y-131101801D01*
X186512141Y-131101002D01*
X186419498Y-131100481D01*
X186316509Y-131100286D01*
X185919342Y-131100286D01*
X185899444Y-131147457D01*
X185879547Y-131194629D01*
X186001289Y-131201886D01*
G36*
X186100968Y-131865744D02*
G01*
X186122087Y-131922616D01*
X186122493Y-131923267D01*
X186148380Y-131958440D01*
X186178633Y-131984407D01*
X186218058Y-132002670D01*
X186271462Y-132014732D01*
X186343651Y-132022096D01*
X186439432Y-132026264D01*
X186453078Y-132026629D01*
X186658842Y-132031876D01*
X186681678Y-131987716D01*
X186697110Y-131955763D01*
X186704423Y-131936470D01*
X186704514Y-131935578D01*
X186691022Y-131932239D01*
X186654626Y-131929587D01*
X186601452Y-131927956D01*
X186558393Y-131927600D01*
X186488641Y-131927592D01*
X186444837Y-131924403D01*
X186423944Y-131913288D01*
X186422925Y-131889501D01*
X186438741Y-131848296D01*
X186467815Y-131786086D01*
X186491963Y-131740341D01*
X186512913Y-131716813D01*
X186535747Y-131709896D01*
X186536877Y-131709886D01*
X186576212Y-131721299D01*
X186597462Y-131755092D01*
X186600539Y-131806809D01*
X186600006Y-131844061D01*
X186610735Y-131863703D01*
X186636505Y-131875952D01*
X186669337Y-131883002D01*
X186687966Y-131872842D01*
X186690632Y-131869017D01*
X186701340Y-131833001D01*
X186702856Y-131782566D01*
X186695759Y-131730626D01*
X186682788Y-131693822D01*
X186639585Y-131642938D01*
X186579446Y-131614014D01*
X186532462Y-131608286D01*
X186490082Y-131612657D01*
X186455488Y-131628475D01*
X186424763Y-131659797D01*
X186393990Y-131710678D01*
X186359252Y-131785176D01*
X186357288Y-131789714D01*
X186326287Y-131856821D01*
X186300862Y-131898232D01*
X186278014Y-131915981D01*
X186254745Y-131912107D01*
X186228056Y-131888643D01*
X186221914Y-131881627D01*
X186198100Y-131834630D01*
X186199103Y-131785933D01*
X186222451Y-131743522D01*
X186265675Y-131715384D01*
X186274160Y-131712769D01*
X186315308Y-131687308D01*
X186335128Y-131655001D01*
X186354770Y-131608286D01*
X186303950Y-131608286D01*
X186230082Y-131622496D01*
X186162327Y-131664675D01*
X186139661Y-131686624D01*
X186110569Y-131736517D01*
X186097400Y-131799967D01*
X186100968Y-131865744D01*
G37*
X186100968Y-131865744D02*
X186122087Y-131922616D01*
X186122493Y-131923267D01*
X186148380Y-131958440D01*
X186178633Y-131984407D01*
X186218058Y-132002670D01*
X186271462Y-132014732D01*
X186343651Y-132022096D01*
X186439432Y-132026264D01*
X186453078Y-132026629D01*
X186658842Y-132031876D01*
X186681678Y-131987716D01*
X186697110Y-131955763D01*
X186704423Y-131936470D01*
X186704514Y-131935578D01*
X186691022Y-131932239D01*
X186654626Y-131929587D01*
X186601452Y-131927956D01*
X186558393Y-131927600D01*
X186488641Y-131927592D01*
X186444837Y-131924403D01*
X186423944Y-131913288D01*
X186422925Y-131889501D01*
X186438741Y-131848296D01*
X186467815Y-131786086D01*
X186491963Y-131740341D01*
X186512913Y-131716813D01*
X186535747Y-131709896D01*
X186536877Y-131709886D01*
X186576212Y-131721299D01*
X186597462Y-131755092D01*
X186600539Y-131806809D01*
X186600006Y-131844061D01*
X186610735Y-131863703D01*
X186636505Y-131875952D01*
X186669337Y-131883002D01*
X186687966Y-131872842D01*
X186690632Y-131869017D01*
X186701340Y-131833001D01*
X186702856Y-131782566D01*
X186695759Y-131730626D01*
X186682788Y-131693822D01*
X186639585Y-131642938D01*
X186579446Y-131614014D01*
X186532462Y-131608286D01*
X186490082Y-131612657D01*
X186455488Y-131628475D01*
X186424763Y-131659797D01*
X186393990Y-131710678D01*
X186359252Y-131785176D01*
X186357288Y-131789714D01*
X186326287Y-131856821D01*
X186300862Y-131898232D01*
X186278014Y-131915981D01*
X186254745Y-131912107D01*
X186228056Y-131888643D01*
X186221914Y-131881627D01*
X186198100Y-131834630D01*
X186199103Y-131785933D01*
X186222451Y-131743522D01*
X186265675Y-131715384D01*
X186274160Y-131712769D01*
X186315308Y-131687308D01*
X186335128Y-131655001D01*
X186354770Y-131608286D01*
X186303950Y-131608286D01*
X186230082Y-131622496D01*
X186162327Y-131664675D01*
X186139661Y-131686624D01*
X186110569Y-131736517D01*
X186097400Y-131799967D01*
X186100968Y-131865744D01*
G36*
X186099755Y-132355926D02*
G01*
X186124084Y-132421858D01*
X186167117Y-132475273D01*
X186197409Y-132496164D01*
X186252994Y-132518939D01*
X186293186Y-132518466D01*
X186320217Y-132494562D01*
X186324813Y-132485717D01*
X186339144Y-132447530D01*
X186335472Y-132428028D01*
X186311407Y-132421422D01*
X186298114Y-132421086D01*
X186249210Y-132408992D01*
X186214999Y-132377471D01*
X186198476Y-132333659D01*
X186202634Y-132284695D01*
X186224227Y-132244894D01*
X186236544Y-132231450D01*
X186251487Y-132221921D01*
X186274075Y-132215485D01*
X186309328Y-132211317D01*
X186362266Y-132208597D01*
X186437907Y-132206502D01*
X186461857Y-132205960D01*
X186543790Y-132203981D01*
X186601455Y-132201731D01*
X186639608Y-132198357D01*
X186663004Y-132193006D01*
X186676398Y-132184824D01*
X186684545Y-132172959D01*
X186688144Y-132165362D01*
X186700452Y-132133102D01*
X186704514Y-132114111D01*
X186690948Y-132107836D01*
X186649934Y-132104006D01*
X186580999Y-132102600D01*
X186483669Y-132103598D01*
X186468657Y-132103908D01*
X186379859Y-132106101D01*
X186315019Y-132108693D01*
X186269067Y-132112382D01*
X186236935Y-132117864D01*
X186213553Y-132125835D01*
X186193852Y-132136993D01*
X186185410Y-132142830D01*
X186148057Y-132176296D01*
X186119003Y-132213727D01*
X186116467Y-132218309D01*
X186096443Y-132285426D01*
X186099755Y-132355926D01*
G37*
X186099755Y-132355926D02*
X186124084Y-132421858D01*
X186167117Y-132475273D01*
X186197409Y-132496164D01*
X186252994Y-132518939D01*
X186293186Y-132518466D01*
X186320217Y-132494562D01*
X186324813Y-132485717D01*
X186339144Y-132447530D01*
X186335472Y-132428028D01*
X186311407Y-132421422D01*
X186298114Y-132421086D01*
X186249210Y-132408992D01*
X186214999Y-132377471D01*
X186198476Y-132333659D01*
X186202634Y-132284695D01*
X186224227Y-132244894D01*
X186236544Y-132231450D01*
X186251487Y-132221921D01*
X186274075Y-132215485D01*
X186309328Y-132211317D01*
X186362266Y-132208597D01*
X186437907Y-132206502D01*
X186461857Y-132205960D01*
X186543790Y-132203981D01*
X186601455Y-132201731D01*
X186639608Y-132198357D01*
X186663004Y-132193006D01*
X186676398Y-132184824D01*
X186684545Y-132172959D01*
X186688144Y-132165362D01*
X186700452Y-132133102D01*
X186704514Y-132114111D01*
X186690948Y-132107836D01*
X186649934Y-132104006D01*
X186580999Y-132102600D01*
X186483669Y-132103598D01*
X186468657Y-132103908D01*
X186379859Y-132106101D01*
X186315019Y-132108693D01*
X186269067Y-132112382D01*
X186236935Y-132117864D01*
X186213553Y-132125835D01*
X186193852Y-132136993D01*
X186185410Y-132142830D01*
X186148057Y-132176296D01*
X186119003Y-132213727D01*
X186116467Y-132218309D01*
X186096443Y-132285426D01*
X186099755Y-132355926D01*
G36*
X186215358Y-133016117D02*
G01*
X186323837Y-133015933D01*
X186407287Y-133015219D01*
X186469704Y-133013675D01*
X186515085Y-133011001D01*
X186547429Y-133006894D01*
X186570733Y-133001055D01*
X186588995Y-132993182D01*
X186599418Y-132987221D01*
X186655945Y-132937855D01*
X186691377Y-132875264D01*
X186704090Y-132806013D01*
X186692463Y-132736668D01*
X186671568Y-132695375D01*
X186635422Y-132652025D01*
X186591276Y-132622481D01*
X186533462Y-132604655D01*
X186456313Y-132596463D01*
X186399714Y-132595302D01*
X186395647Y-132595458D01*
X186395647Y-132696857D01*
X186460550Y-132697476D01*
X186503514Y-132700314D01*
X186531622Y-132706840D01*
X186551953Y-132718523D01*
X186567288Y-132732483D01*
X186596890Y-132779365D01*
X186599419Y-132829701D01*
X186574705Y-132877276D01*
X186571356Y-132880979D01*
X186553935Y-132896783D01*
X186533209Y-132906693D01*
X186502362Y-132912058D01*
X186454577Y-132914228D01*
X186401748Y-132914571D01*
X186335381Y-132913827D01*
X186291106Y-132910748D01*
X186262009Y-132904061D01*
X186241173Y-132892496D01*
X186230107Y-132883013D01*
X186202198Y-132838960D01*
X186198843Y-132788224D01*
X186220159Y-132739796D01*
X186228073Y-132730450D01*
X186245647Y-132714540D01*
X186266587Y-132704610D01*
X186297782Y-132699278D01*
X186346122Y-132697163D01*
X186395647Y-132696857D01*
X186395647Y-132595458D01*
X186308568Y-132598810D01*
X186240086Y-132610726D01*
X186188600Y-132633135D01*
X186148443Y-132668124D01*
X186127861Y-132695375D01*
X186105625Y-132744907D01*
X186095304Y-132802316D01*
X186098067Y-132855682D01*
X186109212Y-132885543D01*
X186112383Y-132897261D01*
X186100557Y-132905037D01*
X186068866Y-132910465D01*
X186020593Y-132914571D01*
X185966829Y-132919067D01*
X185934482Y-132925313D01*
X185915985Y-132936676D01*
X185903770Y-132956528D01*
X185898362Y-132969000D01*
X185878601Y-133016171D01*
X186215358Y-133016117D01*
G37*
X186215358Y-133016117D02*
X186323837Y-133015933D01*
X186407287Y-133015219D01*
X186469704Y-133013675D01*
X186515085Y-133011001D01*
X186547429Y-133006894D01*
X186570733Y-133001055D01*
X186588995Y-132993182D01*
X186599418Y-132987221D01*
X186655945Y-132937855D01*
X186691377Y-132875264D01*
X186704090Y-132806013D01*
X186692463Y-132736668D01*
X186671568Y-132695375D01*
X186635422Y-132652025D01*
X186591276Y-132622481D01*
X186533462Y-132604655D01*
X186456313Y-132596463D01*
X186399714Y-132595302D01*
X186395647Y-132595458D01*
X186395647Y-132696857D01*
X186460550Y-132697476D01*
X186503514Y-132700314D01*
X186531622Y-132706840D01*
X186551953Y-132718523D01*
X186567288Y-132732483D01*
X186596890Y-132779365D01*
X186599419Y-132829701D01*
X186574705Y-132877276D01*
X186571356Y-132880979D01*
X186553935Y-132896783D01*
X186533209Y-132906693D01*
X186502362Y-132912058D01*
X186454577Y-132914228D01*
X186401748Y-132914571D01*
X186335381Y-132913827D01*
X186291106Y-132910748D01*
X186262009Y-132904061D01*
X186241173Y-132892496D01*
X186230107Y-132883013D01*
X186202198Y-132838960D01*
X186198843Y-132788224D01*
X186220159Y-132739796D01*
X186228073Y-132730450D01*
X186245647Y-132714540D01*
X186266587Y-132704610D01*
X186297782Y-132699278D01*
X186346122Y-132697163D01*
X186395647Y-132696857D01*
X186395647Y-132595458D01*
X186308568Y-132598810D01*
X186240086Y-132610726D01*
X186188600Y-132633135D01*
X186148443Y-132668124D01*
X186127861Y-132695375D01*
X186105625Y-132744907D01*
X186095304Y-132802316D01*
X186098067Y-132855682D01*
X186109212Y-132885543D01*
X186112383Y-132897261D01*
X186100557Y-132905037D01*
X186068866Y-132910465D01*
X186020593Y-132914571D01*
X185966829Y-132919067D01*
X185934482Y-132925313D01*
X185915985Y-132936676D01*
X185903770Y-132956528D01*
X185898362Y-132969000D01*
X185878601Y-133016171D01*
X186215358Y-133016117D01*
G36*
X186108663Y-133605833D02*
G01*
X186146850Y-133608048D01*
X186204886Y-133609784D01*
X186278180Y-133610899D01*
X186355055Y-133611257D01*
X186615196Y-133611257D01*
X186661127Y-133565326D01*
X186689429Y-133533675D01*
X186700893Y-133505890D01*
X186700168Y-133467915D01*
X186698321Y-133452840D01*
X186692948Y-133405726D01*
X186689869Y-133366756D01*
X186689585Y-133357257D01*
X186691445Y-133325233D01*
X186696114Y-133279432D01*
X186698321Y-133261674D01*
X186701735Y-133218057D01*
X186694320Y-133188745D01*
X186671427Y-133159680D01*
X186661127Y-133149188D01*
X186615196Y-133103257D01*
X186128602Y-133103257D01*
X186111758Y-133140226D01*
X186099282Y-133172059D01*
X186094914Y-133190683D01*
X186108718Y-133195458D01*
X186147286Y-133199921D01*
X186206356Y-133203775D01*
X186281663Y-133206722D01*
X186345286Y-133208143D01*
X186595657Y-133212114D01*
X186600556Y-133246759D01*
X186597131Y-133278268D01*
X186586041Y-133293708D01*
X186565308Y-133298023D01*
X186521145Y-133301708D01*
X186459146Y-133304469D01*
X186384909Y-133306012D01*
X186346706Y-133306235D01*
X186126783Y-133306457D01*
X186110849Y-133352166D01*
X186100015Y-133384518D01*
X186094962Y-133402115D01*
X186094914Y-133402623D01*
X186108648Y-133404388D01*
X186146730Y-133406329D01*
X186204482Y-133408282D01*
X186277227Y-133410084D01*
X186345286Y-133411343D01*
X186595657Y-133415314D01*
X186595657Y-133502400D01*
X186367240Y-133506396D01*
X186138822Y-133510392D01*
X186116868Y-133552847D01*
X186101793Y-133584192D01*
X186094951Y-133602744D01*
X186094914Y-133603279D01*
X186108663Y-133605833D01*
G37*
X186108663Y-133605833D02*
X186146850Y-133608048D01*
X186204886Y-133609784D01*
X186278180Y-133610899D01*
X186355055Y-133611257D01*
X186615196Y-133611257D01*
X186661127Y-133565326D01*
X186689429Y-133533675D01*
X186700893Y-133505890D01*
X186700168Y-133467915D01*
X186698321Y-133452840D01*
X186692948Y-133405726D01*
X186689869Y-133366756D01*
X186689585Y-133357257D01*
X186691445Y-133325233D01*
X186696114Y-133279432D01*
X186698321Y-133261674D01*
X186701735Y-133218057D01*
X186694320Y-133188745D01*
X186671427Y-133159680D01*
X186661127Y-133149188D01*
X186615196Y-133103257D01*
X186128602Y-133103257D01*
X186111758Y-133140226D01*
X186099282Y-133172059D01*
X186094914Y-133190683D01*
X186108718Y-133195458D01*
X186147286Y-133199921D01*
X186206356Y-133203775D01*
X186281663Y-133206722D01*
X186345286Y-133208143D01*
X186595657Y-133212114D01*
X186600556Y-133246759D01*
X186597131Y-133278268D01*
X186586041Y-133293708D01*
X186565308Y-133298023D01*
X186521145Y-133301708D01*
X186459146Y-133304469D01*
X186384909Y-133306012D01*
X186346706Y-133306235D01*
X186126783Y-133306457D01*
X186110849Y-133352166D01*
X186100015Y-133384518D01*
X186094962Y-133402115D01*
X186094914Y-133402623D01*
X186108648Y-133404388D01*
X186146730Y-133406329D01*
X186204482Y-133408282D01*
X186277227Y-133410084D01*
X186345286Y-133411343D01*
X186595657Y-133415314D01*
X186595657Y-133502400D01*
X186367240Y-133506396D01*
X186138822Y-133510392D01*
X186116868Y-133552847D01*
X186101793Y-133584192D01*
X186094951Y-133602744D01*
X186094914Y-133603279D01*
X186108663Y-133605833D01*
G36*
X186106335Y-133970876D02*
G01*
X186125344Y-134012667D01*
X186148378Y-134045469D01*
X186174133Y-134069503D01*
X186207358Y-134086097D01*
X186252800Y-134096577D01*
X186315207Y-134102271D01*
X186399327Y-134104507D01*
X186454721Y-134104743D01*
X186670826Y-134104743D01*
X186687670Y-134067774D01*
X186699981Y-134038656D01*
X186704514Y-134024231D01*
X186691025Y-134021472D01*
X186654653Y-134019282D01*
X186601542Y-134017942D01*
X186559372Y-134017657D01*
X186498447Y-134016434D01*
X186450115Y-134013136D01*
X186420518Y-134008321D01*
X186414229Y-134004496D01*
X186420652Y-133978783D01*
X186437125Y-133938418D01*
X186459458Y-133891679D01*
X186483457Y-133846845D01*
X186504930Y-133812193D01*
X186519685Y-133796002D01*
X186519845Y-133795938D01*
X186547152Y-133797330D01*
X186573219Y-133809818D01*
X186594392Y-133831743D01*
X186601474Y-133863743D01*
X186600649Y-133891092D01*
X186600042Y-133929826D01*
X186609116Y-133950158D01*
X186633092Y-133962369D01*
X186637613Y-133963909D01*
X186671806Y-133969203D01*
X186692568Y-133955047D01*
X186702462Y-133918148D01*
X186704292Y-133878289D01*
X186690727Y-133806562D01*
X186671355Y-133769432D01*
X186625845Y-133723576D01*
X186569983Y-133699256D01*
X186510957Y-133697073D01*
X186455953Y-133717629D01*
X186421486Y-133748549D01*
X186402189Y-133779420D01*
X186377759Y-133827942D01*
X186352985Y-133884485D01*
X186349199Y-133893910D01*
X186321791Y-133956019D01*
X186297634Y-133991822D01*
X186273619Y-134003337D01*
X186246635Y-133992580D01*
X186225543Y-133974114D01*
X186199572Y-133930469D01*
X186197624Y-133882446D01*
X186217637Y-133838406D01*
X186257551Y-133806709D01*
X186267848Y-133802549D01*
X186305724Y-133778327D01*
X186333842Y-133742965D01*
X186356917Y-133698343D01*
X186291485Y-133698343D01*
X186251506Y-133700969D01*
X186219997Y-133712230D01*
X186186378Y-133737199D01*
X186160484Y-133761169D01*
X186123817Y-133798441D01*
X186104121Y-133827401D01*
X186096220Y-133858505D01*
X186094914Y-133893713D01*
X186106335Y-133970876D01*
G37*
X186106335Y-133970876D02*
X186125344Y-134012667D01*
X186148378Y-134045469D01*
X186174133Y-134069503D01*
X186207358Y-134086097D01*
X186252800Y-134096577D01*
X186315207Y-134102271D01*
X186399327Y-134104507D01*
X186454721Y-134104743D01*
X186670826Y-134104743D01*
X186687670Y-134067774D01*
X186699981Y-134038656D01*
X186704514Y-134024231D01*
X186691025Y-134021472D01*
X186654653Y-134019282D01*
X186601542Y-134017942D01*
X186559372Y-134017657D01*
X186498447Y-134016434D01*
X186450115Y-134013136D01*
X186420518Y-134008321D01*
X186414229Y-134004496D01*
X186420652Y-133978783D01*
X186437125Y-133938418D01*
X186459458Y-133891679D01*
X186483457Y-133846845D01*
X186504930Y-133812193D01*
X186519685Y-133796002D01*
X186519845Y-133795938D01*
X186547152Y-133797330D01*
X186573219Y-133809818D01*
X186594392Y-133831743D01*
X186601474Y-133863743D01*
X186600649Y-133891092D01*
X186600042Y-133929826D01*
X186609116Y-133950158D01*
X186633092Y-133962369D01*
X186637613Y-133963909D01*
X186671806Y-133969203D01*
X186692568Y-133955047D01*
X186702462Y-133918148D01*
X186704292Y-133878289D01*
X186690727Y-133806562D01*
X186671355Y-133769432D01*
X186625845Y-133723576D01*
X186569983Y-133699256D01*
X186510957Y-133697073D01*
X186455953Y-133717629D01*
X186421486Y-133748549D01*
X186402189Y-133779420D01*
X186377759Y-133827942D01*
X186352985Y-133884485D01*
X186349199Y-133893910D01*
X186321791Y-133956019D01*
X186297634Y-133991822D01*
X186273619Y-134003337D01*
X186246635Y-133992580D01*
X186225543Y-133974114D01*
X186199572Y-133930469D01*
X186197624Y-133882446D01*
X186217637Y-133838406D01*
X186257551Y-133806709D01*
X186267848Y-133802549D01*
X186305724Y-133778327D01*
X186333842Y-133742965D01*
X186356917Y-133698343D01*
X186291485Y-133698343D01*
X186251506Y-133700969D01*
X186219997Y-133712230D01*
X186186378Y-133737199D01*
X186160484Y-133761169D01*
X186123817Y-133798441D01*
X186104121Y-133827401D01*
X186096220Y-133858505D01*
X186094914Y-133893713D01*
X186106335Y-133970876D01*
G36*
X186108752Y-134478600D02*
G01*
X186116334Y-134495948D01*
X186149128Y-134537356D01*
X186196547Y-134572765D01*
X186247151Y-134594664D01*
X186272098Y-134598229D01*
X186306927Y-134586279D01*
X186325357Y-134560067D01*
X186336516Y-134531964D01*
X186338572Y-134519095D01*
X186323649Y-134512829D01*
X186291175Y-134500456D01*
X186276502Y-134495028D01*
X186225744Y-134464590D01*
X186200427Y-134420520D01*
X186201206Y-134364010D01*
X186202203Y-134359825D01*
X186216507Y-134329655D01*
X186244393Y-134307476D01*
X186289287Y-134292327D01*
X186354615Y-134283250D01*
X186443804Y-134279286D01*
X186491261Y-134278914D01*
X186566071Y-134278730D01*
X186617069Y-134277522D01*
X186649471Y-134274309D01*
X186668495Y-134268109D01*
X186679356Y-134257940D01*
X186687272Y-134242819D01*
X186687670Y-134241946D01*
X186699981Y-134212828D01*
X186704514Y-134198403D01*
X186690809Y-134196186D01*
X186652925Y-134194289D01*
X186595715Y-134192847D01*
X186524027Y-134191998D01*
X186471565Y-134191829D01*
X186370047Y-134192692D01*
X186293032Y-134196070D01*
X186236023Y-134203142D01*
X186194526Y-134215088D01*
X186164043Y-134233090D01*
X186140080Y-134258327D01*
X186123355Y-134283247D01*
X186101097Y-134343171D01*
X186096076Y-134412911D01*
X186108752Y-134478600D01*
G37*
X186108752Y-134478600D02*
X186116334Y-134495948D01*
X186149128Y-134537356D01*
X186196547Y-134572765D01*
X186247151Y-134594664D01*
X186272098Y-134598229D01*
X186306927Y-134586279D01*
X186325357Y-134560067D01*
X186336516Y-134531964D01*
X186338572Y-134519095D01*
X186323649Y-134512829D01*
X186291175Y-134500456D01*
X186276502Y-134495028D01*
X186225744Y-134464590D01*
X186200427Y-134420520D01*
X186201206Y-134364010D01*
X186202203Y-134359825D01*
X186216507Y-134329655D01*
X186244393Y-134307476D01*
X186289287Y-134292327D01*
X186354615Y-134283250D01*
X186443804Y-134279286D01*
X186491261Y-134278914D01*
X186566071Y-134278730D01*
X186617069Y-134277522D01*
X186649471Y-134274309D01*
X186668495Y-134268109D01*
X186679356Y-134257940D01*
X186687272Y-134242819D01*
X186687670Y-134241946D01*
X186699981Y-134212828D01*
X186704514Y-134198403D01*
X186690809Y-134196186D01*
X186652925Y-134194289D01*
X186595715Y-134192847D01*
X186524027Y-134191998D01*
X186471565Y-134191829D01*
X186370047Y-134192692D01*
X186293032Y-134196070D01*
X186236023Y-134203142D01*
X186194526Y-134215088D01*
X186164043Y-134233090D01*
X186140080Y-134258327D01*
X186123355Y-134283247D01*
X186101097Y-134343171D01*
X186096076Y-134412911D01*
X186108752Y-134478600D01*
G36*
X186116966Y-134979595D02*
G01*
X186154497Y-135037021D01*
X186188096Y-135064719D01*
X186249064Y-135086662D01*
X186297308Y-135088405D01*
X186361816Y-135084457D01*
X186426934Y-134935686D01*
X186460202Y-134863349D01*
X186486964Y-134816084D01*
X186510144Y-134791507D01*
X186532667Y-134787237D01*
X186557455Y-134800889D01*
X186573886Y-134815943D01*
X186600235Y-134859746D01*
X186602081Y-134907389D01*
X186581546Y-134951145D01*
X186540752Y-134983289D01*
X186526347Y-134989038D01*
X186481356Y-135016576D01*
X186462182Y-135048258D01*
X186445779Y-135091714D01*
X186507966Y-135091714D01*
X186550283Y-135087872D01*
X186585969Y-135072823D01*
X186626943Y-135041280D01*
X186632267Y-135036592D01*
X186668720Y-135001506D01*
X186688283Y-134971347D01*
X186697283Y-134933615D01*
X186700230Y-134902335D01*
X186700965Y-134846385D01*
X186691660Y-134806555D01*
X186677846Y-134781708D01*
X186647467Y-134742656D01*
X186614613Y-134715625D01*
X186573294Y-134698517D01*
X186517521Y-134689238D01*
X186441305Y-134685693D01*
X186402622Y-134685410D01*
X186356247Y-134686372D01*
X186356247Y-134774007D01*
X186381126Y-134775023D01*
X186385200Y-134777556D01*
X186379665Y-134794274D01*
X186365017Y-134830249D01*
X186344190Y-134878331D01*
X186339714Y-134888386D01*
X186308814Y-134949152D01*
X186281657Y-134982632D01*
X186256220Y-134989990D01*
X186230481Y-134972391D01*
X186219109Y-134957856D01*
X186196364Y-134905410D01*
X186200122Y-134856322D01*
X186227884Y-134815227D01*
X186277152Y-134786758D01*
X186316257Y-134777631D01*
X186356247Y-134774007D01*
X186356247Y-134686372D01*
X186312249Y-134687285D01*
X186245384Y-134694196D01*
X186196695Y-134707884D01*
X186160849Y-134730096D01*
X186132513Y-134762574D01*
X186123355Y-134776733D01*
X186099507Y-134841053D01*
X186098006Y-134911473D01*
X186116966Y-134979595D01*
G37*
X186116966Y-134979595D02*
X186154497Y-135037021D01*
X186188096Y-135064719D01*
X186249064Y-135086662D01*
X186297308Y-135088405D01*
X186361816Y-135084457D01*
X186426934Y-134935686D01*
X186460202Y-134863349D01*
X186486964Y-134816084D01*
X186510144Y-134791507D01*
X186532667Y-134787237D01*
X186557455Y-134800889D01*
X186573886Y-134815943D01*
X186600235Y-134859746D01*
X186602081Y-134907389D01*
X186581546Y-134951145D01*
X186540752Y-134983289D01*
X186526347Y-134989038D01*
X186481356Y-135016576D01*
X186462182Y-135048258D01*
X186445779Y-135091714D01*
X186507966Y-135091714D01*
X186550283Y-135087872D01*
X186585969Y-135072823D01*
X186626943Y-135041280D01*
X186632267Y-135036592D01*
X186668720Y-135001506D01*
X186688283Y-134971347D01*
X186697283Y-134933615D01*
X186700230Y-134902335D01*
X186700965Y-134846385D01*
X186691660Y-134806555D01*
X186677846Y-134781708D01*
X186647467Y-134742656D01*
X186614613Y-134715625D01*
X186573294Y-134698517D01*
X186517521Y-134689238D01*
X186441305Y-134685693D01*
X186402622Y-134685410D01*
X186356247Y-134686372D01*
X186356247Y-134774007D01*
X186381126Y-134775023D01*
X186385200Y-134777556D01*
X186379665Y-134794274D01*
X186365017Y-134830249D01*
X186344190Y-134878331D01*
X186339714Y-134888386D01*
X186308814Y-134949152D01*
X186281657Y-134982632D01*
X186256220Y-134989990D01*
X186230481Y-134972391D01*
X186219109Y-134957856D01*
X186196364Y-134905410D01*
X186200122Y-134856322D01*
X186227884Y-134815227D01*
X186277152Y-134786758D01*
X186316257Y-134777631D01*
X186356247Y-134774007D01*
X186356247Y-134686372D01*
X186312249Y-134687285D01*
X186245384Y-134694196D01*
X186196695Y-134707884D01*
X186160849Y-134730096D01*
X186132513Y-134762574D01*
X186123355Y-134776733D01*
X186099507Y-134841053D01*
X186098006Y-134911473D01*
X186116966Y-134979595D01*
G36*
X181392348Y-131929910D02*
G01*
X181392778Y-132008454D01*
X181393942Y-132065298D01*
X181396207Y-132104105D01*
X181399940Y-132128538D01*
X181405506Y-132142262D01*
X181413273Y-132148940D01*
X181423605Y-132152236D01*
X181424943Y-132152556D01*
X181449079Y-132157562D01*
X181496701Y-132166829D01*
X181562741Y-132179392D01*
X181642128Y-132194287D01*
X181729796Y-132210551D01*
X181732875Y-132211119D01*
X181818789Y-132227410D01*
X181894696Y-132242652D01*
X181956045Y-132255861D01*
X181998282Y-132266054D01*
X182016855Y-132272248D01*
X182017184Y-132272543D01*
X182026253Y-132290788D01*
X182041367Y-132328405D01*
X182059262Y-132377271D01*
X182059358Y-132377543D01*
X182082493Y-132439093D01*
X182111965Y-132511657D01*
X182141597Y-132580057D01*
X182143062Y-132583294D01*
X182193626Y-132694702D01*
X182025160Y-132941399D01*
X181973803Y-133017077D01*
X181927889Y-133085631D01*
X181890030Y-133143088D01*
X181862837Y-133185476D01*
X181848921Y-133208825D01*
X181847889Y-133211042D01*
X181852484Y-133228010D01*
X181874655Y-133259701D01*
X181915447Y-133307352D01*
X181975905Y-133372198D01*
X182040227Y-133438397D01*
X182103612Y-133502214D01*
X182161451Y-133559329D01*
X182210175Y-133606305D01*
X182246210Y-133639703D01*
X182265984Y-133656085D01*
X182267002Y-133656694D01*
X182280572Y-133658505D01*
X182302733Y-133651683D01*
X182336478Y-133634540D01*
X182384800Y-133605393D01*
X182450692Y-133562555D01*
X182535517Y-133505448D01*
X182610177Y-133454766D01*
X182677140Y-133409461D01*
X182732516Y-133372150D01*
X182772420Y-133345452D01*
X182792962Y-133331985D01*
X182794356Y-133331137D01*
X182814038Y-133332781D01*
X182852293Y-133345245D01*
X182901889Y-133366048D01*
X182917728Y-133373462D01*
X182988290Y-133405814D01*
X183068353Y-133440328D01*
X183137629Y-133468365D01*
X183189045Y-133488568D01*
X183228119Y-133504615D01*
X183248541Y-133513888D01*
X183250114Y-133515041D01*
X183252721Y-133532096D01*
X183259863Y-133572298D01*
X183270523Y-133630302D01*
X183283685Y-133700763D01*
X183298333Y-133778335D01*
X183313449Y-133857672D01*
X183328018Y-133933431D01*
X183341022Y-134000264D01*
X183351445Y-134052828D01*
X183358270Y-134085776D01*
X183360199Y-134093857D01*
X183364962Y-134102205D01*
X183375718Y-134108506D01*
X183396098Y-134113045D01*
X183429734Y-134116104D01*
X183480255Y-134117967D01*
X183551292Y-134118918D01*
X183646476Y-134119240D01*
X183685492Y-134119257D01*
X184002799Y-134119257D01*
X184017839Y-134043057D01*
X184025995Y-134000663D01*
X184037899Y-133937400D01*
X184052116Y-133860962D01*
X184067210Y-133779043D01*
X184071355Y-133756400D01*
X184086053Y-133680806D01*
X184100505Y-133614953D01*
X184113375Y-133564366D01*
X184123322Y-133534574D01*
X184126287Y-133529612D01*
X184147283Y-133517426D01*
X184187967Y-133499953D01*
X184240322Y-133480577D01*
X184251600Y-133476734D01*
X184321523Y-133451339D01*
X184400418Y-133419817D01*
X184471266Y-133388969D01*
X184471595Y-133388817D01*
X184582733Y-133337447D01*
X184831253Y-133506399D01*
X185079772Y-133675352D01*
X185297058Y-133458429D01*
X185361726Y-133392819D01*
X185418733Y-133332979D01*
X185465033Y-133282267D01*
X185497584Y-133244046D01*
X185513343Y-133221675D01*
X185514343Y-133218466D01*
X185506469Y-133199626D01*
X185484578Y-133161180D01*
X185451267Y-133107330D01*
X185409131Y-133042276D01*
X185361943Y-132971940D01*
X185313810Y-132900555D01*
X185271928Y-132836908D01*
X185238871Y-132785041D01*
X185217218Y-132748995D01*
X185209543Y-132732867D01*
X185216037Y-132713189D01*
X185233150Y-132675875D01*
X185257326Y-132628621D01*
X185260013Y-132623612D01*
X185291927Y-132559977D01*
X185307579Y-132516341D01*
X185307745Y-132489202D01*
X185293204Y-132475057D01*
X185293000Y-132474975D01*
X185275779Y-132467905D01*
X185234899Y-132451042D01*
X185173525Y-132425695D01*
X185094819Y-132393171D01*
X185001947Y-132354778D01*
X184898072Y-132311822D01*
X184797502Y-132270222D01*
X184686516Y-132224504D01*
X184583703Y-132182526D01*
X184492215Y-132145548D01*
X184415201Y-132114827D01*
X184355815Y-132091622D01*
X184317209Y-132077190D01*
X184302800Y-132072743D01*
X184286272Y-132083896D01*
X184259930Y-132113069D01*
X184230887Y-132151971D01*
X184139039Y-132262757D01*
X184033759Y-132349351D01*
X183917266Y-132410716D01*
X183791776Y-132445815D01*
X183659507Y-132453608D01*
X183598457Y-132447943D01*
X183471795Y-132417078D01*
X183359941Y-132363920D01*
X183264001Y-132291767D01*
X183185076Y-132203917D01*
X183124270Y-132103665D01*
X183082687Y-131994310D01*
X183061428Y-131879147D01*
X183061599Y-131761475D01*
X183084301Y-131644590D01*
X183130638Y-131531789D01*
X183201713Y-131426369D01*
X183241911Y-131382368D01*
X183345129Y-131297979D01*
X183457925Y-131239222D01*
X183577010Y-131205704D01*
X183699095Y-131197035D01*
X183820893Y-131212823D01*
X183939116Y-131252678D01*
X184050475Y-131316207D01*
X184151684Y-131403021D01*
X184230887Y-131500029D01*
X184261162Y-131540437D01*
X184287219Y-131568982D01*
X184302825Y-131579257D01*
X184319843Y-131573877D01*
X184360500Y-131558575D01*
X184421642Y-131534612D01*
X184500119Y-131503244D01*
X184592780Y-131465732D01*
X184696472Y-131423333D01*
X184797526Y-131381663D01*
X184908607Y-131335690D01*
X185011541Y-131293107D01*
X185103165Y-131255221D01*
X185180316Y-131223340D01*
X185239831Y-131198771D01*
X185278544Y-131182820D01*
X185293000Y-131176910D01*
X185307685Y-131162948D01*
X185307642Y-131135940D01*
X185292099Y-131092413D01*
X185260284Y-131028890D01*
X185260013Y-131028388D01*
X185235323Y-130980560D01*
X185217338Y-130941897D01*
X185209614Y-130920095D01*
X185209543Y-130919133D01*
X185217378Y-130902721D01*
X185239165Y-130866487D01*
X185272328Y-130814474D01*
X185314291Y-130750725D01*
X185361943Y-130680060D01*
X185410191Y-130608116D01*
X185452151Y-130543274D01*
X185485227Y-130489735D01*
X185506821Y-130451697D01*
X185514343Y-130433533D01*
X185504457Y-130416808D01*
X185476826Y-130383180D01*
X185434495Y-130336010D01*
X185380505Y-130278658D01*
X185317899Y-130214484D01*
X185296983Y-130193497D01*
X185079623Y-129976499D01*
X184837220Y-130141668D01*
X184762781Y-130191864D01*
X184695972Y-130235919D01*
X184640665Y-130271362D01*
X184600729Y-130295719D01*
X184580036Y-130306522D01*
X184578563Y-130306838D01*
X184559058Y-130301143D01*
X184519822Y-130285826D01*
X184467430Y-130263537D01*
X184432355Y-130247893D01*
X184365201Y-130218641D01*
X184297358Y-130191094D01*
X184240034Y-130169737D01*
X184222572Y-130163935D01*
X184175938Y-130147452D01*
X184139905Y-130131340D01*
X184126287Y-130122490D01*
X184117952Y-130102960D01*
X184106137Y-130060334D01*
X184092181Y-130000145D01*
X184077422Y-129927922D01*
X184071355Y-129895600D01*
X184056273Y-129813522D01*
X184041669Y-129734795D01*
X184028980Y-129667109D01*
X184019642Y-129618160D01*
X184017839Y-129608943D01*
X184002799Y-129532743D01*
X183685492Y-129532743D01*
X183581154Y-129532914D01*
X183502213Y-129533616D01*
X183445038Y-129535134D01*
X183405999Y-129537749D01*
X183381465Y-129541746D01*
X183367805Y-129547409D01*
X183361389Y-129555020D01*
X183360199Y-129558143D01*
X183355980Y-129576978D01*
X183347562Y-129618588D01*
X183335961Y-129677630D01*
X183322195Y-129748757D01*
X183307280Y-129826625D01*
X183292232Y-129905887D01*
X183278069Y-129981198D01*
X183265806Y-130047213D01*
X183256461Y-130098587D01*
X183251050Y-130129975D01*
X183250114Y-130136959D01*
X183237596Y-130143285D01*
X183204246Y-130157290D01*
X183156377Y-130176355D01*
X183137629Y-130183634D01*
X183065195Y-130212996D01*
X182985170Y-130247571D01*
X182917728Y-130278537D01*
X182866159Y-130301323D01*
X182823785Y-130316482D01*
X182797834Y-130321542D01*
X182794356Y-130320736D01*
X182777936Y-130310041D01*
X182741417Y-130285620D01*
X182688687Y-130250095D01*
X182623635Y-130206087D01*
X182550151Y-130156217D01*
X182535645Y-130146356D01*
X182449704Y-130088492D01*
X182384261Y-130045956D01*
X182336304Y-130017054D01*
X182302820Y-130000090D01*
X182280795Y-129993367D01*
X182267217Y-129995190D01*
X182267131Y-129995236D01*
X182249297Y-130009586D01*
X182214817Y-130041323D01*
X182167268Y-130087010D01*
X182110222Y-130143204D01*
X182047255Y-130206468D01*
X182040227Y-130213602D01*
X181963020Y-130293330D01*
X181906330Y-130354857D01*
X181869110Y-130399421D01*
X181850315Y-130428257D01*
X181847889Y-130440958D01*
X181858471Y-130459494D01*
X181882916Y-130497961D01*
X181918612Y-130552386D01*
X181962947Y-130618798D01*
X182013311Y-130693225D01*
X182025160Y-130710601D01*
X182193626Y-130957297D01*
X182143062Y-131068706D01*
X182113595Y-131136457D01*
X182083959Y-131209183D01*
X182060330Y-131271703D01*
X182059358Y-131274457D01*
X182041457Y-131323360D01*
X182026320Y-131361057D01*
X182017210Y-131379425D01*
X182017184Y-131379456D01*
X182000717Y-131385285D01*
X181960219Y-131395192D01*
X181900242Y-131408195D01*
X181825340Y-131423309D01*
X181740064Y-131439552D01*
X181732875Y-131440881D01*
X181645014Y-131457175D01*
X181565260Y-131472133D01*
X181498681Y-131484791D01*
X181450347Y-131494186D01*
X181425325Y-131499354D01*
X181424943Y-131499444D01*
X181414299Y-131502589D01*
X181406262Y-131508704D01*
X181400467Y-131521453D01*
X181396547Y-131544500D01*
X181394135Y-131581509D01*
X181392865Y-131636144D01*
X181392371Y-131712067D01*
X181392286Y-131812944D01*
X181392286Y-131826000D01*
X181392348Y-131929910D01*
G37*
X181392348Y-131929910D02*
X181392778Y-132008454D01*
X181393942Y-132065298D01*
X181396207Y-132104105D01*
X181399940Y-132128538D01*
X181405506Y-132142262D01*
X181413273Y-132148940D01*
X181423605Y-132152236D01*
X181424943Y-132152556D01*
X181449079Y-132157562D01*
X181496701Y-132166829D01*
X181562741Y-132179392D01*
X181642128Y-132194287D01*
X181729796Y-132210551D01*
X181732875Y-132211119D01*
X181818789Y-132227410D01*
X181894696Y-132242652D01*
X181956045Y-132255861D01*
X181998282Y-132266054D01*
X182016855Y-132272248D01*
X182017184Y-132272543D01*
X182026253Y-132290788D01*
X182041367Y-132328405D01*
X182059262Y-132377271D01*
X182059358Y-132377543D01*
X182082493Y-132439093D01*
X182111965Y-132511657D01*
X182141597Y-132580057D01*
X182143062Y-132583294D01*
X182193626Y-132694702D01*
X182025160Y-132941399D01*
X181973803Y-133017077D01*
X181927889Y-133085631D01*
X181890030Y-133143088D01*
X181862837Y-133185476D01*
X181848921Y-133208825D01*
X181847889Y-133211042D01*
X181852484Y-133228010D01*
X181874655Y-133259701D01*
X181915447Y-133307352D01*
X181975905Y-133372198D01*
X182040227Y-133438397D01*
X182103612Y-133502214D01*
X182161451Y-133559329D01*
X182210175Y-133606305D01*
X182246210Y-133639703D01*
X182265984Y-133656085D01*
X182267002Y-133656694D01*
X182280572Y-133658505D01*
X182302733Y-133651683D01*
X182336478Y-133634540D01*
X182384800Y-133605393D01*
X182450692Y-133562555D01*
X182535517Y-133505448D01*
X182610177Y-133454766D01*
X182677140Y-133409461D01*
X182732516Y-133372150D01*
X182772420Y-133345452D01*
X182792962Y-133331985D01*
X182794356Y-133331137D01*
X182814038Y-133332781D01*
X182852293Y-133345245D01*
X182901889Y-133366048D01*
X182917728Y-133373462D01*
X182988290Y-133405814D01*
X183068353Y-133440328D01*
X183137629Y-133468365D01*
X183189045Y-133488568D01*
X183228119Y-133504615D01*
X183248541Y-133513888D01*
X183250114Y-133515041D01*
X183252721Y-133532096D01*
X183259863Y-133572298D01*
X183270523Y-133630302D01*
X183283685Y-133700763D01*
X183298333Y-133778335D01*
X183313449Y-133857672D01*
X183328018Y-133933431D01*
X183341022Y-134000264D01*
X183351445Y-134052828D01*
X183358270Y-134085776D01*
X183360199Y-134093857D01*
X183364962Y-134102205D01*
X183375718Y-134108506D01*
X183396098Y-134113045D01*
X183429734Y-134116104D01*
X183480255Y-134117967D01*
X183551292Y-134118918D01*
X183646476Y-134119240D01*
X183685492Y-134119257D01*
X184002799Y-134119257D01*
X184017839Y-134043057D01*
X184025995Y-134000663D01*
X184037899Y-133937400D01*
X184052116Y-133860962D01*
X184067210Y-133779043D01*
X184071355Y-133756400D01*
X184086053Y-133680806D01*
X184100505Y-133614953D01*
X184113375Y-133564366D01*
X184123322Y-133534574D01*
X184126287Y-133529612D01*
X184147283Y-133517426D01*
X184187967Y-133499953D01*
X184240322Y-133480577D01*
X184251600Y-133476734D01*
X184321523Y-133451339D01*
X184400418Y-133419817D01*
X184471266Y-133388969D01*
X184471595Y-133388817D01*
X184582733Y-133337447D01*
X184831253Y-133506399D01*
X185079772Y-133675352D01*
X185297058Y-133458429D01*
X185361726Y-133392819D01*
X185418733Y-133332979D01*
X185465033Y-133282267D01*
X185497584Y-133244046D01*
X185513343Y-133221675D01*
X185514343Y-133218466D01*
X185506469Y-133199626D01*
X185484578Y-133161180D01*
X185451267Y-133107330D01*
X185409131Y-133042276D01*
X185361943Y-132971940D01*
X185313810Y-132900555D01*
X185271928Y-132836908D01*
X185238871Y-132785041D01*
X185217218Y-132748995D01*
X185209543Y-132732867D01*
X185216037Y-132713189D01*
X185233150Y-132675875D01*
X185257326Y-132628621D01*
X185260013Y-132623612D01*
X185291927Y-132559977D01*
X185307579Y-132516341D01*
X185307745Y-132489202D01*
X185293204Y-132475057D01*
X185293000Y-132474975D01*
X185275779Y-132467905D01*
X185234899Y-132451042D01*
X185173525Y-132425695D01*
X185094819Y-132393171D01*
X185001947Y-132354778D01*
X184898072Y-132311822D01*
X184797502Y-132270222D01*
X184686516Y-132224504D01*
X184583703Y-132182526D01*
X184492215Y-132145548D01*
X184415201Y-132114827D01*
X184355815Y-132091622D01*
X184317209Y-132077190D01*
X184302800Y-132072743D01*
X184286272Y-132083896D01*
X184259930Y-132113069D01*
X184230887Y-132151971D01*
X184139039Y-132262757D01*
X184033759Y-132349351D01*
X183917266Y-132410716D01*
X183791776Y-132445815D01*
X183659507Y-132453608D01*
X183598457Y-132447943D01*
X183471795Y-132417078D01*
X183359941Y-132363920D01*
X183264001Y-132291767D01*
X183185076Y-132203917D01*
X183124270Y-132103665D01*
X183082687Y-131994310D01*
X183061428Y-131879147D01*
X183061599Y-131761475D01*
X183084301Y-131644590D01*
X183130638Y-131531789D01*
X183201713Y-131426369D01*
X183241911Y-131382368D01*
X183345129Y-131297979D01*
X183457925Y-131239222D01*
X183577010Y-131205704D01*
X183699095Y-131197035D01*
X183820893Y-131212823D01*
X183939116Y-131252678D01*
X184050475Y-131316207D01*
X184151684Y-131403021D01*
X184230887Y-131500029D01*
X184261162Y-131540437D01*
X184287219Y-131568982D01*
X184302825Y-131579257D01*
X184319843Y-131573877D01*
X184360500Y-131558575D01*
X184421642Y-131534612D01*
X184500119Y-131503244D01*
X184592780Y-131465732D01*
X184696472Y-131423333D01*
X184797526Y-131381663D01*
X184908607Y-131335690D01*
X185011541Y-131293107D01*
X185103165Y-131255221D01*
X185180316Y-131223340D01*
X185239831Y-131198771D01*
X185278544Y-131182820D01*
X185293000Y-131176910D01*
X185307685Y-131162948D01*
X185307642Y-131135940D01*
X185292099Y-131092413D01*
X185260284Y-131028890D01*
X185260013Y-131028388D01*
X185235323Y-130980560D01*
X185217338Y-130941897D01*
X185209614Y-130920095D01*
X185209543Y-130919133D01*
X185217378Y-130902721D01*
X185239165Y-130866487D01*
X185272328Y-130814474D01*
X185314291Y-130750725D01*
X185361943Y-130680060D01*
X185410191Y-130608116D01*
X185452151Y-130543274D01*
X185485227Y-130489735D01*
X185506821Y-130451697D01*
X185514343Y-130433533D01*
X185504457Y-130416808D01*
X185476826Y-130383180D01*
X185434495Y-130336010D01*
X185380505Y-130278658D01*
X185317899Y-130214484D01*
X185296983Y-130193497D01*
X185079623Y-129976499D01*
X184837220Y-130141668D01*
X184762781Y-130191864D01*
X184695972Y-130235919D01*
X184640665Y-130271362D01*
X184600729Y-130295719D01*
X184580036Y-130306522D01*
X184578563Y-130306838D01*
X184559058Y-130301143D01*
X184519822Y-130285826D01*
X184467430Y-130263537D01*
X184432355Y-130247893D01*
X184365201Y-130218641D01*
X184297358Y-130191094D01*
X184240034Y-130169737D01*
X184222572Y-130163935D01*
X184175938Y-130147452D01*
X184139905Y-130131340D01*
X184126287Y-130122490D01*
X184117952Y-130102960D01*
X184106137Y-130060334D01*
X184092181Y-130000145D01*
X184077422Y-129927922D01*
X184071355Y-129895600D01*
X184056273Y-129813522D01*
X184041669Y-129734795D01*
X184028980Y-129667109D01*
X184019642Y-129618160D01*
X184017839Y-129608943D01*
X184002799Y-129532743D01*
X183685492Y-129532743D01*
X183581154Y-129532914D01*
X183502213Y-129533616D01*
X183445038Y-129535134D01*
X183405999Y-129537749D01*
X183381465Y-129541746D01*
X183367805Y-129547409D01*
X183361389Y-129555020D01*
X183360199Y-129558143D01*
X183355980Y-129576978D01*
X183347562Y-129618588D01*
X183335961Y-129677630D01*
X183322195Y-129748757D01*
X183307280Y-129826625D01*
X183292232Y-129905887D01*
X183278069Y-129981198D01*
X183265806Y-130047213D01*
X183256461Y-130098587D01*
X183251050Y-130129975D01*
X183250114Y-130136959D01*
X183237596Y-130143285D01*
X183204246Y-130157290D01*
X183156377Y-130176355D01*
X183137629Y-130183634D01*
X183065195Y-130212996D01*
X182985170Y-130247571D01*
X182917728Y-130278537D01*
X182866159Y-130301323D01*
X182823785Y-130316482D01*
X182797834Y-130321542D01*
X182794356Y-130320736D01*
X182777936Y-130310041D01*
X182741417Y-130285620D01*
X182688687Y-130250095D01*
X182623635Y-130206087D01*
X182550151Y-130156217D01*
X182535645Y-130146356D01*
X182449704Y-130088492D01*
X182384261Y-130045956D01*
X182336304Y-130017054D01*
X182302820Y-130000090D01*
X182280795Y-129993367D01*
X182267217Y-129995190D01*
X182267131Y-129995236D01*
X182249297Y-130009586D01*
X182214817Y-130041323D01*
X182167268Y-130087010D01*
X182110222Y-130143204D01*
X182047255Y-130206468D01*
X182040227Y-130213602D01*
X181963020Y-130293330D01*
X181906330Y-130354857D01*
X181869110Y-130399421D01*
X181850315Y-130428257D01*
X181847889Y-130440958D01*
X181858471Y-130459494D01*
X181882916Y-130497961D01*
X181918612Y-130552386D01*
X181962947Y-130618798D01*
X182013311Y-130693225D01*
X182025160Y-130710601D01*
X182193626Y-130957297D01*
X182143062Y-131068706D01*
X182113595Y-131136457D01*
X182083959Y-131209183D01*
X182060330Y-131271703D01*
X182059358Y-131274457D01*
X182041457Y-131323360D01*
X182026320Y-131361057D01*
X182017210Y-131379425D01*
X182017184Y-131379456D01*
X182000717Y-131385285D01*
X181960219Y-131395192D01*
X181900242Y-131408195D01*
X181825340Y-131423309D01*
X181740064Y-131439552D01*
X181732875Y-131440881D01*
X181645014Y-131457175D01*
X181565260Y-131472133D01*
X181498681Y-131484791D01*
X181450347Y-131494186D01*
X181425325Y-131499354D01*
X181424943Y-131499444D01*
X181414299Y-131502589D01*
X181406262Y-131508704D01*
X181400467Y-131521453D01*
X181396547Y-131544500D01*
X181394135Y-131581509D01*
X181392865Y-131636144D01*
X181392371Y-131712067D01*
X181392286Y-131812944D01*
X181392286Y-131826000D01*
X181392348Y-131929910D01*
%TD*%
M02*
