%TF.GenerationSoftware,KiCad,Pcbnew,(5.1.9)-1*%
%TF.CreationDate,2022-01-17T18:14:23-05:00*%
%TF.ProjectId,Dev16x4USB,44657631-3678-4345-9553-422e6b696361,rev?*%
%TF.SameCoordinates,Original*%
%TF.FileFunction,Soldermask,Bot*%
%TF.FilePolarity,Negative*%
%FSLAX46Y46*%
G04 Gerber Fmt 4.6, Leading zero omitted, Abs format (unit mm)*
G04 Created by KiCad (PCBNEW (5.1.9)-1) date 2022-01-17 18:14:23*
%MOMM*%
%LPD*%
G01*
G04 APERTURE LIST*
%ADD10O,1.700000X1.700000*%
%ADD11R,1.700000X1.700000*%
%ADD12C,0.800000*%
G04 APERTURE END LIST*
D10*
%TO.C,J3*%
X124460000Y-109220000D03*
X124460000Y-106680000D03*
X124460000Y-104140000D03*
X124460000Y-101600000D03*
X124460000Y-99060000D03*
X124460000Y-96520000D03*
X124460000Y-93980000D03*
X124460000Y-91440000D03*
X124460000Y-88900000D03*
D11*
X124460000Y-86360000D03*
%TD*%
D10*
%TO.C,J2*%
X106680000Y-109220000D03*
X106680000Y-106680000D03*
X106680000Y-104140000D03*
X106680000Y-101600000D03*
X106680000Y-99060000D03*
X106680000Y-96520000D03*
X106680000Y-93980000D03*
X106680000Y-91440000D03*
X106680000Y-88900000D03*
D11*
X106680000Y-86360000D03*
%TD*%
D12*
%TO.C,J1*%
X113620000Y-79554000D03*
X117520000Y-79554000D03*
G36*
G01*
X118420000Y-78449000D02*
X118420000Y-76999000D01*
G75*
G02*
X118795000Y-76624000I375000J0D01*
G01*
X119545000Y-76624000D01*
G75*
G02*
X119920000Y-76999000I0J-375000D01*
G01*
X119920000Y-78449000D01*
G75*
G02*
X119545000Y-78824000I-375000J0D01*
G01*
X118795000Y-78824000D01*
G75*
G02*
X118420000Y-78449000I0J375000D01*
G01*
G37*
G36*
G01*
X111220000Y-78449000D02*
X111220000Y-76999000D01*
G75*
G02*
X111595000Y-76624000I375000J0D01*
G01*
X112345000Y-76624000D01*
G75*
G02*
X112720000Y-76999000I0J-375000D01*
G01*
X112720000Y-78449000D01*
G75*
G02*
X112345000Y-78824000I-375000J0D01*
G01*
X111595000Y-78824000D01*
G75*
G02*
X111220000Y-78449000I0J375000D01*
G01*
G37*
G36*
G01*
X111420000Y-80899000D02*
X111420000Y-80149000D01*
G75*
G02*
X111795000Y-79774000I375000J0D01*
G01*
X112745000Y-79774000D01*
G75*
G02*
X113120000Y-80149000I0J-375000D01*
G01*
X113120000Y-80899000D01*
G75*
G02*
X112745000Y-81274000I-375000J0D01*
G01*
X111795000Y-81274000D01*
G75*
G02*
X111420000Y-80899000I0J375000D01*
G01*
G37*
G36*
G01*
X118020000Y-80899000D02*
X118020000Y-80149000D01*
G75*
G02*
X118395000Y-79774000I375000J0D01*
G01*
X119345000Y-79774000D01*
G75*
G02*
X119720000Y-80149000I0J-375000D01*
G01*
X119720000Y-80899000D01*
G75*
G02*
X119345000Y-81274000I-375000J0D01*
G01*
X118395000Y-81274000D01*
G75*
G02*
X118020000Y-80899000I0J375000D01*
G01*
G37*
%TD*%
M02*
