%TF.GenerationSoftware,KiCad,Pcbnew,(5.1.9)-1*%
%TF.CreationDate,2022-01-17T13:57:47-05:00*%
%TF.ProjectId,Dev16x4USB,44657631-3678-4345-9553-422e6b696361,rev?*%
%TF.SameCoordinates,Original*%
%TF.FileFunction,Copper,L2,Bot*%
%TF.FilePolarity,Positive*%
%FSLAX46Y46*%
G04 Gerber Fmt 4.6, Leading zero omitted, Abs format (unit mm)*
G04 Created by KiCad (PCBNEW (5.1.9)-1) date 2022-01-17 13:57:47*
%MOMM*%
%LPD*%
G01*
G04 APERTURE LIST*
%TA.AperFunction,ComponentPad*%
%ADD10O,1.700000X1.700000*%
%TD*%
%TA.AperFunction,ComponentPad*%
%ADD11R,1.700000X1.700000*%
%TD*%
%TA.AperFunction,ViaPad*%
%ADD12C,0.800000*%
%TD*%
%TA.AperFunction,Conductor*%
%ADD13C,0.381000*%
%TD*%
%TA.AperFunction,Conductor*%
%ADD14C,0.254000*%
%TD*%
%TA.AperFunction,Conductor*%
%ADD15C,0.100000*%
%TD*%
G04 APERTURE END LIST*
D10*
%TO.P,J3,10*%
%TO.N,/6_SDA*%
X124460000Y-109220000D03*
%TO.P,J3,9*%
%TO.N,/7_SCL*%
X124460000Y-106680000D03*
%TO.P,J3,8*%
%TO.N,/UPDI*%
X124460000Y-104140000D03*
%TO.P,J3,7*%
%TO.N,/8_MOSI*%
X124460000Y-101600000D03*
%TO.P,J3,6*%
%TO.N,/9_MISO*%
X124460000Y-99060000D03*
%TO.P,J3,5*%
%TO.N,/10_SCK*%
X124460000Y-96520000D03*
%TO.P,J3,4*%
%TO.N,GND*%
X124460000Y-93980000D03*
%TO.P,J3,3*%
%TO.N,VCC*%
X124460000Y-91440000D03*
%TO.P,J3,2*%
%TO.N,+3V3*%
X124460000Y-88900000D03*
D11*
%TO.P,J3,1*%
%TO.N,+5V*%
X124460000Y-86360000D03*
%TD*%
D10*
%TO.P,J2,10*%
%TO.N,/5_TX*%
X106680000Y-109220000D03*
%TO.P,J2,9*%
%TO.N,/4_RX*%
X106680000Y-106680000D03*
%TO.P,J2,8*%
%TO.N,/3*%
X106680000Y-104140000D03*
%TO.P,J2,7*%
%TO.N,/2*%
X106680000Y-101600000D03*
%TO.P,J2,6*%
%TO.N,/1_VREF*%
X106680000Y-99060000D03*
%TO.P,J2,5*%
%TO.N,/0_SS*%
X106680000Y-96520000D03*
%TO.P,J2,4*%
%TO.N,GND*%
X106680000Y-93980000D03*
%TO.P,J2,3*%
%TO.N,VCC*%
X106680000Y-91440000D03*
%TO.P,J2,2*%
%TO.N,+3V3*%
X106680000Y-88900000D03*
D11*
%TO.P,J2,1*%
%TO.N,+5V*%
X106680000Y-86360000D03*
%TD*%
%TO.P,J1,6*%
%TO.N,GND*%
%TA.AperFunction,ComponentPad*%
G36*
G01*
X118420000Y-78449000D02*
X118420000Y-76999000D01*
G75*
G02*
X118795000Y-76624000I375000J0D01*
G01*
X119545000Y-76624000D01*
G75*
G02*
X119920000Y-76999000I0J-375000D01*
G01*
X119920000Y-78449000D01*
G75*
G02*
X119545000Y-78824000I-375000J0D01*
G01*
X118795000Y-78824000D01*
G75*
G02*
X118420000Y-78449000I0J375000D01*
G01*
G37*
%TD.AperFunction*%
%TA.AperFunction,ComponentPad*%
G36*
G01*
X111220000Y-78449000D02*
X111220000Y-76999000D01*
G75*
G02*
X111595000Y-76624000I375000J0D01*
G01*
X112345000Y-76624000D01*
G75*
G02*
X112720000Y-76999000I0J-375000D01*
G01*
X112720000Y-78449000D01*
G75*
G02*
X112345000Y-78824000I-375000J0D01*
G01*
X111595000Y-78824000D01*
G75*
G02*
X111220000Y-78449000I0J375000D01*
G01*
G37*
%TD.AperFunction*%
%TA.AperFunction,ComponentPad*%
G36*
G01*
X111420000Y-80899000D02*
X111420000Y-80149000D01*
G75*
G02*
X111795000Y-79774000I375000J0D01*
G01*
X112745000Y-79774000D01*
G75*
G02*
X113120000Y-80149000I0J-375000D01*
G01*
X113120000Y-80899000D01*
G75*
G02*
X112745000Y-81274000I-375000J0D01*
G01*
X111795000Y-81274000D01*
G75*
G02*
X111420000Y-80899000I0J375000D01*
G01*
G37*
%TD.AperFunction*%
%TA.AperFunction,ComponentPad*%
G36*
G01*
X118020000Y-80899000D02*
X118020000Y-80149000D01*
G75*
G02*
X118395000Y-79774000I375000J0D01*
G01*
X119345000Y-79774000D01*
G75*
G02*
X119720000Y-80149000I0J-375000D01*
G01*
X119720000Y-80899000D01*
G75*
G02*
X119345000Y-81274000I-375000J0D01*
G01*
X118395000Y-81274000D01*
G75*
G02*
X118020000Y-80899000I0J375000D01*
G01*
G37*
%TD.AperFunction*%
%TD*%
D12*
%TO.N,GND*%
X115824000Y-99568000D03*
X118872000Y-99568000D03*
X121412000Y-89408000D03*
X122936000Y-84836000D03*
X110744000Y-94488000D03*
X121412000Y-91948000D03*
X121412000Y-93980000D03*
X116840000Y-93980000D03*
%TO.N,+5V*%
X115824000Y-84077070D03*
%TO.N,+3V3*%
X112776000Y-88392000D03*
X116840000Y-89916000D03*
%TO.N,VCC*%
X114300000Y-94488000D03*
X119888000Y-92964000D03*
%TO.N,/UPDI*%
X122174000Y-106426000D03*
X122428000Y-99568020D03*
%TO.N,/10_SCK*%
X121412000Y-100075994D03*
%TD*%
D13*
%TO.N,+5V*%
X116589070Y-83312000D02*
X115824000Y-84077070D01*
X122936000Y-83312000D02*
X116589070Y-83312000D01*
X124460000Y-84836000D02*
X122936000Y-83312000D01*
X124460000Y-86360000D02*
X124460000Y-84836000D01*
%TO.N,+3V3*%
X107188000Y-88392000D02*
X106680000Y-88900000D01*
X112776000Y-88392000D02*
X107188000Y-88392000D01*
X122936000Y-90424000D02*
X124460000Y-88900000D01*
X117348000Y-90424000D02*
X122936000Y-90424000D01*
X116840000Y-89916000D02*
X117348000Y-90424000D01*
%TO.N,VCC*%
X114300000Y-94488000D02*
X114300000Y-94488000D01*
X115824000Y-92964000D02*
X119888000Y-92964000D01*
X114300000Y-94488000D02*
X115824000Y-92964000D01*
X124460000Y-91440000D02*
X122936000Y-92964000D01*
X122936000Y-92964000D02*
X119888000Y-92964000D01*
D14*
%TO.N,/UPDI*%
X122428000Y-106172000D02*
X122428000Y-99568020D01*
X122174000Y-106426000D02*
X122428000Y-106172000D01*
D13*
%TO.N,/10_SCK*%
X123257919Y-96520000D02*
X121412000Y-98365919D01*
X124460000Y-96520000D02*
X123257919Y-96520000D01*
X121412000Y-98365919D02*
X121412000Y-100075994D01*
%TD*%
D14*
%TO.N,GND*%
X110859052Y-76263052D02*
X110795570Y-76340405D01*
X110748398Y-76428656D01*
X110719350Y-76524415D01*
X110709542Y-76624000D01*
X110712000Y-77470000D01*
X110839000Y-77597000D01*
X111843000Y-77597000D01*
X111843000Y-77577000D01*
X112097000Y-77577000D01*
X112097000Y-77597000D01*
X113101000Y-77597000D01*
X113228000Y-77470000D01*
X113230458Y-76624000D01*
X113220650Y-76524415D01*
X113191602Y-76428656D01*
X113144430Y-76340405D01*
X113080948Y-76263052D01*
X113034582Y-76225000D01*
X118105418Y-76225000D01*
X118059052Y-76263052D01*
X117995570Y-76340405D01*
X117948398Y-76428656D01*
X117919350Y-76524415D01*
X117909542Y-76624000D01*
X117912000Y-77470000D01*
X118039000Y-77597000D01*
X119043000Y-77597000D01*
X119043000Y-77577000D01*
X119297000Y-77577000D01*
X119297000Y-77597000D01*
X120301000Y-77597000D01*
X120428000Y-77470000D01*
X120430458Y-76624000D01*
X120420650Y-76524415D01*
X120391602Y-76428656D01*
X120344430Y-76340405D01*
X120280948Y-76263052D01*
X120234582Y-76225000D01*
X125451000Y-76225000D01*
X125451000Y-85021914D01*
X125409585Y-85009351D01*
X125310000Y-84999543D01*
X125158500Y-84999543D01*
X125158500Y-84870297D01*
X125161878Y-84835999D01*
X125158500Y-84801701D01*
X125158500Y-84801691D01*
X125148393Y-84699070D01*
X125108452Y-84567403D01*
X125076256Y-84507169D01*
X125043591Y-84446056D01*
X124978173Y-84366345D01*
X124978171Y-84366343D01*
X124956303Y-84339697D01*
X124929657Y-84317829D01*
X123454175Y-82842348D01*
X123432303Y-82815697D01*
X123325943Y-82728409D01*
X123204597Y-82663548D01*
X123072930Y-82623607D01*
X122970309Y-82613500D01*
X122970298Y-82613500D01*
X122936000Y-82610122D01*
X122901702Y-82613500D01*
X116623367Y-82613500D01*
X116589069Y-82610122D01*
X116554771Y-82613500D01*
X116554761Y-82613500D01*
X116452140Y-82623607D01*
X116320473Y-82663548D01*
X116320471Y-82663549D01*
X116199126Y-82728409D01*
X116119415Y-82793827D01*
X116092767Y-82815697D01*
X116070899Y-82842343D01*
X115744172Y-83169070D01*
X115734570Y-83169070D01*
X115559146Y-83203964D01*
X115393901Y-83272411D01*
X115245184Y-83371781D01*
X115118711Y-83498254D01*
X115019341Y-83646971D01*
X114950894Y-83812216D01*
X114916000Y-83987640D01*
X114916000Y-84166500D01*
X114950894Y-84341924D01*
X115019341Y-84507169D01*
X115118711Y-84655886D01*
X115245184Y-84782359D01*
X115393901Y-84881729D01*
X115559146Y-84950176D01*
X115734570Y-84985070D01*
X115913430Y-84985070D01*
X116088854Y-84950176D01*
X116254099Y-84881729D01*
X116402816Y-84782359D01*
X116529289Y-84655886D01*
X116628659Y-84507169D01*
X116697106Y-84341924D01*
X116732000Y-84166500D01*
X116732000Y-84156898D01*
X116878398Y-84010500D01*
X122646673Y-84010500D01*
X123635715Y-84999543D01*
X123610000Y-84999543D01*
X123510415Y-85009351D01*
X123414657Y-85038399D01*
X123326405Y-85085571D01*
X123249052Y-85149052D01*
X123185571Y-85226405D01*
X123138399Y-85314657D01*
X123109351Y-85410415D01*
X123099543Y-85510000D01*
X123099543Y-87210000D01*
X123109351Y-87309585D01*
X123138399Y-87405343D01*
X123185571Y-87493595D01*
X123249052Y-87570948D01*
X123326405Y-87634429D01*
X123414657Y-87681601D01*
X123510415Y-87710649D01*
X123610000Y-87720457D01*
X123780975Y-87720457D01*
X123594325Y-87845172D01*
X123405172Y-88034325D01*
X123256556Y-88256746D01*
X123154187Y-88503886D01*
X123102000Y-88766249D01*
X123102000Y-89033751D01*
X123141225Y-89230948D01*
X122646673Y-89725500D01*
X117727896Y-89725500D01*
X117713106Y-89651146D01*
X117644659Y-89485901D01*
X117545289Y-89337184D01*
X117418816Y-89210711D01*
X117270099Y-89111341D01*
X117104854Y-89042894D01*
X116929430Y-89008000D01*
X116750570Y-89008000D01*
X116575146Y-89042894D01*
X116409901Y-89111341D01*
X116261184Y-89210711D01*
X116134711Y-89337184D01*
X116035341Y-89485901D01*
X115966894Y-89651146D01*
X115932000Y-89826570D01*
X115932000Y-90005430D01*
X115966894Y-90180854D01*
X116035341Y-90346099D01*
X116134711Y-90494816D01*
X116261184Y-90621289D01*
X116409901Y-90720659D01*
X116575146Y-90789106D01*
X116750570Y-90824000D01*
X116760172Y-90824000D01*
X116829829Y-90893657D01*
X116851697Y-90920303D01*
X116878343Y-90942171D01*
X116878345Y-90942173D01*
X116958056Y-91007591D01*
X117079401Y-91072451D01*
X117079403Y-91072452D01*
X117211070Y-91112393D01*
X117313691Y-91122500D01*
X117313701Y-91122500D01*
X117347999Y-91125878D01*
X117382297Y-91122500D01*
X122901702Y-91122500D01*
X122936000Y-91125878D01*
X122970298Y-91122500D01*
X122970309Y-91122500D01*
X123072930Y-91112393D01*
X123144903Y-91090560D01*
X123102000Y-91306249D01*
X123102000Y-91573751D01*
X123141225Y-91770948D01*
X122646673Y-92265500D01*
X120473605Y-92265500D01*
X120466816Y-92258711D01*
X120318099Y-92159341D01*
X120152854Y-92090894D01*
X119977430Y-92056000D01*
X119798570Y-92056000D01*
X119623146Y-92090894D01*
X119457901Y-92159341D01*
X119309184Y-92258711D01*
X119302395Y-92265500D01*
X115858297Y-92265500D01*
X115823999Y-92262122D01*
X115789701Y-92265500D01*
X115789691Y-92265500D01*
X115687070Y-92275607D01*
X115555403Y-92315548D01*
X115555401Y-92315549D01*
X115434056Y-92380409D01*
X115354345Y-92445827D01*
X115327697Y-92467697D01*
X115305829Y-92494343D01*
X114220173Y-93580000D01*
X114210570Y-93580000D01*
X114035146Y-93614894D01*
X113869901Y-93683341D01*
X113721184Y-93782711D01*
X113594711Y-93909184D01*
X113495341Y-94057901D01*
X113426894Y-94223146D01*
X113392000Y-94398570D01*
X113392000Y-94577430D01*
X113426894Y-94752854D01*
X113495341Y-94918099D01*
X113594711Y-95066816D01*
X113721184Y-95193289D01*
X113869901Y-95292659D01*
X114035146Y-95361106D01*
X114210570Y-95396000D01*
X114389430Y-95396000D01*
X114564854Y-95361106D01*
X114730099Y-95292659D01*
X114878816Y-95193289D01*
X115005289Y-95066816D01*
X115104659Y-94918099D01*
X115173106Y-94752854D01*
X115208000Y-94577430D01*
X115208000Y-94567827D01*
X116113328Y-93662500D01*
X119302395Y-93662500D01*
X119309184Y-93669289D01*
X119457901Y-93768659D01*
X119623146Y-93837106D01*
X119798570Y-93872000D01*
X119977430Y-93872000D01*
X120152854Y-93837106D01*
X120318099Y-93768659D01*
X120466816Y-93669289D01*
X120473605Y-93662500D01*
X122901702Y-93662500D01*
X122936000Y-93665878D01*
X122970298Y-93662500D01*
X122970309Y-93662500D01*
X123072930Y-93652393D01*
X123148595Y-93629440D01*
X123144465Y-93643057D01*
X123235569Y-93853000D01*
X124333000Y-93853000D01*
X124333000Y-93833000D01*
X124587000Y-93833000D01*
X124587000Y-93853000D01*
X124607000Y-93853000D01*
X124607000Y-94107000D01*
X124587000Y-94107000D01*
X124587000Y-94127000D01*
X124333000Y-94127000D01*
X124333000Y-94107000D01*
X123235569Y-94107000D01*
X123144465Y-94316943D01*
X123178972Y-94430717D01*
X123291517Y-94671973D01*
X123448966Y-94886637D01*
X123645269Y-95066459D01*
X123872881Y-95204529D01*
X123986987Y-95246040D01*
X123816746Y-95316556D01*
X123594325Y-95465172D01*
X123405172Y-95654325D01*
X123293470Y-95821500D01*
X123292217Y-95821500D01*
X123257919Y-95818122D01*
X123223621Y-95821500D01*
X123223610Y-95821500D01*
X123120989Y-95831607D01*
X122989322Y-95871548D01*
X122932836Y-95901740D01*
X122867975Y-95936409D01*
X122788265Y-96001826D01*
X122788262Y-96001829D01*
X122761616Y-96023697D01*
X122739748Y-96050343D01*
X120942344Y-97847748D01*
X120915697Y-97869617D01*
X120893829Y-97896263D01*
X120893826Y-97896266D01*
X120828409Y-97975976D01*
X120763549Y-98097321D01*
X120763548Y-98097323D01*
X120723607Y-98228990D01*
X120713500Y-98331611D01*
X120713500Y-98331621D01*
X120710122Y-98365919D01*
X120713500Y-98400218D01*
X120713501Y-99490388D01*
X120706711Y-99497178D01*
X120607341Y-99645895D01*
X120538894Y-99811140D01*
X120504000Y-99986564D01*
X120504000Y-100165424D01*
X120538894Y-100340848D01*
X120607341Y-100506093D01*
X120706711Y-100654810D01*
X120833184Y-100781283D01*
X120981901Y-100880653D01*
X121147146Y-100949100D01*
X121322570Y-100983994D01*
X121501430Y-100983994D01*
X121676854Y-100949100D01*
X121793001Y-100900990D01*
X121793000Y-105601003D01*
X121743901Y-105621341D01*
X121595184Y-105720711D01*
X121468711Y-105847184D01*
X121369341Y-105995901D01*
X121300894Y-106161146D01*
X121266000Y-106336570D01*
X121266000Y-106515430D01*
X121300894Y-106690854D01*
X121369341Y-106856099D01*
X121468711Y-107004816D01*
X121595184Y-107131289D01*
X121743901Y-107230659D01*
X121909146Y-107299106D01*
X122084570Y-107334000D01*
X122263430Y-107334000D01*
X122438854Y-107299106D01*
X122604099Y-107230659D01*
X122752816Y-107131289D01*
X122879289Y-107004816D01*
X122978659Y-106856099D01*
X123047106Y-106690854D01*
X123082000Y-106515430D01*
X123082000Y-106336570D01*
X123060506Y-106228513D01*
X123063000Y-106203192D01*
X123063000Y-106203182D01*
X123066071Y-106172001D01*
X123063000Y-106140820D01*
X123063000Y-100217125D01*
X123133289Y-100146836D01*
X123232659Y-99998119D01*
X123301106Y-99832874D01*
X123310754Y-99784368D01*
X123405172Y-99925675D01*
X123594325Y-100114828D01*
X123816746Y-100263444D01*
X123977426Y-100330000D01*
X123816746Y-100396556D01*
X123594325Y-100545172D01*
X123405172Y-100734325D01*
X123256556Y-100956746D01*
X123154187Y-101203886D01*
X123102000Y-101466249D01*
X123102000Y-101733751D01*
X123154187Y-101996114D01*
X123256556Y-102243254D01*
X123405172Y-102465675D01*
X123594325Y-102654828D01*
X123816746Y-102803444D01*
X123977426Y-102870000D01*
X123816746Y-102936556D01*
X123594325Y-103085172D01*
X123405172Y-103274325D01*
X123256556Y-103496746D01*
X123154187Y-103743886D01*
X123102000Y-104006249D01*
X123102000Y-104273751D01*
X123154187Y-104536114D01*
X123256556Y-104783254D01*
X123405172Y-105005675D01*
X123594325Y-105194828D01*
X123816746Y-105343444D01*
X123977426Y-105410000D01*
X123816746Y-105476556D01*
X123594325Y-105625172D01*
X123405172Y-105814325D01*
X123256556Y-106036746D01*
X123154187Y-106283886D01*
X123102000Y-106546249D01*
X123102000Y-106813751D01*
X123154187Y-107076114D01*
X123256556Y-107323254D01*
X123405172Y-107545675D01*
X123594325Y-107734828D01*
X123816746Y-107883444D01*
X123977426Y-107950000D01*
X123816746Y-108016556D01*
X123594325Y-108165172D01*
X123405172Y-108354325D01*
X123256556Y-108576746D01*
X123154187Y-108823886D01*
X123102000Y-109086249D01*
X123102000Y-109353751D01*
X123154187Y-109616114D01*
X123256556Y-109863254D01*
X123405172Y-110085675D01*
X123594325Y-110274828D01*
X123816746Y-110423444D01*
X124063886Y-110525813D01*
X124326249Y-110578000D01*
X124593751Y-110578000D01*
X124856114Y-110525813D01*
X125103254Y-110423444D01*
X125325675Y-110274828D01*
X125451001Y-110149502D01*
X125451001Y-110719000D01*
X105689000Y-110719000D01*
X105689000Y-110149503D01*
X105814325Y-110274828D01*
X106036746Y-110423444D01*
X106283886Y-110525813D01*
X106546249Y-110578000D01*
X106813751Y-110578000D01*
X107076114Y-110525813D01*
X107323254Y-110423444D01*
X107545675Y-110274828D01*
X107734828Y-110085675D01*
X107883444Y-109863254D01*
X107985813Y-109616114D01*
X108038000Y-109353751D01*
X108038000Y-109086249D01*
X107985813Y-108823886D01*
X107883444Y-108576746D01*
X107734828Y-108354325D01*
X107545675Y-108165172D01*
X107323254Y-108016556D01*
X107162574Y-107950000D01*
X107323254Y-107883444D01*
X107545675Y-107734828D01*
X107734828Y-107545675D01*
X107883444Y-107323254D01*
X107985813Y-107076114D01*
X108038000Y-106813751D01*
X108038000Y-106546249D01*
X107985813Y-106283886D01*
X107883444Y-106036746D01*
X107734828Y-105814325D01*
X107545675Y-105625172D01*
X107323254Y-105476556D01*
X107162574Y-105410000D01*
X107323254Y-105343444D01*
X107545675Y-105194828D01*
X107734828Y-105005675D01*
X107883444Y-104783254D01*
X107985813Y-104536114D01*
X108038000Y-104273751D01*
X108038000Y-104006249D01*
X107985813Y-103743886D01*
X107883444Y-103496746D01*
X107734828Y-103274325D01*
X107545675Y-103085172D01*
X107323254Y-102936556D01*
X107162574Y-102870000D01*
X107323254Y-102803444D01*
X107545675Y-102654828D01*
X107734828Y-102465675D01*
X107883444Y-102243254D01*
X107985813Y-101996114D01*
X108038000Y-101733751D01*
X108038000Y-101466249D01*
X107985813Y-101203886D01*
X107883444Y-100956746D01*
X107734828Y-100734325D01*
X107545675Y-100545172D01*
X107323254Y-100396556D01*
X107162574Y-100330000D01*
X107323254Y-100263444D01*
X107545675Y-100114828D01*
X107734828Y-99925675D01*
X107883444Y-99703254D01*
X107985813Y-99456114D01*
X108038000Y-99193751D01*
X108038000Y-98926249D01*
X107985813Y-98663886D01*
X107883444Y-98416746D01*
X107734828Y-98194325D01*
X107545675Y-98005172D01*
X107323254Y-97856556D01*
X107162574Y-97790000D01*
X107323254Y-97723444D01*
X107545675Y-97574828D01*
X107734828Y-97385675D01*
X107883444Y-97163254D01*
X107985813Y-96916114D01*
X108038000Y-96653751D01*
X108038000Y-96386249D01*
X107985813Y-96123886D01*
X107883444Y-95876746D01*
X107734828Y-95654325D01*
X107545675Y-95465172D01*
X107323254Y-95316556D01*
X107153013Y-95246040D01*
X107267119Y-95204529D01*
X107494731Y-95066459D01*
X107691034Y-94886637D01*
X107848483Y-94671973D01*
X107961028Y-94430717D01*
X107995535Y-94316943D01*
X107904431Y-94107000D01*
X106807000Y-94107000D01*
X106807000Y-94127000D01*
X106553000Y-94127000D01*
X106553000Y-94107000D01*
X106533000Y-94107000D01*
X106533000Y-93853000D01*
X106553000Y-93853000D01*
X106553000Y-93833000D01*
X106807000Y-93833000D01*
X106807000Y-93853000D01*
X107904431Y-93853000D01*
X107995535Y-93643057D01*
X107961028Y-93529283D01*
X107848483Y-93288027D01*
X107691034Y-93073363D01*
X107494731Y-92893541D01*
X107267119Y-92755471D01*
X107153013Y-92713960D01*
X107323254Y-92643444D01*
X107545675Y-92494828D01*
X107734828Y-92305675D01*
X107883444Y-92083254D01*
X107985813Y-91836114D01*
X108038000Y-91573751D01*
X108038000Y-91306249D01*
X107985813Y-91043886D01*
X107883444Y-90796746D01*
X107734828Y-90574325D01*
X107545675Y-90385172D01*
X107323254Y-90236556D01*
X107162574Y-90170000D01*
X107323254Y-90103444D01*
X107545675Y-89954828D01*
X107734828Y-89765675D01*
X107883444Y-89543254D01*
X107985813Y-89296114D01*
X108026712Y-89090500D01*
X112190395Y-89090500D01*
X112197184Y-89097289D01*
X112345901Y-89196659D01*
X112511146Y-89265106D01*
X112686570Y-89300000D01*
X112865430Y-89300000D01*
X113040854Y-89265106D01*
X113206099Y-89196659D01*
X113354816Y-89097289D01*
X113481289Y-88970816D01*
X113580659Y-88822099D01*
X113649106Y-88656854D01*
X113684000Y-88481430D01*
X113684000Y-88302570D01*
X113649106Y-88127146D01*
X113580659Y-87961901D01*
X113481289Y-87813184D01*
X113354816Y-87686711D01*
X113206099Y-87587341D01*
X113040854Y-87518894D01*
X112865430Y-87484000D01*
X112686570Y-87484000D01*
X112511146Y-87518894D01*
X112345901Y-87587341D01*
X112197184Y-87686711D01*
X112190395Y-87693500D01*
X107686117Y-87693500D01*
X107725343Y-87681601D01*
X107813595Y-87634429D01*
X107890948Y-87570948D01*
X107954429Y-87493595D01*
X108001601Y-87405343D01*
X108030649Y-87309585D01*
X108040457Y-87210000D01*
X108040457Y-85510000D01*
X108030649Y-85410415D01*
X108001601Y-85314657D01*
X107954429Y-85226405D01*
X107890948Y-85149052D01*
X107813595Y-85085571D01*
X107725343Y-85038399D01*
X107629585Y-85009351D01*
X107530000Y-84999543D01*
X105830000Y-84999543D01*
X105730415Y-85009351D01*
X105689000Y-85021914D01*
X105689000Y-81274000D01*
X110909542Y-81274000D01*
X110919350Y-81373585D01*
X110948398Y-81469344D01*
X110995570Y-81557595D01*
X111059052Y-81634948D01*
X111136405Y-81698430D01*
X111224656Y-81745602D01*
X111320415Y-81774650D01*
X111420000Y-81784458D01*
X112016000Y-81782000D01*
X112143000Y-81655000D01*
X112143000Y-80651000D01*
X112397000Y-80651000D01*
X112397000Y-81655000D01*
X112524000Y-81782000D01*
X113120000Y-81784458D01*
X113219585Y-81774650D01*
X113315344Y-81745602D01*
X113403595Y-81698430D01*
X113480948Y-81634948D01*
X113544430Y-81557595D01*
X113591602Y-81469344D01*
X113620650Y-81373585D01*
X113630458Y-81274000D01*
X117509542Y-81274000D01*
X117519350Y-81373585D01*
X117548398Y-81469344D01*
X117595570Y-81557595D01*
X117659052Y-81634948D01*
X117736405Y-81698430D01*
X117824656Y-81745602D01*
X117920415Y-81774650D01*
X118020000Y-81784458D01*
X118616000Y-81782000D01*
X118743000Y-81655000D01*
X118743000Y-80651000D01*
X118997000Y-80651000D01*
X118997000Y-81655000D01*
X119124000Y-81782000D01*
X119720000Y-81784458D01*
X119819585Y-81774650D01*
X119915344Y-81745602D01*
X120003595Y-81698430D01*
X120080948Y-81634948D01*
X120144430Y-81557595D01*
X120191602Y-81469344D01*
X120220650Y-81373585D01*
X120230458Y-81274000D01*
X120228000Y-80778000D01*
X120101000Y-80651000D01*
X118997000Y-80651000D01*
X118743000Y-80651000D01*
X117639000Y-80651000D01*
X117512000Y-80778000D01*
X117509542Y-81274000D01*
X113630458Y-81274000D01*
X113628000Y-80778000D01*
X113501000Y-80651000D01*
X112397000Y-80651000D01*
X112143000Y-80651000D01*
X111039000Y-80651000D01*
X110912000Y-80778000D01*
X110909542Y-81274000D01*
X105689000Y-81274000D01*
X105689000Y-78824000D01*
X110709542Y-78824000D01*
X110719350Y-78923585D01*
X110748398Y-79019344D01*
X110795570Y-79107595D01*
X110859052Y-79184948D01*
X110936405Y-79248430D01*
X111024656Y-79295602D01*
X111120415Y-79324650D01*
X111173285Y-79329857D01*
X111136405Y-79349570D01*
X111059052Y-79413052D01*
X110995570Y-79490405D01*
X110948398Y-79578656D01*
X110919350Y-79674415D01*
X110909542Y-79774000D01*
X110912000Y-80270000D01*
X111039000Y-80397000D01*
X112143000Y-80397000D01*
X112143000Y-80377000D01*
X112397000Y-80377000D01*
X112397000Y-80397000D01*
X113282464Y-80397000D01*
X113355146Y-80427106D01*
X113530570Y-80462000D01*
X113709430Y-80462000D01*
X113884854Y-80427106D01*
X114050099Y-80358659D01*
X114198816Y-80259289D01*
X114325289Y-80132816D01*
X114424659Y-79984099D01*
X114493106Y-79818854D01*
X114528000Y-79643430D01*
X114528000Y-79464570D01*
X116612000Y-79464570D01*
X116612000Y-79643430D01*
X116646894Y-79818854D01*
X116715341Y-79984099D01*
X116814711Y-80132816D01*
X116941184Y-80259289D01*
X117089901Y-80358659D01*
X117255146Y-80427106D01*
X117430570Y-80462000D01*
X117609430Y-80462000D01*
X117784854Y-80427106D01*
X117857536Y-80397000D01*
X118743000Y-80397000D01*
X118743000Y-80377000D01*
X118997000Y-80377000D01*
X118997000Y-80397000D01*
X120101000Y-80397000D01*
X120228000Y-80270000D01*
X120230458Y-79774000D01*
X120220650Y-79674415D01*
X120191602Y-79578656D01*
X120144430Y-79490405D01*
X120080948Y-79413052D01*
X120003595Y-79349570D01*
X119966715Y-79329857D01*
X120019585Y-79324650D01*
X120115344Y-79295602D01*
X120203595Y-79248430D01*
X120280948Y-79184948D01*
X120344430Y-79107595D01*
X120391602Y-79019344D01*
X120420650Y-78923585D01*
X120430458Y-78824000D01*
X120428000Y-77978000D01*
X120301000Y-77851000D01*
X119297000Y-77851000D01*
X119297000Y-77871000D01*
X119043000Y-77871000D01*
X119043000Y-77851000D01*
X118039000Y-77851000D01*
X117912000Y-77978000D01*
X117909807Y-78732652D01*
X117784854Y-78680894D01*
X117609430Y-78646000D01*
X117430570Y-78646000D01*
X117255146Y-78680894D01*
X117089901Y-78749341D01*
X116941184Y-78848711D01*
X116814711Y-78975184D01*
X116715341Y-79123901D01*
X116646894Y-79289146D01*
X116612000Y-79464570D01*
X114528000Y-79464570D01*
X114493106Y-79289146D01*
X114424659Y-79123901D01*
X114325289Y-78975184D01*
X114198816Y-78848711D01*
X114050099Y-78749341D01*
X113884854Y-78680894D01*
X113709430Y-78646000D01*
X113530570Y-78646000D01*
X113355146Y-78680894D01*
X113230193Y-78732652D01*
X113228000Y-77978000D01*
X113101000Y-77851000D01*
X112097000Y-77851000D01*
X112097000Y-77871000D01*
X111843000Y-77871000D01*
X111843000Y-77851000D01*
X110839000Y-77851000D01*
X110712000Y-77978000D01*
X110709542Y-78824000D01*
X105689000Y-78824000D01*
X105689000Y-76225000D01*
X110905418Y-76225000D01*
X110859052Y-76263052D01*
%TA.AperFunction,Conductor*%
D15*
G36*
X110859052Y-76263052D02*
G01*
X110795570Y-76340405D01*
X110748398Y-76428656D01*
X110719350Y-76524415D01*
X110709542Y-76624000D01*
X110712000Y-77470000D01*
X110839000Y-77597000D01*
X111843000Y-77597000D01*
X111843000Y-77577000D01*
X112097000Y-77577000D01*
X112097000Y-77597000D01*
X113101000Y-77597000D01*
X113228000Y-77470000D01*
X113230458Y-76624000D01*
X113220650Y-76524415D01*
X113191602Y-76428656D01*
X113144430Y-76340405D01*
X113080948Y-76263052D01*
X113034582Y-76225000D01*
X118105418Y-76225000D01*
X118059052Y-76263052D01*
X117995570Y-76340405D01*
X117948398Y-76428656D01*
X117919350Y-76524415D01*
X117909542Y-76624000D01*
X117912000Y-77470000D01*
X118039000Y-77597000D01*
X119043000Y-77597000D01*
X119043000Y-77577000D01*
X119297000Y-77577000D01*
X119297000Y-77597000D01*
X120301000Y-77597000D01*
X120428000Y-77470000D01*
X120430458Y-76624000D01*
X120420650Y-76524415D01*
X120391602Y-76428656D01*
X120344430Y-76340405D01*
X120280948Y-76263052D01*
X120234582Y-76225000D01*
X125451000Y-76225000D01*
X125451000Y-85021914D01*
X125409585Y-85009351D01*
X125310000Y-84999543D01*
X125158500Y-84999543D01*
X125158500Y-84870297D01*
X125161878Y-84835999D01*
X125158500Y-84801701D01*
X125158500Y-84801691D01*
X125148393Y-84699070D01*
X125108452Y-84567403D01*
X125076256Y-84507169D01*
X125043591Y-84446056D01*
X124978173Y-84366345D01*
X124978171Y-84366343D01*
X124956303Y-84339697D01*
X124929657Y-84317829D01*
X123454175Y-82842348D01*
X123432303Y-82815697D01*
X123325943Y-82728409D01*
X123204597Y-82663548D01*
X123072930Y-82623607D01*
X122970309Y-82613500D01*
X122970298Y-82613500D01*
X122936000Y-82610122D01*
X122901702Y-82613500D01*
X116623367Y-82613500D01*
X116589069Y-82610122D01*
X116554771Y-82613500D01*
X116554761Y-82613500D01*
X116452140Y-82623607D01*
X116320473Y-82663548D01*
X116320471Y-82663549D01*
X116199126Y-82728409D01*
X116119415Y-82793827D01*
X116092767Y-82815697D01*
X116070899Y-82842343D01*
X115744172Y-83169070D01*
X115734570Y-83169070D01*
X115559146Y-83203964D01*
X115393901Y-83272411D01*
X115245184Y-83371781D01*
X115118711Y-83498254D01*
X115019341Y-83646971D01*
X114950894Y-83812216D01*
X114916000Y-83987640D01*
X114916000Y-84166500D01*
X114950894Y-84341924D01*
X115019341Y-84507169D01*
X115118711Y-84655886D01*
X115245184Y-84782359D01*
X115393901Y-84881729D01*
X115559146Y-84950176D01*
X115734570Y-84985070D01*
X115913430Y-84985070D01*
X116088854Y-84950176D01*
X116254099Y-84881729D01*
X116402816Y-84782359D01*
X116529289Y-84655886D01*
X116628659Y-84507169D01*
X116697106Y-84341924D01*
X116732000Y-84166500D01*
X116732000Y-84156898D01*
X116878398Y-84010500D01*
X122646673Y-84010500D01*
X123635715Y-84999543D01*
X123610000Y-84999543D01*
X123510415Y-85009351D01*
X123414657Y-85038399D01*
X123326405Y-85085571D01*
X123249052Y-85149052D01*
X123185571Y-85226405D01*
X123138399Y-85314657D01*
X123109351Y-85410415D01*
X123099543Y-85510000D01*
X123099543Y-87210000D01*
X123109351Y-87309585D01*
X123138399Y-87405343D01*
X123185571Y-87493595D01*
X123249052Y-87570948D01*
X123326405Y-87634429D01*
X123414657Y-87681601D01*
X123510415Y-87710649D01*
X123610000Y-87720457D01*
X123780975Y-87720457D01*
X123594325Y-87845172D01*
X123405172Y-88034325D01*
X123256556Y-88256746D01*
X123154187Y-88503886D01*
X123102000Y-88766249D01*
X123102000Y-89033751D01*
X123141225Y-89230948D01*
X122646673Y-89725500D01*
X117727896Y-89725500D01*
X117713106Y-89651146D01*
X117644659Y-89485901D01*
X117545289Y-89337184D01*
X117418816Y-89210711D01*
X117270099Y-89111341D01*
X117104854Y-89042894D01*
X116929430Y-89008000D01*
X116750570Y-89008000D01*
X116575146Y-89042894D01*
X116409901Y-89111341D01*
X116261184Y-89210711D01*
X116134711Y-89337184D01*
X116035341Y-89485901D01*
X115966894Y-89651146D01*
X115932000Y-89826570D01*
X115932000Y-90005430D01*
X115966894Y-90180854D01*
X116035341Y-90346099D01*
X116134711Y-90494816D01*
X116261184Y-90621289D01*
X116409901Y-90720659D01*
X116575146Y-90789106D01*
X116750570Y-90824000D01*
X116760172Y-90824000D01*
X116829829Y-90893657D01*
X116851697Y-90920303D01*
X116878343Y-90942171D01*
X116878345Y-90942173D01*
X116958056Y-91007591D01*
X117079401Y-91072451D01*
X117079403Y-91072452D01*
X117211070Y-91112393D01*
X117313691Y-91122500D01*
X117313701Y-91122500D01*
X117347999Y-91125878D01*
X117382297Y-91122500D01*
X122901702Y-91122500D01*
X122936000Y-91125878D01*
X122970298Y-91122500D01*
X122970309Y-91122500D01*
X123072930Y-91112393D01*
X123144903Y-91090560D01*
X123102000Y-91306249D01*
X123102000Y-91573751D01*
X123141225Y-91770948D01*
X122646673Y-92265500D01*
X120473605Y-92265500D01*
X120466816Y-92258711D01*
X120318099Y-92159341D01*
X120152854Y-92090894D01*
X119977430Y-92056000D01*
X119798570Y-92056000D01*
X119623146Y-92090894D01*
X119457901Y-92159341D01*
X119309184Y-92258711D01*
X119302395Y-92265500D01*
X115858297Y-92265500D01*
X115823999Y-92262122D01*
X115789701Y-92265500D01*
X115789691Y-92265500D01*
X115687070Y-92275607D01*
X115555403Y-92315548D01*
X115555401Y-92315549D01*
X115434056Y-92380409D01*
X115354345Y-92445827D01*
X115327697Y-92467697D01*
X115305829Y-92494343D01*
X114220173Y-93580000D01*
X114210570Y-93580000D01*
X114035146Y-93614894D01*
X113869901Y-93683341D01*
X113721184Y-93782711D01*
X113594711Y-93909184D01*
X113495341Y-94057901D01*
X113426894Y-94223146D01*
X113392000Y-94398570D01*
X113392000Y-94577430D01*
X113426894Y-94752854D01*
X113495341Y-94918099D01*
X113594711Y-95066816D01*
X113721184Y-95193289D01*
X113869901Y-95292659D01*
X114035146Y-95361106D01*
X114210570Y-95396000D01*
X114389430Y-95396000D01*
X114564854Y-95361106D01*
X114730099Y-95292659D01*
X114878816Y-95193289D01*
X115005289Y-95066816D01*
X115104659Y-94918099D01*
X115173106Y-94752854D01*
X115208000Y-94577430D01*
X115208000Y-94567827D01*
X116113328Y-93662500D01*
X119302395Y-93662500D01*
X119309184Y-93669289D01*
X119457901Y-93768659D01*
X119623146Y-93837106D01*
X119798570Y-93872000D01*
X119977430Y-93872000D01*
X120152854Y-93837106D01*
X120318099Y-93768659D01*
X120466816Y-93669289D01*
X120473605Y-93662500D01*
X122901702Y-93662500D01*
X122936000Y-93665878D01*
X122970298Y-93662500D01*
X122970309Y-93662500D01*
X123072930Y-93652393D01*
X123148595Y-93629440D01*
X123144465Y-93643057D01*
X123235569Y-93853000D01*
X124333000Y-93853000D01*
X124333000Y-93833000D01*
X124587000Y-93833000D01*
X124587000Y-93853000D01*
X124607000Y-93853000D01*
X124607000Y-94107000D01*
X124587000Y-94107000D01*
X124587000Y-94127000D01*
X124333000Y-94127000D01*
X124333000Y-94107000D01*
X123235569Y-94107000D01*
X123144465Y-94316943D01*
X123178972Y-94430717D01*
X123291517Y-94671973D01*
X123448966Y-94886637D01*
X123645269Y-95066459D01*
X123872881Y-95204529D01*
X123986987Y-95246040D01*
X123816746Y-95316556D01*
X123594325Y-95465172D01*
X123405172Y-95654325D01*
X123293470Y-95821500D01*
X123292217Y-95821500D01*
X123257919Y-95818122D01*
X123223621Y-95821500D01*
X123223610Y-95821500D01*
X123120989Y-95831607D01*
X122989322Y-95871548D01*
X122932836Y-95901740D01*
X122867975Y-95936409D01*
X122788265Y-96001826D01*
X122788262Y-96001829D01*
X122761616Y-96023697D01*
X122739748Y-96050343D01*
X120942344Y-97847748D01*
X120915697Y-97869617D01*
X120893829Y-97896263D01*
X120893826Y-97896266D01*
X120828409Y-97975976D01*
X120763549Y-98097321D01*
X120763548Y-98097323D01*
X120723607Y-98228990D01*
X120713500Y-98331611D01*
X120713500Y-98331621D01*
X120710122Y-98365919D01*
X120713500Y-98400218D01*
X120713501Y-99490388D01*
X120706711Y-99497178D01*
X120607341Y-99645895D01*
X120538894Y-99811140D01*
X120504000Y-99986564D01*
X120504000Y-100165424D01*
X120538894Y-100340848D01*
X120607341Y-100506093D01*
X120706711Y-100654810D01*
X120833184Y-100781283D01*
X120981901Y-100880653D01*
X121147146Y-100949100D01*
X121322570Y-100983994D01*
X121501430Y-100983994D01*
X121676854Y-100949100D01*
X121793001Y-100900990D01*
X121793000Y-105601003D01*
X121743901Y-105621341D01*
X121595184Y-105720711D01*
X121468711Y-105847184D01*
X121369341Y-105995901D01*
X121300894Y-106161146D01*
X121266000Y-106336570D01*
X121266000Y-106515430D01*
X121300894Y-106690854D01*
X121369341Y-106856099D01*
X121468711Y-107004816D01*
X121595184Y-107131289D01*
X121743901Y-107230659D01*
X121909146Y-107299106D01*
X122084570Y-107334000D01*
X122263430Y-107334000D01*
X122438854Y-107299106D01*
X122604099Y-107230659D01*
X122752816Y-107131289D01*
X122879289Y-107004816D01*
X122978659Y-106856099D01*
X123047106Y-106690854D01*
X123082000Y-106515430D01*
X123082000Y-106336570D01*
X123060506Y-106228513D01*
X123063000Y-106203192D01*
X123063000Y-106203182D01*
X123066071Y-106172001D01*
X123063000Y-106140820D01*
X123063000Y-100217125D01*
X123133289Y-100146836D01*
X123232659Y-99998119D01*
X123301106Y-99832874D01*
X123310754Y-99784368D01*
X123405172Y-99925675D01*
X123594325Y-100114828D01*
X123816746Y-100263444D01*
X123977426Y-100330000D01*
X123816746Y-100396556D01*
X123594325Y-100545172D01*
X123405172Y-100734325D01*
X123256556Y-100956746D01*
X123154187Y-101203886D01*
X123102000Y-101466249D01*
X123102000Y-101733751D01*
X123154187Y-101996114D01*
X123256556Y-102243254D01*
X123405172Y-102465675D01*
X123594325Y-102654828D01*
X123816746Y-102803444D01*
X123977426Y-102870000D01*
X123816746Y-102936556D01*
X123594325Y-103085172D01*
X123405172Y-103274325D01*
X123256556Y-103496746D01*
X123154187Y-103743886D01*
X123102000Y-104006249D01*
X123102000Y-104273751D01*
X123154187Y-104536114D01*
X123256556Y-104783254D01*
X123405172Y-105005675D01*
X123594325Y-105194828D01*
X123816746Y-105343444D01*
X123977426Y-105410000D01*
X123816746Y-105476556D01*
X123594325Y-105625172D01*
X123405172Y-105814325D01*
X123256556Y-106036746D01*
X123154187Y-106283886D01*
X123102000Y-106546249D01*
X123102000Y-106813751D01*
X123154187Y-107076114D01*
X123256556Y-107323254D01*
X123405172Y-107545675D01*
X123594325Y-107734828D01*
X123816746Y-107883444D01*
X123977426Y-107950000D01*
X123816746Y-108016556D01*
X123594325Y-108165172D01*
X123405172Y-108354325D01*
X123256556Y-108576746D01*
X123154187Y-108823886D01*
X123102000Y-109086249D01*
X123102000Y-109353751D01*
X123154187Y-109616114D01*
X123256556Y-109863254D01*
X123405172Y-110085675D01*
X123594325Y-110274828D01*
X123816746Y-110423444D01*
X124063886Y-110525813D01*
X124326249Y-110578000D01*
X124593751Y-110578000D01*
X124856114Y-110525813D01*
X125103254Y-110423444D01*
X125325675Y-110274828D01*
X125451001Y-110149502D01*
X125451001Y-110719000D01*
X105689000Y-110719000D01*
X105689000Y-110149503D01*
X105814325Y-110274828D01*
X106036746Y-110423444D01*
X106283886Y-110525813D01*
X106546249Y-110578000D01*
X106813751Y-110578000D01*
X107076114Y-110525813D01*
X107323254Y-110423444D01*
X107545675Y-110274828D01*
X107734828Y-110085675D01*
X107883444Y-109863254D01*
X107985813Y-109616114D01*
X108038000Y-109353751D01*
X108038000Y-109086249D01*
X107985813Y-108823886D01*
X107883444Y-108576746D01*
X107734828Y-108354325D01*
X107545675Y-108165172D01*
X107323254Y-108016556D01*
X107162574Y-107950000D01*
X107323254Y-107883444D01*
X107545675Y-107734828D01*
X107734828Y-107545675D01*
X107883444Y-107323254D01*
X107985813Y-107076114D01*
X108038000Y-106813751D01*
X108038000Y-106546249D01*
X107985813Y-106283886D01*
X107883444Y-106036746D01*
X107734828Y-105814325D01*
X107545675Y-105625172D01*
X107323254Y-105476556D01*
X107162574Y-105410000D01*
X107323254Y-105343444D01*
X107545675Y-105194828D01*
X107734828Y-105005675D01*
X107883444Y-104783254D01*
X107985813Y-104536114D01*
X108038000Y-104273751D01*
X108038000Y-104006249D01*
X107985813Y-103743886D01*
X107883444Y-103496746D01*
X107734828Y-103274325D01*
X107545675Y-103085172D01*
X107323254Y-102936556D01*
X107162574Y-102870000D01*
X107323254Y-102803444D01*
X107545675Y-102654828D01*
X107734828Y-102465675D01*
X107883444Y-102243254D01*
X107985813Y-101996114D01*
X108038000Y-101733751D01*
X108038000Y-101466249D01*
X107985813Y-101203886D01*
X107883444Y-100956746D01*
X107734828Y-100734325D01*
X107545675Y-100545172D01*
X107323254Y-100396556D01*
X107162574Y-100330000D01*
X107323254Y-100263444D01*
X107545675Y-100114828D01*
X107734828Y-99925675D01*
X107883444Y-99703254D01*
X107985813Y-99456114D01*
X108038000Y-99193751D01*
X108038000Y-98926249D01*
X107985813Y-98663886D01*
X107883444Y-98416746D01*
X107734828Y-98194325D01*
X107545675Y-98005172D01*
X107323254Y-97856556D01*
X107162574Y-97790000D01*
X107323254Y-97723444D01*
X107545675Y-97574828D01*
X107734828Y-97385675D01*
X107883444Y-97163254D01*
X107985813Y-96916114D01*
X108038000Y-96653751D01*
X108038000Y-96386249D01*
X107985813Y-96123886D01*
X107883444Y-95876746D01*
X107734828Y-95654325D01*
X107545675Y-95465172D01*
X107323254Y-95316556D01*
X107153013Y-95246040D01*
X107267119Y-95204529D01*
X107494731Y-95066459D01*
X107691034Y-94886637D01*
X107848483Y-94671973D01*
X107961028Y-94430717D01*
X107995535Y-94316943D01*
X107904431Y-94107000D01*
X106807000Y-94107000D01*
X106807000Y-94127000D01*
X106553000Y-94127000D01*
X106553000Y-94107000D01*
X106533000Y-94107000D01*
X106533000Y-93853000D01*
X106553000Y-93853000D01*
X106553000Y-93833000D01*
X106807000Y-93833000D01*
X106807000Y-93853000D01*
X107904431Y-93853000D01*
X107995535Y-93643057D01*
X107961028Y-93529283D01*
X107848483Y-93288027D01*
X107691034Y-93073363D01*
X107494731Y-92893541D01*
X107267119Y-92755471D01*
X107153013Y-92713960D01*
X107323254Y-92643444D01*
X107545675Y-92494828D01*
X107734828Y-92305675D01*
X107883444Y-92083254D01*
X107985813Y-91836114D01*
X108038000Y-91573751D01*
X108038000Y-91306249D01*
X107985813Y-91043886D01*
X107883444Y-90796746D01*
X107734828Y-90574325D01*
X107545675Y-90385172D01*
X107323254Y-90236556D01*
X107162574Y-90170000D01*
X107323254Y-90103444D01*
X107545675Y-89954828D01*
X107734828Y-89765675D01*
X107883444Y-89543254D01*
X107985813Y-89296114D01*
X108026712Y-89090500D01*
X112190395Y-89090500D01*
X112197184Y-89097289D01*
X112345901Y-89196659D01*
X112511146Y-89265106D01*
X112686570Y-89300000D01*
X112865430Y-89300000D01*
X113040854Y-89265106D01*
X113206099Y-89196659D01*
X113354816Y-89097289D01*
X113481289Y-88970816D01*
X113580659Y-88822099D01*
X113649106Y-88656854D01*
X113684000Y-88481430D01*
X113684000Y-88302570D01*
X113649106Y-88127146D01*
X113580659Y-87961901D01*
X113481289Y-87813184D01*
X113354816Y-87686711D01*
X113206099Y-87587341D01*
X113040854Y-87518894D01*
X112865430Y-87484000D01*
X112686570Y-87484000D01*
X112511146Y-87518894D01*
X112345901Y-87587341D01*
X112197184Y-87686711D01*
X112190395Y-87693500D01*
X107686117Y-87693500D01*
X107725343Y-87681601D01*
X107813595Y-87634429D01*
X107890948Y-87570948D01*
X107954429Y-87493595D01*
X108001601Y-87405343D01*
X108030649Y-87309585D01*
X108040457Y-87210000D01*
X108040457Y-85510000D01*
X108030649Y-85410415D01*
X108001601Y-85314657D01*
X107954429Y-85226405D01*
X107890948Y-85149052D01*
X107813595Y-85085571D01*
X107725343Y-85038399D01*
X107629585Y-85009351D01*
X107530000Y-84999543D01*
X105830000Y-84999543D01*
X105730415Y-85009351D01*
X105689000Y-85021914D01*
X105689000Y-81274000D01*
X110909542Y-81274000D01*
X110919350Y-81373585D01*
X110948398Y-81469344D01*
X110995570Y-81557595D01*
X111059052Y-81634948D01*
X111136405Y-81698430D01*
X111224656Y-81745602D01*
X111320415Y-81774650D01*
X111420000Y-81784458D01*
X112016000Y-81782000D01*
X112143000Y-81655000D01*
X112143000Y-80651000D01*
X112397000Y-80651000D01*
X112397000Y-81655000D01*
X112524000Y-81782000D01*
X113120000Y-81784458D01*
X113219585Y-81774650D01*
X113315344Y-81745602D01*
X113403595Y-81698430D01*
X113480948Y-81634948D01*
X113544430Y-81557595D01*
X113591602Y-81469344D01*
X113620650Y-81373585D01*
X113630458Y-81274000D01*
X117509542Y-81274000D01*
X117519350Y-81373585D01*
X117548398Y-81469344D01*
X117595570Y-81557595D01*
X117659052Y-81634948D01*
X117736405Y-81698430D01*
X117824656Y-81745602D01*
X117920415Y-81774650D01*
X118020000Y-81784458D01*
X118616000Y-81782000D01*
X118743000Y-81655000D01*
X118743000Y-80651000D01*
X118997000Y-80651000D01*
X118997000Y-81655000D01*
X119124000Y-81782000D01*
X119720000Y-81784458D01*
X119819585Y-81774650D01*
X119915344Y-81745602D01*
X120003595Y-81698430D01*
X120080948Y-81634948D01*
X120144430Y-81557595D01*
X120191602Y-81469344D01*
X120220650Y-81373585D01*
X120230458Y-81274000D01*
X120228000Y-80778000D01*
X120101000Y-80651000D01*
X118997000Y-80651000D01*
X118743000Y-80651000D01*
X117639000Y-80651000D01*
X117512000Y-80778000D01*
X117509542Y-81274000D01*
X113630458Y-81274000D01*
X113628000Y-80778000D01*
X113501000Y-80651000D01*
X112397000Y-80651000D01*
X112143000Y-80651000D01*
X111039000Y-80651000D01*
X110912000Y-80778000D01*
X110909542Y-81274000D01*
X105689000Y-81274000D01*
X105689000Y-78824000D01*
X110709542Y-78824000D01*
X110719350Y-78923585D01*
X110748398Y-79019344D01*
X110795570Y-79107595D01*
X110859052Y-79184948D01*
X110936405Y-79248430D01*
X111024656Y-79295602D01*
X111120415Y-79324650D01*
X111173285Y-79329857D01*
X111136405Y-79349570D01*
X111059052Y-79413052D01*
X110995570Y-79490405D01*
X110948398Y-79578656D01*
X110919350Y-79674415D01*
X110909542Y-79774000D01*
X110912000Y-80270000D01*
X111039000Y-80397000D01*
X112143000Y-80397000D01*
X112143000Y-80377000D01*
X112397000Y-80377000D01*
X112397000Y-80397000D01*
X113282464Y-80397000D01*
X113355146Y-80427106D01*
X113530570Y-80462000D01*
X113709430Y-80462000D01*
X113884854Y-80427106D01*
X114050099Y-80358659D01*
X114198816Y-80259289D01*
X114325289Y-80132816D01*
X114424659Y-79984099D01*
X114493106Y-79818854D01*
X114528000Y-79643430D01*
X114528000Y-79464570D01*
X116612000Y-79464570D01*
X116612000Y-79643430D01*
X116646894Y-79818854D01*
X116715341Y-79984099D01*
X116814711Y-80132816D01*
X116941184Y-80259289D01*
X117089901Y-80358659D01*
X117255146Y-80427106D01*
X117430570Y-80462000D01*
X117609430Y-80462000D01*
X117784854Y-80427106D01*
X117857536Y-80397000D01*
X118743000Y-80397000D01*
X118743000Y-80377000D01*
X118997000Y-80377000D01*
X118997000Y-80397000D01*
X120101000Y-80397000D01*
X120228000Y-80270000D01*
X120230458Y-79774000D01*
X120220650Y-79674415D01*
X120191602Y-79578656D01*
X120144430Y-79490405D01*
X120080948Y-79413052D01*
X120003595Y-79349570D01*
X119966715Y-79329857D01*
X120019585Y-79324650D01*
X120115344Y-79295602D01*
X120203595Y-79248430D01*
X120280948Y-79184948D01*
X120344430Y-79107595D01*
X120391602Y-79019344D01*
X120420650Y-78923585D01*
X120430458Y-78824000D01*
X120428000Y-77978000D01*
X120301000Y-77851000D01*
X119297000Y-77851000D01*
X119297000Y-77871000D01*
X119043000Y-77871000D01*
X119043000Y-77851000D01*
X118039000Y-77851000D01*
X117912000Y-77978000D01*
X117909807Y-78732652D01*
X117784854Y-78680894D01*
X117609430Y-78646000D01*
X117430570Y-78646000D01*
X117255146Y-78680894D01*
X117089901Y-78749341D01*
X116941184Y-78848711D01*
X116814711Y-78975184D01*
X116715341Y-79123901D01*
X116646894Y-79289146D01*
X116612000Y-79464570D01*
X114528000Y-79464570D01*
X114493106Y-79289146D01*
X114424659Y-79123901D01*
X114325289Y-78975184D01*
X114198816Y-78848711D01*
X114050099Y-78749341D01*
X113884854Y-78680894D01*
X113709430Y-78646000D01*
X113530570Y-78646000D01*
X113355146Y-78680894D01*
X113230193Y-78732652D01*
X113228000Y-77978000D01*
X113101000Y-77851000D01*
X112097000Y-77851000D01*
X112097000Y-77871000D01*
X111843000Y-77871000D01*
X111843000Y-77851000D01*
X110839000Y-77851000D01*
X110712000Y-77978000D01*
X110709542Y-78824000D01*
X105689000Y-78824000D01*
X105689000Y-76225000D01*
X110905418Y-76225000D01*
X110859052Y-76263052D01*
G37*
%TD.AperFunction*%
%TD*%
M02*
