%TF.GenerationSoftware,KiCad,Pcbnew,(5.1.9)-1*%
%TF.CreationDate,2022-01-17T13:57:47-05:00*%
%TF.ProjectId,Dev16x4USB,44657631-3678-4345-9553-422e6b696361,rev?*%
%TF.SameCoordinates,Original*%
%TF.FileFunction,Soldermask,Top*%
%TF.FilePolarity,Negative*%
%FSLAX46Y46*%
G04 Gerber Fmt 4.6, Leading zero omitted, Abs format (unit mm)*
G04 Created by KiCad (PCBNEW (5.1.9)-1) date 2022-01-17 13:57:47*
%MOMM*%
%LPD*%
G01*
G04 APERTURE LIST*
%ADD10R,1.060000X0.650000*%
%ADD11R,0.900000X1.200000*%
%ADD12R,0.450000X0.600000*%
%ADD13O,1.700000X1.700000*%
%ADD14R,1.700000X1.700000*%
%ADD15R,1.000000X1.500000*%
%ADD16R,1.500000X1.000000*%
%ADD17R,1.100000X1.350000*%
%ADD18C,0.800000*%
%ADD19R,0.400000X2.000000*%
%ADD20R,1.400000X0.300000*%
G04 APERTURE END LIST*
D10*
%TO.C,U1*%
X114892000Y-90998000D03*
X114892000Y-92898000D03*
X112692000Y-92898000D03*
X112692000Y-91948000D03*
X112692000Y-90998000D03*
%TD*%
D11*
%TO.C,D3*%
X113918000Y-88392000D03*
X110618000Y-88392000D03*
%TD*%
D12*
%TO.C,D2*%
X119380000Y-107222000D03*
X119380000Y-105122000D03*
%TD*%
%TO.C,C5*%
G36*
G01*
X114117000Y-99818000D02*
X114117000Y-99318000D01*
G75*
G02*
X114342000Y-99093000I225000J0D01*
G01*
X114792000Y-99093000D01*
G75*
G02*
X115017000Y-99318000I0J-225000D01*
G01*
X115017000Y-99818000D01*
G75*
G02*
X114792000Y-100043000I-225000J0D01*
G01*
X114342000Y-100043000D01*
G75*
G02*
X114117000Y-99818000I0J225000D01*
G01*
G37*
G36*
G01*
X112567000Y-99818000D02*
X112567000Y-99318000D01*
G75*
G02*
X112792000Y-99093000I225000J0D01*
G01*
X113242000Y-99093000D01*
G75*
G02*
X113467000Y-99318000I0J-225000D01*
G01*
X113467000Y-99818000D01*
G75*
G02*
X113242000Y-100043000I-225000J0D01*
G01*
X112792000Y-100043000D01*
G75*
G02*
X112567000Y-99818000I0J225000D01*
G01*
G37*
%TD*%
%TO.C,C4*%
G36*
G01*
X120721000Y-88134000D02*
X120721000Y-87634000D01*
G75*
G02*
X120946000Y-87409000I225000J0D01*
G01*
X121396000Y-87409000D01*
G75*
G02*
X121621000Y-87634000I0J-225000D01*
G01*
X121621000Y-88134000D01*
G75*
G02*
X121396000Y-88359000I-225000J0D01*
G01*
X120946000Y-88359000D01*
G75*
G02*
X120721000Y-88134000I0J225000D01*
G01*
G37*
G36*
G01*
X119171000Y-88134000D02*
X119171000Y-87634000D01*
G75*
G02*
X119396000Y-87409000I225000J0D01*
G01*
X119846000Y-87409000D01*
G75*
G02*
X120071000Y-87634000I0J-225000D01*
G01*
X120071000Y-88134000D01*
G75*
G02*
X119846000Y-88359000I-225000J0D01*
G01*
X119396000Y-88359000D01*
G75*
G02*
X119171000Y-88134000I0J225000D01*
G01*
G37*
%TD*%
%TO.C,C3*%
G36*
G01*
X121162000Y-84653000D02*
X121662000Y-84653000D01*
G75*
G02*
X121887000Y-84878000I0J-225000D01*
G01*
X121887000Y-85328000D01*
G75*
G02*
X121662000Y-85553000I-225000J0D01*
G01*
X121162000Y-85553000D01*
G75*
G02*
X120937000Y-85328000I0J225000D01*
G01*
X120937000Y-84878000D01*
G75*
G02*
X121162000Y-84653000I225000J0D01*
G01*
G37*
G36*
G01*
X121162000Y-83103000D02*
X121662000Y-83103000D01*
G75*
G02*
X121887000Y-83328000I0J-225000D01*
G01*
X121887000Y-83778000D01*
G75*
G02*
X121662000Y-84003000I-225000J0D01*
G01*
X121162000Y-84003000D01*
G75*
G02*
X120937000Y-83778000I0J225000D01*
G01*
X120937000Y-83328000D01*
G75*
G02*
X121162000Y-83103000I225000J0D01*
G01*
G37*
%TD*%
%TO.C,C2*%
G36*
G01*
X116590000Y-92273000D02*
X117090000Y-92273000D01*
G75*
G02*
X117315000Y-92498000I0J-225000D01*
G01*
X117315000Y-92948000D01*
G75*
G02*
X117090000Y-93173000I-225000J0D01*
G01*
X116590000Y-93173000D01*
G75*
G02*
X116365000Y-92948000I0J225000D01*
G01*
X116365000Y-92498000D01*
G75*
G02*
X116590000Y-92273000I225000J0D01*
G01*
G37*
G36*
G01*
X116590000Y-90723000D02*
X117090000Y-90723000D01*
G75*
G02*
X117315000Y-90948000I0J-225000D01*
G01*
X117315000Y-91398000D01*
G75*
G02*
X117090000Y-91623000I-225000J0D01*
G01*
X116590000Y-91623000D01*
G75*
G02*
X116365000Y-91398000I0J225000D01*
G01*
X116365000Y-90948000D01*
G75*
G02*
X116590000Y-90723000I225000J0D01*
G01*
G37*
%TD*%
%TO.C,C1*%
G36*
G01*
X110494000Y-92273000D02*
X110994000Y-92273000D01*
G75*
G02*
X111219000Y-92498000I0J-225000D01*
G01*
X111219000Y-92948000D01*
G75*
G02*
X110994000Y-93173000I-225000J0D01*
G01*
X110494000Y-93173000D01*
G75*
G02*
X110269000Y-92948000I0J225000D01*
G01*
X110269000Y-92498000D01*
G75*
G02*
X110494000Y-92273000I225000J0D01*
G01*
G37*
G36*
G01*
X110494000Y-90723000D02*
X110994000Y-90723000D01*
G75*
G02*
X111219000Y-90948000I0J-225000D01*
G01*
X111219000Y-91398000D01*
G75*
G02*
X110994000Y-91623000I-225000J0D01*
G01*
X110494000Y-91623000D01*
G75*
G02*
X110269000Y-91398000I0J225000D01*
G01*
X110269000Y-90948000D01*
G75*
G02*
X110494000Y-90723000I225000J0D01*
G01*
G37*
%TD*%
D13*
%TO.C,J3*%
X124460000Y-109220000D03*
X124460000Y-106680000D03*
X124460000Y-104140000D03*
X124460000Y-101600000D03*
X124460000Y-99060000D03*
X124460000Y-96520000D03*
X124460000Y-93980000D03*
X124460000Y-91440000D03*
X124460000Y-88900000D03*
D14*
X124460000Y-86360000D03*
%TD*%
D13*
%TO.C,J2*%
X106680000Y-109220000D03*
X106680000Y-106680000D03*
X106680000Y-104140000D03*
X106680000Y-101600000D03*
X106680000Y-99060000D03*
X106680000Y-96520000D03*
X106680000Y-93980000D03*
X106680000Y-91440000D03*
X106680000Y-88900000D03*
D14*
X106680000Y-86360000D03*
%TD*%
%TO.C,R2*%
G36*
G01*
X119830001Y-101962000D02*
X118929999Y-101962000D01*
G75*
G02*
X118680000Y-101712001I0J249999D01*
G01*
X118680000Y-101186999D01*
G75*
G02*
X118929999Y-100937000I249999J0D01*
G01*
X119830001Y-100937000D01*
G75*
G02*
X120080000Y-101186999I0J-249999D01*
G01*
X120080000Y-101712001D01*
G75*
G02*
X119830001Y-101962000I-249999J0D01*
G01*
G37*
G36*
G01*
X119830001Y-103787000D02*
X118929999Y-103787000D01*
G75*
G02*
X118680000Y-103537001I0J249999D01*
G01*
X118680000Y-103011999D01*
G75*
G02*
X118929999Y-102762000I249999J0D01*
G01*
X119830001Y-102762000D01*
G75*
G02*
X120080000Y-103011999I0J-249999D01*
G01*
X120080000Y-103537001D01*
G75*
G02*
X119830001Y-103787000I-249999J0D01*
G01*
G37*
%TD*%
%TO.C,R1*%
G36*
G01*
X120288000Y-96208001D02*
X120288000Y-95307999D01*
G75*
G02*
X120537999Y-95058000I249999J0D01*
G01*
X121063001Y-95058000D01*
G75*
G02*
X121313000Y-95307999I0J-249999D01*
G01*
X121313000Y-96208001D01*
G75*
G02*
X121063001Y-96458000I-249999J0D01*
G01*
X120537999Y-96458000D01*
G75*
G02*
X120288000Y-96208001I0J249999D01*
G01*
G37*
G36*
G01*
X118463000Y-96208001D02*
X118463000Y-95307999D01*
G75*
G02*
X118712999Y-95058000I249999J0D01*
G01*
X119238001Y-95058000D01*
G75*
G02*
X119488000Y-95307999I0J-249999D01*
G01*
X119488000Y-96208001D01*
G75*
G02*
X119238001Y-96458000I-249999J0D01*
G01*
X118712999Y-96458000D01*
G75*
G02*
X118463000Y-96208001I0J249999D01*
G01*
G37*
%TD*%
D15*
%TO.C,VCC*%
X115600000Y-96012000D03*
X114300000Y-96012000D03*
X113000000Y-96012000D03*
%TD*%
D16*
%TO.C,JP1*%
X122936000Y-80914000D03*
X122936000Y-79614000D03*
%TD*%
D17*
%TO.C,J1*%
X113370000Y-77724000D03*
X117770000Y-77724000D03*
D18*
X113620000Y-79554000D03*
X117520000Y-79554000D03*
D19*
X116870000Y-80324000D03*
X116220000Y-80324000D03*
X115570000Y-80324000D03*
X114920000Y-80324000D03*
X114270000Y-80324000D03*
G36*
G01*
X118420000Y-78449000D02*
X118420000Y-76999000D01*
G75*
G02*
X118795000Y-76624000I375000J0D01*
G01*
X119545000Y-76624000D01*
G75*
G02*
X119920000Y-76999000I0J-375000D01*
G01*
X119920000Y-78449000D01*
G75*
G02*
X119545000Y-78824000I-375000J0D01*
G01*
X118795000Y-78824000D01*
G75*
G02*
X118420000Y-78449000I0J375000D01*
G01*
G37*
G36*
G01*
X111220000Y-78449000D02*
X111220000Y-76999000D01*
G75*
G02*
X111595000Y-76624000I375000J0D01*
G01*
X112345000Y-76624000D01*
G75*
G02*
X112720000Y-76999000I0J-375000D01*
G01*
X112720000Y-78449000D01*
G75*
G02*
X112345000Y-78824000I-375000J0D01*
G01*
X111595000Y-78824000D01*
G75*
G02*
X111220000Y-78449000I0J375000D01*
G01*
G37*
G36*
G01*
X111420000Y-80899000D02*
X111420000Y-80149000D01*
G75*
G02*
X111795000Y-79774000I375000J0D01*
G01*
X112745000Y-79774000D01*
G75*
G02*
X113120000Y-80149000I0J-375000D01*
G01*
X113120000Y-80899000D01*
G75*
G02*
X112745000Y-81274000I-375000J0D01*
G01*
X111795000Y-81274000D01*
G75*
G02*
X111420000Y-80899000I0J375000D01*
G01*
G37*
G36*
G01*
X118020000Y-80899000D02*
X118020000Y-80149000D01*
G75*
G02*
X118395000Y-79774000I375000J0D01*
G01*
X119345000Y-79774000D01*
G75*
G02*
X119720000Y-80149000I0J-375000D01*
G01*
X119720000Y-80899000D01*
G75*
G02*
X119345000Y-81274000I-375000J0D01*
G01*
X118395000Y-81274000D01*
G75*
G02*
X118020000Y-80899000I0J375000D01*
G01*
G37*
%TD*%
%TO.C,D1*%
G36*
G01*
X120338000Y-98500250D02*
X120338000Y-97587750D01*
G75*
G02*
X120581750Y-97344000I243750J0D01*
G01*
X121069250Y-97344000D01*
G75*
G02*
X121313000Y-97587750I0J-243750D01*
G01*
X121313000Y-98500250D01*
G75*
G02*
X121069250Y-98744000I-243750J0D01*
G01*
X120581750Y-98744000D01*
G75*
G02*
X120338000Y-98500250I0J243750D01*
G01*
G37*
G36*
G01*
X118463000Y-98500250D02*
X118463000Y-97587750D01*
G75*
G02*
X118706750Y-97344000I243750J0D01*
G01*
X119194250Y-97344000D01*
G75*
G02*
X119438000Y-97587750I0J-243750D01*
G01*
X119438000Y-98500250D01*
G75*
G02*
X119194250Y-98744000I-243750J0D01*
G01*
X118706750Y-98744000D01*
G75*
G02*
X118463000Y-98500250I0J243750D01*
G01*
G37*
%TD*%
D20*
%TO.C,U3*%
X118532000Y-83328000D03*
X118532000Y-83828000D03*
X118532000Y-84328000D03*
X118532000Y-84828000D03*
X118532000Y-85328000D03*
X114132000Y-85328000D03*
X114132000Y-84828000D03*
X114132000Y-84328000D03*
X114132000Y-83828000D03*
X114132000Y-83328000D03*
%TD*%
%TO.C,U2*%
G36*
G01*
X115292000Y-102512000D02*
X115292000Y-102212000D01*
G75*
G02*
X115442000Y-102062000I150000J0D01*
G01*
X117092000Y-102062000D01*
G75*
G02*
X117242000Y-102212000I0J-150000D01*
G01*
X117242000Y-102512000D01*
G75*
G02*
X117092000Y-102662000I-150000J0D01*
G01*
X115442000Y-102662000D01*
G75*
G02*
X115292000Y-102512000I0J150000D01*
G01*
G37*
G36*
G01*
X115292000Y-103782000D02*
X115292000Y-103482000D01*
G75*
G02*
X115442000Y-103332000I150000J0D01*
G01*
X117092000Y-103332000D01*
G75*
G02*
X117242000Y-103482000I0J-150000D01*
G01*
X117242000Y-103782000D01*
G75*
G02*
X117092000Y-103932000I-150000J0D01*
G01*
X115442000Y-103932000D01*
G75*
G02*
X115292000Y-103782000I0J150000D01*
G01*
G37*
G36*
G01*
X115292000Y-105052000D02*
X115292000Y-104752000D01*
G75*
G02*
X115442000Y-104602000I150000J0D01*
G01*
X117092000Y-104602000D01*
G75*
G02*
X117242000Y-104752000I0J-150000D01*
G01*
X117242000Y-105052000D01*
G75*
G02*
X117092000Y-105202000I-150000J0D01*
G01*
X115442000Y-105202000D01*
G75*
G02*
X115292000Y-105052000I0J150000D01*
G01*
G37*
G36*
G01*
X115292000Y-106322000D02*
X115292000Y-106022000D01*
G75*
G02*
X115442000Y-105872000I150000J0D01*
G01*
X117092000Y-105872000D01*
G75*
G02*
X117242000Y-106022000I0J-150000D01*
G01*
X117242000Y-106322000D01*
G75*
G02*
X117092000Y-106472000I-150000J0D01*
G01*
X115442000Y-106472000D01*
G75*
G02*
X115292000Y-106322000I0J150000D01*
G01*
G37*
G36*
G01*
X115292000Y-107592000D02*
X115292000Y-107292000D01*
G75*
G02*
X115442000Y-107142000I150000J0D01*
G01*
X117092000Y-107142000D01*
G75*
G02*
X117242000Y-107292000I0J-150000D01*
G01*
X117242000Y-107592000D01*
G75*
G02*
X117092000Y-107742000I-150000J0D01*
G01*
X115442000Y-107742000D01*
G75*
G02*
X115292000Y-107592000I0J150000D01*
G01*
G37*
G36*
G01*
X115292000Y-108862000D02*
X115292000Y-108562000D01*
G75*
G02*
X115442000Y-108412000I150000J0D01*
G01*
X117092000Y-108412000D01*
G75*
G02*
X117242000Y-108562000I0J-150000D01*
G01*
X117242000Y-108862000D01*
G75*
G02*
X117092000Y-109012000I-150000J0D01*
G01*
X115442000Y-109012000D01*
G75*
G02*
X115292000Y-108862000I0J150000D01*
G01*
G37*
G36*
G01*
X115292000Y-110132000D02*
X115292000Y-109832000D01*
G75*
G02*
X115442000Y-109682000I150000J0D01*
G01*
X117092000Y-109682000D01*
G75*
G02*
X117242000Y-109832000I0J-150000D01*
G01*
X117242000Y-110132000D01*
G75*
G02*
X117092000Y-110282000I-150000J0D01*
G01*
X115442000Y-110282000D01*
G75*
G02*
X115292000Y-110132000I0J150000D01*
G01*
G37*
G36*
G01*
X110342000Y-110132000D02*
X110342000Y-109832000D01*
G75*
G02*
X110492000Y-109682000I150000J0D01*
G01*
X112142000Y-109682000D01*
G75*
G02*
X112292000Y-109832000I0J-150000D01*
G01*
X112292000Y-110132000D01*
G75*
G02*
X112142000Y-110282000I-150000J0D01*
G01*
X110492000Y-110282000D01*
G75*
G02*
X110342000Y-110132000I0J150000D01*
G01*
G37*
G36*
G01*
X110342000Y-108862000D02*
X110342000Y-108562000D01*
G75*
G02*
X110492000Y-108412000I150000J0D01*
G01*
X112142000Y-108412000D01*
G75*
G02*
X112292000Y-108562000I0J-150000D01*
G01*
X112292000Y-108862000D01*
G75*
G02*
X112142000Y-109012000I-150000J0D01*
G01*
X110492000Y-109012000D01*
G75*
G02*
X110342000Y-108862000I0J150000D01*
G01*
G37*
G36*
G01*
X110342000Y-107592000D02*
X110342000Y-107292000D01*
G75*
G02*
X110492000Y-107142000I150000J0D01*
G01*
X112142000Y-107142000D01*
G75*
G02*
X112292000Y-107292000I0J-150000D01*
G01*
X112292000Y-107592000D01*
G75*
G02*
X112142000Y-107742000I-150000J0D01*
G01*
X110492000Y-107742000D01*
G75*
G02*
X110342000Y-107592000I0J150000D01*
G01*
G37*
G36*
G01*
X110342000Y-106322000D02*
X110342000Y-106022000D01*
G75*
G02*
X110492000Y-105872000I150000J0D01*
G01*
X112142000Y-105872000D01*
G75*
G02*
X112292000Y-106022000I0J-150000D01*
G01*
X112292000Y-106322000D01*
G75*
G02*
X112142000Y-106472000I-150000J0D01*
G01*
X110492000Y-106472000D01*
G75*
G02*
X110342000Y-106322000I0J150000D01*
G01*
G37*
G36*
G01*
X110342000Y-105052000D02*
X110342000Y-104752000D01*
G75*
G02*
X110492000Y-104602000I150000J0D01*
G01*
X112142000Y-104602000D01*
G75*
G02*
X112292000Y-104752000I0J-150000D01*
G01*
X112292000Y-105052000D01*
G75*
G02*
X112142000Y-105202000I-150000J0D01*
G01*
X110492000Y-105202000D01*
G75*
G02*
X110342000Y-105052000I0J150000D01*
G01*
G37*
G36*
G01*
X110342000Y-103782000D02*
X110342000Y-103482000D01*
G75*
G02*
X110492000Y-103332000I150000J0D01*
G01*
X112142000Y-103332000D01*
G75*
G02*
X112292000Y-103482000I0J-150000D01*
G01*
X112292000Y-103782000D01*
G75*
G02*
X112142000Y-103932000I-150000J0D01*
G01*
X110492000Y-103932000D01*
G75*
G02*
X110342000Y-103782000I0J150000D01*
G01*
G37*
G36*
G01*
X110342000Y-102512000D02*
X110342000Y-102212000D01*
G75*
G02*
X110492000Y-102062000I150000J0D01*
G01*
X112142000Y-102062000D01*
G75*
G02*
X112292000Y-102212000I0J-150000D01*
G01*
X112292000Y-102512000D01*
G75*
G02*
X112142000Y-102662000I-150000J0D01*
G01*
X110492000Y-102662000D01*
G75*
G02*
X110342000Y-102512000I0J150000D01*
G01*
G37*
%TD*%
M02*
