M48
; DRILL file {KiCad (5.1.9)-1} date 01/17/22 18:14:25
; FORMAT={-:-/ absolute / inch / decimal}
; #@! TF.CreationDate,2022-01-17T18:14:25-05:00
; #@! TF.GenerationSoftware,Kicad,Pcbnew,(5.1.9)-1
; #@! TF.FileFunction,Plated,1,2,PTH
FMAT,2
INCH
T1C0.0157
T2C0.0276
T3C0.0315
T4C0.0394
%
G90
G05
T1
X4.36Y-3.72
X4.44Y-3.48
X4.5Y-3.72
X4.56Y-3.3101
X4.56Y-3.92
X4.6Y-3.54
X4.6Y-3.7
X4.68Y-3.92
X4.72Y-3.66
X4.78Y-3.52
X4.78Y-3.62
X4.78Y-3.7
X4.78Y-3.94
X4.81Y-4.19
X4.82Y-3.92
X4.84Y-3.34
T4
X4.2Y-3.4
X4.2Y-3.5
X4.2Y-3.6
X4.2Y-3.7
X4.2Y-3.8
X4.2Y-3.9
X4.2Y-4.0
X4.2Y-4.1
X4.2Y-4.2
X4.2Y-4.3
X4.9Y-3.4
X4.9Y-3.5
X4.9Y-3.6
X4.9Y-3.7
X4.9Y-3.8
X4.9Y-3.9
X4.9Y-4.0
X4.9Y-4.1
X4.9Y-4.2
X4.9Y-4.3
T2
G00X4.4161Y-3.1702
M15
G01X4.424Y-3.1702
M16
G05
G00X4.676Y-3.1702
M15
G01X4.6839Y-3.1702
M16
G05
T3
G00X4.4083Y-3.0502
M15
G01X4.4083Y-3.0698
M16
G05
G00X4.6917Y-3.0502
M15
G01X4.6917Y-3.0698
M16
G05
T0
M30
