%TF.GenerationSoftware,KiCad,Pcbnew,(5.1.9)-1*%
%TF.CreationDate,2022-01-17T18:14:23-05:00*%
%TF.ProjectId,Dev16x4USB,44657631-3678-4345-9553-422e6b696361,rev?*%
%TF.SameCoordinates,Original*%
%TF.FileFunction,Legend,Bot*%
%TF.FilePolarity,Positive*%
%FSLAX46Y46*%
G04 Gerber Fmt 4.6, Leading zero omitted, Abs format (unit mm)*
G04 Created by KiCad (PCBNEW (5.1.9)-1) date 2022-01-17 18:14:23*
%MOMM*%
%LPD*%
G01*
G04 APERTURE LIST*
%ADD10C,0.100000*%
%ADD11C,0.010000*%
G04 APERTURE END LIST*
D10*
X124171904Y-76455476D02*
X123371904Y-76455476D01*
X123371904Y-76645952D01*
X123410000Y-76760238D01*
X123486190Y-76836428D01*
X123562380Y-76874523D01*
X123714761Y-76912619D01*
X123829047Y-76912619D01*
X123981428Y-76874523D01*
X124057619Y-76836428D01*
X124133809Y-76760238D01*
X124171904Y-76645952D01*
X124171904Y-76455476D01*
X124133809Y-77560238D02*
X124171904Y-77484047D01*
X124171904Y-77331666D01*
X124133809Y-77255476D01*
X124057619Y-77217380D01*
X123752857Y-77217380D01*
X123676666Y-77255476D01*
X123638571Y-77331666D01*
X123638571Y-77484047D01*
X123676666Y-77560238D01*
X123752857Y-77598333D01*
X123829047Y-77598333D01*
X123905238Y-77217380D01*
X124133809Y-77903095D02*
X124171904Y-77979285D01*
X124171904Y-78131666D01*
X124133809Y-78207857D01*
X124057619Y-78245952D01*
X124019523Y-78245952D01*
X123943333Y-78207857D01*
X123905238Y-78131666D01*
X123905238Y-78017380D01*
X123867142Y-77941190D01*
X123790952Y-77903095D01*
X123752857Y-77903095D01*
X123676666Y-77941190D01*
X123638571Y-78017380D01*
X123638571Y-78131666D01*
X123676666Y-78207857D01*
X124171904Y-78588809D02*
X123638571Y-78588809D01*
X123371904Y-78588809D02*
X123410000Y-78550714D01*
X123448095Y-78588809D01*
X123410000Y-78626904D01*
X123371904Y-78588809D01*
X123448095Y-78588809D01*
X123638571Y-79312619D02*
X124286190Y-79312619D01*
X124362380Y-79274523D01*
X124400476Y-79236428D01*
X124438571Y-79160238D01*
X124438571Y-79045952D01*
X124400476Y-78969761D01*
X124133809Y-79312619D02*
X124171904Y-79236428D01*
X124171904Y-79084047D01*
X124133809Y-79007857D01*
X124095714Y-78969761D01*
X124019523Y-78931666D01*
X123790952Y-78931666D01*
X123714761Y-78969761D01*
X123676666Y-79007857D01*
X123638571Y-79084047D01*
X123638571Y-79236428D01*
X123676666Y-79312619D01*
X123638571Y-79693571D02*
X124171904Y-79693571D01*
X123714761Y-79693571D02*
X123676666Y-79731666D01*
X123638571Y-79807857D01*
X123638571Y-79922142D01*
X123676666Y-79998333D01*
X123752857Y-80036428D01*
X124171904Y-80036428D01*
X124133809Y-80722142D02*
X124171904Y-80645952D01*
X124171904Y-80493571D01*
X124133809Y-80417380D01*
X124057619Y-80379285D01*
X123752857Y-80379285D01*
X123676666Y-80417380D01*
X123638571Y-80493571D01*
X123638571Y-80645952D01*
X123676666Y-80722142D01*
X123752857Y-80760238D01*
X123829047Y-80760238D01*
X123905238Y-80379285D01*
X124171904Y-81445952D02*
X123371904Y-81445952D01*
X124133809Y-81445952D02*
X124171904Y-81369761D01*
X124171904Y-81217380D01*
X124133809Y-81141190D01*
X124095714Y-81103095D01*
X124019523Y-81065000D01*
X123790952Y-81065000D01*
X123714761Y-81103095D01*
X123676666Y-81141190D01*
X123638571Y-81217380D01*
X123638571Y-81369761D01*
X123676666Y-81445952D01*
X124171904Y-82436428D02*
X123371904Y-82436428D01*
X123676666Y-82436428D02*
X123638571Y-82512619D01*
X123638571Y-82665000D01*
X123676666Y-82741190D01*
X123714761Y-82779285D01*
X123790952Y-82817380D01*
X124019523Y-82817380D01*
X124095714Y-82779285D01*
X124133809Y-82741190D01*
X124171904Y-82665000D01*
X124171904Y-82512619D01*
X124133809Y-82436428D01*
X123638571Y-83084047D02*
X124171904Y-83274523D01*
X123638571Y-83465000D02*
X124171904Y-83274523D01*
X124362380Y-83198333D01*
X124400476Y-83160238D01*
X124438571Y-83084047D01*
X125243333Y-76417380D02*
X125243333Y-76798333D01*
X125471904Y-76341190D02*
X124671904Y-76607857D01*
X125471904Y-76874523D01*
X125471904Y-77255476D02*
X125433809Y-77179285D01*
X125357619Y-77141190D01*
X124671904Y-77141190D01*
X125471904Y-77903095D02*
X125052857Y-77903095D01*
X124976666Y-77865000D01*
X124938571Y-77788809D01*
X124938571Y-77636428D01*
X124976666Y-77560238D01*
X125433809Y-77903095D02*
X125471904Y-77826904D01*
X125471904Y-77636428D01*
X125433809Y-77560238D01*
X125357619Y-77522142D01*
X125281428Y-77522142D01*
X125205238Y-77560238D01*
X125167142Y-77636428D01*
X125167142Y-77826904D01*
X125129047Y-77903095D01*
X124938571Y-78284047D02*
X125471904Y-78284047D01*
X125014761Y-78284047D02*
X124976666Y-78322142D01*
X124938571Y-78398333D01*
X124938571Y-78512619D01*
X124976666Y-78588809D01*
X125052857Y-78626904D01*
X125471904Y-78626904D01*
X125471904Y-79617380D02*
X124671904Y-79617380D01*
X125052857Y-79617380D02*
X125052857Y-80074523D01*
X125471904Y-80074523D02*
X124671904Y-80074523D01*
X125395714Y-80455476D02*
X125433809Y-80493571D01*
X125471904Y-80455476D01*
X125433809Y-80417380D01*
X125395714Y-80455476D01*
X125471904Y-80455476D01*
X106387333Y-76417380D02*
X106387333Y-76798333D01*
X106615904Y-76341190D02*
X105815904Y-76607857D01*
X106615904Y-76874523D01*
X105815904Y-77026904D02*
X105815904Y-77484047D01*
X106615904Y-77255476D02*
X105815904Y-77255476D01*
X105815904Y-77636428D02*
X105815904Y-78093571D01*
X106615904Y-77865000D02*
X105815904Y-77865000D01*
X106615904Y-78360238D02*
X106082571Y-78360238D01*
X105815904Y-78360238D02*
X105854000Y-78322142D01*
X105892095Y-78360238D01*
X105854000Y-78398333D01*
X105815904Y-78360238D01*
X105892095Y-78360238D01*
X106082571Y-78741190D02*
X106615904Y-78741190D01*
X106158761Y-78741190D02*
X106120666Y-78779285D01*
X106082571Y-78855476D01*
X106082571Y-78969761D01*
X106120666Y-79045952D01*
X106196857Y-79084047D01*
X106615904Y-79084047D01*
X106082571Y-79388809D02*
X106615904Y-79579285D01*
X106082571Y-79769761D02*
X106615904Y-79579285D01*
X106806380Y-79503095D01*
X106844476Y-79465000D01*
X106882571Y-79388809D01*
X106615904Y-80493571D02*
X106615904Y-80036428D01*
X106615904Y-80265000D02*
X105815904Y-80265000D01*
X105930190Y-80188809D01*
X106006380Y-80112619D01*
X106044476Y-80036428D01*
X105815904Y-81179285D02*
X105815904Y-81026904D01*
X105854000Y-80950714D01*
X105892095Y-80912619D01*
X106006380Y-80836428D01*
X106158761Y-80798333D01*
X106463523Y-80798333D01*
X106539714Y-80836428D01*
X106577809Y-80874523D01*
X106615904Y-80950714D01*
X106615904Y-81103095D01*
X106577809Y-81179285D01*
X106539714Y-81217380D01*
X106463523Y-81255476D01*
X106273047Y-81255476D01*
X106196857Y-81217380D01*
X106158761Y-81179285D01*
X106120666Y-81103095D01*
X106120666Y-80950714D01*
X106158761Y-80874523D01*
X106196857Y-80836428D01*
X106273047Y-80798333D01*
X106615904Y-81522142D02*
X106082571Y-81941190D01*
X106082571Y-81522142D02*
X106615904Y-81941190D01*
X106082571Y-82588809D02*
X106615904Y-82588809D01*
X105777809Y-82398333D02*
X106349238Y-82207857D01*
X106349238Y-82703095D01*
X107115904Y-76455476D02*
X107763523Y-76455476D01*
X107839714Y-76493571D01*
X107877809Y-76531666D01*
X107915904Y-76607857D01*
X107915904Y-76760238D01*
X107877809Y-76836428D01*
X107839714Y-76874523D01*
X107763523Y-76912619D01*
X107115904Y-76912619D01*
X107877809Y-77255476D02*
X107915904Y-77369761D01*
X107915904Y-77560238D01*
X107877809Y-77636428D01*
X107839714Y-77674523D01*
X107763523Y-77712619D01*
X107687333Y-77712619D01*
X107611142Y-77674523D01*
X107573047Y-77636428D01*
X107534952Y-77560238D01*
X107496857Y-77407857D01*
X107458761Y-77331666D01*
X107420666Y-77293571D01*
X107344476Y-77255476D01*
X107268285Y-77255476D01*
X107192095Y-77293571D01*
X107154000Y-77331666D01*
X107115904Y-77407857D01*
X107115904Y-77598333D01*
X107154000Y-77712619D01*
X107496857Y-78322142D02*
X107534952Y-78436428D01*
X107573047Y-78474523D01*
X107649238Y-78512619D01*
X107763523Y-78512619D01*
X107839714Y-78474523D01*
X107877809Y-78436428D01*
X107915904Y-78360238D01*
X107915904Y-78055476D01*
X107115904Y-78055476D01*
X107115904Y-78322142D01*
X107154000Y-78398333D01*
X107192095Y-78436428D01*
X107268285Y-78474523D01*
X107344476Y-78474523D01*
X107420666Y-78436428D01*
X107458761Y-78398333D01*
X107496857Y-78322142D01*
X107496857Y-78055476D01*
X107915904Y-79465000D02*
X107115904Y-79465000D01*
X107115904Y-79655476D01*
X107154000Y-79769761D01*
X107230190Y-79845952D01*
X107306380Y-79884047D01*
X107458761Y-79922142D01*
X107573047Y-79922142D01*
X107725428Y-79884047D01*
X107801619Y-79845952D01*
X107877809Y-79769761D01*
X107915904Y-79655476D01*
X107915904Y-79465000D01*
X107877809Y-80569761D02*
X107915904Y-80493571D01*
X107915904Y-80341190D01*
X107877809Y-80265000D01*
X107801619Y-80226904D01*
X107496857Y-80226904D01*
X107420666Y-80265000D01*
X107382571Y-80341190D01*
X107382571Y-80493571D01*
X107420666Y-80569761D01*
X107496857Y-80607857D01*
X107573047Y-80607857D01*
X107649238Y-80226904D01*
X107382571Y-80874523D02*
X107915904Y-81065000D01*
X107382571Y-81255476D01*
X109215904Y-76455476D02*
X108415904Y-76455476D01*
X109215904Y-76912619D01*
X108415904Y-76912619D01*
X109215904Y-77407857D02*
X109177809Y-77331666D01*
X109139714Y-77293571D01*
X109063523Y-77255476D01*
X108834952Y-77255476D01*
X108758761Y-77293571D01*
X108720666Y-77331666D01*
X108682571Y-77407857D01*
X108682571Y-77522142D01*
X108720666Y-77598333D01*
X108758761Y-77636428D01*
X108834952Y-77674523D01*
X109063523Y-77674523D01*
X109139714Y-77636428D01*
X109177809Y-77598333D01*
X109215904Y-77522142D01*
X109215904Y-77407857D01*
X109215904Y-78969761D02*
X108415904Y-78969761D01*
X109177809Y-78969761D02*
X109215904Y-78893571D01*
X109215904Y-78741190D01*
X109177809Y-78665000D01*
X109139714Y-78626904D01*
X109063523Y-78588809D01*
X108834952Y-78588809D01*
X108758761Y-78626904D01*
X108720666Y-78665000D01*
X108682571Y-78741190D01*
X108682571Y-78893571D01*
X108720666Y-78969761D01*
X109177809Y-79655476D02*
X109215904Y-79579285D01*
X109215904Y-79426904D01*
X109177809Y-79350714D01*
X109101619Y-79312619D01*
X108796857Y-79312619D01*
X108720666Y-79350714D01*
X108682571Y-79426904D01*
X108682571Y-79579285D01*
X108720666Y-79655476D01*
X108796857Y-79693571D01*
X108873047Y-79693571D01*
X108949238Y-79312619D01*
X109215904Y-80036428D02*
X108415904Y-80036428D01*
X108720666Y-80036428D02*
X108682571Y-80112619D01*
X108682571Y-80265000D01*
X108720666Y-80341190D01*
X108758761Y-80379285D01*
X108834952Y-80417380D01*
X109063523Y-80417380D01*
X109139714Y-80379285D01*
X109177809Y-80341190D01*
X109215904Y-80265000D01*
X109215904Y-80112619D01*
X109177809Y-80036428D01*
X108682571Y-81103095D02*
X109215904Y-81103095D01*
X108682571Y-80760238D02*
X109101619Y-80760238D01*
X109177809Y-80798333D01*
X109215904Y-80874523D01*
X109215904Y-80988809D01*
X109177809Y-81065000D01*
X109139714Y-81103095D01*
X108682571Y-81826904D02*
X109330190Y-81826904D01*
X109406380Y-81788809D01*
X109444476Y-81750714D01*
X109482571Y-81674523D01*
X109482571Y-81560238D01*
X109444476Y-81484047D01*
X109177809Y-81826904D02*
X109215904Y-81750714D01*
X109215904Y-81598333D01*
X109177809Y-81522142D01*
X109139714Y-81484047D01*
X109063523Y-81445952D01*
X108834952Y-81445952D01*
X108758761Y-81484047D01*
X108720666Y-81522142D01*
X108682571Y-81598333D01*
X108682571Y-81750714D01*
X108720666Y-81826904D01*
X109982571Y-76379285D02*
X110515904Y-76569761D01*
X109982571Y-76760238D01*
X110515904Y-77484047D02*
X110515904Y-77026904D01*
X110515904Y-77255476D02*
X109715904Y-77255476D01*
X109830190Y-77179285D01*
X109906380Y-77103095D01*
X109944476Y-77026904D01*
X122299571Y-85921904D02*
X122680523Y-85921904D01*
X122718619Y-86302857D01*
X122680523Y-86264761D01*
X122604333Y-86226666D01*
X122413857Y-86226666D01*
X122337666Y-86264761D01*
X122299571Y-86302857D01*
X122261476Y-86379047D01*
X122261476Y-86569523D01*
X122299571Y-86645714D01*
X122337666Y-86683809D01*
X122413857Y-86721904D01*
X122604333Y-86721904D01*
X122680523Y-86683809D01*
X122718619Y-86645714D01*
X122032904Y-85921904D02*
X121766238Y-86721904D01*
X121499571Y-85921904D01*
X122756714Y-88461904D02*
X122261476Y-88461904D01*
X122528142Y-88766666D01*
X122413857Y-88766666D01*
X122337666Y-88804761D01*
X122299571Y-88842857D01*
X122261476Y-88919047D01*
X122261476Y-89109523D01*
X122299571Y-89185714D01*
X122337666Y-89223809D01*
X122413857Y-89261904D01*
X122642428Y-89261904D01*
X122718619Y-89223809D01*
X122756714Y-89185714D01*
X122032904Y-88461904D02*
X121766238Y-89261904D01*
X121499571Y-88461904D01*
X121309095Y-88461904D02*
X120813857Y-88461904D01*
X121080523Y-88766666D01*
X120966238Y-88766666D01*
X120890047Y-88804761D01*
X120851952Y-88842857D01*
X120813857Y-88919047D01*
X120813857Y-89109523D01*
X120851952Y-89185714D01*
X120890047Y-89223809D01*
X120966238Y-89261904D01*
X121194809Y-89261904D01*
X121271000Y-89223809D01*
X121309095Y-89185714D01*
X122794809Y-91001904D02*
X122528142Y-91801904D01*
X122261476Y-91001904D01*
X121537666Y-91725714D02*
X121575761Y-91763809D01*
X121690047Y-91801904D01*
X121766238Y-91801904D01*
X121880523Y-91763809D01*
X121956714Y-91687619D01*
X121994809Y-91611428D01*
X122032904Y-91459047D01*
X122032904Y-91344761D01*
X121994809Y-91192380D01*
X121956714Y-91116190D01*
X121880523Y-91040000D01*
X121766238Y-91001904D01*
X121690047Y-91001904D01*
X121575761Y-91040000D01*
X121537666Y-91078095D01*
X120737666Y-91725714D02*
X120775761Y-91763809D01*
X120890047Y-91801904D01*
X120966238Y-91801904D01*
X121080523Y-91763809D01*
X121156714Y-91687619D01*
X121194809Y-91611428D01*
X121232904Y-91459047D01*
X121232904Y-91344761D01*
X121194809Y-91192380D01*
X121156714Y-91116190D01*
X121080523Y-91040000D01*
X120966238Y-91001904D01*
X120890047Y-91001904D01*
X120775761Y-91040000D01*
X120737666Y-91078095D01*
X122261476Y-93580000D02*
X122337666Y-93541904D01*
X122451952Y-93541904D01*
X122566238Y-93580000D01*
X122642428Y-93656190D01*
X122680523Y-93732380D01*
X122718619Y-93884761D01*
X122718619Y-93999047D01*
X122680523Y-94151428D01*
X122642428Y-94227619D01*
X122566238Y-94303809D01*
X122451952Y-94341904D01*
X122375761Y-94341904D01*
X122261476Y-94303809D01*
X122223380Y-94265714D01*
X122223380Y-93999047D01*
X122375761Y-93999047D01*
X121880523Y-94341904D02*
X121880523Y-93541904D01*
X121423380Y-94341904D01*
X121423380Y-93541904D01*
X121042428Y-94341904D02*
X121042428Y-93541904D01*
X120851952Y-93541904D01*
X120737666Y-93580000D01*
X120661476Y-93656190D01*
X120623380Y-93732380D01*
X120585285Y-93884761D01*
X120585285Y-93999047D01*
X120623380Y-94151428D01*
X120661476Y-94227619D01*
X120737666Y-94303809D01*
X120851952Y-94341904D01*
X121042428Y-94341904D01*
X122261476Y-96881904D02*
X122718619Y-96881904D01*
X122490047Y-96881904D02*
X122490047Y-96081904D01*
X122566238Y-96196190D01*
X122642428Y-96272380D01*
X122718619Y-96310476D01*
X121766238Y-96081904D02*
X121690047Y-96081904D01*
X121613857Y-96120000D01*
X121575761Y-96158095D01*
X121537666Y-96234285D01*
X121499571Y-96386666D01*
X121499571Y-96577142D01*
X121537666Y-96729523D01*
X121575761Y-96805714D01*
X121613857Y-96843809D01*
X121690047Y-96881904D01*
X121766238Y-96881904D01*
X121842428Y-96843809D01*
X121880523Y-96805714D01*
X121918619Y-96729523D01*
X121956714Y-96577142D01*
X121956714Y-96386666D01*
X121918619Y-96234285D01*
X121880523Y-96158095D01*
X121842428Y-96120000D01*
X121766238Y-96081904D01*
X120928142Y-97186666D02*
X120966238Y-97148571D01*
X121042428Y-97034285D01*
X121080523Y-96958095D01*
X121118619Y-96843809D01*
X121156714Y-96653333D01*
X121156714Y-96500952D01*
X121118619Y-96310476D01*
X121080523Y-96196190D01*
X121042428Y-96120000D01*
X120966238Y-96005714D01*
X120928142Y-95967619D01*
X120661476Y-96843809D02*
X120547190Y-96881904D01*
X120356714Y-96881904D01*
X120280523Y-96843809D01*
X120242428Y-96805714D01*
X120204333Y-96729523D01*
X120204333Y-96653333D01*
X120242428Y-96577142D01*
X120280523Y-96539047D01*
X120356714Y-96500952D01*
X120509095Y-96462857D01*
X120585285Y-96424761D01*
X120623380Y-96386666D01*
X120661476Y-96310476D01*
X120661476Y-96234285D01*
X120623380Y-96158095D01*
X120585285Y-96120000D01*
X120509095Y-96081904D01*
X120318619Y-96081904D01*
X120204333Y-96120000D01*
X119404333Y-96805714D02*
X119442428Y-96843809D01*
X119556714Y-96881904D01*
X119632904Y-96881904D01*
X119747190Y-96843809D01*
X119823380Y-96767619D01*
X119861476Y-96691428D01*
X119899571Y-96539047D01*
X119899571Y-96424761D01*
X119861476Y-96272380D01*
X119823380Y-96196190D01*
X119747190Y-96120000D01*
X119632904Y-96081904D01*
X119556714Y-96081904D01*
X119442428Y-96120000D01*
X119404333Y-96158095D01*
X119061476Y-96881904D02*
X119061476Y-96081904D01*
X118604333Y-96881904D02*
X118947190Y-96424761D01*
X118604333Y-96081904D02*
X119061476Y-96539047D01*
X118337666Y-97186666D02*
X118299571Y-97148571D01*
X118223380Y-97034285D01*
X118185285Y-96958095D01*
X118147190Y-96843809D01*
X118109095Y-96653333D01*
X118109095Y-96500952D01*
X118147190Y-96310476D01*
X118185285Y-96196190D01*
X118223380Y-96120000D01*
X118299571Y-96005714D01*
X118337666Y-95967619D01*
X122642428Y-99421904D02*
X122490047Y-99421904D01*
X122413857Y-99383809D01*
X122375761Y-99345714D01*
X122299571Y-99231428D01*
X122261476Y-99079047D01*
X122261476Y-98774285D01*
X122299571Y-98698095D01*
X122337666Y-98660000D01*
X122413857Y-98621904D01*
X122566238Y-98621904D01*
X122642428Y-98660000D01*
X122680523Y-98698095D01*
X122718619Y-98774285D01*
X122718619Y-98964761D01*
X122680523Y-99040952D01*
X122642428Y-99079047D01*
X122566238Y-99117142D01*
X122413857Y-99117142D01*
X122337666Y-99079047D01*
X122299571Y-99040952D01*
X122261476Y-98964761D01*
X121690047Y-99726666D02*
X121728142Y-99688571D01*
X121804333Y-99574285D01*
X121842428Y-99498095D01*
X121880523Y-99383809D01*
X121918619Y-99193333D01*
X121918619Y-99040952D01*
X121880523Y-98850476D01*
X121842428Y-98736190D01*
X121804333Y-98660000D01*
X121728142Y-98545714D01*
X121690047Y-98507619D01*
X121385285Y-99421904D02*
X121385285Y-98621904D01*
X121118619Y-99193333D01*
X120851952Y-98621904D01*
X120851952Y-99421904D01*
X120471000Y-99421904D02*
X120471000Y-98621904D01*
X120128142Y-99383809D02*
X120013857Y-99421904D01*
X119823380Y-99421904D01*
X119747190Y-99383809D01*
X119709095Y-99345714D01*
X119671000Y-99269523D01*
X119671000Y-99193333D01*
X119709095Y-99117142D01*
X119747190Y-99079047D01*
X119823380Y-99040952D01*
X119975761Y-99002857D01*
X120051952Y-98964761D01*
X120090047Y-98926666D01*
X120128142Y-98850476D01*
X120128142Y-98774285D01*
X120090047Y-98698095D01*
X120051952Y-98660000D01*
X119975761Y-98621904D01*
X119785285Y-98621904D01*
X119671000Y-98660000D01*
X119175761Y-98621904D02*
X119023380Y-98621904D01*
X118947190Y-98660000D01*
X118871000Y-98736190D01*
X118832904Y-98888571D01*
X118832904Y-99155238D01*
X118871000Y-99307619D01*
X118947190Y-99383809D01*
X119023380Y-99421904D01*
X119175761Y-99421904D01*
X119251952Y-99383809D01*
X119328142Y-99307619D01*
X119366238Y-99155238D01*
X119366238Y-98888571D01*
X119328142Y-98736190D01*
X119251952Y-98660000D01*
X119175761Y-98621904D01*
X118566238Y-99726666D02*
X118528142Y-99688571D01*
X118451952Y-99574285D01*
X118413857Y-99498095D01*
X118375761Y-99383809D01*
X118337666Y-99193333D01*
X118337666Y-99040952D01*
X118375761Y-98850476D01*
X118413857Y-98736190D01*
X118451952Y-98660000D01*
X118528142Y-98545714D01*
X118566238Y-98507619D01*
X122566238Y-101504761D02*
X122642428Y-101466666D01*
X122680523Y-101428571D01*
X122718619Y-101352380D01*
X122718619Y-101314285D01*
X122680523Y-101238095D01*
X122642428Y-101200000D01*
X122566238Y-101161904D01*
X122413857Y-101161904D01*
X122337666Y-101200000D01*
X122299571Y-101238095D01*
X122261476Y-101314285D01*
X122261476Y-101352380D01*
X122299571Y-101428571D01*
X122337666Y-101466666D01*
X122413857Y-101504761D01*
X122566238Y-101504761D01*
X122642428Y-101542857D01*
X122680523Y-101580952D01*
X122718619Y-101657142D01*
X122718619Y-101809523D01*
X122680523Y-101885714D01*
X122642428Y-101923809D01*
X122566238Y-101961904D01*
X122413857Y-101961904D01*
X122337666Y-101923809D01*
X122299571Y-101885714D01*
X122261476Y-101809523D01*
X122261476Y-101657142D01*
X122299571Y-101580952D01*
X122337666Y-101542857D01*
X122413857Y-101504761D01*
X121690047Y-102266666D02*
X121728142Y-102228571D01*
X121804333Y-102114285D01*
X121842428Y-102038095D01*
X121880523Y-101923809D01*
X121918619Y-101733333D01*
X121918619Y-101580952D01*
X121880523Y-101390476D01*
X121842428Y-101276190D01*
X121804333Y-101200000D01*
X121728142Y-101085714D01*
X121690047Y-101047619D01*
X121385285Y-101961904D02*
X121385285Y-101161904D01*
X121118619Y-101733333D01*
X120851952Y-101161904D01*
X120851952Y-101961904D01*
X120318619Y-101161904D02*
X120166238Y-101161904D01*
X120090047Y-101200000D01*
X120013857Y-101276190D01*
X119975761Y-101428571D01*
X119975761Y-101695238D01*
X120013857Y-101847619D01*
X120090047Y-101923809D01*
X120166238Y-101961904D01*
X120318619Y-101961904D01*
X120394809Y-101923809D01*
X120471000Y-101847619D01*
X120509095Y-101695238D01*
X120509095Y-101428571D01*
X120471000Y-101276190D01*
X120394809Y-101200000D01*
X120318619Y-101161904D01*
X119671000Y-101923809D02*
X119556714Y-101961904D01*
X119366238Y-101961904D01*
X119290047Y-101923809D01*
X119251952Y-101885714D01*
X119213857Y-101809523D01*
X119213857Y-101733333D01*
X119251952Y-101657142D01*
X119290047Y-101619047D01*
X119366238Y-101580952D01*
X119518619Y-101542857D01*
X119594809Y-101504761D01*
X119632904Y-101466666D01*
X119671000Y-101390476D01*
X119671000Y-101314285D01*
X119632904Y-101238095D01*
X119594809Y-101200000D01*
X119518619Y-101161904D01*
X119328142Y-101161904D01*
X119213857Y-101200000D01*
X118871000Y-101961904D02*
X118871000Y-101161904D01*
X118566238Y-102266666D02*
X118528142Y-102228571D01*
X118451952Y-102114285D01*
X118413857Y-102038095D01*
X118375761Y-101923809D01*
X118337666Y-101733333D01*
X118337666Y-101580952D01*
X118375761Y-101390476D01*
X118413857Y-101276190D01*
X118451952Y-101200000D01*
X118528142Y-101085714D01*
X118566238Y-101047619D01*
X122261476Y-104501904D02*
X122718619Y-104501904D01*
X122490047Y-104501904D02*
X122490047Y-103701904D01*
X122566238Y-103816190D01*
X122642428Y-103892380D01*
X122718619Y-103930476D01*
X121499571Y-104501904D02*
X121956714Y-104501904D01*
X121728142Y-104501904D02*
X121728142Y-103701904D01*
X121804333Y-103816190D01*
X121880523Y-103892380D01*
X121956714Y-103930476D01*
X120928142Y-104806666D02*
X120966238Y-104768571D01*
X121042428Y-104654285D01*
X121080523Y-104578095D01*
X121118619Y-104463809D01*
X121156714Y-104273333D01*
X121156714Y-104120952D01*
X121118619Y-103930476D01*
X121080523Y-103816190D01*
X121042428Y-103740000D01*
X120966238Y-103625714D01*
X120928142Y-103587619D01*
X120623380Y-103701904D02*
X120623380Y-104349523D01*
X120585285Y-104425714D01*
X120547190Y-104463809D01*
X120471000Y-104501904D01*
X120318619Y-104501904D01*
X120242428Y-104463809D01*
X120204333Y-104425714D01*
X120166238Y-104349523D01*
X120166238Y-103701904D01*
X119785285Y-104501904D02*
X119785285Y-103701904D01*
X119480523Y-103701904D01*
X119404333Y-103740000D01*
X119366238Y-103778095D01*
X119328142Y-103854285D01*
X119328142Y-103968571D01*
X119366238Y-104044761D01*
X119404333Y-104082857D01*
X119480523Y-104120952D01*
X119785285Y-104120952D01*
X118985285Y-104501904D02*
X118985285Y-103701904D01*
X118794809Y-103701904D01*
X118680523Y-103740000D01*
X118604333Y-103816190D01*
X118566238Y-103892380D01*
X118528142Y-104044761D01*
X118528142Y-104159047D01*
X118566238Y-104311428D01*
X118604333Y-104387619D01*
X118680523Y-104463809D01*
X118794809Y-104501904D01*
X118985285Y-104501904D01*
X118185285Y-104501904D02*
X118185285Y-103701904D01*
X117880523Y-104806666D02*
X117842428Y-104768571D01*
X117766238Y-104654285D01*
X117728142Y-104578095D01*
X117690047Y-104463809D01*
X117651952Y-104273333D01*
X117651952Y-104120952D01*
X117690047Y-103930476D01*
X117728142Y-103816190D01*
X117766238Y-103740000D01*
X117842428Y-103625714D01*
X117880523Y-103587619D01*
X122756714Y-106241904D02*
X122223380Y-106241904D01*
X122566238Y-107041904D01*
X121690047Y-107346666D02*
X121728142Y-107308571D01*
X121804333Y-107194285D01*
X121842428Y-107118095D01*
X121880523Y-107003809D01*
X121918619Y-106813333D01*
X121918619Y-106660952D01*
X121880523Y-106470476D01*
X121842428Y-106356190D01*
X121804333Y-106280000D01*
X121728142Y-106165714D01*
X121690047Y-106127619D01*
X121423380Y-107003809D02*
X121309095Y-107041904D01*
X121118619Y-107041904D01*
X121042428Y-107003809D01*
X121004333Y-106965714D01*
X120966238Y-106889523D01*
X120966238Y-106813333D01*
X121004333Y-106737142D01*
X121042428Y-106699047D01*
X121118619Y-106660952D01*
X121271000Y-106622857D01*
X121347190Y-106584761D01*
X121385285Y-106546666D01*
X121423380Y-106470476D01*
X121423380Y-106394285D01*
X121385285Y-106318095D01*
X121347190Y-106280000D01*
X121271000Y-106241904D01*
X121080523Y-106241904D01*
X120966238Y-106280000D01*
X120166238Y-106965714D02*
X120204333Y-107003809D01*
X120318619Y-107041904D01*
X120394809Y-107041904D01*
X120509095Y-107003809D01*
X120585285Y-106927619D01*
X120623380Y-106851428D01*
X120661476Y-106699047D01*
X120661476Y-106584761D01*
X120623380Y-106432380D01*
X120585285Y-106356190D01*
X120509095Y-106280000D01*
X120394809Y-106241904D01*
X120318619Y-106241904D01*
X120204333Y-106280000D01*
X120166238Y-106318095D01*
X119442428Y-107041904D02*
X119823380Y-107041904D01*
X119823380Y-106241904D01*
X119251952Y-107346666D02*
X119213857Y-107308571D01*
X119137666Y-107194285D01*
X119099571Y-107118095D01*
X119061476Y-107003809D01*
X119023380Y-106813333D01*
X119023380Y-106660952D01*
X119061476Y-106470476D01*
X119099571Y-106356190D01*
X119137666Y-106280000D01*
X119213857Y-106165714D01*
X119251952Y-106127619D01*
X122337666Y-108781904D02*
X122490047Y-108781904D01*
X122566238Y-108820000D01*
X122604333Y-108858095D01*
X122680523Y-108972380D01*
X122718619Y-109124761D01*
X122718619Y-109429523D01*
X122680523Y-109505714D01*
X122642428Y-109543809D01*
X122566238Y-109581904D01*
X122413857Y-109581904D01*
X122337666Y-109543809D01*
X122299571Y-109505714D01*
X122261476Y-109429523D01*
X122261476Y-109239047D01*
X122299571Y-109162857D01*
X122337666Y-109124761D01*
X122413857Y-109086666D01*
X122566238Y-109086666D01*
X122642428Y-109124761D01*
X122680523Y-109162857D01*
X122718619Y-109239047D01*
X121690047Y-109886666D02*
X121728142Y-109848571D01*
X121804333Y-109734285D01*
X121842428Y-109658095D01*
X121880523Y-109543809D01*
X121918619Y-109353333D01*
X121918619Y-109200952D01*
X121880523Y-109010476D01*
X121842428Y-108896190D01*
X121804333Y-108820000D01*
X121728142Y-108705714D01*
X121690047Y-108667619D01*
X121423380Y-109543809D02*
X121309095Y-109581904D01*
X121118619Y-109581904D01*
X121042428Y-109543809D01*
X121004333Y-109505714D01*
X120966238Y-109429523D01*
X120966238Y-109353333D01*
X121004333Y-109277142D01*
X121042428Y-109239047D01*
X121118619Y-109200952D01*
X121271000Y-109162857D01*
X121347190Y-109124761D01*
X121385285Y-109086666D01*
X121423380Y-109010476D01*
X121423380Y-108934285D01*
X121385285Y-108858095D01*
X121347190Y-108820000D01*
X121271000Y-108781904D01*
X121080523Y-108781904D01*
X120966238Y-108820000D01*
X120623380Y-109581904D02*
X120623380Y-108781904D01*
X120432904Y-108781904D01*
X120318619Y-108820000D01*
X120242428Y-108896190D01*
X120204333Y-108972380D01*
X120166238Y-109124761D01*
X120166238Y-109239047D01*
X120204333Y-109391428D01*
X120242428Y-109467619D01*
X120318619Y-109543809D01*
X120432904Y-109581904D01*
X120623380Y-109581904D01*
X119861476Y-109353333D02*
X119480523Y-109353333D01*
X119937666Y-109581904D02*
X119671000Y-108781904D01*
X119404333Y-109581904D01*
X119213857Y-109886666D02*
X119175761Y-109848571D01*
X119099571Y-109734285D01*
X119061476Y-109658095D01*
X119023380Y-109543809D01*
X118985285Y-109353333D01*
X118985285Y-109200952D01*
X119023380Y-109010476D01*
X119061476Y-108896190D01*
X119099571Y-108820000D01*
X119175761Y-108705714D01*
X119213857Y-108667619D01*
X110897571Y-108781904D02*
X111278523Y-108781904D01*
X111316619Y-109162857D01*
X111278523Y-109124761D01*
X111202333Y-109086666D01*
X111011857Y-109086666D01*
X110935666Y-109124761D01*
X110897571Y-109162857D01*
X110859476Y-109239047D01*
X110859476Y-109429523D01*
X110897571Y-109505714D01*
X110935666Y-109543809D01*
X111011857Y-109581904D01*
X111202333Y-109581904D01*
X111278523Y-109543809D01*
X111316619Y-109505714D01*
X110288047Y-109886666D02*
X110326142Y-109848571D01*
X110402333Y-109734285D01*
X110440428Y-109658095D01*
X110478523Y-109543809D01*
X110516619Y-109353333D01*
X110516619Y-109200952D01*
X110478523Y-109010476D01*
X110440428Y-108896190D01*
X110402333Y-108820000D01*
X110326142Y-108705714D01*
X110288047Y-108667619D01*
X110097571Y-108781904D02*
X109640428Y-108781904D01*
X109869000Y-109581904D02*
X109869000Y-108781904D01*
X109449952Y-108781904D02*
X108916619Y-109581904D01*
X108916619Y-108781904D02*
X109449952Y-109581904D01*
X108688047Y-109886666D02*
X108649952Y-109848571D01*
X108573761Y-109734285D01*
X108535666Y-109658095D01*
X108497571Y-109543809D01*
X108459476Y-109353333D01*
X108459476Y-109200952D01*
X108497571Y-109010476D01*
X108535666Y-108896190D01*
X108573761Y-108820000D01*
X108649952Y-108705714D01*
X108688047Y-108667619D01*
X111126142Y-106508571D02*
X111126142Y-107041904D01*
X111316619Y-106203809D02*
X111507095Y-106775238D01*
X111011857Y-106775238D01*
X110478523Y-107346666D02*
X110516619Y-107308571D01*
X110592809Y-107194285D01*
X110630904Y-107118095D01*
X110669000Y-107003809D01*
X110707095Y-106813333D01*
X110707095Y-106660952D01*
X110669000Y-106470476D01*
X110630904Y-106356190D01*
X110592809Y-106280000D01*
X110516619Y-106165714D01*
X110478523Y-106127619D01*
X109716619Y-107041904D02*
X109983285Y-106660952D01*
X110173761Y-107041904D02*
X110173761Y-106241904D01*
X109869000Y-106241904D01*
X109792809Y-106280000D01*
X109754714Y-106318095D01*
X109716619Y-106394285D01*
X109716619Y-106508571D01*
X109754714Y-106584761D01*
X109792809Y-106622857D01*
X109869000Y-106660952D01*
X110173761Y-106660952D01*
X109449952Y-106241904D02*
X108916619Y-107041904D01*
X108916619Y-106241904D02*
X109449952Y-107041904D01*
X108688047Y-107346666D02*
X108649952Y-107308571D01*
X108573761Y-107194285D01*
X108535666Y-107118095D01*
X108497571Y-107003809D01*
X108459476Y-106813333D01*
X108459476Y-106660952D01*
X108497571Y-106470476D01*
X108535666Y-106356190D01*
X108573761Y-106280000D01*
X108649952Y-106165714D01*
X108688047Y-106127619D01*
X108916619Y-103701904D02*
X108421380Y-103701904D01*
X108688047Y-104006666D01*
X108573761Y-104006666D01*
X108497571Y-104044761D01*
X108459476Y-104082857D01*
X108421380Y-104159047D01*
X108421380Y-104349523D01*
X108459476Y-104425714D01*
X108497571Y-104463809D01*
X108573761Y-104501904D01*
X108802333Y-104501904D01*
X108878523Y-104463809D01*
X108916619Y-104425714D01*
X108878523Y-101238095D02*
X108840428Y-101200000D01*
X108764238Y-101161904D01*
X108573761Y-101161904D01*
X108497571Y-101200000D01*
X108459476Y-101238095D01*
X108421380Y-101314285D01*
X108421380Y-101390476D01*
X108459476Y-101504761D01*
X108916619Y-101961904D01*
X108421380Y-101961904D01*
X112383285Y-99421904D02*
X112840428Y-99421904D01*
X112611857Y-99421904D02*
X112611857Y-98621904D01*
X112688047Y-98736190D01*
X112764238Y-98812380D01*
X112840428Y-98850476D01*
X111811857Y-99726666D02*
X111849952Y-99688571D01*
X111926142Y-99574285D01*
X111964238Y-99498095D01*
X112002333Y-99383809D01*
X112040428Y-99193333D01*
X112040428Y-99040952D01*
X112002333Y-98850476D01*
X111964238Y-98736190D01*
X111926142Y-98660000D01*
X111849952Y-98545714D01*
X111811857Y-98507619D01*
X111621380Y-98621904D02*
X111354714Y-99421904D01*
X111088047Y-98621904D01*
X110364238Y-99421904D02*
X110630904Y-99040952D01*
X110821380Y-99421904D02*
X110821380Y-98621904D01*
X110516619Y-98621904D01*
X110440428Y-98660000D01*
X110402333Y-98698095D01*
X110364238Y-98774285D01*
X110364238Y-98888571D01*
X110402333Y-98964761D01*
X110440428Y-99002857D01*
X110516619Y-99040952D01*
X110821380Y-99040952D01*
X110021380Y-99002857D02*
X109754714Y-99002857D01*
X109640428Y-99421904D02*
X110021380Y-99421904D01*
X110021380Y-98621904D01*
X109640428Y-98621904D01*
X109030904Y-99002857D02*
X109297571Y-99002857D01*
X109297571Y-99421904D02*
X109297571Y-98621904D01*
X108916619Y-98621904D01*
X108688047Y-99726666D02*
X108649952Y-99688571D01*
X108573761Y-99574285D01*
X108535666Y-99498095D01*
X108497571Y-99383809D01*
X108459476Y-99193333D01*
X108459476Y-99040952D01*
X108497571Y-98850476D01*
X108535666Y-98736190D01*
X108573761Y-98660000D01*
X108649952Y-98545714D01*
X108688047Y-98507619D01*
X111278523Y-96081904D02*
X111202333Y-96081904D01*
X111126142Y-96120000D01*
X111088047Y-96158095D01*
X111049952Y-96234285D01*
X111011857Y-96386666D01*
X111011857Y-96577142D01*
X111049952Y-96729523D01*
X111088047Y-96805714D01*
X111126142Y-96843809D01*
X111202333Y-96881904D01*
X111278523Y-96881904D01*
X111354714Y-96843809D01*
X111392809Y-96805714D01*
X111430904Y-96729523D01*
X111469000Y-96577142D01*
X111469000Y-96386666D01*
X111430904Y-96234285D01*
X111392809Y-96158095D01*
X111354714Y-96120000D01*
X111278523Y-96081904D01*
X110440428Y-97186666D02*
X110478523Y-97148571D01*
X110554714Y-97034285D01*
X110592809Y-96958095D01*
X110630904Y-96843809D01*
X110669000Y-96653333D01*
X110669000Y-96500952D01*
X110630904Y-96310476D01*
X110592809Y-96196190D01*
X110554714Y-96120000D01*
X110478523Y-96005714D01*
X110440428Y-95967619D01*
X110173761Y-96843809D02*
X110059476Y-96881904D01*
X109869000Y-96881904D01*
X109792809Y-96843809D01*
X109754714Y-96805714D01*
X109716619Y-96729523D01*
X109716619Y-96653333D01*
X109754714Y-96577142D01*
X109792809Y-96539047D01*
X109869000Y-96500952D01*
X110021380Y-96462857D01*
X110097571Y-96424761D01*
X110135666Y-96386666D01*
X110173761Y-96310476D01*
X110173761Y-96234285D01*
X110135666Y-96158095D01*
X110097571Y-96120000D01*
X110021380Y-96081904D01*
X109830904Y-96081904D01*
X109716619Y-96120000D01*
X109411857Y-96843809D02*
X109297571Y-96881904D01*
X109107095Y-96881904D01*
X109030904Y-96843809D01*
X108992809Y-96805714D01*
X108954714Y-96729523D01*
X108954714Y-96653333D01*
X108992809Y-96577142D01*
X109030904Y-96539047D01*
X109107095Y-96500952D01*
X109259476Y-96462857D01*
X109335666Y-96424761D01*
X109373761Y-96386666D01*
X109411857Y-96310476D01*
X109411857Y-96234285D01*
X109373761Y-96158095D01*
X109335666Y-96120000D01*
X109259476Y-96081904D01*
X109069000Y-96081904D01*
X108954714Y-96120000D01*
X108688047Y-97186666D02*
X108649952Y-97148571D01*
X108573761Y-97034285D01*
X108535666Y-96958095D01*
X108497571Y-96843809D01*
X108459476Y-96653333D01*
X108459476Y-96500952D01*
X108497571Y-96310476D01*
X108535666Y-96196190D01*
X108573761Y-96120000D01*
X108649952Y-96005714D01*
X108688047Y-95967619D01*
X110097571Y-93580000D02*
X110173761Y-93541904D01*
X110288047Y-93541904D01*
X110402333Y-93580000D01*
X110478523Y-93656190D01*
X110516619Y-93732380D01*
X110554714Y-93884761D01*
X110554714Y-93999047D01*
X110516619Y-94151428D01*
X110478523Y-94227619D01*
X110402333Y-94303809D01*
X110288047Y-94341904D01*
X110211857Y-94341904D01*
X110097571Y-94303809D01*
X110059476Y-94265714D01*
X110059476Y-93999047D01*
X110211857Y-93999047D01*
X109716619Y-94341904D02*
X109716619Y-93541904D01*
X109259476Y-94341904D01*
X109259476Y-93541904D01*
X108878523Y-94341904D02*
X108878523Y-93541904D01*
X108688047Y-93541904D01*
X108573761Y-93580000D01*
X108497571Y-93656190D01*
X108459476Y-93732380D01*
X108421380Y-93884761D01*
X108421380Y-93999047D01*
X108459476Y-94151428D01*
X108497571Y-94227619D01*
X108573761Y-94303809D01*
X108688047Y-94341904D01*
X108878523Y-94341904D01*
X110478523Y-91001904D02*
X110211857Y-91801904D01*
X109945190Y-91001904D01*
X109221380Y-91725714D02*
X109259476Y-91763809D01*
X109373761Y-91801904D01*
X109449952Y-91801904D01*
X109564238Y-91763809D01*
X109640428Y-91687619D01*
X109678523Y-91611428D01*
X109716619Y-91459047D01*
X109716619Y-91344761D01*
X109678523Y-91192380D01*
X109640428Y-91116190D01*
X109564238Y-91040000D01*
X109449952Y-91001904D01*
X109373761Y-91001904D01*
X109259476Y-91040000D01*
X109221380Y-91078095D01*
X108421380Y-91725714D02*
X108459476Y-91763809D01*
X108573761Y-91801904D01*
X108649952Y-91801904D01*
X108764238Y-91763809D01*
X108840428Y-91687619D01*
X108878523Y-91611428D01*
X108916619Y-91459047D01*
X108916619Y-91344761D01*
X108878523Y-91192380D01*
X108840428Y-91116190D01*
X108764238Y-91040000D01*
X108649952Y-91001904D01*
X108573761Y-91001904D01*
X108459476Y-91040000D01*
X108421380Y-91078095D01*
X110364238Y-88461904D02*
X109869000Y-88461904D01*
X110135666Y-88766666D01*
X110021380Y-88766666D01*
X109945190Y-88804761D01*
X109907095Y-88842857D01*
X109869000Y-88919047D01*
X109869000Y-89109523D01*
X109907095Y-89185714D01*
X109945190Y-89223809D01*
X110021380Y-89261904D01*
X110249952Y-89261904D01*
X110326142Y-89223809D01*
X110364238Y-89185714D01*
X109640428Y-88461904D02*
X109373761Y-89261904D01*
X109107095Y-88461904D01*
X108916619Y-88461904D02*
X108421380Y-88461904D01*
X108688047Y-88766666D01*
X108573761Y-88766666D01*
X108497571Y-88804761D01*
X108459476Y-88842857D01*
X108421380Y-88919047D01*
X108421380Y-89109523D01*
X108459476Y-89185714D01*
X108497571Y-89223809D01*
X108573761Y-89261904D01*
X108802333Y-89261904D01*
X108878523Y-89223809D01*
X108916619Y-89185714D01*
X109145190Y-85921904D02*
X109526142Y-85921904D01*
X109564238Y-86302857D01*
X109526142Y-86264761D01*
X109449952Y-86226666D01*
X109259476Y-86226666D01*
X109183285Y-86264761D01*
X109145190Y-86302857D01*
X109107095Y-86379047D01*
X109107095Y-86569523D01*
X109145190Y-86645714D01*
X109183285Y-86683809D01*
X109259476Y-86721904D01*
X109449952Y-86721904D01*
X109526142Y-86683809D01*
X109564238Y-86645714D01*
X108878523Y-85921904D02*
X108611857Y-86721904D01*
X108345190Y-85921904D01*
D11*
%TO.C,REF\u002A\u002A*%
G36*
X117716256Y-110123918D02*
G01*
X117660799Y-110151568D01*
X117611852Y-110202480D01*
X117598371Y-110221338D01*
X117583686Y-110246015D01*
X117574158Y-110272816D01*
X117568707Y-110308587D01*
X117566253Y-110360169D01*
X117565714Y-110428267D01*
X117568148Y-110521588D01*
X117576606Y-110591657D01*
X117592826Y-110643931D01*
X117618546Y-110683869D01*
X117655503Y-110716929D01*
X117658218Y-110718886D01*
X117694640Y-110738908D01*
X117738498Y-110748815D01*
X117794276Y-110751257D01*
X117884952Y-110751257D01*
X117884990Y-110839283D01*
X117885834Y-110888308D01*
X117890976Y-110917065D01*
X117904413Y-110934311D01*
X117930142Y-110948808D01*
X117936321Y-110951769D01*
X117965236Y-110965648D01*
X117987624Y-110974414D01*
X118004271Y-110975171D01*
X118015964Y-110965023D01*
X118023490Y-110941073D01*
X118027634Y-110900426D01*
X118029185Y-110840186D01*
X118028929Y-110757455D01*
X118027651Y-110649339D01*
X118027252Y-110617000D01*
X118025815Y-110505524D01*
X118024528Y-110432603D01*
X117885029Y-110432603D01*
X117884245Y-110494499D01*
X117880760Y-110534997D01*
X117872876Y-110561708D01*
X117858895Y-110582244D01*
X117849403Y-110592260D01*
X117810596Y-110621567D01*
X117776237Y-110623952D01*
X117740784Y-110599750D01*
X117739886Y-110598857D01*
X117725461Y-110580153D01*
X117716687Y-110554732D01*
X117712261Y-110515584D01*
X117710882Y-110455697D01*
X117710857Y-110442430D01*
X117714188Y-110359901D01*
X117725031Y-110302691D01*
X117744660Y-110267766D01*
X117774350Y-110252094D01*
X117791509Y-110250514D01*
X117832234Y-110257926D01*
X117860168Y-110282330D01*
X117876983Y-110326980D01*
X117884350Y-110395130D01*
X117885029Y-110432603D01*
X118024528Y-110432603D01*
X118024292Y-110419245D01*
X118022323Y-110354333D01*
X118019550Y-110306958D01*
X118015612Y-110273290D01*
X118010151Y-110249498D01*
X118002808Y-110231753D01*
X117993223Y-110216224D01*
X117989113Y-110210381D01*
X117934595Y-110155185D01*
X117865664Y-110123890D01*
X117785928Y-110115165D01*
X117716256Y-110123918D01*
G37*
X117716256Y-110123918D02*
X117660799Y-110151568D01*
X117611852Y-110202480D01*
X117598371Y-110221338D01*
X117583686Y-110246015D01*
X117574158Y-110272816D01*
X117568707Y-110308587D01*
X117566253Y-110360169D01*
X117565714Y-110428267D01*
X117568148Y-110521588D01*
X117576606Y-110591657D01*
X117592826Y-110643931D01*
X117618546Y-110683869D01*
X117655503Y-110716929D01*
X117658218Y-110718886D01*
X117694640Y-110738908D01*
X117738498Y-110748815D01*
X117794276Y-110751257D01*
X117884952Y-110751257D01*
X117884990Y-110839283D01*
X117885834Y-110888308D01*
X117890976Y-110917065D01*
X117904413Y-110934311D01*
X117930142Y-110948808D01*
X117936321Y-110951769D01*
X117965236Y-110965648D01*
X117987624Y-110974414D01*
X118004271Y-110975171D01*
X118015964Y-110965023D01*
X118023490Y-110941073D01*
X118027634Y-110900426D01*
X118029185Y-110840186D01*
X118028929Y-110757455D01*
X118027651Y-110649339D01*
X118027252Y-110617000D01*
X118025815Y-110505524D01*
X118024528Y-110432603D01*
X117885029Y-110432603D01*
X117884245Y-110494499D01*
X117880760Y-110534997D01*
X117872876Y-110561708D01*
X117858895Y-110582244D01*
X117849403Y-110592260D01*
X117810596Y-110621567D01*
X117776237Y-110623952D01*
X117740784Y-110599750D01*
X117739886Y-110598857D01*
X117725461Y-110580153D01*
X117716687Y-110554732D01*
X117712261Y-110515584D01*
X117710882Y-110455697D01*
X117710857Y-110442430D01*
X117714188Y-110359901D01*
X117725031Y-110302691D01*
X117744660Y-110267766D01*
X117774350Y-110252094D01*
X117791509Y-110250514D01*
X117832234Y-110257926D01*
X117860168Y-110282330D01*
X117876983Y-110326980D01*
X117884350Y-110395130D01*
X117885029Y-110432603D01*
X118024528Y-110432603D01*
X118024292Y-110419245D01*
X118022323Y-110354333D01*
X118019550Y-110306958D01*
X118015612Y-110273290D01*
X118010151Y-110249498D01*
X118002808Y-110231753D01*
X117993223Y-110216224D01*
X117989113Y-110210381D01*
X117934595Y-110155185D01*
X117865664Y-110123890D01*
X117785928Y-110115165D01*
X117716256Y-110123918D01*
G36*
X116599907Y-110131780D02*
G01*
X116553328Y-110158723D01*
X116520943Y-110185466D01*
X116497258Y-110213484D01*
X116480941Y-110247748D01*
X116470661Y-110293227D01*
X116465086Y-110354892D01*
X116462884Y-110437711D01*
X116462629Y-110497246D01*
X116462629Y-110716391D01*
X116524314Y-110744044D01*
X116586000Y-110771697D01*
X116593257Y-110531670D01*
X116596256Y-110442028D01*
X116599402Y-110376962D01*
X116603299Y-110332026D01*
X116608553Y-110302770D01*
X116615769Y-110284748D01*
X116625550Y-110273511D01*
X116628688Y-110271079D01*
X116676239Y-110252083D01*
X116724303Y-110259600D01*
X116752914Y-110279543D01*
X116764553Y-110293675D01*
X116772609Y-110312220D01*
X116777729Y-110340334D01*
X116780559Y-110383173D01*
X116781744Y-110445895D01*
X116781943Y-110511261D01*
X116781982Y-110593268D01*
X116783386Y-110651316D01*
X116788086Y-110690465D01*
X116798013Y-110715780D01*
X116815097Y-110732323D01*
X116841268Y-110745156D01*
X116876225Y-110758491D01*
X116914404Y-110773007D01*
X116909859Y-110515389D01*
X116908029Y-110422519D01*
X116905888Y-110353889D01*
X116902819Y-110304711D01*
X116898206Y-110270198D01*
X116891432Y-110245562D01*
X116881881Y-110226016D01*
X116870366Y-110208770D01*
X116814810Y-110153680D01*
X116747020Y-110121822D01*
X116673287Y-110114191D01*
X116599907Y-110131780D01*
G37*
X116599907Y-110131780D02*
X116553328Y-110158723D01*
X116520943Y-110185466D01*
X116497258Y-110213484D01*
X116480941Y-110247748D01*
X116470661Y-110293227D01*
X116465086Y-110354892D01*
X116462884Y-110437711D01*
X116462629Y-110497246D01*
X116462629Y-110716391D01*
X116524314Y-110744044D01*
X116586000Y-110771697D01*
X116593257Y-110531670D01*
X116596256Y-110442028D01*
X116599402Y-110376962D01*
X116603299Y-110332026D01*
X116608553Y-110302770D01*
X116615769Y-110284748D01*
X116625550Y-110273511D01*
X116628688Y-110271079D01*
X116676239Y-110252083D01*
X116724303Y-110259600D01*
X116752914Y-110279543D01*
X116764553Y-110293675D01*
X116772609Y-110312220D01*
X116777729Y-110340334D01*
X116780559Y-110383173D01*
X116781744Y-110445895D01*
X116781943Y-110511261D01*
X116781982Y-110593268D01*
X116783386Y-110651316D01*
X116788086Y-110690465D01*
X116798013Y-110715780D01*
X116815097Y-110732323D01*
X116841268Y-110745156D01*
X116876225Y-110758491D01*
X116914404Y-110773007D01*
X116909859Y-110515389D01*
X116908029Y-110422519D01*
X116905888Y-110353889D01*
X116902819Y-110304711D01*
X116898206Y-110270198D01*
X116891432Y-110245562D01*
X116881881Y-110226016D01*
X116870366Y-110208770D01*
X116814810Y-110153680D01*
X116747020Y-110121822D01*
X116673287Y-110114191D01*
X116599907Y-110131780D01*
G36*
X118274885Y-110125962D02*
G01*
X118206855Y-110161733D01*
X118156649Y-110219301D01*
X118138815Y-110256312D01*
X118124937Y-110311882D01*
X118117833Y-110382096D01*
X118117160Y-110458727D01*
X118122573Y-110533552D01*
X118133730Y-110598342D01*
X118150286Y-110644873D01*
X118155374Y-110652887D01*
X118215645Y-110712707D01*
X118287231Y-110748535D01*
X118364908Y-110759020D01*
X118443452Y-110742810D01*
X118465311Y-110733092D01*
X118507878Y-110703143D01*
X118545237Y-110663433D01*
X118548768Y-110658397D01*
X118563119Y-110634124D01*
X118572606Y-110608178D01*
X118578210Y-110574022D01*
X118580914Y-110525119D01*
X118581701Y-110454935D01*
X118581714Y-110439200D01*
X118581678Y-110434192D01*
X118436571Y-110434192D01*
X118435727Y-110500430D01*
X118432404Y-110544386D01*
X118425417Y-110572779D01*
X118413584Y-110592325D01*
X118407543Y-110598857D01*
X118372814Y-110623680D01*
X118339097Y-110622548D01*
X118305005Y-110601016D01*
X118284671Y-110578029D01*
X118272629Y-110544478D01*
X118265866Y-110491569D01*
X118265402Y-110485399D01*
X118264248Y-110389513D01*
X118276312Y-110318299D01*
X118301430Y-110272194D01*
X118339440Y-110251635D01*
X118353008Y-110250514D01*
X118388636Y-110256152D01*
X118413006Y-110275686D01*
X118427907Y-110313042D01*
X118435125Y-110372150D01*
X118436571Y-110434192D01*
X118581678Y-110434192D01*
X118581174Y-110364413D01*
X118578904Y-110312159D01*
X118573932Y-110275949D01*
X118565287Y-110249299D01*
X118551995Y-110225722D01*
X118549057Y-110221338D01*
X118499687Y-110162249D01*
X118445891Y-110127947D01*
X118380398Y-110114331D01*
X118358158Y-110113665D01*
X118274885Y-110125962D01*
G37*
X118274885Y-110125962D02*
X118206855Y-110161733D01*
X118156649Y-110219301D01*
X118138815Y-110256312D01*
X118124937Y-110311882D01*
X118117833Y-110382096D01*
X118117160Y-110458727D01*
X118122573Y-110533552D01*
X118133730Y-110598342D01*
X118150286Y-110644873D01*
X118155374Y-110652887D01*
X118215645Y-110712707D01*
X118287231Y-110748535D01*
X118364908Y-110759020D01*
X118443452Y-110742810D01*
X118465311Y-110733092D01*
X118507878Y-110703143D01*
X118545237Y-110663433D01*
X118548768Y-110658397D01*
X118563119Y-110634124D01*
X118572606Y-110608178D01*
X118578210Y-110574022D01*
X118580914Y-110525119D01*
X118581701Y-110454935D01*
X118581714Y-110439200D01*
X118581678Y-110434192D01*
X118436571Y-110434192D01*
X118435727Y-110500430D01*
X118432404Y-110544386D01*
X118425417Y-110572779D01*
X118413584Y-110592325D01*
X118407543Y-110598857D01*
X118372814Y-110623680D01*
X118339097Y-110622548D01*
X118305005Y-110601016D01*
X118284671Y-110578029D01*
X118272629Y-110544478D01*
X118265866Y-110491569D01*
X118265402Y-110485399D01*
X118264248Y-110389513D01*
X118276312Y-110318299D01*
X118301430Y-110272194D01*
X118339440Y-110251635D01*
X118353008Y-110250514D01*
X118388636Y-110256152D01*
X118413006Y-110275686D01*
X118427907Y-110313042D01*
X118435125Y-110372150D01*
X118436571Y-110434192D01*
X118581678Y-110434192D01*
X118581174Y-110364413D01*
X118578904Y-110312159D01*
X118573932Y-110275949D01*
X118565287Y-110249299D01*
X118551995Y-110225722D01*
X118549057Y-110221338D01*
X118499687Y-110162249D01*
X118445891Y-110127947D01*
X118380398Y-110114331D01*
X118358158Y-110113665D01*
X118274885Y-110125962D01*
G36*
X117147697Y-110135239D02*
G01*
X117090473Y-110173735D01*
X117046251Y-110229335D01*
X117019833Y-110300086D01*
X117014490Y-110352162D01*
X117015097Y-110373893D01*
X117020178Y-110390531D01*
X117034145Y-110405437D01*
X117061411Y-110421973D01*
X117106388Y-110443498D01*
X117173489Y-110473374D01*
X117173829Y-110473524D01*
X117235593Y-110501813D01*
X117286241Y-110526933D01*
X117320596Y-110546179D01*
X117333482Y-110556848D01*
X117333486Y-110556934D01*
X117322128Y-110580166D01*
X117295569Y-110605774D01*
X117265077Y-110624221D01*
X117249630Y-110627886D01*
X117207485Y-110615212D01*
X117171192Y-110583471D01*
X117153483Y-110548572D01*
X117136448Y-110522845D01*
X117103078Y-110493546D01*
X117063851Y-110468235D01*
X117029244Y-110454471D01*
X117022007Y-110453714D01*
X117013861Y-110466160D01*
X117013370Y-110497972D01*
X117019357Y-110540866D01*
X117030643Y-110586558D01*
X117046050Y-110626761D01*
X117046829Y-110628322D01*
X117093196Y-110693062D01*
X117153289Y-110737097D01*
X117221535Y-110758711D01*
X117292362Y-110756185D01*
X117360196Y-110727804D01*
X117363212Y-110725808D01*
X117416573Y-110677448D01*
X117451660Y-110614352D01*
X117471078Y-110531387D01*
X117473684Y-110508078D01*
X117478299Y-110398055D01*
X117472767Y-110346748D01*
X117333486Y-110346748D01*
X117331676Y-110378753D01*
X117321778Y-110388093D01*
X117297102Y-110381105D01*
X117258205Y-110364587D01*
X117214725Y-110343881D01*
X117213644Y-110343333D01*
X117176791Y-110323949D01*
X117162000Y-110311013D01*
X117165647Y-110297451D01*
X117181005Y-110279632D01*
X117220077Y-110253845D01*
X117262154Y-110251950D01*
X117299897Y-110270717D01*
X117325966Y-110306915D01*
X117333486Y-110346748D01*
X117472767Y-110346748D01*
X117468806Y-110310027D01*
X117444450Y-110240212D01*
X117410544Y-110191302D01*
X117349347Y-110141878D01*
X117281937Y-110117359D01*
X117213120Y-110115797D01*
X117147697Y-110135239D01*
G37*
X117147697Y-110135239D02*
X117090473Y-110173735D01*
X117046251Y-110229335D01*
X117019833Y-110300086D01*
X117014490Y-110352162D01*
X117015097Y-110373893D01*
X117020178Y-110390531D01*
X117034145Y-110405437D01*
X117061411Y-110421973D01*
X117106388Y-110443498D01*
X117173489Y-110473374D01*
X117173829Y-110473524D01*
X117235593Y-110501813D01*
X117286241Y-110526933D01*
X117320596Y-110546179D01*
X117333482Y-110556848D01*
X117333486Y-110556934D01*
X117322128Y-110580166D01*
X117295569Y-110605774D01*
X117265077Y-110624221D01*
X117249630Y-110627886D01*
X117207485Y-110615212D01*
X117171192Y-110583471D01*
X117153483Y-110548572D01*
X117136448Y-110522845D01*
X117103078Y-110493546D01*
X117063851Y-110468235D01*
X117029244Y-110454471D01*
X117022007Y-110453714D01*
X117013861Y-110466160D01*
X117013370Y-110497972D01*
X117019357Y-110540866D01*
X117030643Y-110586558D01*
X117046050Y-110626761D01*
X117046829Y-110628322D01*
X117093196Y-110693062D01*
X117153289Y-110737097D01*
X117221535Y-110758711D01*
X117292362Y-110756185D01*
X117360196Y-110727804D01*
X117363212Y-110725808D01*
X117416573Y-110677448D01*
X117451660Y-110614352D01*
X117471078Y-110531387D01*
X117473684Y-110508078D01*
X117478299Y-110398055D01*
X117472767Y-110346748D01*
X117333486Y-110346748D01*
X117331676Y-110378753D01*
X117321778Y-110388093D01*
X117297102Y-110381105D01*
X117258205Y-110364587D01*
X117214725Y-110343881D01*
X117213644Y-110343333D01*
X117176791Y-110323949D01*
X117162000Y-110311013D01*
X117165647Y-110297451D01*
X117181005Y-110279632D01*
X117220077Y-110253845D01*
X117262154Y-110251950D01*
X117299897Y-110270717D01*
X117325966Y-110306915D01*
X117333486Y-110346748D01*
X117472767Y-110346748D01*
X117468806Y-110310027D01*
X117444450Y-110240212D01*
X117410544Y-110191302D01*
X117349347Y-110141878D01*
X117281937Y-110117359D01*
X117213120Y-110115797D01*
X117147697Y-110135239D01*
G36*
X115940114Y-110055289D02*
G01*
X115935861Y-110114613D01*
X115930975Y-110149572D01*
X115924205Y-110164820D01*
X115914298Y-110165015D01*
X115911086Y-110163195D01*
X115868356Y-110150015D01*
X115812773Y-110150785D01*
X115756263Y-110164333D01*
X115720918Y-110181861D01*
X115684679Y-110209861D01*
X115658187Y-110241549D01*
X115640001Y-110281813D01*
X115628678Y-110335543D01*
X115622778Y-110407626D01*
X115620857Y-110502951D01*
X115620823Y-110521237D01*
X115620800Y-110726646D01*
X115666509Y-110742580D01*
X115698973Y-110753420D01*
X115716785Y-110758468D01*
X115717309Y-110758514D01*
X115719063Y-110744828D01*
X115720556Y-110707076D01*
X115721674Y-110650224D01*
X115722303Y-110579234D01*
X115722400Y-110536073D01*
X115722602Y-110450973D01*
X115723642Y-110389981D01*
X115726169Y-110348177D01*
X115730836Y-110320642D01*
X115738293Y-110302456D01*
X115749189Y-110288698D01*
X115755993Y-110282073D01*
X115802728Y-110255375D01*
X115853728Y-110253375D01*
X115899999Y-110275955D01*
X115908556Y-110284107D01*
X115921107Y-110299436D01*
X115929812Y-110317618D01*
X115935369Y-110343909D01*
X115938474Y-110383562D01*
X115939824Y-110441832D01*
X115940114Y-110522173D01*
X115940114Y-110726646D01*
X115985823Y-110742580D01*
X116018287Y-110753420D01*
X116036099Y-110758468D01*
X116036623Y-110758514D01*
X116037963Y-110744623D01*
X116039172Y-110705439D01*
X116040199Y-110644700D01*
X116040998Y-110566141D01*
X116041519Y-110473498D01*
X116041714Y-110370509D01*
X116041714Y-109973342D01*
X115994543Y-109953444D01*
X115947371Y-109933547D01*
X115940114Y-110055289D01*
G37*
X115940114Y-110055289D02*
X115935861Y-110114613D01*
X115930975Y-110149572D01*
X115924205Y-110164820D01*
X115914298Y-110165015D01*
X115911086Y-110163195D01*
X115868356Y-110150015D01*
X115812773Y-110150785D01*
X115756263Y-110164333D01*
X115720918Y-110181861D01*
X115684679Y-110209861D01*
X115658187Y-110241549D01*
X115640001Y-110281813D01*
X115628678Y-110335543D01*
X115622778Y-110407626D01*
X115620857Y-110502951D01*
X115620823Y-110521237D01*
X115620800Y-110726646D01*
X115666509Y-110742580D01*
X115698973Y-110753420D01*
X115716785Y-110758468D01*
X115717309Y-110758514D01*
X115719063Y-110744828D01*
X115720556Y-110707076D01*
X115721674Y-110650224D01*
X115722303Y-110579234D01*
X115722400Y-110536073D01*
X115722602Y-110450973D01*
X115723642Y-110389981D01*
X115726169Y-110348177D01*
X115730836Y-110320642D01*
X115738293Y-110302456D01*
X115749189Y-110288698D01*
X115755993Y-110282073D01*
X115802728Y-110255375D01*
X115853728Y-110253375D01*
X115899999Y-110275955D01*
X115908556Y-110284107D01*
X115921107Y-110299436D01*
X115929812Y-110317618D01*
X115935369Y-110343909D01*
X115938474Y-110383562D01*
X115939824Y-110441832D01*
X115940114Y-110522173D01*
X115940114Y-110726646D01*
X115985823Y-110742580D01*
X116018287Y-110753420D01*
X116036099Y-110758468D01*
X116036623Y-110758514D01*
X116037963Y-110744623D01*
X116039172Y-110705439D01*
X116040199Y-110644700D01*
X116040998Y-110566141D01*
X116041519Y-110473498D01*
X116041714Y-110370509D01*
X116041714Y-109973342D01*
X115994543Y-109953444D01*
X115947371Y-109933547D01*
X115940114Y-110055289D01*
G36*
X115276256Y-110154968D02*
G01*
X115219384Y-110176087D01*
X115218733Y-110176493D01*
X115183560Y-110202380D01*
X115157593Y-110232633D01*
X115139330Y-110272058D01*
X115127268Y-110325462D01*
X115119904Y-110397651D01*
X115115736Y-110493432D01*
X115115371Y-110507078D01*
X115110124Y-110712842D01*
X115154284Y-110735678D01*
X115186237Y-110751110D01*
X115205530Y-110758423D01*
X115206422Y-110758514D01*
X115209761Y-110745022D01*
X115212413Y-110708626D01*
X115214044Y-110655452D01*
X115214400Y-110612393D01*
X115214408Y-110542641D01*
X115217597Y-110498837D01*
X115228712Y-110477944D01*
X115252499Y-110476925D01*
X115293704Y-110492741D01*
X115355914Y-110521815D01*
X115401659Y-110545963D01*
X115425187Y-110566913D01*
X115432104Y-110589747D01*
X115432114Y-110590877D01*
X115420701Y-110630212D01*
X115386908Y-110651462D01*
X115335191Y-110654539D01*
X115297939Y-110654006D01*
X115278297Y-110664735D01*
X115266048Y-110690505D01*
X115258998Y-110723337D01*
X115269158Y-110741966D01*
X115272983Y-110744632D01*
X115308999Y-110755340D01*
X115359434Y-110756856D01*
X115411374Y-110749759D01*
X115448178Y-110736788D01*
X115499062Y-110693585D01*
X115527986Y-110633446D01*
X115533714Y-110586462D01*
X115529343Y-110544082D01*
X115513525Y-110509488D01*
X115482203Y-110478763D01*
X115431322Y-110447990D01*
X115356824Y-110413252D01*
X115352286Y-110411288D01*
X115285179Y-110380287D01*
X115243768Y-110354862D01*
X115226019Y-110332014D01*
X115229893Y-110308745D01*
X115253357Y-110282056D01*
X115260373Y-110275914D01*
X115307370Y-110252100D01*
X115356067Y-110253103D01*
X115398478Y-110276451D01*
X115426616Y-110319675D01*
X115429231Y-110328160D01*
X115454692Y-110369308D01*
X115486999Y-110389128D01*
X115533714Y-110408770D01*
X115533714Y-110357950D01*
X115519504Y-110284082D01*
X115477325Y-110216327D01*
X115455376Y-110193661D01*
X115405483Y-110164569D01*
X115342033Y-110151400D01*
X115276256Y-110154968D01*
G37*
X115276256Y-110154968D02*
X115219384Y-110176087D01*
X115218733Y-110176493D01*
X115183560Y-110202380D01*
X115157593Y-110232633D01*
X115139330Y-110272058D01*
X115127268Y-110325462D01*
X115119904Y-110397651D01*
X115115736Y-110493432D01*
X115115371Y-110507078D01*
X115110124Y-110712842D01*
X115154284Y-110735678D01*
X115186237Y-110751110D01*
X115205530Y-110758423D01*
X115206422Y-110758514D01*
X115209761Y-110745022D01*
X115212413Y-110708626D01*
X115214044Y-110655452D01*
X115214400Y-110612393D01*
X115214408Y-110542641D01*
X115217597Y-110498837D01*
X115228712Y-110477944D01*
X115252499Y-110476925D01*
X115293704Y-110492741D01*
X115355914Y-110521815D01*
X115401659Y-110545963D01*
X115425187Y-110566913D01*
X115432104Y-110589747D01*
X115432114Y-110590877D01*
X115420701Y-110630212D01*
X115386908Y-110651462D01*
X115335191Y-110654539D01*
X115297939Y-110654006D01*
X115278297Y-110664735D01*
X115266048Y-110690505D01*
X115258998Y-110723337D01*
X115269158Y-110741966D01*
X115272983Y-110744632D01*
X115308999Y-110755340D01*
X115359434Y-110756856D01*
X115411374Y-110749759D01*
X115448178Y-110736788D01*
X115499062Y-110693585D01*
X115527986Y-110633446D01*
X115533714Y-110586462D01*
X115529343Y-110544082D01*
X115513525Y-110509488D01*
X115482203Y-110478763D01*
X115431322Y-110447990D01*
X115356824Y-110413252D01*
X115352286Y-110411288D01*
X115285179Y-110380287D01*
X115243768Y-110354862D01*
X115226019Y-110332014D01*
X115229893Y-110308745D01*
X115253357Y-110282056D01*
X115260373Y-110275914D01*
X115307370Y-110252100D01*
X115356067Y-110253103D01*
X115398478Y-110276451D01*
X115426616Y-110319675D01*
X115429231Y-110328160D01*
X115454692Y-110369308D01*
X115486999Y-110389128D01*
X115533714Y-110408770D01*
X115533714Y-110357950D01*
X115519504Y-110284082D01*
X115477325Y-110216327D01*
X115455376Y-110193661D01*
X115405483Y-110164569D01*
X115342033Y-110151400D01*
X115276256Y-110154968D01*
G36*
X114786074Y-110153755D02*
G01*
X114720142Y-110178084D01*
X114666727Y-110221117D01*
X114645836Y-110251409D01*
X114623061Y-110306994D01*
X114623534Y-110347186D01*
X114647438Y-110374217D01*
X114656283Y-110378813D01*
X114694470Y-110393144D01*
X114713972Y-110389472D01*
X114720578Y-110365407D01*
X114720914Y-110352114D01*
X114733008Y-110303210D01*
X114764529Y-110268999D01*
X114808341Y-110252476D01*
X114857305Y-110256634D01*
X114897106Y-110278227D01*
X114910550Y-110290544D01*
X114920079Y-110305487D01*
X114926515Y-110328075D01*
X114930683Y-110363328D01*
X114933403Y-110416266D01*
X114935498Y-110491907D01*
X114936040Y-110515857D01*
X114938019Y-110597790D01*
X114940269Y-110655455D01*
X114943643Y-110693608D01*
X114948994Y-110717004D01*
X114957176Y-110730398D01*
X114969041Y-110738545D01*
X114976638Y-110742144D01*
X115008898Y-110754452D01*
X115027889Y-110758514D01*
X115034164Y-110744948D01*
X115037994Y-110703934D01*
X115039400Y-110634999D01*
X115038402Y-110537669D01*
X115038092Y-110522657D01*
X115035899Y-110433859D01*
X115033307Y-110369019D01*
X115029618Y-110323067D01*
X115024136Y-110290935D01*
X115016165Y-110267553D01*
X115005007Y-110247852D01*
X114999170Y-110239410D01*
X114965704Y-110202057D01*
X114928273Y-110173003D01*
X114923691Y-110170467D01*
X114856574Y-110150443D01*
X114786074Y-110153755D01*
G37*
X114786074Y-110153755D02*
X114720142Y-110178084D01*
X114666727Y-110221117D01*
X114645836Y-110251409D01*
X114623061Y-110306994D01*
X114623534Y-110347186D01*
X114647438Y-110374217D01*
X114656283Y-110378813D01*
X114694470Y-110393144D01*
X114713972Y-110389472D01*
X114720578Y-110365407D01*
X114720914Y-110352114D01*
X114733008Y-110303210D01*
X114764529Y-110268999D01*
X114808341Y-110252476D01*
X114857305Y-110256634D01*
X114897106Y-110278227D01*
X114910550Y-110290544D01*
X114920079Y-110305487D01*
X114926515Y-110328075D01*
X114930683Y-110363328D01*
X114933403Y-110416266D01*
X114935498Y-110491907D01*
X114936040Y-110515857D01*
X114938019Y-110597790D01*
X114940269Y-110655455D01*
X114943643Y-110693608D01*
X114948994Y-110717004D01*
X114957176Y-110730398D01*
X114969041Y-110738545D01*
X114976638Y-110742144D01*
X115008898Y-110754452D01*
X115027889Y-110758514D01*
X115034164Y-110744948D01*
X115037994Y-110703934D01*
X115039400Y-110634999D01*
X115038402Y-110537669D01*
X115038092Y-110522657D01*
X115035899Y-110433859D01*
X115033307Y-110369019D01*
X115029618Y-110323067D01*
X115024136Y-110290935D01*
X115016165Y-110267553D01*
X115005007Y-110247852D01*
X114999170Y-110239410D01*
X114965704Y-110202057D01*
X114928273Y-110173003D01*
X114923691Y-110170467D01*
X114856574Y-110150443D01*
X114786074Y-110153755D01*
G36*
X114125883Y-110269358D02*
G01*
X114126067Y-110377837D01*
X114126781Y-110461287D01*
X114128325Y-110523704D01*
X114130999Y-110569085D01*
X114135106Y-110601429D01*
X114140945Y-110624733D01*
X114148818Y-110642995D01*
X114154779Y-110653418D01*
X114204145Y-110709945D01*
X114266736Y-110745377D01*
X114335987Y-110758090D01*
X114405332Y-110746463D01*
X114446625Y-110725568D01*
X114489975Y-110689422D01*
X114519519Y-110645276D01*
X114537345Y-110587462D01*
X114545537Y-110510313D01*
X114546698Y-110453714D01*
X114546542Y-110449647D01*
X114445143Y-110449647D01*
X114444524Y-110514550D01*
X114441686Y-110557514D01*
X114435160Y-110585622D01*
X114423477Y-110605953D01*
X114409517Y-110621288D01*
X114362635Y-110650890D01*
X114312299Y-110653419D01*
X114264724Y-110628705D01*
X114261021Y-110625356D01*
X114245217Y-110607935D01*
X114235307Y-110587209D01*
X114229942Y-110556362D01*
X114227772Y-110508577D01*
X114227429Y-110455748D01*
X114228173Y-110389381D01*
X114231252Y-110345106D01*
X114237939Y-110316009D01*
X114249504Y-110295173D01*
X114258987Y-110284107D01*
X114303040Y-110256198D01*
X114353776Y-110252843D01*
X114402204Y-110274159D01*
X114411550Y-110282073D01*
X114427460Y-110299647D01*
X114437390Y-110320587D01*
X114442722Y-110351782D01*
X114444837Y-110400122D01*
X114445143Y-110449647D01*
X114546542Y-110449647D01*
X114543190Y-110362568D01*
X114531274Y-110294086D01*
X114508865Y-110242600D01*
X114473876Y-110202443D01*
X114446625Y-110181861D01*
X114397093Y-110159625D01*
X114339684Y-110149304D01*
X114286318Y-110152067D01*
X114256457Y-110163212D01*
X114244739Y-110166383D01*
X114236963Y-110154557D01*
X114231535Y-110122866D01*
X114227429Y-110074593D01*
X114222933Y-110020829D01*
X114216687Y-109988482D01*
X114205324Y-109969985D01*
X114185472Y-109957770D01*
X114173000Y-109952362D01*
X114125829Y-109932601D01*
X114125883Y-110269358D01*
G37*
X114125883Y-110269358D02*
X114126067Y-110377837D01*
X114126781Y-110461287D01*
X114128325Y-110523704D01*
X114130999Y-110569085D01*
X114135106Y-110601429D01*
X114140945Y-110624733D01*
X114148818Y-110642995D01*
X114154779Y-110653418D01*
X114204145Y-110709945D01*
X114266736Y-110745377D01*
X114335987Y-110758090D01*
X114405332Y-110746463D01*
X114446625Y-110725568D01*
X114489975Y-110689422D01*
X114519519Y-110645276D01*
X114537345Y-110587462D01*
X114545537Y-110510313D01*
X114546698Y-110453714D01*
X114546542Y-110449647D01*
X114445143Y-110449647D01*
X114444524Y-110514550D01*
X114441686Y-110557514D01*
X114435160Y-110585622D01*
X114423477Y-110605953D01*
X114409517Y-110621288D01*
X114362635Y-110650890D01*
X114312299Y-110653419D01*
X114264724Y-110628705D01*
X114261021Y-110625356D01*
X114245217Y-110607935D01*
X114235307Y-110587209D01*
X114229942Y-110556362D01*
X114227772Y-110508577D01*
X114227429Y-110455748D01*
X114228173Y-110389381D01*
X114231252Y-110345106D01*
X114237939Y-110316009D01*
X114249504Y-110295173D01*
X114258987Y-110284107D01*
X114303040Y-110256198D01*
X114353776Y-110252843D01*
X114402204Y-110274159D01*
X114411550Y-110282073D01*
X114427460Y-110299647D01*
X114437390Y-110320587D01*
X114442722Y-110351782D01*
X114444837Y-110400122D01*
X114445143Y-110449647D01*
X114546542Y-110449647D01*
X114543190Y-110362568D01*
X114531274Y-110294086D01*
X114508865Y-110242600D01*
X114473876Y-110202443D01*
X114446625Y-110181861D01*
X114397093Y-110159625D01*
X114339684Y-110149304D01*
X114286318Y-110152067D01*
X114256457Y-110163212D01*
X114244739Y-110166383D01*
X114236963Y-110154557D01*
X114231535Y-110122866D01*
X114227429Y-110074593D01*
X114222933Y-110020829D01*
X114216687Y-109988482D01*
X114205324Y-109969985D01*
X114185472Y-109957770D01*
X114173000Y-109952362D01*
X114125829Y-109932601D01*
X114125883Y-110269358D01*
G36*
X113536167Y-110162663D02*
G01*
X113533952Y-110200850D01*
X113532216Y-110258886D01*
X113531101Y-110332180D01*
X113530743Y-110409055D01*
X113530743Y-110669196D01*
X113576674Y-110715127D01*
X113608325Y-110743429D01*
X113636110Y-110754893D01*
X113674085Y-110754168D01*
X113689160Y-110752321D01*
X113736274Y-110746948D01*
X113775244Y-110743869D01*
X113784743Y-110743585D01*
X113816767Y-110745445D01*
X113862568Y-110750114D01*
X113880326Y-110752321D01*
X113923943Y-110755735D01*
X113953255Y-110748320D01*
X113982320Y-110725427D01*
X113992812Y-110715127D01*
X114038743Y-110669196D01*
X114038743Y-110182602D01*
X114001774Y-110165758D01*
X113969941Y-110153282D01*
X113951317Y-110148914D01*
X113946542Y-110162718D01*
X113942079Y-110201286D01*
X113938225Y-110260356D01*
X113935278Y-110335663D01*
X113933857Y-110399286D01*
X113929886Y-110649657D01*
X113895241Y-110654556D01*
X113863732Y-110651131D01*
X113848292Y-110640041D01*
X113843977Y-110619308D01*
X113840292Y-110575145D01*
X113837531Y-110513146D01*
X113835988Y-110438909D01*
X113835765Y-110400706D01*
X113835543Y-110180783D01*
X113789834Y-110164849D01*
X113757482Y-110154015D01*
X113739885Y-110148962D01*
X113739377Y-110148914D01*
X113737612Y-110162648D01*
X113735671Y-110200730D01*
X113733718Y-110258482D01*
X113731916Y-110331227D01*
X113730657Y-110399286D01*
X113726686Y-110649657D01*
X113639600Y-110649657D01*
X113635604Y-110421240D01*
X113631608Y-110192822D01*
X113589153Y-110170868D01*
X113557808Y-110155793D01*
X113539256Y-110148951D01*
X113538721Y-110148914D01*
X113536167Y-110162663D01*
G37*
X113536167Y-110162663D02*
X113533952Y-110200850D01*
X113532216Y-110258886D01*
X113531101Y-110332180D01*
X113530743Y-110409055D01*
X113530743Y-110669196D01*
X113576674Y-110715127D01*
X113608325Y-110743429D01*
X113636110Y-110754893D01*
X113674085Y-110754168D01*
X113689160Y-110752321D01*
X113736274Y-110746948D01*
X113775244Y-110743869D01*
X113784743Y-110743585D01*
X113816767Y-110745445D01*
X113862568Y-110750114D01*
X113880326Y-110752321D01*
X113923943Y-110755735D01*
X113953255Y-110748320D01*
X113982320Y-110725427D01*
X113992812Y-110715127D01*
X114038743Y-110669196D01*
X114038743Y-110182602D01*
X114001774Y-110165758D01*
X113969941Y-110153282D01*
X113951317Y-110148914D01*
X113946542Y-110162718D01*
X113942079Y-110201286D01*
X113938225Y-110260356D01*
X113935278Y-110335663D01*
X113933857Y-110399286D01*
X113929886Y-110649657D01*
X113895241Y-110654556D01*
X113863732Y-110651131D01*
X113848292Y-110640041D01*
X113843977Y-110619308D01*
X113840292Y-110575145D01*
X113837531Y-110513146D01*
X113835988Y-110438909D01*
X113835765Y-110400706D01*
X113835543Y-110180783D01*
X113789834Y-110164849D01*
X113757482Y-110154015D01*
X113739885Y-110148962D01*
X113739377Y-110148914D01*
X113737612Y-110162648D01*
X113735671Y-110200730D01*
X113733718Y-110258482D01*
X113731916Y-110331227D01*
X113730657Y-110399286D01*
X113726686Y-110649657D01*
X113639600Y-110649657D01*
X113635604Y-110421240D01*
X113631608Y-110192822D01*
X113589153Y-110170868D01*
X113557808Y-110155793D01*
X113539256Y-110148951D01*
X113538721Y-110148914D01*
X113536167Y-110162663D01*
G36*
X113171124Y-110160335D02*
G01*
X113129333Y-110179344D01*
X113096531Y-110202378D01*
X113072497Y-110228133D01*
X113055903Y-110261358D01*
X113045423Y-110306800D01*
X113039729Y-110369207D01*
X113037493Y-110453327D01*
X113037257Y-110508721D01*
X113037257Y-110724826D01*
X113074226Y-110741670D01*
X113103344Y-110753981D01*
X113117769Y-110758514D01*
X113120528Y-110745025D01*
X113122718Y-110708653D01*
X113124058Y-110655542D01*
X113124343Y-110613372D01*
X113125566Y-110552447D01*
X113128864Y-110504115D01*
X113133679Y-110474518D01*
X113137504Y-110468229D01*
X113163217Y-110474652D01*
X113203582Y-110491125D01*
X113250321Y-110513458D01*
X113295155Y-110537457D01*
X113329807Y-110558930D01*
X113345998Y-110573685D01*
X113346062Y-110573845D01*
X113344670Y-110601152D01*
X113332182Y-110627219D01*
X113310257Y-110648392D01*
X113278257Y-110655474D01*
X113250908Y-110654649D01*
X113212174Y-110654042D01*
X113191842Y-110663116D01*
X113179631Y-110687092D01*
X113178091Y-110691613D01*
X113172797Y-110725806D01*
X113186953Y-110746568D01*
X113223852Y-110756462D01*
X113263711Y-110758292D01*
X113335438Y-110744727D01*
X113372568Y-110725355D01*
X113418424Y-110679845D01*
X113442744Y-110623983D01*
X113444927Y-110564957D01*
X113424371Y-110509953D01*
X113393451Y-110475486D01*
X113362580Y-110456189D01*
X113314058Y-110431759D01*
X113257515Y-110406985D01*
X113248090Y-110403199D01*
X113185981Y-110375791D01*
X113150178Y-110351634D01*
X113138663Y-110327619D01*
X113149420Y-110300635D01*
X113167886Y-110279543D01*
X113211531Y-110253572D01*
X113259554Y-110251624D01*
X113303594Y-110271637D01*
X113335291Y-110311551D01*
X113339451Y-110321848D01*
X113363673Y-110359724D01*
X113399035Y-110387842D01*
X113443657Y-110410917D01*
X113443657Y-110345485D01*
X113441031Y-110305506D01*
X113429770Y-110273997D01*
X113404801Y-110240378D01*
X113380831Y-110214484D01*
X113343559Y-110177817D01*
X113314599Y-110158121D01*
X113283495Y-110150220D01*
X113248287Y-110148914D01*
X113171124Y-110160335D01*
G37*
X113171124Y-110160335D02*
X113129333Y-110179344D01*
X113096531Y-110202378D01*
X113072497Y-110228133D01*
X113055903Y-110261358D01*
X113045423Y-110306800D01*
X113039729Y-110369207D01*
X113037493Y-110453327D01*
X113037257Y-110508721D01*
X113037257Y-110724826D01*
X113074226Y-110741670D01*
X113103344Y-110753981D01*
X113117769Y-110758514D01*
X113120528Y-110745025D01*
X113122718Y-110708653D01*
X113124058Y-110655542D01*
X113124343Y-110613372D01*
X113125566Y-110552447D01*
X113128864Y-110504115D01*
X113133679Y-110474518D01*
X113137504Y-110468229D01*
X113163217Y-110474652D01*
X113203582Y-110491125D01*
X113250321Y-110513458D01*
X113295155Y-110537457D01*
X113329807Y-110558930D01*
X113345998Y-110573685D01*
X113346062Y-110573845D01*
X113344670Y-110601152D01*
X113332182Y-110627219D01*
X113310257Y-110648392D01*
X113278257Y-110655474D01*
X113250908Y-110654649D01*
X113212174Y-110654042D01*
X113191842Y-110663116D01*
X113179631Y-110687092D01*
X113178091Y-110691613D01*
X113172797Y-110725806D01*
X113186953Y-110746568D01*
X113223852Y-110756462D01*
X113263711Y-110758292D01*
X113335438Y-110744727D01*
X113372568Y-110725355D01*
X113418424Y-110679845D01*
X113442744Y-110623983D01*
X113444927Y-110564957D01*
X113424371Y-110509953D01*
X113393451Y-110475486D01*
X113362580Y-110456189D01*
X113314058Y-110431759D01*
X113257515Y-110406985D01*
X113248090Y-110403199D01*
X113185981Y-110375791D01*
X113150178Y-110351634D01*
X113138663Y-110327619D01*
X113149420Y-110300635D01*
X113167886Y-110279543D01*
X113211531Y-110253572D01*
X113259554Y-110251624D01*
X113303594Y-110271637D01*
X113335291Y-110311551D01*
X113339451Y-110321848D01*
X113363673Y-110359724D01*
X113399035Y-110387842D01*
X113443657Y-110410917D01*
X113443657Y-110345485D01*
X113441031Y-110305506D01*
X113429770Y-110273997D01*
X113404801Y-110240378D01*
X113380831Y-110214484D01*
X113343559Y-110177817D01*
X113314599Y-110158121D01*
X113283495Y-110150220D01*
X113248287Y-110148914D01*
X113171124Y-110160335D01*
G36*
X112663400Y-110162752D02*
G01*
X112646052Y-110170334D01*
X112604644Y-110203128D01*
X112569235Y-110250547D01*
X112547336Y-110301151D01*
X112543771Y-110326098D01*
X112555721Y-110360927D01*
X112581933Y-110379357D01*
X112610036Y-110390516D01*
X112622905Y-110392572D01*
X112629171Y-110377649D01*
X112641544Y-110345175D01*
X112646972Y-110330502D01*
X112677410Y-110279744D01*
X112721480Y-110254427D01*
X112777990Y-110255206D01*
X112782175Y-110256203D01*
X112812345Y-110270507D01*
X112834524Y-110298393D01*
X112849673Y-110343287D01*
X112858750Y-110408615D01*
X112862714Y-110497804D01*
X112863086Y-110545261D01*
X112863270Y-110620071D01*
X112864478Y-110671069D01*
X112867691Y-110703471D01*
X112873891Y-110722495D01*
X112884060Y-110733356D01*
X112899181Y-110741272D01*
X112900054Y-110741670D01*
X112929172Y-110753981D01*
X112943597Y-110758514D01*
X112945814Y-110744809D01*
X112947711Y-110706925D01*
X112949153Y-110649715D01*
X112950002Y-110578027D01*
X112950171Y-110525565D01*
X112949308Y-110424047D01*
X112945930Y-110347032D01*
X112938858Y-110290023D01*
X112926912Y-110248526D01*
X112908910Y-110218043D01*
X112883673Y-110194080D01*
X112858753Y-110177355D01*
X112798829Y-110155097D01*
X112729089Y-110150076D01*
X112663400Y-110162752D01*
G37*
X112663400Y-110162752D02*
X112646052Y-110170334D01*
X112604644Y-110203128D01*
X112569235Y-110250547D01*
X112547336Y-110301151D01*
X112543771Y-110326098D01*
X112555721Y-110360927D01*
X112581933Y-110379357D01*
X112610036Y-110390516D01*
X112622905Y-110392572D01*
X112629171Y-110377649D01*
X112641544Y-110345175D01*
X112646972Y-110330502D01*
X112677410Y-110279744D01*
X112721480Y-110254427D01*
X112777990Y-110255206D01*
X112782175Y-110256203D01*
X112812345Y-110270507D01*
X112834524Y-110298393D01*
X112849673Y-110343287D01*
X112858750Y-110408615D01*
X112862714Y-110497804D01*
X112863086Y-110545261D01*
X112863270Y-110620071D01*
X112864478Y-110671069D01*
X112867691Y-110703471D01*
X112873891Y-110722495D01*
X112884060Y-110733356D01*
X112899181Y-110741272D01*
X112900054Y-110741670D01*
X112929172Y-110753981D01*
X112943597Y-110758514D01*
X112945814Y-110744809D01*
X112947711Y-110706925D01*
X112949153Y-110649715D01*
X112950002Y-110578027D01*
X112950171Y-110525565D01*
X112949308Y-110424047D01*
X112945930Y-110347032D01*
X112938858Y-110290023D01*
X112926912Y-110248526D01*
X112908910Y-110218043D01*
X112883673Y-110194080D01*
X112858753Y-110177355D01*
X112798829Y-110155097D01*
X112729089Y-110150076D01*
X112663400Y-110162752D01*
G36*
X112162405Y-110170966D02*
G01*
X112104979Y-110208497D01*
X112077281Y-110242096D01*
X112055338Y-110303064D01*
X112053595Y-110351308D01*
X112057543Y-110415816D01*
X112206314Y-110480934D01*
X112278651Y-110514202D01*
X112325916Y-110540964D01*
X112350493Y-110564144D01*
X112354763Y-110586667D01*
X112341111Y-110611455D01*
X112326057Y-110627886D01*
X112282254Y-110654235D01*
X112234611Y-110656081D01*
X112190855Y-110635546D01*
X112158711Y-110594752D01*
X112152962Y-110580347D01*
X112125424Y-110535356D01*
X112093742Y-110516182D01*
X112050286Y-110499779D01*
X112050286Y-110561966D01*
X112054128Y-110604283D01*
X112069177Y-110639969D01*
X112100720Y-110680943D01*
X112105408Y-110686267D01*
X112140494Y-110722720D01*
X112170653Y-110742283D01*
X112208385Y-110751283D01*
X112239665Y-110754230D01*
X112295615Y-110754965D01*
X112335445Y-110745660D01*
X112360292Y-110731846D01*
X112399344Y-110701467D01*
X112426375Y-110668613D01*
X112443483Y-110627294D01*
X112452762Y-110571521D01*
X112456307Y-110495305D01*
X112456590Y-110456622D01*
X112455628Y-110410247D01*
X112367993Y-110410247D01*
X112366977Y-110435126D01*
X112364444Y-110439200D01*
X112347726Y-110433665D01*
X112311751Y-110419017D01*
X112263669Y-110398190D01*
X112253614Y-110393714D01*
X112192848Y-110362814D01*
X112159368Y-110335657D01*
X112152010Y-110310220D01*
X112169609Y-110284481D01*
X112184144Y-110273109D01*
X112236590Y-110250364D01*
X112285678Y-110254122D01*
X112326773Y-110281884D01*
X112355242Y-110331152D01*
X112364369Y-110370257D01*
X112367993Y-110410247D01*
X112455628Y-110410247D01*
X112454715Y-110366249D01*
X112447804Y-110299384D01*
X112434116Y-110250695D01*
X112411904Y-110214849D01*
X112379426Y-110186513D01*
X112365267Y-110177355D01*
X112300947Y-110153507D01*
X112230527Y-110152006D01*
X112162405Y-110170966D01*
G37*
X112162405Y-110170966D02*
X112104979Y-110208497D01*
X112077281Y-110242096D01*
X112055338Y-110303064D01*
X112053595Y-110351308D01*
X112057543Y-110415816D01*
X112206314Y-110480934D01*
X112278651Y-110514202D01*
X112325916Y-110540964D01*
X112350493Y-110564144D01*
X112354763Y-110586667D01*
X112341111Y-110611455D01*
X112326057Y-110627886D01*
X112282254Y-110654235D01*
X112234611Y-110656081D01*
X112190855Y-110635546D01*
X112158711Y-110594752D01*
X112152962Y-110580347D01*
X112125424Y-110535356D01*
X112093742Y-110516182D01*
X112050286Y-110499779D01*
X112050286Y-110561966D01*
X112054128Y-110604283D01*
X112069177Y-110639969D01*
X112100720Y-110680943D01*
X112105408Y-110686267D01*
X112140494Y-110722720D01*
X112170653Y-110742283D01*
X112208385Y-110751283D01*
X112239665Y-110754230D01*
X112295615Y-110754965D01*
X112335445Y-110745660D01*
X112360292Y-110731846D01*
X112399344Y-110701467D01*
X112426375Y-110668613D01*
X112443483Y-110627294D01*
X112452762Y-110571521D01*
X112456307Y-110495305D01*
X112456590Y-110456622D01*
X112455628Y-110410247D01*
X112367993Y-110410247D01*
X112366977Y-110435126D01*
X112364444Y-110439200D01*
X112347726Y-110433665D01*
X112311751Y-110419017D01*
X112263669Y-110398190D01*
X112253614Y-110393714D01*
X112192848Y-110362814D01*
X112159368Y-110335657D01*
X112152010Y-110310220D01*
X112169609Y-110284481D01*
X112184144Y-110273109D01*
X112236590Y-110250364D01*
X112285678Y-110254122D01*
X112326773Y-110281884D01*
X112355242Y-110331152D01*
X112364369Y-110370257D01*
X112367993Y-110410247D01*
X112455628Y-110410247D01*
X112454715Y-110366249D01*
X112447804Y-110299384D01*
X112434116Y-110250695D01*
X112411904Y-110214849D01*
X112379426Y-110186513D01*
X112365267Y-110177355D01*
X112300947Y-110153507D01*
X112230527Y-110152006D01*
X112162405Y-110170966D01*
G36*
X115212090Y-105446348D02*
G01*
X115133546Y-105446778D01*
X115076702Y-105447942D01*
X115037895Y-105450207D01*
X115013462Y-105453940D01*
X114999738Y-105459506D01*
X114993060Y-105467273D01*
X114989764Y-105477605D01*
X114989444Y-105478943D01*
X114984438Y-105503079D01*
X114975171Y-105550701D01*
X114962608Y-105616741D01*
X114947713Y-105696128D01*
X114931449Y-105783796D01*
X114930881Y-105786875D01*
X114914590Y-105872789D01*
X114899348Y-105948696D01*
X114886139Y-106010045D01*
X114875946Y-106052282D01*
X114869752Y-106070855D01*
X114869457Y-106071184D01*
X114851212Y-106080253D01*
X114813595Y-106095367D01*
X114764729Y-106113262D01*
X114764457Y-106113358D01*
X114702907Y-106136493D01*
X114630343Y-106165965D01*
X114561943Y-106195597D01*
X114558706Y-106197062D01*
X114447298Y-106247626D01*
X114200601Y-106079160D01*
X114124923Y-106027803D01*
X114056369Y-105981889D01*
X113998912Y-105944030D01*
X113956524Y-105916837D01*
X113933175Y-105902921D01*
X113930958Y-105901889D01*
X113913990Y-105906484D01*
X113882299Y-105928655D01*
X113834648Y-105969447D01*
X113769802Y-106029905D01*
X113703603Y-106094227D01*
X113639786Y-106157612D01*
X113582671Y-106215451D01*
X113535695Y-106264175D01*
X113502297Y-106300210D01*
X113485915Y-106319984D01*
X113485306Y-106321002D01*
X113483495Y-106334572D01*
X113490317Y-106356733D01*
X113507460Y-106390478D01*
X113536607Y-106438800D01*
X113579445Y-106504692D01*
X113636552Y-106589517D01*
X113687234Y-106664177D01*
X113732539Y-106731140D01*
X113769850Y-106786516D01*
X113796548Y-106826420D01*
X113810015Y-106846962D01*
X113810863Y-106848356D01*
X113809219Y-106868038D01*
X113796755Y-106906293D01*
X113775952Y-106955889D01*
X113768538Y-106971728D01*
X113736186Y-107042290D01*
X113701672Y-107122353D01*
X113673635Y-107191629D01*
X113653432Y-107243045D01*
X113637385Y-107282119D01*
X113628112Y-107302541D01*
X113626959Y-107304114D01*
X113609904Y-107306721D01*
X113569702Y-107313863D01*
X113511698Y-107324523D01*
X113441237Y-107337685D01*
X113363665Y-107352333D01*
X113284328Y-107367449D01*
X113208569Y-107382018D01*
X113141736Y-107395022D01*
X113089172Y-107405445D01*
X113056224Y-107412270D01*
X113048143Y-107414199D01*
X113039795Y-107418962D01*
X113033494Y-107429718D01*
X113028955Y-107450098D01*
X113025896Y-107483734D01*
X113024033Y-107534255D01*
X113023082Y-107605292D01*
X113022760Y-107700476D01*
X113022743Y-107739492D01*
X113022743Y-108056799D01*
X113098943Y-108071839D01*
X113141337Y-108079995D01*
X113204600Y-108091899D01*
X113281038Y-108106116D01*
X113362957Y-108121210D01*
X113385600Y-108125355D01*
X113461194Y-108140053D01*
X113527047Y-108154505D01*
X113577634Y-108167375D01*
X113607426Y-108177322D01*
X113612388Y-108180287D01*
X113624574Y-108201283D01*
X113642047Y-108241967D01*
X113661423Y-108294322D01*
X113665266Y-108305600D01*
X113690661Y-108375523D01*
X113722183Y-108454418D01*
X113753031Y-108525266D01*
X113753183Y-108525595D01*
X113804553Y-108636733D01*
X113635601Y-108885253D01*
X113466648Y-109133772D01*
X113683571Y-109351058D01*
X113749181Y-109415726D01*
X113809021Y-109472733D01*
X113859733Y-109519033D01*
X113897954Y-109551584D01*
X113920325Y-109567343D01*
X113923534Y-109568343D01*
X113942374Y-109560469D01*
X113980820Y-109538578D01*
X114034670Y-109505267D01*
X114099724Y-109463131D01*
X114170060Y-109415943D01*
X114241445Y-109367810D01*
X114305092Y-109325928D01*
X114356959Y-109292871D01*
X114393005Y-109271218D01*
X114409133Y-109263543D01*
X114428811Y-109270037D01*
X114466125Y-109287150D01*
X114513379Y-109311326D01*
X114518388Y-109314013D01*
X114582023Y-109345927D01*
X114625659Y-109361579D01*
X114652798Y-109361745D01*
X114666943Y-109347204D01*
X114667025Y-109347000D01*
X114674095Y-109329779D01*
X114690958Y-109288899D01*
X114716305Y-109227525D01*
X114748829Y-109148819D01*
X114787222Y-109055947D01*
X114830178Y-108952072D01*
X114871778Y-108851502D01*
X114917496Y-108740516D01*
X114959474Y-108637703D01*
X114996452Y-108546215D01*
X115027173Y-108469201D01*
X115050378Y-108409815D01*
X115064810Y-108371209D01*
X115069257Y-108356800D01*
X115058104Y-108340272D01*
X115028931Y-108313930D01*
X114990029Y-108284887D01*
X114879243Y-108193039D01*
X114792649Y-108087759D01*
X114731284Y-107971266D01*
X114696185Y-107845776D01*
X114688392Y-107713507D01*
X114694057Y-107652457D01*
X114724922Y-107525795D01*
X114778080Y-107413941D01*
X114850233Y-107318001D01*
X114938083Y-107239076D01*
X115038335Y-107178270D01*
X115147690Y-107136687D01*
X115262853Y-107115428D01*
X115380525Y-107115599D01*
X115497410Y-107138301D01*
X115610211Y-107184638D01*
X115715631Y-107255713D01*
X115759632Y-107295911D01*
X115844021Y-107399129D01*
X115902778Y-107511925D01*
X115936296Y-107631010D01*
X115944965Y-107753095D01*
X115929177Y-107874893D01*
X115889322Y-107993116D01*
X115825793Y-108104475D01*
X115738979Y-108205684D01*
X115641971Y-108284887D01*
X115601563Y-108315162D01*
X115573018Y-108341219D01*
X115562743Y-108356825D01*
X115568123Y-108373843D01*
X115583425Y-108414500D01*
X115607388Y-108475642D01*
X115638756Y-108554119D01*
X115676268Y-108646780D01*
X115718667Y-108750472D01*
X115760337Y-108851526D01*
X115806310Y-108962607D01*
X115848893Y-109065541D01*
X115886779Y-109157165D01*
X115918660Y-109234316D01*
X115943229Y-109293831D01*
X115959180Y-109332544D01*
X115965090Y-109347000D01*
X115979052Y-109361685D01*
X116006060Y-109361642D01*
X116049587Y-109346099D01*
X116113110Y-109314284D01*
X116113612Y-109314013D01*
X116161440Y-109289323D01*
X116200103Y-109271338D01*
X116221905Y-109263614D01*
X116222867Y-109263543D01*
X116239279Y-109271378D01*
X116275513Y-109293165D01*
X116327526Y-109326328D01*
X116391275Y-109368291D01*
X116461940Y-109415943D01*
X116533884Y-109464191D01*
X116598726Y-109506151D01*
X116652265Y-109539227D01*
X116690303Y-109560821D01*
X116708467Y-109568343D01*
X116725192Y-109558457D01*
X116758820Y-109530826D01*
X116805990Y-109488495D01*
X116863342Y-109434505D01*
X116927516Y-109371899D01*
X116948503Y-109350983D01*
X117165501Y-109133623D01*
X117000332Y-108891220D01*
X116950136Y-108816781D01*
X116906081Y-108749972D01*
X116870638Y-108694665D01*
X116846281Y-108654729D01*
X116835478Y-108634036D01*
X116835162Y-108632563D01*
X116840857Y-108613058D01*
X116856174Y-108573822D01*
X116878463Y-108521430D01*
X116894107Y-108486355D01*
X116923359Y-108419201D01*
X116950906Y-108351358D01*
X116972263Y-108294034D01*
X116978065Y-108276572D01*
X116994548Y-108229938D01*
X117010660Y-108193905D01*
X117019510Y-108180287D01*
X117039040Y-108171952D01*
X117081666Y-108160137D01*
X117141855Y-108146181D01*
X117214078Y-108131422D01*
X117246400Y-108125355D01*
X117328478Y-108110273D01*
X117407205Y-108095669D01*
X117474891Y-108082980D01*
X117523840Y-108073642D01*
X117533057Y-108071839D01*
X117609257Y-108056799D01*
X117609257Y-107739492D01*
X117609086Y-107635154D01*
X117608384Y-107556213D01*
X117606866Y-107499038D01*
X117604251Y-107459999D01*
X117600254Y-107435465D01*
X117594591Y-107421805D01*
X117586980Y-107415389D01*
X117583857Y-107414199D01*
X117565022Y-107409980D01*
X117523412Y-107401562D01*
X117464370Y-107389961D01*
X117393243Y-107376195D01*
X117315375Y-107361280D01*
X117236113Y-107346232D01*
X117160802Y-107332069D01*
X117094787Y-107319806D01*
X117043413Y-107310461D01*
X117012025Y-107305050D01*
X117005041Y-107304114D01*
X116998715Y-107291596D01*
X116984710Y-107258246D01*
X116965645Y-107210377D01*
X116958366Y-107191629D01*
X116929004Y-107119195D01*
X116894429Y-107039170D01*
X116863463Y-106971728D01*
X116840677Y-106920159D01*
X116825518Y-106877785D01*
X116820458Y-106851834D01*
X116821264Y-106848356D01*
X116831959Y-106831936D01*
X116856380Y-106795417D01*
X116891905Y-106742687D01*
X116935913Y-106677635D01*
X116985783Y-106604151D01*
X116995644Y-106589645D01*
X117053508Y-106503704D01*
X117096044Y-106438261D01*
X117124946Y-106390304D01*
X117141910Y-106356820D01*
X117148633Y-106334795D01*
X117146810Y-106321217D01*
X117146764Y-106321131D01*
X117132414Y-106303297D01*
X117100677Y-106268817D01*
X117054990Y-106221268D01*
X116998796Y-106164222D01*
X116935532Y-106101255D01*
X116928398Y-106094227D01*
X116848670Y-106017020D01*
X116787143Y-105960330D01*
X116742579Y-105923110D01*
X116713743Y-105904315D01*
X116701042Y-105901889D01*
X116682506Y-105912471D01*
X116644039Y-105936916D01*
X116589614Y-105972612D01*
X116523202Y-106016947D01*
X116448775Y-106067311D01*
X116431399Y-106079160D01*
X116184703Y-106247626D01*
X116073294Y-106197062D01*
X116005543Y-106167595D01*
X115932817Y-106137959D01*
X115870297Y-106114330D01*
X115867543Y-106113358D01*
X115818640Y-106095457D01*
X115780943Y-106080320D01*
X115762575Y-106071210D01*
X115762544Y-106071184D01*
X115756715Y-106054717D01*
X115746808Y-106014219D01*
X115733805Y-105954242D01*
X115718691Y-105879340D01*
X115702448Y-105794064D01*
X115701119Y-105786875D01*
X115684825Y-105699014D01*
X115669867Y-105619260D01*
X115657209Y-105552681D01*
X115647814Y-105504347D01*
X115642646Y-105479325D01*
X115642556Y-105478943D01*
X115639411Y-105468299D01*
X115633296Y-105460262D01*
X115620547Y-105454467D01*
X115597500Y-105450547D01*
X115560491Y-105448135D01*
X115505856Y-105446865D01*
X115429933Y-105446371D01*
X115329056Y-105446286D01*
X115316000Y-105446286D01*
X115212090Y-105446348D01*
G37*
X115212090Y-105446348D02*
X115133546Y-105446778D01*
X115076702Y-105447942D01*
X115037895Y-105450207D01*
X115013462Y-105453940D01*
X114999738Y-105459506D01*
X114993060Y-105467273D01*
X114989764Y-105477605D01*
X114989444Y-105478943D01*
X114984438Y-105503079D01*
X114975171Y-105550701D01*
X114962608Y-105616741D01*
X114947713Y-105696128D01*
X114931449Y-105783796D01*
X114930881Y-105786875D01*
X114914590Y-105872789D01*
X114899348Y-105948696D01*
X114886139Y-106010045D01*
X114875946Y-106052282D01*
X114869752Y-106070855D01*
X114869457Y-106071184D01*
X114851212Y-106080253D01*
X114813595Y-106095367D01*
X114764729Y-106113262D01*
X114764457Y-106113358D01*
X114702907Y-106136493D01*
X114630343Y-106165965D01*
X114561943Y-106195597D01*
X114558706Y-106197062D01*
X114447298Y-106247626D01*
X114200601Y-106079160D01*
X114124923Y-106027803D01*
X114056369Y-105981889D01*
X113998912Y-105944030D01*
X113956524Y-105916837D01*
X113933175Y-105902921D01*
X113930958Y-105901889D01*
X113913990Y-105906484D01*
X113882299Y-105928655D01*
X113834648Y-105969447D01*
X113769802Y-106029905D01*
X113703603Y-106094227D01*
X113639786Y-106157612D01*
X113582671Y-106215451D01*
X113535695Y-106264175D01*
X113502297Y-106300210D01*
X113485915Y-106319984D01*
X113485306Y-106321002D01*
X113483495Y-106334572D01*
X113490317Y-106356733D01*
X113507460Y-106390478D01*
X113536607Y-106438800D01*
X113579445Y-106504692D01*
X113636552Y-106589517D01*
X113687234Y-106664177D01*
X113732539Y-106731140D01*
X113769850Y-106786516D01*
X113796548Y-106826420D01*
X113810015Y-106846962D01*
X113810863Y-106848356D01*
X113809219Y-106868038D01*
X113796755Y-106906293D01*
X113775952Y-106955889D01*
X113768538Y-106971728D01*
X113736186Y-107042290D01*
X113701672Y-107122353D01*
X113673635Y-107191629D01*
X113653432Y-107243045D01*
X113637385Y-107282119D01*
X113628112Y-107302541D01*
X113626959Y-107304114D01*
X113609904Y-107306721D01*
X113569702Y-107313863D01*
X113511698Y-107324523D01*
X113441237Y-107337685D01*
X113363665Y-107352333D01*
X113284328Y-107367449D01*
X113208569Y-107382018D01*
X113141736Y-107395022D01*
X113089172Y-107405445D01*
X113056224Y-107412270D01*
X113048143Y-107414199D01*
X113039795Y-107418962D01*
X113033494Y-107429718D01*
X113028955Y-107450098D01*
X113025896Y-107483734D01*
X113024033Y-107534255D01*
X113023082Y-107605292D01*
X113022760Y-107700476D01*
X113022743Y-107739492D01*
X113022743Y-108056799D01*
X113098943Y-108071839D01*
X113141337Y-108079995D01*
X113204600Y-108091899D01*
X113281038Y-108106116D01*
X113362957Y-108121210D01*
X113385600Y-108125355D01*
X113461194Y-108140053D01*
X113527047Y-108154505D01*
X113577634Y-108167375D01*
X113607426Y-108177322D01*
X113612388Y-108180287D01*
X113624574Y-108201283D01*
X113642047Y-108241967D01*
X113661423Y-108294322D01*
X113665266Y-108305600D01*
X113690661Y-108375523D01*
X113722183Y-108454418D01*
X113753031Y-108525266D01*
X113753183Y-108525595D01*
X113804553Y-108636733D01*
X113635601Y-108885253D01*
X113466648Y-109133772D01*
X113683571Y-109351058D01*
X113749181Y-109415726D01*
X113809021Y-109472733D01*
X113859733Y-109519033D01*
X113897954Y-109551584D01*
X113920325Y-109567343D01*
X113923534Y-109568343D01*
X113942374Y-109560469D01*
X113980820Y-109538578D01*
X114034670Y-109505267D01*
X114099724Y-109463131D01*
X114170060Y-109415943D01*
X114241445Y-109367810D01*
X114305092Y-109325928D01*
X114356959Y-109292871D01*
X114393005Y-109271218D01*
X114409133Y-109263543D01*
X114428811Y-109270037D01*
X114466125Y-109287150D01*
X114513379Y-109311326D01*
X114518388Y-109314013D01*
X114582023Y-109345927D01*
X114625659Y-109361579D01*
X114652798Y-109361745D01*
X114666943Y-109347204D01*
X114667025Y-109347000D01*
X114674095Y-109329779D01*
X114690958Y-109288899D01*
X114716305Y-109227525D01*
X114748829Y-109148819D01*
X114787222Y-109055947D01*
X114830178Y-108952072D01*
X114871778Y-108851502D01*
X114917496Y-108740516D01*
X114959474Y-108637703D01*
X114996452Y-108546215D01*
X115027173Y-108469201D01*
X115050378Y-108409815D01*
X115064810Y-108371209D01*
X115069257Y-108356800D01*
X115058104Y-108340272D01*
X115028931Y-108313930D01*
X114990029Y-108284887D01*
X114879243Y-108193039D01*
X114792649Y-108087759D01*
X114731284Y-107971266D01*
X114696185Y-107845776D01*
X114688392Y-107713507D01*
X114694057Y-107652457D01*
X114724922Y-107525795D01*
X114778080Y-107413941D01*
X114850233Y-107318001D01*
X114938083Y-107239076D01*
X115038335Y-107178270D01*
X115147690Y-107136687D01*
X115262853Y-107115428D01*
X115380525Y-107115599D01*
X115497410Y-107138301D01*
X115610211Y-107184638D01*
X115715631Y-107255713D01*
X115759632Y-107295911D01*
X115844021Y-107399129D01*
X115902778Y-107511925D01*
X115936296Y-107631010D01*
X115944965Y-107753095D01*
X115929177Y-107874893D01*
X115889322Y-107993116D01*
X115825793Y-108104475D01*
X115738979Y-108205684D01*
X115641971Y-108284887D01*
X115601563Y-108315162D01*
X115573018Y-108341219D01*
X115562743Y-108356825D01*
X115568123Y-108373843D01*
X115583425Y-108414500D01*
X115607388Y-108475642D01*
X115638756Y-108554119D01*
X115676268Y-108646780D01*
X115718667Y-108750472D01*
X115760337Y-108851526D01*
X115806310Y-108962607D01*
X115848893Y-109065541D01*
X115886779Y-109157165D01*
X115918660Y-109234316D01*
X115943229Y-109293831D01*
X115959180Y-109332544D01*
X115965090Y-109347000D01*
X115979052Y-109361685D01*
X116006060Y-109361642D01*
X116049587Y-109346099D01*
X116113110Y-109314284D01*
X116113612Y-109314013D01*
X116161440Y-109289323D01*
X116200103Y-109271338D01*
X116221905Y-109263614D01*
X116222867Y-109263543D01*
X116239279Y-109271378D01*
X116275513Y-109293165D01*
X116327526Y-109326328D01*
X116391275Y-109368291D01*
X116461940Y-109415943D01*
X116533884Y-109464191D01*
X116598726Y-109506151D01*
X116652265Y-109539227D01*
X116690303Y-109560821D01*
X116708467Y-109568343D01*
X116725192Y-109558457D01*
X116758820Y-109530826D01*
X116805990Y-109488495D01*
X116863342Y-109434505D01*
X116927516Y-109371899D01*
X116948503Y-109350983D01*
X117165501Y-109133623D01*
X117000332Y-108891220D01*
X116950136Y-108816781D01*
X116906081Y-108749972D01*
X116870638Y-108694665D01*
X116846281Y-108654729D01*
X116835478Y-108634036D01*
X116835162Y-108632563D01*
X116840857Y-108613058D01*
X116856174Y-108573822D01*
X116878463Y-108521430D01*
X116894107Y-108486355D01*
X116923359Y-108419201D01*
X116950906Y-108351358D01*
X116972263Y-108294034D01*
X116978065Y-108276572D01*
X116994548Y-108229938D01*
X117010660Y-108193905D01*
X117019510Y-108180287D01*
X117039040Y-108171952D01*
X117081666Y-108160137D01*
X117141855Y-108146181D01*
X117214078Y-108131422D01*
X117246400Y-108125355D01*
X117328478Y-108110273D01*
X117407205Y-108095669D01*
X117474891Y-108082980D01*
X117523840Y-108073642D01*
X117533057Y-108071839D01*
X117609257Y-108056799D01*
X117609257Y-107739492D01*
X117609086Y-107635154D01*
X117608384Y-107556213D01*
X117606866Y-107499038D01*
X117604251Y-107459999D01*
X117600254Y-107435465D01*
X117594591Y-107421805D01*
X117586980Y-107415389D01*
X117583857Y-107414199D01*
X117565022Y-107409980D01*
X117523412Y-107401562D01*
X117464370Y-107389961D01*
X117393243Y-107376195D01*
X117315375Y-107361280D01*
X117236113Y-107346232D01*
X117160802Y-107332069D01*
X117094787Y-107319806D01*
X117043413Y-107310461D01*
X117012025Y-107305050D01*
X117005041Y-107304114D01*
X116998715Y-107291596D01*
X116984710Y-107258246D01*
X116965645Y-107210377D01*
X116958366Y-107191629D01*
X116929004Y-107119195D01*
X116894429Y-107039170D01*
X116863463Y-106971728D01*
X116840677Y-106920159D01*
X116825518Y-106877785D01*
X116820458Y-106851834D01*
X116821264Y-106848356D01*
X116831959Y-106831936D01*
X116856380Y-106795417D01*
X116891905Y-106742687D01*
X116935913Y-106677635D01*
X116985783Y-106604151D01*
X116995644Y-106589645D01*
X117053508Y-106503704D01*
X117096044Y-106438261D01*
X117124946Y-106390304D01*
X117141910Y-106356820D01*
X117148633Y-106334795D01*
X117146810Y-106321217D01*
X117146764Y-106321131D01*
X117132414Y-106303297D01*
X117100677Y-106268817D01*
X117054990Y-106221268D01*
X116998796Y-106164222D01*
X116935532Y-106101255D01*
X116928398Y-106094227D01*
X116848670Y-106017020D01*
X116787143Y-105960330D01*
X116742579Y-105923110D01*
X116713743Y-105904315D01*
X116701042Y-105901889D01*
X116682506Y-105912471D01*
X116644039Y-105936916D01*
X116589614Y-105972612D01*
X116523202Y-106016947D01*
X116448775Y-106067311D01*
X116431399Y-106079160D01*
X116184703Y-106247626D01*
X116073294Y-106197062D01*
X116005543Y-106167595D01*
X115932817Y-106137959D01*
X115870297Y-106114330D01*
X115867543Y-106113358D01*
X115818640Y-106095457D01*
X115780943Y-106080320D01*
X115762575Y-106071210D01*
X115762544Y-106071184D01*
X115756715Y-106054717D01*
X115746808Y-106014219D01*
X115733805Y-105954242D01*
X115718691Y-105879340D01*
X115702448Y-105794064D01*
X115701119Y-105786875D01*
X115684825Y-105699014D01*
X115669867Y-105619260D01*
X115657209Y-105552681D01*
X115647814Y-105504347D01*
X115642646Y-105479325D01*
X115642556Y-105478943D01*
X115639411Y-105468299D01*
X115633296Y-105460262D01*
X115620547Y-105454467D01*
X115597500Y-105450547D01*
X115560491Y-105448135D01*
X115505856Y-105446865D01*
X115429933Y-105446371D01*
X115329056Y-105446286D01*
X115316000Y-105446286D01*
X115212090Y-105446348D01*
%TD*%
M02*
