%TF.GenerationSoftware,KiCad,Pcbnew,(5.1.9)-1*%
%TF.CreationDate,2022-01-17T18:14:23-05:00*%
%TF.ProjectId,Dev16x4USB,44657631-3678-4345-9553-422e6b696361,rev?*%
%TF.SameCoordinates,Original*%
%TF.FileFunction,Copper,L1,Top*%
%TF.FilePolarity,Positive*%
%FSLAX46Y46*%
G04 Gerber Fmt 4.6, Leading zero omitted, Abs format (unit mm)*
G04 Created by KiCad (PCBNEW (5.1.9)-1) date 2022-01-17 18:14:23*
%MOMM*%
%LPD*%
G01*
G04 APERTURE LIST*
%TA.AperFunction,SMDPad,CuDef*%
%ADD10R,1.060000X0.650000*%
%TD*%
%TA.AperFunction,SMDPad,CuDef*%
%ADD11R,0.900000X1.200000*%
%TD*%
%TA.AperFunction,SMDPad,CuDef*%
%ADD12R,0.450000X0.600000*%
%TD*%
%TA.AperFunction,ComponentPad*%
%ADD13O,1.700000X1.700000*%
%TD*%
%TA.AperFunction,ComponentPad*%
%ADD14R,1.700000X1.700000*%
%TD*%
%TA.AperFunction,SMDPad,CuDef*%
%ADD15R,1.000000X1.500000*%
%TD*%
%TA.AperFunction,SMDPad,CuDef*%
%ADD16R,1.500000X1.000000*%
%TD*%
%TA.AperFunction,SMDPad,CuDef*%
%ADD17R,1.100000X1.350000*%
%TD*%
%TA.AperFunction,SMDPad,CuDef*%
%ADD18R,0.400000X2.000000*%
%TD*%
%TA.AperFunction,SMDPad,CuDef*%
%ADD19R,1.400000X0.300000*%
%TD*%
%TA.AperFunction,ViaPad*%
%ADD20C,0.800000*%
%TD*%
%TA.AperFunction,Conductor*%
%ADD21C,0.381000*%
%TD*%
%TA.AperFunction,Conductor*%
%ADD22C,0.254000*%
%TD*%
%TA.AperFunction,Conductor*%
%ADD23C,0.100000*%
%TD*%
G04 APERTURE END LIST*
D10*
%TO.P,U1,5*%
%TO.N,+3V3*%
X114892000Y-90998000D03*
%TO.P,U1,4*%
%TO.N,N/C*%
X114892000Y-92898000D03*
%TO.P,U1,3*%
%TO.N,+5V*%
X112692000Y-92898000D03*
%TO.P,U1,2*%
%TO.N,GND*%
X112692000Y-91948000D03*
%TO.P,U1,1*%
%TO.N,+5V*%
X112692000Y-90998000D03*
%TD*%
D11*
%TO.P,D3,2*%
%TO.N,+3V3*%
X113918000Y-88392000D03*
%TO.P,D3,1*%
%TO.N,+5V*%
X110618000Y-88392000D03*
%TD*%
D12*
%TO.P,D2,2*%
%TO.N,/UPDI*%
X119380000Y-107222000D03*
%TO.P,D2,1*%
%TO.N,Net-(D2-Pad1)*%
X119380000Y-105122000D03*
%TD*%
%TO.P,C5,2*%
%TO.N,GND*%
%TA.AperFunction,SMDPad,CuDef*%
G36*
G01*
X114117000Y-99818000D02*
X114117000Y-99318000D01*
G75*
G02*
X114342000Y-99093000I225000J0D01*
G01*
X114792000Y-99093000D01*
G75*
G02*
X115017000Y-99318000I0J-225000D01*
G01*
X115017000Y-99818000D01*
G75*
G02*
X114792000Y-100043000I-225000J0D01*
G01*
X114342000Y-100043000D01*
G75*
G02*
X114117000Y-99818000I0J225000D01*
G01*
G37*
%TD.AperFunction*%
%TO.P,C5,1*%
%TO.N,VCC*%
%TA.AperFunction,SMDPad,CuDef*%
G36*
G01*
X112567000Y-99818000D02*
X112567000Y-99318000D01*
G75*
G02*
X112792000Y-99093000I225000J0D01*
G01*
X113242000Y-99093000D01*
G75*
G02*
X113467000Y-99318000I0J-225000D01*
G01*
X113467000Y-99818000D01*
G75*
G02*
X113242000Y-100043000I-225000J0D01*
G01*
X112792000Y-100043000D01*
G75*
G02*
X112567000Y-99818000I0J225000D01*
G01*
G37*
%TD.AperFunction*%
%TD*%
%TO.P,C4,2*%
%TO.N,GND*%
%TA.AperFunction,SMDPad,CuDef*%
G36*
G01*
X120721000Y-88134000D02*
X120721000Y-87634000D01*
G75*
G02*
X120946000Y-87409000I225000J0D01*
G01*
X121396000Y-87409000D01*
G75*
G02*
X121621000Y-87634000I0J-225000D01*
G01*
X121621000Y-88134000D01*
G75*
G02*
X121396000Y-88359000I-225000J0D01*
G01*
X120946000Y-88359000D01*
G75*
G02*
X120721000Y-88134000I0J225000D01*
G01*
G37*
%TD.AperFunction*%
%TO.P,C4,1*%
%TO.N,VCC*%
%TA.AperFunction,SMDPad,CuDef*%
G36*
G01*
X119171000Y-88134000D02*
X119171000Y-87634000D01*
G75*
G02*
X119396000Y-87409000I225000J0D01*
G01*
X119846000Y-87409000D01*
G75*
G02*
X120071000Y-87634000I0J-225000D01*
G01*
X120071000Y-88134000D01*
G75*
G02*
X119846000Y-88359000I-225000J0D01*
G01*
X119396000Y-88359000D01*
G75*
G02*
X119171000Y-88134000I0J225000D01*
G01*
G37*
%TD.AperFunction*%
%TD*%
%TO.P,C3,2*%
%TO.N,GND*%
%TA.AperFunction,SMDPad,CuDef*%
G36*
G01*
X121162000Y-84653000D02*
X121662000Y-84653000D01*
G75*
G02*
X121887000Y-84878000I0J-225000D01*
G01*
X121887000Y-85328000D01*
G75*
G02*
X121662000Y-85553000I-225000J0D01*
G01*
X121162000Y-85553000D01*
G75*
G02*
X120937000Y-85328000I0J225000D01*
G01*
X120937000Y-84878000D01*
G75*
G02*
X121162000Y-84653000I225000J0D01*
G01*
G37*
%TD.AperFunction*%
%TO.P,C3,1*%
%TO.N,Net-(C3-Pad1)*%
%TA.AperFunction,SMDPad,CuDef*%
G36*
G01*
X121162000Y-83103000D02*
X121662000Y-83103000D01*
G75*
G02*
X121887000Y-83328000I0J-225000D01*
G01*
X121887000Y-83778000D01*
G75*
G02*
X121662000Y-84003000I-225000J0D01*
G01*
X121162000Y-84003000D01*
G75*
G02*
X120937000Y-83778000I0J225000D01*
G01*
X120937000Y-83328000D01*
G75*
G02*
X121162000Y-83103000I225000J0D01*
G01*
G37*
%TD.AperFunction*%
%TD*%
%TO.P,C2,2*%
%TO.N,GND*%
%TA.AperFunction,SMDPad,CuDef*%
G36*
G01*
X116590000Y-92273000D02*
X117090000Y-92273000D01*
G75*
G02*
X117315000Y-92498000I0J-225000D01*
G01*
X117315000Y-92948000D01*
G75*
G02*
X117090000Y-93173000I-225000J0D01*
G01*
X116590000Y-93173000D01*
G75*
G02*
X116365000Y-92948000I0J225000D01*
G01*
X116365000Y-92498000D01*
G75*
G02*
X116590000Y-92273000I225000J0D01*
G01*
G37*
%TD.AperFunction*%
%TO.P,C2,1*%
%TO.N,+3V3*%
%TA.AperFunction,SMDPad,CuDef*%
G36*
G01*
X116590000Y-90723000D02*
X117090000Y-90723000D01*
G75*
G02*
X117315000Y-90948000I0J-225000D01*
G01*
X117315000Y-91398000D01*
G75*
G02*
X117090000Y-91623000I-225000J0D01*
G01*
X116590000Y-91623000D01*
G75*
G02*
X116365000Y-91398000I0J225000D01*
G01*
X116365000Y-90948000D01*
G75*
G02*
X116590000Y-90723000I225000J0D01*
G01*
G37*
%TD.AperFunction*%
%TD*%
%TO.P,C1,2*%
%TO.N,GND*%
%TA.AperFunction,SMDPad,CuDef*%
G36*
G01*
X110494000Y-92273000D02*
X110994000Y-92273000D01*
G75*
G02*
X111219000Y-92498000I0J-225000D01*
G01*
X111219000Y-92948000D01*
G75*
G02*
X110994000Y-93173000I-225000J0D01*
G01*
X110494000Y-93173000D01*
G75*
G02*
X110269000Y-92948000I0J225000D01*
G01*
X110269000Y-92498000D01*
G75*
G02*
X110494000Y-92273000I225000J0D01*
G01*
G37*
%TD.AperFunction*%
%TO.P,C1,1*%
%TO.N,+5V*%
%TA.AperFunction,SMDPad,CuDef*%
G36*
G01*
X110494000Y-90723000D02*
X110994000Y-90723000D01*
G75*
G02*
X111219000Y-90948000I0J-225000D01*
G01*
X111219000Y-91398000D01*
G75*
G02*
X110994000Y-91623000I-225000J0D01*
G01*
X110494000Y-91623000D01*
G75*
G02*
X110269000Y-91398000I0J225000D01*
G01*
X110269000Y-90948000D01*
G75*
G02*
X110494000Y-90723000I225000J0D01*
G01*
G37*
%TD.AperFunction*%
%TD*%
D13*
%TO.P,J3,10*%
%TO.N,/6_SDA*%
X124460000Y-109220000D03*
%TO.P,J3,9*%
%TO.N,/7_SCL*%
X124460000Y-106680000D03*
%TO.P,J3,8*%
%TO.N,/UPDI*%
X124460000Y-104140000D03*
%TO.P,J3,7*%
%TO.N,/8_MOSI*%
X124460000Y-101600000D03*
%TO.P,J3,6*%
%TO.N,/9_MISO*%
X124460000Y-99060000D03*
%TO.P,J3,5*%
%TO.N,/10_SCK*%
X124460000Y-96520000D03*
%TO.P,J3,4*%
%TO.N,GND*%
X124460000Y-93980000D03*
%TO.P,J3,3*%
%TO.N,VCC*%
X124460000Y-91440000D03*
%TO.P,J3,2*%
%TO.N,+3V3*%
X124460000Y-88900000D03*
D14*
%TO.P,J3,1*%
%TO.N,+5V*%
X124460000Y-86360000D03*
%TD*%
D13*
%TO.P,J2,10*%
%TO.N,/5_TX*%
X106680000Y-109220000D03*
%TO.P,J2,9*%
%TO.N,/4_RX*%
X106680000Y-106680000D03*
%TO.P,J2,8*%
%TO.N,/3*%
X106680000Y-104140000D03*
%TO.P,J2,7*%
%TO.N,/2*%
X106680000Y-101600000D03*
%TO.P,J2,6*%
%TO.N,/1_VREF*%
X106680000Y-99060000D03*
%TO.P,J2,5*%
%TO.N,/0_SS*%
X106680000Y-96520000D03*
%TO.P,J2,4*%
%TO.N,GND*%
X106680000Y-93980000D03*
%TO.P,J2,3*%
%TO.N,VCC*%
X106680000Y-91440000D03*
%TO.P,J2,2*%
%TO.N,+3V3*%
X106680000Y-88900000D03*
D14*
%TO.P,J2,1*%
%TO.N,+5V*%
X106680000Y-86360000D03*
%TD*%
%TO.P,R2,2*%
%TO.N,Net-(R2-Pad2)*%
%TA.AperFunction,SMDPad,CuDef*%
G36*
G01*
X119830002Y-101962000D02*
X118929998Y-101962000D01*
G75*
G02*
X118680000Y-101712002I0J249998D01*
G01*
X118680000Y-101186998D01*
G75*
G02*
X118929998Y-100937000I249998J0D01*
G01*
X119830002Y-100937000D01*
G75*
G02*
X120080000Y-101186998I0J-249998D01*
G01*
X120080000Y-101712002D01*
G75*
G02*
X119830002Y-101962000I-249998J0D01*
G01*
G37*
%TD.AperFunction*%
%TO.P,R2,1*%
%TO.N,Net-(D2-Pad1)*%
%TA.AperFunction,SMDPad,CuDef*%
G36*
G01*
X119830002Y-103787000D02*
X118929998Y-103787000D01*
G75*
G02*
X118680000Y-103537002I0J249998D01*
G01*
X118680000Y-103011998D01*
G75*
G02*
X118929998Y-102762000I249998J0D01*
G01*
X119830002Y-102762000D01*
G75*
G02*
X120080000Y-103011998I0J-249998D01*
G01*
X120080000Y-103537002D01*
G75*
G02*
X119830002Y-103787000I-249998J0D01*
G01*
G37*
%TD.AperFunction*%
%TD*%
%TO.P,R1,2*%
%TO.N,Net-(D1-Pad2)*%
%TA.AperFunction,SMDPad,CuDef*%
G36*
G01*
X120288000Y-96208002D02*
X120288000Y-95307998D01*
G75*
G02*
X120537998Y-95058000I249998J0D01*
G01*
X121063002Y-95058000D01*
G75*
G02*
X121313000Y-95307998I0J-249998D01*
G01*
X121313000Y-96208002D01*
G75*
G02*
X121063002Y-96458000I-249998J0D01*
G01*
X120537998Y-96458000D01*
G75*
G02*
X120288000Y-96208002I0J249998D01*
G01*
G37*
%TD.AperFunction*%
%TO.P,R1,1*%
%TO.N,Net-(R1-Pad1)*%
%TA.AperFunction,SMDPad,CuDef*%
G36*
G01*
X118463000Y-96208002D02*
X118463000Y-95307998D01*
G75*
G02*
X118712998Y-95058000I249998J0D01*
G01*
X119238002Y-95058000D01*
G75*
G02*
X119488000Y-95307998I0J-249998D01*
G01*
X119488000Y-96208002D01*
G75*
G02*
X119238002Y-96458000I-249998J0D01*
G01*
X118712998Y-96458000D01*
G75*
G02*
X118463000Y-96208002I0J249998D01*
G01*
G37*
%TD.AperFunction*%
%TD*%
D15*
%TO.P,VCC,1*%
%TO.N,+3V3*%
X115600000Y-96012000D03*
%TO.P,VCC,2*%
%TO.N,VCC*%
X114300000Y-96012000D03*
%TO.P,VCC,3*%
%TO.N,+5V*%
X113000000Y-96012000D03*
%TD*%
D16*
%TO.P,JP1,1*%
%TO.N,Net-(C3-Pad1)*%
X122936000Y-80914000D03*
%TO.P,JP1,2*%
%TO.N,+3V3*%
X122936000Y-79614000D03*
%TD*%
D17*
%TO.P,J1,6*%
%TO.N,GND*%
X113370000Y-77724000D03*
X117770000Y-77724000D03*
D18*
%TO.P,J1,1*%
%TO.N,+5V*%
X116870000Y-80324000D03*
%TO.P,J1,2*%
%TO.N,Net-(J1-Pad2)*%
X116220000Y-80324000D03*
%TO.P,J1,3*%
%TO.N,Net-(J1-Pad3)*%
X115570000Y-80324000D03*
%TO.P,J1,4*%
%TO.N,N/C*%
X114920000Y-80324000D03*
%TO.P,J1,5*%
%TO.N,GND*%
X114270000Y-80324000D03*
%TO.P,J1,6*%
%TA.AperFunction,ComponentPad*%
G36*
G01*
X118420000Y-78449000D02*
X118420000Y-76999000D01*
G75*
G02*
X118795000Y-76624000I375000J0D01*
G01*
X119545000Y-76624000D01*
G75*
G02*
X119920000Y-76999000I0J-375000D01*
G01*
X119920000Y-78449000D01*
G75*
G02*
X119545000Y-78824000I-375000J0D01*
G01*
X118795000Y-78824000D01*
G75*
G02*
X118420000Y-78449000I0J375000D01*
G01*
G37*
%TD.AperFunction*%
%TA.AperFunction,ComponentPad*%
G36*
G01*
X111220000Y-78449000D02*
X111220000Y-76999000D01*
G75*
G02*
X111595000Y-76624000I375000J0D01*
G01*
X112345000Y-76624000D01*
G75*
G02*
X112720000Y-76999000I0J-375000D01*
G01*
X112720000Y-78449000D01*
G75*
G02*
X112345000Y-78824000I-375000J0D01*
G01*
X111595000Y-78824000D01*
G75*
G02*
X111220000Y-78449000I0J375000D01*
G01*
G37*
%TD.AperFunction*%
%TA.AperFunction,ComponentPad*%
G36*
G01*
X111420000Y-80899000D02*
X111420000Y-80149000D01*
G75*
G02*
X111795000Y-79774000I375000J0D01*
G01*
X112745000Y-79774000D01*
G75*
G02*
X113120000Y-80149000I0J-375000D01*
G01*
X113120000Y-80899000D01*
G75*
G02*
X112745000Y-81274000I-375000J0D01*
G01*
X111795000Y-81274000D01*
G75*
G02*
X111420000Y-80899000I0J375000D01*
G01*
G37*
%TD.AperFunction*%
%TA.AperFunction,ComponentPad*%
G36*
G01*
X118020000Y-80899000D02*
X118020000Y-80149000D01*
G75*
G02*
X118395000Y-79774000I375000J0D01*
G01*
X119345000Y-79774000D01*
G75*
G02*
X119720000Y-80149000I0J-375000D01*
G01*
X119720000Y-80899000D01*
G75*
G02*
X119345000Y-81274000I-375000J0D01*
G01*
X118395000Y-81274000D01*
G75*
G02*
X118020000Y-80899000I0J375000D01*
G01*
G37*
%TD.AperFunction*%
%TD*%
%TO.P,D1,2*%
%TO.N,Net-(D1-Pad2)*%
%TA.AperFunction,SMDPad,CuDef*%
G36*
G01*
X120338000Y-98500250D02*
X120338000Y-97587750D01*
G75*
G02*
X120581750Y-97344000I243750J0D01*
G01*
X121069250Y-97344000D01*
G75*
G02*
X121313000Y-97587750I0J-243750D01*
G01*
X121313000Y-98500250D01*
G75*
G02*
X121069250Y-98744000I-243750J0D01*
G01*
X120581750Y-98744000D01*
G75*
G02*
X120338000Y-98500250I0J243750D01*
G01*
G37*
%TD.AperFunction*%
%TO.P,D1,1*%
%TO.N,GND*%
%TA.AperFunction,SMDPad,CuDef*%
G36*
G01*
X118463000Y-98500250D02*
X118463000Y-97587750D01*
G75*
G02*
X118706750Y-97344000I243750J0D01*
G01*
X119194250Y-97344000D01*
G75*
G02*
X119438000Y-97587750I0J-243750D01*
G01*
X119438000Y-98500250D01*
G75*
G02*
X119194250Y-98744000I-243750J0D01*
G01*
X118706750Y-98744000D01*
G75*
G02*
X118463000Y-98500250I0J243750D01*
G01*
G37*
%TD.AperFunction*%
%TD*%
D19*
%TO.P,U3,10*%
%TO.N,Net-(C3-Pad1)*%
X118532000Y-83328000D03*
%TO.P,U3,9*%
%TO.N,/UPDI*%
X118532000Y-83828000D03*
%TO.P,U3,8*%
%TO.N,Net-(R2-Pad2)*%
X118532000Y-84328000D03*
%TO.P,U3,7*%
%TO.N,VCC*%
X118532000Y-84828000D03*
%TO.P,U3,6*%
%TO.N,Net-(R1-Pad1)*%
X118532000Y-85328000D03*
%TO.P,U3,5*%
%TO.N,N/C*%
X114132000Y-85328000D03*
%TO.P,U3,4*%
X114132000Y-84828000D03*
%TO.P,U3,3*%
%TO.N,GND*%
X114132000Y-84328000D03*
%TO.P,U3,2*%
%TO.N,Net-(J1-Pad2)*%
X114132000Y-83828000D03*
%TO.P,U3,1*%
%TO.N,Net-(J1-Pad3)*%
X114132000Y-83328000D03*
%TD*%
%TO.P,U2,14*%
%TO.N,GND*%
%TA.AperFunction,SMDPad,CuDef*%
G36*
G01*
X115292000Y-102512000D02*
X115292000Y-102212000D01*
G75*
G02*
X115442000Y-102062000I150000J0D01*
G01*
X117092000Y-102062000D01*
G75*
G02*
X117242000Y-102212000I0J-150000D01*
G01*
X117242000Y-102512000D01*
G75*
G02*
X117092000Y-102662000I-150000J0D01*
G01*
X115442000Y-102662000D01*
G75*
G02*
X115292000Y-102512000I0J150000D01*
G01*
G37*
%TD.AperFunction*%
%TO.P,U2,13*%
%TO.N,/10_SCK*%
%TA.AperFunction,SMDPad,CuDef*%
G36*
G01*
X115292000Y-103782000D02*
X115292000Y-103482000D01*
G75*
G02*
X115442000Y-103332000I150000J0D01*
G01*
X117092000Y-103332000D01*
G75*
G02*
X117242000Y-103482000I0J-150000D01*
G01*
X117242000Y-103782000D01*
G75*
G02*
X117092000Y-103932000I-150000J0D01*
G01*
X115442000Y-103932000D01*
G75*
G02*
X115292000Y-103782000I0J150000D01*
G01*
G37*
%TD.AperFunction*%
%TO.P,U2,12*%
%TO.N,/9_MISO*%
%TA.AperFunction,SMDPad,CuDef*%
G36*
G01*
X115292000Y-105052000D02*
X115292000Y-104752000D01*
G75*
G02*
X115442000Y-104602000I150000J0D01*
G01*
X117092000Y-104602000D01*
G75*
G02*
X117242000Y-104752000I0J-150000D01*
G01*
X117242000Y-105052000D01*
G75*
G02*
X117092000Y-105202000I-150000J0D01*
G01*
X115442000Y-105202000D01*
G75*
G02*
X115292000Y-105052000I0J150000D01*
G01*
G37*
%TD.AperFunction*%
%TO.P,U2,11*%
%TO.N,/8_MOSI*%
%TA.AperFunction,SMDPad,CuDef*%
G36*
G01*
X115292000Y-106322000D02*
X115292000Y-106022000D01*
G75*
G02*
X115442000Y-105872000I150000J0D01*
G01*
X117092000Y-105872000D01*
G75*
G02*
X117242000Y-106022000I0J-150000D01*
G01*
X117242000Y-106322000D01*
G75*
G02*
X117092000Y-106472000I-150000J0D01*
G01*
X115442000Y-106472000D01*
G75*
G02*
X115292000Y-106322000I0J150000D01*
G01*
G37*
%TD.AperFunction*%
%TO.P,U2,10*%
%TO.N,/UPDI*%
%TA.AperFunction,SMDPad,CuDef*%
G36*
G01*
X115292000Y-107592000D02*
X115292000Y-107292000D01*
G75*
G02*
X115442000Y-107142000I150000J0D01*
G01*
X117092000Y-107142000D01*
G75*
G02*
X117242000Y-107292000I0J-150000D01*
G01*
X117242000Y-107592000D01*
G75*
G02*
X117092000Y-107742000I-150000J0D01*
G01*
X115442000Y-107742000D01*
G75*
G02*
X115292000Y-107592000I0J150000D01*
G01*
G37*
%TD.AperFunction*%
%TO.P,U2,9*%
%TO.N,/7_SCL*%
%TA.AperFunction,SMDPad,CuDef*%
G36*
G01*
X115292000Y-108862000D02*
X115292000Y-108562000D01*
G75*
G02*
X115442000Y-108412000I150000J0D01*
G01*
X117092000Y-108412000D01*
G75*
G02*
X117242000Y-108562000I0J-150000D01*
G01*
X117242000Y-108862000D01*
G75*
G02*
X117092000Y-109012000I-150000J0D01*
G01*
X115442000Y-109012000D01*
G75*
G02*
X115292000Y-108862000I0J150000D01*
G01*
G37*
%TD.AperFunction*%
%TO.P,U2,8*%
%TO.N,/6_SDA*%
%TA.AperFunction,SMDPad,CuDef*%
G36*
G01*
X115292000Y-110132000D02*
X115292000Y-109832000D01*
G75*
G02*
X115442000Y-109682000I150000J0D01*
G01*
X117092000Y-109682000D01*
G75*
G02*
X117242000Y-109832000I0J-150000D01*
G01*
X117242000Y-110132000D01*
G75*
G02*
X117092000Y-110282000I-150000J0D01*
G01*
X115442000Y-110282000D01*
G75*
G02*
X115292000Y-110132000I0J150000D01*
G01*
G37*
%TD.AperFunction*%
%TO.P,U2,7*%
%TO.N,/5_TX*%
%TA.AperFunction,SMDPad,CuDef*%
G36*
G01*
X110342000Y-110132000D02*
X110342000Y-109832000D01*
G75*
G02*
X110492000Y-109682000I150000J0D01*
G01*
X112142000Y-109682000D01*
G75*
G02*
X112292000Y-109832000I0J-150000D01*
G01*
X112292000Y-110132000D01*
G75*
G02*
X112142000Y-110282000I-150000J0D01*
G01*
X110492000Y-110282000D01*
G75*
G02*
X110342000Y-110132000I0J150000D01*
G01*
G37*
%TD.AperFunction*%
%TO.P,U2,6*%
%TO.N,/4_RX*%
%TA.AperFunction,SMDPad,CuDef*%
G36*
G01*
X110342000Y-108862000D02*
X110342000Y-108562000D01*
G75*
G02*
X110492000Y-108412000I150000J0D01*
G01*
X112142000Y-108412000D01*
G75*
G02*
X112292000Y-108562000I0J-150000D01*
G01*
X112292000Y-108862000D01*
G75*
G02*
X112142000Y-109012000I-150000J0D01*
G01*
X110492000Y-109012000D01*
G75*
G02*
X110342000Y-108862000I0J150000D01*
G01*
G37*
%TD.AperFunction*%
%TO.P,U2,5*%
%TO.N,/3*%
%TA.AperFunction,SMDPad,CuDef*%
G36*
G01*
X110342000Y-107592000D02*
X110342000Y-107292000D01*
G75*
G02*
X110492000Y-107142000I150000J0D01*
G01*
X112142000Y-107142000D01*
G75*
G02*
X112292000Y-107292000I0J-150000D01*
G01*
X112292000Y-107592000D01*
G75*
G02*
X112142000Y-107742000I-150000J0D01*
G01*
X110492000Y-107742000D01*
G75*
G02*
X110342000Y-107592000I0J150000D01*
G01*
G37*
%TD.AperFunction*%
%TO.P,U2,4*%
%TO.N,/2*%
%TA.AperFunction,SMDPad,CuDef*%
G36*
G01*
X110342000Y-106322000D02*
X110342000Y-106022000D01*
G75*
G02*
X110492000Y-105872000I150000J0D01*
G01*
X112142000Y-105872000D01*
G75*
G02*
X112292000Y-106022000I0J-150000D01*
G01*
X112292000Y-106322000D01*
G75*
G02*
X112142000Y-106472000I-150000J0D01*
G01*
X110492000Y-106472000D01*
G75*
G02*
X110342000Y-106322000I0J150000D01*
G01*
G37*
%TD.AperFunction*%
%TO.P,U2,3*%
%TO.N,/1_VREF*%
%TA.AperFunction,SMDPad,CuDef*%
G36*
G01*
X110342000Y-105052000D02*
X110342000Y-104752000D01*
G75*
G02*
X110492000Y-104602000I150000J0D01*
G01*
X112142000Y-104602000D01*
G75*
G02*
X112292000Y-104752000I0J-150000D01*
G01*
X112292000Y-105052000D01*
G75*
G02*
X112142000Y-105202000I-150000J0D01*
G01*
X110492000Y-105202000D01*
G75*
G02*
X110342000Y-105052000I0J150000D01*
G01*
G37*
%TD.AperFunction*%
%TO.P,U2,2*%
%TO.N,/0_SS*%
%TA.AperFunction,SMDPad,CuDef*%
G36*
G01*
X110342000Y-103782000D02*
X110342000Y-103482000D01*
G75*
G02*
X110492000Y-103332000I150000J0D01*
G01*
X112142000Y-103332000D01*
G75*
G02*
X112292000Y-103482000I0J-150000D01*
G01*
X112292000Y-103782000D01*
G75*
G02*
X112142000Y-103932000I-150000J0D01*
G01*
X110492000Y-103932000D01*
G75*
G02*
X110342000Y-103782000I0J150000D01*
G01*
G37*
%TD.AperFunction*%
%TO.P,U2,1*%
%TO.N,VCC*%
%TA.AperFunction,SMDPad,CuDef*%
G36*
G01*
X110342000Y-102512000D02*
X110342000Y-102212000D01*
G75*
G02*
X110492000Y-102062000I150000J0D01*
G01*
X112142000Y-102062000D01*
G75*
G02*
X112292000Y-102212000I0J-150000D01*
G01*
X112292000Y-102512000D01*
G75*
G02*
X112142000Y-102662000I-150000J0D01*
G01*
X110492000Y-102662000D01*
G75*
G02*
X110342000Y-102512000I0J150000D01*
G01*
G37*
%TD.AperFunction*%
%TD*%
D20*
%TO.N,GND*%
X115824000Y-99568000D03*
X118872000Y-99568000D03*
X121412000Y-89408000D03*
X122936000Y-84836000D03*
X110744000Y-94488000D03*
X121412000Y-91948000D03*
X121412000Y-93980000D03*
X116840000Y-93980000D03*
%TO.N,+5V*%
X115824000Y-84077070D03*
%TO.N,+3V3*%
X112776000Y-88392000D03*
X116840000Y-89916000D03*
%TO.N,VCC*%
X114300000Y-94488000D03*
X119888000Y-92964000D03*
%TO.N,/UPDI*%
X122174000Y-106426000D03*
X122428000Y-99568020D03*
%TO.N,/10_SCK*%
X121412000Y-100075994D03*
%TD*%
D21*
%TO.N,GND*%
X111519000Y-91948000D02*
X110744000Y-92723000D01*
X112692000Y-91948000D02*
X111519000Y-91948000D01*
X114567000Y-100662000D02*
X114567000Y-99568000D01*
X116267000Y-102362000D02*
X114567000Y-100662000D01*
D22*
X112524000Y-80778000D02*
X112270000Y-80524000D01*
X112524000Y-83674000D02*
X112524000Y-80778000D01*
X113178000Y-84328000D02*
X112524000Y-83674000D01*
X114132000Y-84328000D02*
X113178000Y-84328000D01*
D21*
%TO.N,+5V*%
X110618000Y-91047000D02*
X110744000Y-91173000D01*
X110618000Y-88392000D02*
X110618000Y-91047000D01*
X110919000Y-90998000D02*
X110744000Y-91173000D01*
X112692000Y-90998000D02*
X110919000Y-90998000D01*
X112692000Y-95704000D02*
X113000000Y-96012000D01*
X112692000Y-92898000D02*
X112692000Y-95704000D01*
X113350000Y-92898000D02*
X112692000Y-92898000D01*
X113792000Y-92456000D02*
X113350000Y-92898000D01*
X113792000Y-91455902D02*
X113792000Y-92456000D01*
X113334098Y-90998000D02*
X113792000Y-91455902D01*
X112692000Y-90998000D02*
X113334098Y-90998000D01*
X110618000Y-88392000D02*
X110618000Y-87758000D01*
X109220000Y-86360000D02*
X106680000Y-86360000D01*
X110618000Y-87758000D02*
X109220000Y-86360000D01*
X114357691Y-86868000D02*
X115824000Y-85401691D01*
X115824000Y-85401691D02*
X115824000Y-84077070D01*
X110618000Y-88392000D02*
X112142000Y-86868000D01*
X112142000Y-86868000D02*
X114357691Y-86868000D01*
X115824000Y-83820000D02*
X115824000Y-84077070D01*
X116870000Y-82774000D02*
X115824000Y-83820000D01*
X116870000Y-80324000D02*
X116870000Y-82774000D01*
%TO.N,+3V3*%
X114892000Y-89366000D02*
X113918000Y-88392000D01*
X114892000Y-90998000D02*
X114892000Y-89366000D01*
X116665000Y-90998000D02*
X116840000Y-91173000D01*
X114892000Y-90998000D02*
X116665000Y-90998000D01*
X115974490Y-95637510D02*
X115600000Y-96012000D01*
X115974490Y-92080490D02*
X115974490Y-95637510D01*
X114892000Y-90998000D02*
X115974490Y-92080490D01*
X113918000Y-88392000D02*
X112776000Y-88392000D01*
X112776000Y-88392000D02*
X112776000Y-88392000D01*
X116840000Y-91173000D02*
X116840000Y-89916000D01*
X116840000Y-89916000D02*
X116840000Y-89916000D01*
D22*
X116840000Y-85470000D02*
X113918000Y-88392000D01*
X116840000Y-83581398D02*
X116840000Y-85470000D01*
X118125398Y-82296000D02*
X116840000Y-83581398D01*
X119380000Y-82296000D02*
X118125398Y-82296000D01*
X122062000Y-79614000D02*
X119380000Y-82296000D01*
X122936000Y-79614000D02*
X122062000Y-79614000D01*
%TO.N,Net-(C3-Pad1)*%
X121412000Y-82438000D02*
X122936000Y-80914000D01*
X121412000Y-83553000D02*
X121412000Y-82438000D01*
X121187000Y-83328000D02*
X121412000Y-83553000D01*
X118532000Y-83328000D02*
X121187000Y-83328000D01*
%TO.N,VCC*%
X119486000Y-84828000D02*
X118532000Y-84828000D01*
X119621000Y-84963000D02*
X119486000Y-84828000D01*
X119621000Y-87884000D02*
X119621000Y-84963000D01*
D21*
X111317000Y-101268000D02*
X113017000Y-99568000D01*
X111317000Y-102362000D02*
X111317000Y-101268000D01*
X114300000Y-98285000D02*
X113017000Y-99568000D01*
X114300000Y-96012000D02*
X114300000Y-98285000D01*
X114300000Y-96012000D02*
X114300000Y-94488000D01*
X119621000Y-92697000D02*
X119888000Y-92964000D01*
X119621000Y-87884000D02*
X119621000Y-92697000D01*
X108712000Y-95263000D02*
X113017000Y-99568000D01*
X108712000Y-93472000D02*
X108712000Y-95263000D01*
X106680000Y-91440000D02*
X108712000Y-93472000D01*
D22*
%TO.N,Net-(D1-Pad2)*%
X120800500Y-97003000D02*
X120825500Y-97028000D01*
X120800500Y-95758000D02*
X120800500Y-98019000D01*
D21*
%TO.N,Net-(D2-Pad1)*%
X119380000Y-105122000D02*
X119445517Y-105056483D01*
X119445517Y-105056483D02*
X119445517Y-103340017D01*
X119445517Y-103340017D02*
X119380000Y-103274500D01*
D22*
%TO.N,Net-(J1-Pad2)*%
X116220000Y-82605108D02*
X116220000Y-80324000D01*
X114997108Y-83828000D02*
X116220000Y-82605108D01*
X114132000Y-83828000D02*
X114997108Y-83828000D01*
%TO.N,Net-(J1-Pad3)*%
X115570000Y-82550000D02*
X115570000Y-80324000D01*
X114792000Y-83328000D02*
X115570000Y-82550000D01*
X114132000Y-83328000D02*
X114792000Y-83328000D01*
D21*
%TO.N,/5_TX*%
X107442000Y-109982000D02*
X106680000Y-109220000D01*
X111317000Y-109982000D02*
X107442000Y-109982000D01*
%TO.N,/4_RX*%
X108712000Y-108712000D02*
X106680000Y-106680000D01*
X111317000Y-108712000D02*
X108712000Y-108712000D01*
%TO.N,/3*%
X109982000Y-107442000D02*
X106680000Y-104140000D01*
X111317000Y-107442000D02*
X109982000Y-107442000D01*
%TO.N,/2*%
X106680000Y-102304058D02*
X106680000Y-101600000D01*
X110547942Y-106172000D02*
X106680000Y-102304058D01*
X111317000Y-106172000D02*
X110547942Y-106172000D01*
%TO.N,/1_VREF*%
X108204000Y-100584000D02*
X106680000Y-99060000D01*
X108204000Y-102764000D02*
X108204000Y-100584000D01*
X110342000Y-104902000D02*
X108204000Y-102764000D01*
X111317000Y-104902000D02*
X110342000Y-104902000D01*
%TO.N,/0_SS*%
X109220000Y-99060000D02*
X106680000Y-96520000D01*
X109220000Y-102616000D02*
X109220000Y-99060000D01*
X110236000Y-103632000D02*
X109220000Y-102616000D01*
X111317000Y-103632000D02*
X110236000Y-103632000D01*
%TO.N,/6_SDA*%
X123698000Y-109982000D02*
X124460000Y-109220000D01*
X116267000Y-109982000D02*
X123698000Y-109982000D01*
%TO.N,/7_SCL*%
X122428000Y-108712000D02*
X124460000Y-106680000D01*
X116267000Y-108712000D02*
X122428000Y-108712000D01*
%TO.N,/UPDI*%
X122174000Y-106426000D02*
X124460000Y-104140000D01*
D22*
X119486000Y-83828000D02*
X120396000Y-84738000D01*
X120396000Y-85344000D02*
X122428000Y-87376000D01*
X122428000Y-87376000D02*
X122428000Y-99568020D01*
X118532000Y-83828000D02*
X119486000Y-83828000D01*
X120396000Y-84738000D02*
X120396000Y-85344000D01*
D21*
X121378000Y-107222000D02*
X122174000Y-106426000D01*
X119380000Y-107222000D02*
X121378000Y-107222000D01*
X119160000Y-107442000D02*
X119380000Y-107222000D01*
X116267000Y-107442000D02*
X119160000Y-107442000D01*
%TO.N,/8_MOSI*%
X121825472Y-104234528D02*
X124460000Y-101600000D01*
X121825472Y-105142662D02*
X121825472Y-104234528D01*
X120436635Y-106531499D02*
X121825472Y-105142662D01*
X116626499Y-106531499D02*
X120436635Y-106531499D01*
X116267000Y-106172000D02*
X116626499Y-106531499D01*
%TO.N,/9_MISO*%
X124460000Y-99701870D02*
X124460000Y-99060000D01*
X121244461Y-104485441D02*
X121244461Y-102917409D01*
X121244461Y-102917409D02*
X124460000Y-99701870D01*
X119917401Y-105812501D02*
X121244461Y-104485441D01*
X118152501Y-105812501D02*
X119917401Y-105812501D01*
X117242000Y-104902000D02*
X118152501Y-105812501D01*
X116267000Y-104902000D02*
X117242000Y-104902000D01*
%TO.N,/10_SCK*%
X121412000Y-101149735D02*
X121412000Y-100075994D01*
X117385200Y-103632000D02*
X118664690Y-102352510D01*
X120209225Y-102352510D02*
X121412000Y-101149735D01*
X118664690Y-102352510D02*
X120209225Y-102352510D01*
X116267000Y-103632000D02*
X117385200Y-103632000D01*
D22*
%TO.N,Net-(R1-Pad1)*%
X118532000Y-95314500D02*
X118975500Y-95758000D01*
X118532000Y-85328000D02*
X118532000Y-95314500D01*
%TO.N,Net-(R2-Pad2)*%
X117856000Y-100076000D02*
X119229500Y-101449500D01*
X117856000Y-86868000D02*
X117856000Y-100076000D01*
X117348000Y-86360000D02*
X117856000Y-86868000D01*
X117348000Y-84609555D02*
X117348000Y-86360000D01*
X117629555Y-84328000D02*
X117348000Y-84609555D01*
X118532000Y-84328000D02*
X117629555Y-84328000D01*
%TD*%
%TO.N,GND*%
X116967000Y-92596000D02*
X116987000Y-92596000D01*
X116987000Y-92850000D01*
X116967000Y-92850000D01*
X116967000Y-93554000D01*
X117094000Y-93681000D01*
X117221001Y-93682413D01*
X117221001Y-100044809D01*
X117217929Y-100076000D01*
X117221001Y-100107191D01*
X117221001Y-100107192D01*
X117229962Y-100198172D01*
X117230189Y-100200481D01*
X117266498Y-100320179D01*
X117325463Y-100430493D01*
X117339713Y-100447857D01*
X117404816Y-100527185D01*
X117429046Y-100547070D01*
X118169543Y-101287568D01*
X118169543Y-101712002D01*
X118182597Y-101844545D01*
X118168387Y-101856207D01*
X118146523Y-101882848D01*
X117750000Y-102279372D01*
X117750000Y-102234998D01*
X117623002Y-102234998D01*
X117750000Y-102108000D01*
X117752458Y-102062000D01*
X117742650Y-101962415D01*
X117713602Y-101866656D01*
X117666430Y-101778405D01*
X117602948Y-101701052D01*
X117525595Y-101637570D01*
X117437344Y-101590398D01*
X117341585Y-101561350D01*
X117242000Y-101551542D01*
X116521000Y-101554000D01*
X116394000Y-101681000D01*
X116394000Y-102235000D01*
X116414000Y-102235000D01*
X116414000Y-102489000D01*
X116394000Y-102489000D01*
X116394000Y-102509000D01*
X116140000Y-102509000D01*
X116140000Y-102489000D01*
X114911000Y-102489000D01*
X114784000Y-102616000D01*
X114781542Y-102662000D01*
X114791350Y-102761585D01*
X114820398Y-102857344D01*
X114867570Y-102945595D01*
X114931052Y-103022948D01*
X114953400Y-103041289D01*
X114892850Y-103115070D01*
X114831817Y-103229254D01*
X114794233Y-103353151D01*
X114781543Y-103482000D01*
X114781543Y-103782000D01*
X114794233Y-103910849D01*
X114831817Y-104034746D01*
X114892850Y-104148930D01*
X114974986Y-104249014D01*
X114996902Y-104267000D01*
X114974986Y-104284986D01*
X114892850Y-104385070D01*
X114831817Y-104499254D01*
X114794233Y-104623151D01*
X114781543Y-104752000D01*
X114781543Y-105052000D01*
X114794233Y-105180849D01*
X114831817Y-105304746D01*
X114892850Y-105418930D01*
X114974986Y-105519014D01*
X114996902Y-105537000D01*
X114974986Y-105554986D01*
X114892850Y-105655070D01*
X114831817Y-105769254D01*
X114794233Y-105893151D01*
X114781543Y-106022000D01*
X114781543Y-106322000D01*
X114794233Y-106450849D01*
X114831817Y-106574746D01*
X114892850Y-106688930D01*
X114974986Y-106789014D01*
X114996902Y-106807000D01*
X114974986Y-106824986D01*
X114892850Y-106925070D01*
X114831817Y-107039254D01*
X114794233Y-107163151D01*
X114781543Y-107292000D01*
X114781543Y-107592000D01*
X114794233Y-107720849D01*
X114831817Y-107844746D01*
X114892850Y-107958930D01*
X114974986Y-108059014D01*
X114996902Y-108077000D01*
X114974986Y-108094986D01*
X114892850Y-108195070D01*
X114831817Y-108309254D01*
X114794233Y-108433151D01*
X114781543Y-108562000D01*
X114781543Y-108862000D01*
X114794233Y-108990849D01*
X114831817Y-109114746D01*
X114892850Y-109228930D01*
X114974986Y-109329014D01*
X114996902Y-109347000D01*
X114974986Y-109364986D01*
X114892850Y-109465070D01*
X114831817Y-109579254D01*
X114794233Y-109703151D01*
X114781543Y-109832000D01*
X114781543Y-110132000D01*
X114794233Y-110260849D01*
X114831817Y-110384746D01*
X114892850Y-110498930D01*
X114974986Y-110599014D01*
X115075070Y-110681150D01*
X115145882Y-110719000D01*
X112438118Y-110719000D01*
X112508930Y-110681150D01*
X112609014Y-110599014D01*
X112691150Y-110498930D01*
X112752183Y-110384746D01*
X112789767Y-110260849D01*
X112802457Y-110132000D01*
X112802457Y-109832000D01*
X112789767Y-109703151D01*
X112752183Y-109579254D01*
X112691150Y-109465070D01*
X112609014Y-109364986D01*
X112587098Y-109347000D01*
X112609014Y-109329014D01*
X112691150Y-109228930D01*
X112752183Y-109114746D01*
X112789767Y-108990849D01*
X112802457Y-108862000D01*
X112802457Y-108562000D01*
X112789767Y-108433151D01*
X112752183Y-108309254D01*
X112691150Y-108195070D01*
X112609014Y-108094986D01*
X112587098Y-108077000D01*
X112609014Y-108059014D01*
X112691150Y-107958930D01*
X112752183Y-107844746D01*
X112789767Y-107720849D01*
X112802457Y-107592000D01*
X112802457Y-107292000D01*
X112789767Y-107163151D01*
X112752183Y-107039254D01*
X112691150Y-106925070D01*
X112609014Y-106824986D01*
X112587098Y-106807000D01*
X112609014Y-106789014D01*
X112691150Y-106688930D01*
X112752183Y-106574746D01*
X112789767Y-106450849D01*
X112802457Y-106322000D01*
X112802457Y-106022000D01*
X112789767Y-105893151D01*
X112752183Y-105769254D01*
X112691150Y-105655070D01*
X112609014Y-105554986D01*
X112587098Y-105537000D01*
X112609014Y-105519014D01*
X112691150Y-105418930D01*
X112752183Y-105304746D01*
X112789767Y-105180849D01*
X112802457Y-105052000D01*
X112802457Y-104752000D01*
X112789767Y-104623151D01*
X112752183Y-104499254D01*
X112691150Y-104385070D01*
X112609014Y-104284986D01*
X112587098Y-104267000D01*
X112609014Y-104249014D01*
X112691150Y-104148930D01*
X112752183Y-104034746D01*
X112789767Y-103910849D01*
X112802457Y-103782000D01*
X112802457Y-103482000D01*
X112789767Y-103353151D01*
X112752183Y-103229254D01*
X112691150Y-103115070D01*
X112609014Y-103014986D01*
X112587098Y-102997000D01*
X112609014Y-102979014D01*
X112691150Y-102878930D01*
X112752183Y-102764746D01*
X112789767Y-102640849D01*
X112802457Y-102512000D01*
X112802457Y-102212000D01*
X112789767Y-102083151D01*
X112783351Y-102062000D01*
X114781542Y-102062000D01*
X114784000Y-102108000D01*
X114911000Y-102235000D01*
X116140000Y-102235000D01*
X116140000Y-101681000D01*
X116013000Y-101554000D01*
X115292000Y-101551542D01*
X115192415Y-101561350D01*
X115096656Y-101590398D01*
X115008405Y-101637570D01*
X114931052Y-101701052D01*
X114867570Y-101778405D01*
X114820398Y-101866656D01*
X114791350Y-101962415D01*
X114781542Y-102062000D01*
X112783351Y-102062000D01*
X112752183Y-101959254D01*
X112691150Y-101845070D01*
X112609014Y-101744986D01*
X112508930Y-101662850D01*
X112394746Y-101601817D01*
X112270849Y-101564233D01*
X112142000Y-101551543D01*
X112021284Y-101551543D01*
X113019371Y-100553457D01*
X113242000Y-100553457D01*
X113385481Y-100539325D01*
X113523447Y-100497474D01*
X113650598Y-100429510D01*
X113726147Y-100367509D01*
X113756052Y-100403948D01*
X113833405Y-100467430D01*
X113921656Y-100514602D01*
X114017415Y-100543650D01*
X114117000Y-100553458D01*
X114313000Y-100551000D01*
X114440000Y-100424000D01*
X114440000Y-99695000D01*
X114694000Y-99695000D01*
X114694000Y-100424000D01*
X114821000Y-100551000D01*
X115017000Y-100553458D01*
X115116585Y-100543650D01*
X115212344Y-100514602D01*
X115300595Y-100467430D01*
X115377948Y-100403948D01*
X115441430Y-100326595D01*
X115488602Y-100238344D01*
X115517650Y-100142585D01*
X115527458Y-100043000D01*
X115525000Y-99822000D01*
X115398000Y-99695000D01*
X114694000Y-99695000D01*
X114440000Y-99695000D01*
X114420000Y-99695000D01*
X114420000Y-99441000D01*
X114440000Y-99441000D01*
X114440000Y-99421000D01*
X114694000Y-99421000D01*
X114694000Y-99441000D01*
X115398000Y-99441000D01*
X115525000Y-99314000D01*
X115527458Y-99093000D01*
X115517650Y-98993415D01*
X115488602Y-98897656D01*
X115441430Y-98809405D01*
X115377948Y-98732052D01*
X115300595Y-98668570D01*
X115212344Y-98621398D01*
X115116585Y-98592350D01*
X115017000Y-98582542D01*
X114932414Y-98583603D01*
X114948451Y-98553599D01*
X114948452Y-98553597D01*
X114988393Y-98421930D01*
X114998500Y-98319309D01*
X114998500Y-98319299D01*
X115001878Y-98285001D01*
X114998500Y-98250703D01*
X114998500Y-97262068D01*
X115000415Y-97262649D01*
X115100000Y-97272457D01*
X116100000Y-97272457D01*
X116199585Y-97262649D01*
X116295343Y-97233601D01*
X116383595Y-97186429D01*
X116460948Y-97122948D01*
X116524429Y-97045595D01*
X116571601Y-96957343D01*
X116600649Y-96861585D01*
X116610457Y-96762000D01*
X116610457Y-95929465D01*
X116622942Y-95906107D01*
X116662883Y-95774440D01*
X116672990Y-95671819D01*
X116672990Y-95671808D01*
X116676368Y-95637510D01*
X116672990Y-95603212D01*
X116672990Y-93594010D01*
X116713000Y-93554000D01*
X116713000Y-92850000D01*
X116693000Y-92850000D01*
X116693000Y-92596000D01*
X116713000Y-92596000D01*
X116713000Y-92576000D01*
X116967000Y-92576000D01*
X116967000Y-92596000D01*
%TA.AperFunction,Conductor*%
D23*
G36*
X116967000Y-92596000D02*
G01*
X116987000Y-92596000D01*
X116987000Y-92850000D01*
X116967000Y-92850000D01*
X116967000Y-93554000D01*
X117094000Y-93681000D01*
X117221001Y-93682413D01*
X117221001Y-100044809D01*
X117217929Y-100076000D01*
X117221001Y-100107191D01*
X117221001Y-100107192D01*
X117229962Y-100198172D01*
X117230189Y-100200481D01*
X117266498Y-100320179D01*
X117325463Y-100430493D01*
X117339713Y-100447857D01*
X117404816Y-100527185D01*
X117429046Y-100547070D01*
X118169543Y-101287568D01*
X118169543Y-101712002D01*
X118182597Y-101844545D01*
X118168387Y-101856207D01*
X118146523Y-101882848D01*
X117750000Y-102279372D01*
X117750000Y-102234998D01*
X117623002Y-102234998D01*
X117750000Y-102108000D01*
X117752458Y-102062000D01*
X117742650Y-101962415D01*
X117713602Y-101866656D01*
X117666430Y-101778405D01*
X117602948Y-101701052D01*
X117525595Y-101637570D01*
X117437344Y-101590398D01*
X117341585Y-101561350D01*
X117242000Y-101551542D01*
X116521000Y-101554000D01*
X116394000Y-101681000D01*
X116394000Y-102235000D01*
X116414000Y-102235000D01*
X116414000Y-102489000D01*
X116394000Y-102489000D01*
X116394000Y-102509000D01*
X116140000Y-102509000D01*
X116140000Y-102489000D01*
X114911000Y-102489000D01*
X114784000Y-102616000D01*
X114781542Y-102662000D01*
X114791350Y-102761585D01*
X114820398Y-102857344D01*
X114867570Y-102945595D01*
X114931052Y-103022948D01*
X114953400Y-103041289D01*
X114892850Y-103115070D01*
X114831817Y-103229254D01*
X114794233Y-103353151D01*
X114781543Y-103482000D01*
X114781543Y-103782000D01*
X114794233Y-103910849D01*
X114831817Y-104034746D01*
X114892850Y-104148930D01*
X114974986Y-104249014D01*
X114996902Y-104267000D01*
X114974986Y-104284986D01*
X114892850Y-104385070D01*
X114831817Y-104499254D01*
X114794233Y-104623151D01*
X114781543Y-104752000D01*
X114781543Y-105052000D01*
X114794233Y-105180849D01*
X114831817Y-105304746D01*
X114892850Y-105418930D01*
X114974986Y-105519014D01*
X114996902Y-105537000D01*
X114974986Y-105554986D01*
X114892850Y-105655070D01*
X114831817Y-105769254D01*
X114794233Y-105893151D01*
X114781543Y-106022000D01*
X114781543Y-106322000D01*
X114794233Y-106450849D01*
X114831817Y-106574746D01*
X114892850Y-106688930D01*
X114974986Y-106789014D01*
X114996902Y-106807000D01*
X114974986Y-106824986D01*
X114892850Y-106925070D01*
X114831817Y-107039254D01*
X114794233Y-107163151D01*
X114781543Y-107292000D01*
X114781543Y-107592000D01*
X114794233Y-107720849D01*
X114831817Y-107844746D01*
X114892850Y-107958930D01*
X114974986Y-108059014D01*
X114996902Y-108077000D01*
X114974986Y-108094986D01*
X114892850Y-108195070D01*
X114831817Y-108309254D01*
X114794233Y-108433151D01*
X114781543Y-108562000D01*
X114781543Y-108862000D01*
X114794233Y-108990849D01*
X114831817Y-109114746D01*
X114892850Y-109228930D01*
X114974986Y-109329014D01*
X114996902Y-109347000D01*
X114974986Y-109364986D01*
X114892850Y-109465070D01*
X114831817Y-109579254D01*
X114794233Y-109703151D01*
X114781543Y-109832000D01*
X114781543Y-110132000D01*
X114794233Y-110260849D01*
X114831817Y-110384746D01*
X114892850Y-110498930D01*
X114974986Y-110599014D01*
X115075070Y-110681150D01*
X115145882Y-110719000D01*
X112438118Y-110719000D01*
X112508930Y-110681150D01*
X112609014Y-110599014D01*
X112691150Y-110498930D01*
X112752183Y-110384746D01*
X112789767Y-110260849D01*
X112802457Y-110132000D01*
X112802457Y-109832000D01*
X112789767Y-109703151D01*
X112752183Y-109579254D01*
X112691150Y-109465070D01*
X112609014Y-109364986D01*
X112587098Y-109347000D01*
X112609014Y-109329014D01*
X112691150Y-109228930D01*
X112752183Y-109114746D01*
X112789767Y-108990849D01*
X112802457Y-108862000D01*
X112802457Y-108562000D01*
X112789767Y-108433151D01*
X112752183Y-108309254D01*
X112691150Y-108195070D01*
X112609014Y-108094986D01*
X112587098Y-108077000D01*
X112609014Y-108059014D01*
X112691150Y-107958930D01*
X112752183Y-107844746D01*
X112789767Y-107720849D01*
X112802457Y-107592000D01*
X112802457Y-107292000D01*
X112789767Y-107163151D01*
X112752183Y-107039254D01*
X112691150Y-106925070D01*
X112609014Y-106824986D01*
X112587098Y-106807000D01*
X112609014Y-106789014D01*
X112691150Y-106688930D01*
X112752183Y-106574746D01*
X112789767Y-106450849D01*
X112802457Y-106322000D01*
X112802457Y-106022000D01*
X112789767Y-105893151D01*
X112752183Y-105769254D01*
X112691150Y-105655070D01*
X112609014Y-105554986D01*
X112587098Y-105537000D01*
X112609014Y-105519014D01*
X112691150Y-105418930D01*
X112752183Y-105304746D01*
X112789767Y-105180849D01*
X112802457Y-105052000D01*
X112802457Y-104752000D01*
X112789767Y-104623151D01*
X112752183Y-104499254D01*
X112691150Y-104385070D01*
X112609014Y-104284986D01*
X112587098Y-104267000D01*
X112609014Y-104249014D01*
X112691150Y-104148930D01*
X112752183Y-104034746D01*
X112789767Y-103910849D01*
X112802457Y-103782000D01*
X112802457Y-103482000D01*
X112789767Y-103353151D01*
X112752183Y-103229254D01*
X112691150Y-103115070D01*
X112609014Y-103014986D01*
X112587098Y-102997000D01*
X112609014Y-102979014D01*
X112691150Y-102878930D01*
X112752183Y-102764746D01*
X112789767Y-102640849D01*
X112802457Y-102512000D01*
X112802457Y-102212000D01*
X112789767Y-102083151D01*
X112783351Y-102062000D01*
X114781542Y-102062000D01*
X114784000Y-102108000D01*
X114911000Y-102235000D01*
X116140000Y-102235000D01*
X116140000Y-101681000D01*
X116013000Y-101554000D01*
X115292000Y-101551542D01*
X115192415Y-101561350D01*
X115096656Y-101590398D01*
X115008405Y-101637570D01*
X114931052Y-101701052D01*
X114867570Y-101778405D01*
X114820398Y-101866656D01*
X114791350Y-101962415D01*
X114781542Y-102062000D01*
X112783351Y-102062000D01*
X112752183Y-101959254D01*
X112691150Y-101845070D01*
X112609014Y-101744986D01*
X112508930Y-101662850D01*
X112394746Y-101601817D01*
X112270849Y-101564233D01*
X112142000Y-101551543D01*
X112021284Y-101551543D01*
X113019371Y-100553457D01*
X113242000Y-100553457D01*
X113385481Y-100539325D01*
X113523447Y-100497474D01*
X113650598Y-100429510D01*
X113726147Y-100367509D01*
X113756052Y-100403948D01*
X113833405Y-100467430D01*
X113921656Y-100514602D01*
X114017415Y-100543650D01*
X114117000Y-100553458D01*
X114313000Y-100551000D01*
X114440000Y-100424000D01*
X114440000Y-99695000D01*
X114694000Y-99695000D01*
X114694000Y-100424000D01*
X114821000Y-100551000D01*
X115017000Y-100553458D01*
X115116585Y-100543650D01*
X115212344Y-100514602D01*
X115300595Y-100467430D01*
X115377948Y-100403948D01*
X115441430Y-100326595D01*
X115488602Y-100238344D01*
X115517650Y-100142585D01*
X115527458Y-100043000D01*
X115525000Y-99822000D01*
X115398000Y-99695000D01*
X114694000Y-99695000D01*
X114440000Y-99695000D01*
X114420000Y-99695000D01*
X114420000Y-99441000D01*
X114440000Y-99441000D01*
X114440000Y-99421000D01*
X114694000Y-99421000D01*
X114694000Y-99441000D01*
X115398000Y-99441000D01*
X115525000Y-99314000D01*
X115527458Y-99093000D01*
X115517650Y-98993415D01*
X115488602Y-98897656D01*
X115441430Y-98809405D01*
X115377948Y-98732052D01*
X115300595Y-98668570D01*
X115212344Y-98621398D01*
X115116585Y-98592350D01*
X115017000Y-98582542D01*
X114932414Y-98583603D01*
X114948451Y-98553599D01*
X114948452Y-98553597D01*
X114988393Y-98421930D01*
X114998500Y-98319309D01*
X114998500Y-98319299D01*
X115001878Y-98285001D01*
X114998500Y-98250703D01*
X114998500Y-97262068D01*
X115000415Y-97262649D01*
X115100000Y-97272457D01*
X116100000Y-97272457D01*
X116199585Y-97262649D01*
X116295343Y-97233601D01*
X116383595Y-97186429D01*
X116460948Y-97122948D01*
X116524429Y-97045595D01*
X116571601Y-96957343D01*
X116600649Y-96861585D01*
X116610457Y-96762000D01*
X116610457Y-95929465D01*
X116622942Y-95906107D01*
X116662883Y-95774440D01*
X116672990Y-95671819D01*
X116672990Y-95671808D01*
X116676368Y-95637510D01*
X116672990Y-95603212D01*
X116672990Y-93594010D01*
X116713000Y-93554000D01*
X116713000Y-92850000D01*
X116693000Y-92850000D01*
X116693000Y-92596000D01*
X116713000Y-92596000D01*
X116713000Y-92576000D01*
X116967000Y-92576000D01*
X116967000Y-92596000D01*
G37*
%TD.AperFunction*%
D22*
X119077500Y-97917000D02*
X119097500Y-97917000D01*
X119097500Y-98171000D01*
X119077500Y-98171000D01*
X119077500Y-99125000D01*
X119204500Y-99252000D01*
X119438000Y-99254458D01*
X119537585Y-99244650D01*
X119633344Y-99215602D01*
X119721595Y-99168430D01*
X119798948Y-99104948D01*
X119862430Y-99027595D01*
X119909602Y-98939344D01*
X119929797Y-98872769D01*
X119954650Y-98919265D01*
X120048445Y-99033555D01*
X120162735Y-99127350D01*
X120293127Y-99197046D01*
X120434612Y-99239965D01*
X120581750Y-99254457D01*
X121022648Y-99254457D01*
X120981901Y-99271335D01*
X120833184Y-99370705D01*
X120706711Y-99497178D01*
X120607341Y-99645895D01*
X120538894Y-99811140D01*
X120504000Y-99986564D01*
X120504000Y-100165424D01*
X120538894Y-100340848D01*
X120607341Y-100506093D01*
X120706711Y-100654810D01*
X120713500Y-100661599D01*
X120713500Y-100860407D01*
X120566401Y-101007507D01*
X120532571Y-100895984D01*
X120462297Y-100764512D01*
X120367725Y-100649275D01*
X120252488Y-100554703D01*
X120121016Y-100484429D01*
X119978359Y-100441155D01*
X119830002Y-100426543D01*
X119104568Y-100426543D01*
X118491000Y-99812976D01*
X118491000Y-99254163D01*
X118696500Y-99252000D01*
X118823500Y-99125000D01*
X118823500Y-98171000D01*
X118803500Y-98171000D01*
X118803500Y-97917000D01*
X118823500Y-97917000D01*
X118823500Y-97897000D01*
X119077500Y-97897000D01*
X119077500Y-97917000D01*
%TA.AperFunction,Conductor*%
D23*
G36*
X119077500Y-97917000D02*
G01*
X119097500Y-97917000D01*
X119097500Y-98171000D01*
X119077500Y-98171000D01*
X119077500Y-99125000D01*
X119204500Y-99252000D01*
X119438000Y-99254458D01*
X119537585Y-99244650D01*
X119633344Y-99215602D01*
X119721595Y-99168430D01*
X119798948Y-99104948D01*
X119862430Y-99027595D01*
X119909602Y-98939344D01*
X119929797Y-98872769D01*
X119954650Y-98919265D01*
X120048445Y-99033555D01*
X120162735Y-99127350D01*
X120293127Y-99197046D01*
X120434612Y-99239965D01*
X120581750Y-99254457D01*
X121022648Y-99254457D01*
X120981901Y-99271335D01*
X120833184Y-99370705D01*
X120706711Y-99497178D01*
X120607341Y-99645895D01*
X120538894Y-99811140D01*
X120504000Y-99986564D01*
X120504000Y-100165424D01*
X120538894Y-100340848D01*
X120607341Y-100506093D01*
X120706711Y-100654810D01*
X120713500Y-100661599D01*
X120713500Y-100860407D01*
X120566401Y-101007507D01*
X120532571Y-100895984D01*
X120462297Y-100764512D01*
X120367725Y-100649275D01*
X120252488Y-100554703D01*
X120121016Y-100484429D01*
X119978359Y-100441155D01*
X119830002Y-100426543D01*
X119104568Y-100426543D01*
X118491000Y-99812976D01*
X118491000Y-99254163D01*
X118696500Y-99252000D01*
X118823500Y-99125000D01*
X118823500Y-98171000D01*
X118803500Y-98171000D01*
X118803500Y-97917000D01*
X118823500Y-97917000D01*
X118823500Y-97897000D01*
X119077500Y-97897000D01*
X119077500Y-97917000D01*
G37*
%TD.AperFunction*%
D22*
X110859052Y-76263052D02*
X110795570Y-76340405D01*
X110748398Y-76428656D01*
X110719350Y-76524415D01*
X110709542Y-76624000D01*
X110712000Y-77470000D01*
X110839000Y-77597000D01*
X111843000Y-77597000D01*
X111843000Y-77577000D01*
X112097000Y-77577000D01*
X112097000Y-77597000D01*
X113243000Y-77597000D01*
X113243000Y-76668000D01*
X113497000Y-76668000D01*
X113497000Y-77597000D01*
X114301000Y-77597000D01*
X114428000Y-77470000D01*
X114430458Y-77049000D01*
X116709542Y-77049000D01*
X116712000Y-77470000D01*
X116839000Y-77597000D01*
X117643000Y-77597000D01*
X117643000Y-76668000D01*
X117516000Y-76541000D01*
X117220000Y-76538542D01*
X117120415Y-76548350D01*
X117024656Y-76577398D01*
X116936405Y-76624570D01*
X116859052Y-76688052D01*
X116795570Y-76765405D01*
X116748398Y-76853656D01*
X116719350Y-76949415D01*
X116709542Y-77049000D01*
X114430458Y-77049000D01*
X114420650Y-76949415D01*
X114391602Y-76853656D01*
X114344430Y-76765405D01*
X114280948Y-76688052D01*
X114203595Y-76624570D01*
X114115344Y-76577398D01*
X114019585Y-76548350D01*
X113920000Y-76538542D01*
X113624000Y-76541000D01*
X113497000Y-76668000D01*
X113243000Y-76668000D01*
X113230367Y-76655367D01*
X113230458Y-76624000D01*
X113220650Y-76524415D01*
X113191602Y-76428656D01*
X113144430Y-76340405D01*
X113080948Y-76263052D01*
X113034582Y-76225000D01*
X118105418Y-76225000D01*
X118059052Y-76263052D01*
X117995570Y-76340405D01*
X117948398Y-76428656D01*
X117919350Y-76524415D01*
X117909542Y-76624000D01*
X117909633Y-76655367D01*
X117897000Y-76668000D01*
X117897000Y-77597000D01*
X119043000Y-77597000D01*
X119043000Y-77577000D01*
X119297000Y-77577000D01*
X119297000Y-77597000D01*
X120301000Y-77597000D01*
X120428000Y-77470000D01*
X120430458Y-76624000D01*
X120420650Y-76524415D01*
X120391602Y-76428656D01*
X120344430Y-76340405D01*
X120280948Y-76263052D01*
X120234582Y-76225000D01*
X125451000Y-76225000D01*
X125451000Y-85021914D01*
X125409585Y-85009351D01*
X125310000Y-84999543D01*
X123610000Y-84999543D01*
X123510415Y-85009351D01*
X123414657Y-85038399D01*
X123326405Y-85085571D01*
X123249052Y-85149052D01*
X123185571Y-85226405D01*
X123138399Y-85314657D01*
X123109351Y-85410415D01*
X123099543Y-85510000D01*
X123099543Y-87210000D01*
X123109351Y-87309585D01*
X123138399Y-87405343D01*
X123185571Y-87493595D01*
X123249052Y-87570948D01*
X123326405Y-87634429D01*
X123414657Y-87681601D01*
X123510415Y-87710649D01*
X123610000Y-87720457D01*
X123780975Y-87720457D01*
X123594325Y-87845172D01*
X123405172Y-88034325D01*
X123256556Y-88256746D01*
X123154187Y-88503886D01*
X123102000Y-88766249D01*
X123102000Y-89033751D01*
X123154187Y-89296114D01*
X123256556Y-89543254D01*
X123405172Y-89765675D01*
X123594325Y-89954828D01*
X123816746Y-90103444D01*
X123977426Y-90170000D01*
X123816746Y-90236556D01*
X123594325Y-90385172D01*
X123405172Y-90574325D01*
X123256556Y-90796746D01*
X123154187Y-91043886D01*
X123102000Y-91306249D01*
X123102000Y-91573751D01*
X123154187Y-91836114D01*
X123256556Y-92083254D01*
X123405172Y-92305675D01*
X123594325Y-92494828D01*
X123816746Y-92643444D01*
X123986987Y-92713960D01*
X123872881Y-92755471D01*
X123645269Y-92893541D01*
X123448966Y-93073363D01*
X123291517Y-93288027D01*
X123178972Y-93529283D01*
X123144465Y-93643057D01*
X123235569Y-93853000D01*
X124333000Y-93853000D01*
X124333000Y-93833000D01*
X124587000Y-93833000D01*
X124587000Y-93853000D01*
X124607000Y-93853000D01*
X124607000Y-94107000D01*
X124587000Y-94107000D01*
X124587000Y-94127000D01*
X124333000Y-94127000D01*
X124333000Y-94107000D01*
X123235569Y-94107000D01*
X123144465Y-94316943D01*
X123178972Y-94430717D01*
X123291517Y-94671973D01*
X123448966Y-94886637D01*
X123645269Y-95066459D01*
X123872881Y-95204529D01*
X123986987Y-95246040D01*
X123816746Y-95316556D01*
X123594325Y-95465172D01*
X123405172Y-95654325D01*
X123256556Y-95876746D01*
X123154187Y-96123886D01*
X123102000Y-96386249D01*
X123102000Y-96653751D01*
X123154187Y-96916114D01*
X123256556Y-97163254D01*
X123405172Y-97385675D01*
X123594325Y-97574828D01*
X123816746Y-97723444D01*
X123977426Y-97790000D01*
X123816746Y-97856556D01*
X123594325Y-98005172D01*
X123405172Y-98194325D01*
X123256556Y-98416746D01*
X123154187Y-98663886D01*
X123102000Y-98926249D01*
X123102000Y-98957915D01*
X123063000Y-98918915D01*
X123063000Y-87407181D01*
X123066071Y-87376000D01*
X123063000Y-87344819D01*
X123063000Y-87344808D01*
X123053812Y-87251518D01*
X123017502Y-87131820D01*
X123007952Y-87113953D01*
X122958538Y-87021506D01*
X122899068Y-86949043D01*
X122879185Y-86924815D01*
X122854956Y-86904931D01*
X121999697Y-86049673D01*
X122082344Y-86024602D01*
X122170595Y-85977430D01*
X122247948Y-85913948D01*
X122311430Y-85836595D01*
X122358602Y-85748344D01*
X122387650Y-85652585D01*
X122397458Y-85553000D01*
X122395000Y-85357000D01*
X122268000Y-85230000D01*
X121539000Y-85230000D01*
X121539000Y-85250000D01*
X121285000Y-85250000D01*
X121285000Y-85230000D01*
X121265000Y-85230000D01*
X121265000Y-84976000D01*
X121285000Y-84976000D01*
X121285000Y-84956000D01*
X121539000Y-84956000D01*
X121539000Y-84976000D01*
X122268000Y-84976000D01*
X122395000Y-84849000D01*
X122397458Y-84653000D01*
X122387650Y-84553415D01*
X122358602Y-84457656D01*
X122311430Y-84369405D01*
X122247948Y-84292052D01*
X122211509Y-84262147D01*
X122273510Y-84186598D01*
X122341474Y-84059447D01*
X122383325Y-83921481D01*
X122397457Y-83778000D01*
X122397457Y-83328000D01*
X122383325Y-83184519D01*
X122341474Y-83046553D01*
X122273510Y-82919402D01*
X122182047Y-82807953D01*
X122070598Y-82716490D01*
X122047000Y-82703877D01*
X122047000Y-82701024D01*
X122823568Y-81924457D01*
X123686000Y-81924457D01*
X123785585Y-81914649D01*
X123881343Y-81885601D01*
X123969595Y-81838429D01*
X124046948Y-81774948D01*
X124110429Y-81697595D01*
X124157601Y-81609343D01*
X124186649Y-81513585D01*
X124196457Y-81414000D01*
X124196457Y-80414000D01*
X124186649Y-80314415D01*
X124171356Y-80264000D01*
X124186649Y-80213585D01*
X124196457Y-80114000D01*
X124196457Y-79114000D01*
X124186649Y-79014415D01*
X124157601Y-78918657D01*
X124110429Y-78830405D01*
X124046948Y-78753052D01*
X123969595Y-78689571D01*
X123881343Y-78642399D01*
X123785585Y-78613351D01*
X123686000Y-78603543D01*
X122186000Y-78603543D01*
X122086415Y-78613351D01*
X121990657Y-78642399D01*
X121902405Y-78689571D01*
X121825052Y-78753052D01*
X121761571Y-78830405D01*
X121714399Y-78918657D01*
X121685351Y-79014415D01*
X121676004Y-79109315D01*
X121635043Y-79142931D01*
X121635039Y-79142935D01*
X121610815Y-79162815D01*
X121590935Y-79187040D01*
X120113988Y-80663988D01*
X120101000Y-80651000D01*
X118997000Y-80651000D01*
X118997000Y-80671000D01*
X118743000Y-80671000D01*
X118743000Y-80651000D01*
X118723000Y-80651000D01*
X118723000Y-80397000D01*
X118743000Y-80397000D01*
X118743000Y-80377000D01*
X118997000Y-80377000D01*
X118997000Y-80397000D01*
X120101000Y-80397000D01*
X120228000Y-80270000D01*
X120230458Y-79774000D01*
X120220650Y-79674415D01*
X120191602Y-79578656D01*
X120144430Y-79490405D01*
X120080948Y-79413052D01*
X120003595Y-79349570D01*
X119966715Y-79329857D01*
X120019585Y-79324650D01*
X120115344Y-79295602D01*
X120203595Y-79248430D01*
X120280948Y-79184948D01*
X120344430Y-79107595D01*
X120391602Y-79019344D01*
X120420650Y-78923585D01*
X120430458Y-78824000D01*
X120428000Y-77978000D01*
X120301000Y-77851000D01*
X119297000Y-77851000D01*
X119297000Y-77871000D01*
X119043000Y-77871000D01*
X119043000Y-77851000D01*
X117897000Y-77851000D01*
X117897000Y-77871000D01*
X117643000Y-77871000D01*
X117643000Y-77851000D01*
X116839000Y-77851000D01*
X116712000Y-77978000D01*
X116709542Y-78399000D01*
X116719350Y-78498585D01*
X116748398Y-78594344D01*
X116795570Y-78682595D01*
X116859052Y-78759948D01*
X116924358Y-78813543D01*
X116670000Y-78813543D01*
X116570415Y-78823351D01*
X116545000Y-78831061D01*
X116519585Y-78823351D01*
X116420000Y-78813543D01*
X116020000Y-78813543D01*
X115920415Y-78823351D01*
X115895000Y-78831061D01*
X115869585Y-78823351D01*
X115770000Y-78813543D01*
X115370000Y-78813543D01*
X115270415Y-78823351D01*
X115245000Y-78831061D01*
X115219585Y-78823351D01*
X115120000Y-78813543D01*
X114720000Y-78813543D01*
X114620415Y-78823351D01*
X114595002Y-78831060D01*
X114569585Y-78823350D01*
X114470000Y-78813542D01*
X114470000Y-78816000D01*
X114343000Y-78943000D01*
X114343000Y-78982612D01*
X114335973Y-78991174D01*
X114325289Y-78975184D01*
X114198816Y-78848711D01*
X114179920Y-78836085D01*
X114203595Y-78823430D01*
X114280948Y-78759948D01*
X114344430Y-78682595D01*
X114391602Y-78594344D01*
X114420650Y-78498585D01*
X114430458Y-78399000D01*
X114428000Y-77978000D01*
X114301000Y-77851000D01*
X113497000Y-77851000D01*
X113497000Y-77871000D01*
X113243000Y-77871000D01*
X113243000Y-77851000D01*
X112097000Y-77851000D01*
X112097000Y-77871000D01*
X111843000Y-77871000D01*
X111843000Y-77851000D01*
X110839000Y-77851000D01*
X110712000Y-77978000D01*
X110709542Y-78824000D01*
X110719350Y-78923585D01*
X110748398Y-79019344D01*
X110795570Y-79107595D01*
X110859052Y-79184948D01*
X110936405Y-79248430D01*
X111024656Y-79295602D01*
X111120415Y-79324650D01*
X111173285Y-79329857D01*
X111136405Y-79349570D01*
X111059052Y-79413052D01*
X110995570Y-79490405D01*
X110948398Y-79578656D01*
X110919350Y-79674415D01*
X110909542Y-79774000D01*
X110912000Y-80270000D01*
X111039000Y-80397000D01*
X112143000Y-80397000D01*
X112143000Y-80377000D01*
X112397000Y-80377000D01*
X112397000Y-80397000D01*
X112417000Y-80397000D01*
X112417000Y-80651000D01*
X112397000Y-80651000D01*
X112397000Y-81655000D01*
X112524000Y-81782000D01*
X113120000Y-81784458D01*
X113219585Y-81774650D01*
X113315344Y-81745602D01*
X113403595Y-81698430D01*
X113480948Y-81634948D01*
X113544430Y-81557595D01*
X113586262Y-81479335D01*
X113598398Y-81519344D01*
X113645570Y-81607595D01*
X113709052Y-81684948D01*
X113786405Y-81748430D01*
X113874656Y-81795602D01*
X113970415Y-81824650D01*
X114070000Y-81834458D01*
X114070000Y-81832000D01*
X114197000Y-81705000D01*
X114197000Y-80451000D01*
X114123000Y-80451000D01*
X114123000Y-80309948D01*
X114198816Y-80259289D01*
X114209543Y-80248562D01*
X114209543Y-81324000D01*
X114219351Y-81423585D01*
X114248399Y-81519343D01*
X114295571Y-81607595D01*
X114343000Y-81665388D01*
X114343000Y-81705000D01*
X114470000Y-81832000D01*
X114470000Y-81834458D01*
X114569585Y-81824650D01*
X114595002Y-81816940D01*
X114620415Y-81824649D01*
X114720000Y-81834457D01*
X114935000Y-81834457D01*
X114935000Y-82286975D01*
X114554433Y-82667543D01*
X113432000Y-82667543D01*
X113332415Y-82677351D01*
X113236657Y-82706399D01*
X113148405Y-82753571D01*
X113071052Y-82817052D01*
X113007571Y-82894405D01*
X112960399Y-82982657D01*
X112931351Y-83078415D01*
X112921543Y-83178000D01*
X112921543Y-83478000D01*
X112931351Y-83577585D01*
X112931477Y-83578000D01*
X112931351Y-83578415D01*
X112921543Y-83678000D01*
X112921543Y-83978000D01*
X112931351Y-84077585D01*
X112931476Y-84077998D01*
X112931350Y-84078415D01*
X112921542Y-84178000D01*
X112924000Y-84178000D01*
X113007543Y-84261543D01*
X113007571Y-84261595D01*
X113062067Y-84328000D01*
X113007571Y-84394405D01*
X113007543Y-84394457D01*
X112924000Y-84478000D01*
X112921542Y-84478000D01*
X112931350Y-84577585D01*
X112931476Y-84578002D01*
X112931351Y-84578415D01*
X112921543Y-84678000D01*
X112921543Y-84978000D01*
X112931351Y-85077585D01*
X112931477Y-85078000D01*
X112931351Y-85078415D01*
X112921543Y-85178000D01*
X112921543Y-85478000D01*
X112931351Y-85577585D01*
X112960399Y-85673343D01*
X113007571Y-85761595D01*
X113071052Y-85838948D01*
X113148405Y-85902429D01*
X113236657Y-85949601D01*
X113332415Y-85978649D01*
X113432000Y-85988457D01*
X114249406Y-85988457D01*
X114068364Y-86169500D01*
X112176297Y-86169500D01*
X112141999Y-86166122D01*
X112107701Y-86169500D01*
X112107691Y-86169500D01*
X112005070Y-86179607D01*
X111873403Y-86219548D01*
X111873401Y-86219549D01*
X111752056Y-86284409D01*
X111672345Y-86349827D01*
X111645697Y-86371697D01*
X111623829Y-86398343D01*
X110935000Y-87087172D01*
X109738175Y-85890348D01*
X109716303Y-85863697D01*
X109609943Y-85776409D01*
X109488597Y-85711548D01*
X109356930Y-85671607D01*
X109254309Y-85661500D01*
X109254298Y-85661500D01*
X109220000Y-85658122D01*
X109185702Y-85661500D01*
X108040457Y-85661500D01*
X108040457Y-85510000D01*
X108030649Y-85410415D01*
X108001601Y-85314657D01*
X107954429Y-85226405D01*
X107890948Y-85149052D01*
X107813595Y-85085571D01*
X107725343Y-85038399D01*
X107629585Y-85009351D01*
X107530000Y-84999543D01*
X105830000Y-84999543D01*
X105730415Y-85009351D01*
X105689000Y-85021914D01*
X105689000Y-81274000D01*
X110909542Y-81274000D01*
X110919350Y-81373585D01*
X110948398Y-81469344D01*
X110995570Y-81557595D01*
X111059052Y-81634948D01*
X111136405Y-81698430D01*
X111224656Y-81745602D01*
X111320415Y-81774650D01*
X111420000Y-81784458D01*
X112016000Y-81782000D01*
X112143000Y-81655000D01*
X112143000Y-80651000D01*
X111039000Y-80651000D01*
X110912000Y-80778000D01*
X110909542Y-81274000D01*
X105689000Y-81274000D01*
X105689000Y-76225000D01*
X110905418Y-76225000D01*
X110859052Y-76263052D01*
%TA.AperFunction,Conductor*%
D23*
G36*
X110859052Y-76263052D02*
G01*
X110795570Y-76340405D01*
X110748398Y-76428656D01*
X110719350Y-76524415D01*
X110709542Y-76624000D01*
X110712000Y-77470000D01*
X110839000Y-77597000D01*
X111843000Y-77597000D01*
X111843000Y-77577000D01*
X112097000Y-77577000D01*
X112097000Y-77597000D01*
X113243000Y-77597000D01*
X113243000Y-76668000D01*
X113497000Y-76668000D01*
X113497000Y-77597000D01*
X114301000Y-77597000D01*
X114428000Y-77470000D01*
X114430458Y-77049000D01*
X116709542Y-77049000D01*
X116712000Y-77470000D01*
X116839000Y-77597000D01*
X117643000Y-77597000D01*
X117643000Y-76668000D01*
X117516000Y-76541000D01*
X117220000Y-76538542D01*
X117120415Y-76548350D01*
X117024656Y-76577398D01*
X116936405Y-76624570D01*
X116859052Y-76688052D01*
X116795570Y-76765405D01*
X116748398Y-76853656D01*
X116719350Y-76949415D01*
X116709542Y-77049000D01*
X114430458Y-77049000D01*
X114420650Y-76949415D01*
X114391602Y-76853656D01*
X114344430Y-76765405D01*
X114280948Y-76688052D01*
X114203595Y-76624570D01*
X114115344Y-76577398D01*
X114019585Y-76548350D01*
X113920000Y-76538542D01*
X113624000Y-76541000D01*
X113497000Y-76668000D01*
X113243000Y-76668000D01*
X113230367Y-76655367D01*
X113230458Y-76624000D01*
X113220650Y-76524415D01*
X113191602Y-76428656D01*
X113144430Y-76340405D01*
X113080948Y-76263052D01*
X113034582Y-76225000D01*
X118105418Y-76225000D01*
X118059052Y-76263052D01*
X117995570Y-76340405D01*
X117948398Y-76428656D01*
X117919350Y-76524415D01*
X117909542Y-76624000D01*
X117909633Y-76655367D01*
X117897000Y-76668000D01*
X117897000Y-77597000D01*
X119043000Y-77597000D01*
X119043000Y-77577000D01*
X119297000Y-77577000D01*
X119297000Y-77597000D01*
X120301000Y-77597000D01*
X120428000Y-77470000D01*
X120430458Y-76624000D01*
X120420650Y-76524415D01*
X120391602Y-76428656D01*
X120344430Y-76340405D01*
X120280948Y-76263052D01*
X120234582Y-76225000D01*
X125451000Y-76225000D01*
X125451000Y-85021914D01*
X125409585Y-85009351D01*
X125310000Y-84999543D01*
X123610000Y-84999543D01*
X123510415Y-85009351D01*
X123414657Y-85038399D01*
X123326405Y-85085571D01*
X123249052Y-85149052D01*
X123185571Y-85226405D01*
X123138399Y-85314657D01*
X123109351Y-85410415D01*
X123099543Y-85510000D01*
X123099543Y-87210000D01*
X123109351Y-87309585D01*
X123138399Y-87405343D01*
X123185571Y-87493595D01*
X123249052Y-87570948D01*
X123326405Y-87634429D01*
X123414657Y-87681601D01*
X123510415Y-87710649D01*
X123610000Y-87720457D01*
X123780975Y-87720457D01*
X123594325Y-87845172D01*
X123405172Y-88034325D01*
X123256556Y-88256746D01*
X123154187Y-88503886D01*
X123102000Y-88766249D01*
X123102000Y-89033751D01*
X123154187Y-89296114D01*
X123256556Y-89543254D01*
X123405172Y-89765675D01*
X123594325Y-89954828D01*
X123816746Y-90103444D01*
X123977426Y-90170000D01*
X123816746Y-90236556D01*
X123594325Y-90385172D01*
X123405172Y-90574325D01*
X123256556Y-90796746D01*
X123154187Y-91043886D01*
X123102000Y-91306249D01*
X123102000Y-91573751D01*
X123154187Y-91836114D01*
X123256556Y-92083254D01*
X123405172Y-92305675D01*
X123594325Y-92494828D01*
X123816746Y-92643444D01*
X123986987Y-92713960D01*
X123872881Y-92755471D01*
X123645269Y-92893541D01*
X123448966Y-93073363D01*
X123291517Y-93288027D01*
X123178972Y-93529283D01*
X123144465Y-93643057D01*
X123235569Y-93853000D01*
X124333000Y-93853000D01*
X124333000Y-93833000D01*
X124587000Y-93833000D01*
X124587000Y-93853000D01*
X124607000Y-93853000D01*
X124607000Y-94107000D01*
X124587000Y-94107000D01*
X124587000Y-94127000D01*
X124333000Y-94127000D01*
X124333000Y-94107000D01*
X123235569Y-94107000D01*
X123144465Y-94316943D01*
X123178972Y-94430717D01*
X123291517Y-94671973D01*
X123448966Y-94886637D01*
X123645269Y-95066459D01*
X123872881Y-95204529D01*
X123986987Y-95246040D01*
X123816746Y-95316556D01*
X123594325Y-95465172D01*
X123405172Y-95654325D01*
X123256556Y-95876746D01*
X123154187Y-96123886D01*
X123102000Y-96386249D01*
X123102000Y-96653751D01*
X123154187Y-96916114D01*
X123256556Y-97163254D01*
X123405172Y-97385675D01*
X123594325Y-97574828D01*
X123816746Y-97723444D01*
X123977426Y-97790000D01*
X123816746Y-97856556D01*
X123594325Y-98005172D01*
X123405172Y-98194325D01*
X123256556Y-98416746D01*
X123154187Y-98663886D01*
X123102000Y-98926249D01*
X123102000Y-98957915D01*
X123063000Y-98918915D01*
X123063000Y-87407181D01*
X123066071Y-87376000D01*
X123063000Y-87344819D01*
X123063000Y-87344808D01*
X123053812Y-87251518D01*
X123017502Y-87131820D01*
X123007952Y-87113953D01*
X122958538Y-87021506D01*
X122899068Y-86949043D01*
X122879185Y-86924815D01*
X122854956Y-86904931D01*
X121999697Y-86049673D01*
X122082344Y-86024602D01*
X122170595Y-85977430D01*
X122247948Y-85913948D01*
X122311430Y-85836595D01*
X122358602Y-85748344D01*
X122387650Y-85652585D01*
X122397458Y-85553000D01*
X122395000Y-85357000D01*
X122268000Y-85230000D01*
X121539000Y-85230000D01*
X121539000Y-85250000D01*
X121285000Y-85250000D01*
X121285000Y-85230000D01*
X121265000Y-85230000D01*
X121265000Y-84976000D01*
X121285000Y-84976000D01*
X121285000Y-84956000D01*
X121539000Y-84956000D01*
X121539000Y-84976000D01*
X122268000Y-84976000D01*
X122395000Y-84849000D01*
X122397458Y-84653000D01*
X122387650Y-84553415D01*
X122358602Y-84457656D01*
X122311430Y-84369405D01*
X122247948Y-84292052D01*
X122211509Y-84262147D01*
X122273510Y-84186598D01*
X122341474Y-84059447D01*
X122383325Y-83921481D01*
X122397457Y-83778000D01*
X122397457Y-83328000D01*
X122383325Y-83184519D01*
X122341474Y-83046553D01*
X122273510Y-82919402D01*
X122182047Y-82807953D01*
X122070598Y-82716490D01*
X122047000Y-82703877D01*
X122047000Y-82701024D01*
X122823568Y-81924457D01*
X123686000Y-81924457D01*
X123785585Y-81914649D01*
X123881343Y-81885601D01*
X123969595Y-81838429D01*
X124046948Y-81774948D01*
X124110429Y-81697595D01*
X124157601Y-81609343D01*
X124186649Y-81513585D01*
X124196457Y-81414000D01*
X124196457Y-80414000D01*
X124186649Y-80314415D01*
X124171356Y-80264000D01*
X124186649Y-80213585D01*
X124196457Y-80114000D01*
X124196457Y-79114000D01*
X124186649Y-79014415D01*
X124157601Y-78918657D01*
X124110429Y-78830405D01*
X124046948Y-78753052D01*
X123969595Y-78689571D01*
X123881343Y-78642399D01*
X123785585Y-78613351D01*
X123686000Y-78603543D01*
X122186000Y-78603543D01*
X122086415Y-78613351D01*
X121990657Y-78642399D01*
X121902405Y-78689571D01*
X121825052Y-78753052D01*
X121761571Y-78830405D01*
X121714399Y-78918657D01*
X121685351Y-79014415D01*
X121676004Y-79109315D01*
X121635043Y-79142931D01*
X121635039Y-79142935D01*
X121610815Y-79162815D01*
X121590935Y-79187040D01*
X120113988Y-80663988D01*
X120101000Y-80651000D01*
X118997000Y-80651000D01*
X118997000Y-80671000D01*
X118743000Y-80671000D01*
X118743000Y-80651000D01*
X118723000Y-80651000D01*
X118723000Y-80397000D01*
X118743000Y-80397000D01*
X118743000Y-80377000D01*
X118997000Y-80377000D01*
X118997000Y-80397000D01*
X120101000Y-80397000D01*
X120228000Y-80270000D01*
X120230458Y-79774000D01*
X120220650Y-79674415D01*
X120191602Y-79578656D01*
X120144430Y-79490405D01*
X120080948Y-79413052D01*
X120003595Y-79349570D01*
X119966715Y-79329857D01*
X120019585Y-79324650D01*
X120115344Y-79295602D01*
X120203595Y-79248430D01*
X120280948Y-79184948D01*
X120344430Y-79107595D01*
X120391602Y-79019344D01*
X120420650Y-78923585D01*
X120430458Y-78824000D01*
X120428000Y-77978000D01*
X120301000Y-77851000D01*
X119297000Y-77851000D01*
X119297000Y-77871000D01*
X119043000Y-77871000D01*
X119043000Y-77851000D01*
X117897000Y-77851000D01*
X117897000Y-77871000D01*
X117643000Y-77871000D01*
X117643000Y-77851000D01*
X116839000Y-77851000D01*
X116712000Y-77978000D01*
X116709542Y-78399000D01*
X116719350Y-78498585D01*
X116748398Y-78594344D01*
X116795570Y-78682595D01*
X116859052Y-78759948D01*
X116924358Y-78813543D01*
X116670000Y-78813543D01*
X116570415Y-78823351D01*
X116545000Y-78831061D01*
X116519585Y-78823351D01*
X116420000Y-78813543D01*
X116020000Y-78813543D01*
X115920415Y-78823351D01*
X115895000Y-78831061D01*
X115869585Y-78823351D01*
X115770000Y-78813543D01*
X115370000Y-78813543D01*
X115270415Y-78823351D01*
X115245000Y-78831061D01*
X115219585Y-78823351D01*
X115120000Y-78813543D01*
X114720000Y-78813543D01*
X114620415Y-78823351D01*
X114595002Y-78831060D01*
X114569585Y-78823350D01*
X114470000Y-78813542D01*
X114470000Y-78816000D01*
X114343000Y-78943000D01*
X114343000Y-78982612D01*
X114335973Y-78991174D01*
X114325289Y-78975184D01*
X114198816Y-78848711D01*
X114179920Y-78836085D01*
X114203595Y-78823430D01*
X114280948Y-78759948D01*
X114344430Y-78682595D01*
X114391602Y-78594344D01*
X114420650Y-78498585D01*
X114430458Y-78399000D01*
X114428000Y-77978000D01*
X114301000Y-77851000D01*
X113497000Y-77851000D01*
X113497000Y-77871000D01*
X113243000Y-77871000D01*
X113243000Y-77851000D01*
X112097000Y-77851000D01*
X112097000Y-77871000D01*
X111843000Y-77871000D01*
X111843000Y-77851000D01*
X110839000Y-77851000D01*
X110712000Y-77978000D01*
X110709542Y-78824000D01*
X110719350Y-78923585D01*
X110748398Y-79019344D01*
X110795570Y-79107595D01*
X110859052Y-79184948D01*
X110936405Y-79248430D01*
X111024656Y-79295602D01*
X111120415Y-79324650D01*
X111173285Y-79329857D01*
X111136405Y-79349570D01*
X111059052Y-79413052D01*
X110995570Y-79490405D01*
X110948398Y-79578656D01*
X110919350Y-79674415D01*
X110909542Y-79774000D01*
X110912000Y-80270000D01*
X111039000Y-80397000D01*
X112143000Y-80397000D01*
X112143000Y-80377000D01*
X112397000Y-80377000D01*
X112397000Y-80397000D01*
X112417000Y-80397000D01*
X112417000Y-80651000D01*
X112397000Y-80651000D01*
X112397000Y-81655000D01*
X112524000Y-81782000D01*
X113120000Y-81784458D01*
X113219585Y-81774650D01*
X113315344Y-81745602D01*
X113403595Y-81698430D01*
X113480948Y-81634948D01*
X113544430Y-81557595D01*
X113586262Y-81479335D01*
X113598398Y-81519344D01*
X113645570Y-81607595D01*
X113709052Y-81684948D01*
X113786405Y-81748430D01*
X113874656Y-81795602D01*
X113970415Y-81824650D01*
X114070000Y-81834458D01*
X114070000Y-81832000D01*
X114197000Y-81705000D01*
X114197000Y-80451000D01*
X114123000Y-80451000D01*
X114123000Y-80309948D01*
X114198816Y-80259289D01*
X114209543Y-80248562D01*
X114209543Y-81324000D01*
X114219351Y-81423585D01*
X114248399Y-81519343D01*
X114295571Y-81607595D01*
X114343000Y-81665388D01*
X114343000Y-81705000D01*
X114470000Y-81832000D01*
X114470000Y-81834458D01*
X114569585Y-81824650D01*
X114595002Y-81816940D01*
X114620415Y-81824649D01*
X114720000Y-81834457D01*
X114935000Y-81834457D01*
X114935000Y-82286975D01*
X114554433Y-82667543D01*
X113432000Y-82667543D01*
X113332415Y-82677351D01*
X113236657Y-82706399D01*
X113148405Y-82753571D01*
X113071052Y-82817052D01*
X113007571Y-82894405D01*
X112960399Y-82982657D01*
X112931351Y-83078415D01*
X112921543Y-83178000D01*
X112921543Y-83478000D01*
X112931351Y-83577585D01*
X112931477Y-83578000D01*
X112931351Y-83578415D01*
X112921543Y-83678000D01*
X112921543Y-83978000D01*
X112931351Y-84077585D01*
X112931476Y-84077998D01*
X112931350Y-84078415D01*
X112921542Y-84178000D01*
X112924000Y-84178000D01*
X113007543Y-84261543D01*
X113007571Y-84261595D01*
X113062067Y-84328000D01*
X113007571Y-84394405D01*
X113007543Y-84394457D01*
X112924000Y-84478000D01*
X112921542Y-84478000D01*
X112931350Y-84577585D01*
X112931476Y-84578002D01*
X112931351Y-84578415D01*
X112921543Y-84678000D01*
X112921543Y-84978000D01*
X112931351Y-85077585D01*
X112931477Y-85078000D01*
X112931351Y-85078415D01*
X112921543Y-85178000D01*
X112921543Y-85478000D01*
X112931351Y-85577585D01*
X112960399Y-85673343D01*
X113007571Y-85761595D01*
X113071052Y-85838948D01*
X113148405Y-85902429D01*
X113236657Y-85949601D01*
X113332415Y-85978649D01*
X113432000Y-85988457D01*
X114249406Y-85988457D01*
X114068364Y-86169500D01*
X112176297Y-86169500D01*
X112141999Y-86166122D01*
X112107701Y-86169500D01*
X112107691Y-86169500D01*
X112005070Y-86179607D01*
X111873403Y-86219548D01*
X111873401Y-86219549D01*
X111752056Y-86284409D01*
X111672345Y-86349827D01*
X111645697Y-86371697D01*
X111623829Y-86398343D01*
X110935000Y-87087172D01*
X109738175Y-85890348D01*
X109716303Y-85863697D01*
X109609943Y-85776409D01*
X109488597Y-85711548D01*
X109356930Y-85671607D01*
X109254309Y-85661500D01*
X109254298Y-85661500D01*
X109220000Y-85658122D01*
X109185702Y-85661500D01*
X108040457Y-85661500D01*
X108040457Y-85510000D01*
X108030649Y-85410415D01*
X108001601Y-85314657D01*
X107954429Y-85226405D01*
X107890948Y-85149052D01*
X107813595Y-85085571D01*
X107725343Y-85038399D01*
X107629585Y-85009351D01*
X107530000Y-84999543D01*
X105830000Y-84999543D01*
X105730415Y-85009351D01*
X105689000Y-85021914D01*
X105689000Y-81274000D01*
X110909542Y-81274000D01*
X110919350Y-81373585D01*
X110948398Y-81469344D01*
X110995570Y-81557595D01*
X111059052Y-81634948D01*
X111136405Y-81698430D01*
X111224656Y-81745602D01*
X111320415Y-81774650D01*
X111420000Y-81784458D01*
X112016000Y-81782000D01*
X112143000Y-81655000D01*
X112143000Y-80651000D01*
X111039000Y-80651000D01*
X110912000Y-80778000D01*
X110909542Y-81274000D01*
X105689000Y-81274000D01*
X105689000Y-76225000D01*
X110905418Y-76225000D01*
X110859052Y-76263052D01*
G37*
%TD.AperFunction*%
D22*
X109658137Y-87785965D02*
X109657543Y-87792000D01*
X109657543Y-88992000D01*
X109667351Y-89091585D01*
X109696399Y-89187343D01*
X109743571Y-89275595D01*
X109807052Y-89352948D01*
X109884405Y-89416429D01*
X109919500Y-89435188D01*
X109919501Y-90494304D01*
X109882490Y-90539402D01*
X109814526Y-90666553D01*
X109772675Y-90804519D01*
X109758543Y-90948000D01*
X109758543Y-91398000D01*
X109772675Y-91541481D01*
X109814526Y-91679447D01*
X109882490Y-91806598D01*
X109944491Y-91882147D01*
X109908052Y-91912052D01*
X109844570Y-91989405D01*
X109797398Y-92077656D01*
X109768350Y-92173415D01*
X109758542Y-92273000D01*
X109761000Y-92469000D01*
X109888000Y-92596000D01*
X110617000Y-92596000D01*
X110617000Y-92576000D01*
X110871000Y-92576000D01*
X110871000Y-92596000D01*
X110891000Y-92596000D01*
X110891000Y-92850000D01*
X110871000Y-92850000D01*
X110871000Y-93554000D01*
X110998000Y-93681000D01*
X111219000Y-93683458D01*
X111318585Y-93673650D01*
X111414344Y-93644602D01*
X111502595Y-93597430D01*
X111579948Y-93533948D01*
X111643430Y-93456595D01*
X111680797Y-93386688D01*
X111690399Y-93418343D01*
X111737571Y-93506595D01*
X111801052Y-93583948D01*
X111878405Y-93647429D01*
X111966657Y-93694601D01*
X111993500Y-93702744D01*
X111993501Y-95221814D01*
X111989543Y-95262000D01*
X111989543Y-96762000D01*
X111999351Y-96861585D01*
X112028399Y-96957343D01*
X112075571Y-97045595D01*
X112139052Y-97122948D01*
X112216405Y-97186429D01*
X112304657Y-97233601D01*
X112400415Y-97262649D01*
X112500000Y-97272457D01*
X113500000Y-97272457D01*
X113599585Y-97262649D01*
X113601501Y-97262068D01*
X113601501Y-97995671D01*
X113017000Y-98580172D01*
X109410500Y-94973673D01*
X109410500Y-93506298D01*
X109413878Y-93472000D01*
X109410500Y-93437702D01*
X109410500Y-93437691D01*
X109400393Y-93335070D01*
X109360452Y-93203403D01*
X109360451Y-93203401D01*
X109344202Y-93173000D01*
X109758542Y-93173000D01*
X109768350Y-93272585D01*
X109797398Y-93368344D01*
X109844570Y-93456595D01*
X109908052Y-93533948D01*
X109985405Y-93597430D01*
X110073656Y-93644602D01*
X110169415Y-93673650D01*
X110269000Y-93683458D01*
X110490000Y-93681000D01*
X110617000Y-93554000D01*
X110617000Y-92850000D01*
X109888000Y-92850000D01*
X109761000Y-92977000D01*
X109758542Y-93173000D01*
X109344202Y-93173000D01*
X109295591Y-93082056D01*
X109230174Y-93002346D01*
X109230167Y-93002339D01*
X109208302Y-92975697D01*
X109181662Y-92953834D01*
X107998775Y-91770948D01*
X108038000Y-91573751D01*
X108038000Y-91306249D01*
X107985813Y-91043886D01*
X107883444Y-90796746D01*
X107734828Y-90574325D01*
X107545675Y-90385172D01*
X107323254Y-90236556D01*
X107162574Y-90170000D01*
X107323254Y-90103444D01*
X107545675Y-89954828D01*
X107734828Y-89765675D01*
X107883444Y-89543254D01*
X107985813Y-89296114D01*
X108038000Y-89033751D01*
X108038000Y-88766249D01*
X107985813Y-88503886D01*
X107883444Y-88256746D01*
X107734828Y-88034325D01*
X107545675Y-87845172D01*
X107359025Y-87720457D01*
X107530000Y-87720457D01*
X107629585Y-87710649D01*
X107725343Y-87681601D01*
X107813595Y-87634429D01*
X107890948Y-87570948D01*
X107954429Y-87493595D01*
X108001601Y-87405343D01*
X108030649Y-87309585D01*
X108040457Y-87210000D01*
X108040457Y-87058500D01*
X108930673Y-87058500D01*
X109658137Y-87785965D01*
%TA.AperFunction,Conductor*%
D23*
G36*
X109658137Y-87785965D02*
G01*
X109657543Y-87792000D01*
X109657543Y-88992000D01*
X109667351Y-89091585D01*
X109696399Y-89187343D01*
X109743571Y-89275595D01*
X109807052Y-89352948D01*
X109884405Y-89416429D01*
X109919500Y-89435188D01*
X109919501Y-90494304D01*
X109882490Y-90539402D01*
X109814526Y-90666553D01*
X109772675Y-90804519D01*
X109758543Y-90948000D01*
X109758543Y-91398000D01*
X109772675Y-91541481D01*
X109814526Y-91679447D01*
X109882490Y-91806598D01*
X109944491Y-91882147D01*
X109908052Y-91912052D01*
X109844570Y-91989405D01*
X109797398Y-92077656D01*
X109768350Y-92173415D01*
X109758542Y-92273000D01*
X109761000Y-92469000D01*
X109888000Y-92596000D01*
X110617000Y-92596000D01*
X110617000Y-92576000D01*
X110871000Y-92576000D01*
X110871000Y-92596000D01*
X110891000Y-92596000D01*
X110891000Y-92850000D01*
X110871000Y-92850000D01*
X110871000Y-93554000D01*
X110998000Y-93681000D01*
X111219000Y-93683458D01*
X111318585Y-93673650D01*
X111414344Y-93644602D01*
X111502595Y-93597430D01*
X111579948Y-93533948D01*
X111643430Y-93456595D01*
X111680797Y-93386688D01*
X111690399Y-93418343D01*
X111737571Y-93506595D01*
X111801052Y-93583948D01*
X111878405Y-93647429D01*
X111966657Y-93694601D01*
X111993500Y-93702744D01*
X111993501Y-95221814D01*
X111989543Y-95262000D01*
X111989543Y-96762000D01*
X111999351Y-96861585D01*
X112028399Y-96957343D01*
X112075571Y-97045595D01*
X112139052Y-97122948D01*
X112216405Y-97186429D01*
X112304657Y-97233601D01*
X112400415Y-97262649D01*
X112500000Y-97272457D01*
X113500000Y-97272457D01*
X113599585Y-97262649D01*
X113601501Y-97262068D01*
X113601501Y-97995671D01*
X113017000Y-98580172D01*
X109410500Y-94973673D01*
X109410500Y-93506298D01*
X109413878Y-93472000D01*
X109410500Y-93437702D01*
X109410500Y-93437691D01*
X109400393Y-93335070D01*
X109360452Y-93203403D01*
X109360451Y-93203401D01*
X109344202Y-93173000D01*
X109758542Y-93173000D01*
X109768350Y-93272585D01*
X109797398Y-93368344D01*
X109844570Y-93456595D01*
X109908052Y-93533948D01*
X109985405Y-93597430D01*
X110073656Y-93644602D01*
X110169415Y-93673650D01*
X110269000Y-93683458D01*
X110490000Y-93681000D01*
X110617000Y-93554000D01*
X110617000Y-92850000D01*
X109888000Y-92850000D01*
X109761000Y-92977000D01*
X109758542Y-93173000D01*
X109344202Y-93173000D01*
X109295591Y-93082056D01*
X109230174Y-93002346D01*
X109230167Y-93002339D01*
X109208302Y-92975697D01*
X109181662Y-92953834D01*
X107998775Y-91770948D01*
X108038000Y-91573751D01*
X108038000Y-91306249D01*
X107985813Y-91043886D01*
X107883444Y-90796746D01*
X107734828Y-90574325D01*
X107545675Y-90385172D01*
X107323254Y-90236556D01*
X107162574Y-90170000D01*
X107323254Y-90103444D01*
X107545675Y-89954828D01*
X107734828Y-89765675D01*
X107883444Y-89543254D01*
X107985813Y-89296114D01*
X108038000Y-89033751D01*
X108038000Y-88766249D01*
X107985813Y-88503886D01*
X107883444Y-88256746D01*
X107734828Y-88034325D01*
X107545675Y-87845172D01*
X107359025Y-87720457D01*
X107530000Y-87720457D01*
X107629585Y-87710649D01*
X107725343Y-87681601D01*
X107813595Y-87634429D01*
X107890948Y-87570948D01*
X107954429Y-87493595D01*
X108001601Y-87405343D01*
X108030649Y-87309585D01*
X108040457Y-87210000D01*
X108040457Y-87058500D01*
X108930673Y-87058500D01*
X109658137Y-87785965D01*
G37*
%TD.AperFunction*%
D22*
X121298000Y-87757000D02*
X121318000Y-87757000D01*
X121318000Y-88011000D01*
X121298000Y-88011000D01*
X121298000Y-88740000D01*
X121425000Y-88867000D01*
X121621000Y-88869458D01*
X121720585Y-88859650D01*
X121793000Y-88837683D01*
X121793001Y-95107408D01*
X121765571Y-95016984D01*
X121695297Y-94885512D01*
X121600725Y-94770275D01*
X121485488Y-94675703D01*
X121354016Y-94605429D01*
X121211359Y-94562155D01*
X121063002Y-94547543D01*
X120537998Y-94547543D01*
X120389641Y-94562155D01*
X120246984Y-94605429D01*
X120115512Y-94675703D01*
X120000275Y-94770275D01*
X119905703Y-94885512D01*
X119888000Y-94918632D01*
X119870297Y-94885512D01*
X119775725Y-94770275D01*
X119660488Y-94675703D01*
X119529016Y-94605429D01*
X119386359Y-94562155D01*
X119238002Y-94547543D01*
X119167000Y-94547543D01*
X119167000Y-93519303D01*
X119182711Y-93542816D01*
X119309184Y-93669289D01*
X119457901Y-93768659D01*
X119623146Y-93837106D01*
X119798570Y-93872000D01*
X119977430Y-93872000D01*
X120152854Y-93837106D01*
X120318099Y-93768659D01*
X120466816Y-93669289D01*
X120593289Y-93542816D01*
X120692659Y-93394099D01*
X120761106Y-93228854D01*
X120796000Y-93053430D01*
X120796000Y-92874570D01*
X120761106Y-92699146D01*
X120692659Y-92533901D01*
X120593289Y-92385184D01*
X120466816Y-92258711D01*
X120319500Y-92160277D01*
X120319500Y-88692247D01*
X120330147Y-88683509D01*
X120360052Y-88719948D01*
X120437405Y-88783430D01*
X120525656Y-88830602D01*
X120621415Y-88859650D01*
X120721000Y-88869458D01*
X120917000Y-88867000D01*
X121044000Y-88740000D01*
X121044000Y-88011000D01*
X121024000Y-88011000D01*
X121024000Y-87757000D01*
X121044000Y-87757000D01*
X121044000Y-87737000D01*
X121298000Y-87737000D01*
X121298000Y-87757000D01*
%TA.AperFunction,Conductor*%
D23*
G36*
X121298000Y-87757000D02*
G01*
X121318000Y-87757000D01*
X121318000Y-88011000D01*
X121298000Y-88011000D01*
X121298000Y-88740000D01*
X121425000Y-88867000D01*
X121621000Y-88869458D01*
X121720585Y-88859650D01*
X121793000Y-88837683D01*
X121793001Y-95107408D01*
X121765571Y-95016984D01*
X121695297Y-94885512D01*
X121600725Y-94770275D01*
X121485488Y-94675703D01*
X121354016Y-94605429D01*
X121211359Y-94562155D01*
X121063002Y-94547543D01*
X120537998Y-94547543D01*
X120389641Y-94562155D01*
X120246984Y-94605429D01*
X120115512Y-94675703D01*
X120000275Y-94770275D01*
X119905703Y-94885512D01*
X119888000Y-94918632D01*
X119870297Y-94885512D01*
X119775725Y-94770275D01*
X119660488Y-94675703D01*
X119529016Y-94605429D01*
X119386359Y-94562155D01*
X119238002Y-94547543D01*
X119167000Y-94547543D01*
X119167000Y-93519303D01*
X119182711Y-93542816D01*
X119309184Y-93669289D01*
X119457901Y-93768659D01*
X119623146Y-93837106D01*
X119798570Y-93872000D01*
X119977430Y-93872000D01*
X120152854Y-93837106D01*
X120318099Y-93768659D01*
X120466816Y-93669289D01*
X120593289Y-93542816D01*
X120692659Y-93394099D01*
X120761106Y-93228854D01*
X120796000Y-93053430D01*
X120796000Y-92874570D01*
X120761106Y-92699146D01*
X120692659Y-92533901D01*
X120593289Y-92385184D01*
X120466816Y-92258711D01*
X120319500Y-92160277D01*
X120319500Y-88692247D01*
X120330147Y-88683509D01*
X120360052Y-88719948D01*
X120437405Y-88783430D01*
X120525656Y-88830602D01*
X120621415Y-88859650D01*
X120721000Y-88869458D01*
X120917000Y-88867000D01*
X121044000Y-88740000D01*
X121044000Y-88011000D01*
X121024000Y-88011000D01*
X121024000Y-87757000D01*
X121044000Y-87757000D01*
X121044000Y-87737000D01*
X121298000Y-87737000D01*
X121298000Y-87757000D01*
G37*
%TD.AperFunction*%
D22*
X106807000Y-93853000D02*
X106827000Y-93853000D01*
X106827000Y-94107000D01*
X106807000Y-94107000D01*
X106807000Y-94127000D01*
X106553000Y-94127000D01*
X106553000Y-94107000D01*
X106533000Y-94107000D01*
X106533000Y-93853000D01*
X106553000Y-93853000D01*
X106553000Y-93833000D01*
X106807000Y-93833000D01*
X106807000Y-93853000D01*
%TA.AperFunction,Conductor*%
D23*
G36*
X106807000Y-93853000D02*
G01*
X106827000Y-93853000D01*
X106827000Y-94107000D01*
X106807000Y-94107000D01*
X106807000Y-94127000D01*
X106553000Y-94127000D01*
X106553000Y-94107000D01*
X106533000Y-94107000D01*
X106533000Y-93853000D01*
X106553000Y-93853000D01*
X106553000Y-93833000D01*
X106807000Y-93833000D01*
X106807000Y-93853000D01*
G37*
%TD.AperFunction*%
D22*
X111781000Y-91821000D02*
X112053682Y-91821000D01*
X112062415Y-91823649D01*
X112162000Y-91833457D01*
X112839000Y-91833457D01*
X112839000Y-92062543D01*
X112162000Y-92062543D01*
X112062415Y-92072351D01*
X112053682Y-92075000D01*
X111781000Y-92075000D01*
X111711023Y-92144977D01*
X111690602Y-92077656D01*
X111643430Y-91989405D01*
X111579948Y-91912052D01*
X111543509Y-91882147D01*
X111605510Y-91806598D01*
X111661621Y-91701621D01*
X111781000Y-91821000D01*
%TA.AperFunction,Conductor*%
D23*
G36*
X111781000Y-91821000D02*
G01*
X112053682Y-91821000D01*
X112062415Y-91823649D01*
X112162000Y-91833457D01*
X112839000Y-91833457D01*
X112839000Y-92062543D01*
X112162000Y-92062543D01*
X112062415Y-92072351D01*
X112053682Y-92075000D01*
X111781000Y-92075000D01*
X111711023Y-92144977D01*
X111690602Y-92077656D01*
X111643430Y-91989405D01*
X111579948Y-91912052D01*
X111543509Y-91882147D01*
X111605510Y-91806598D01*
X111661621Y-91701621D01*
X111781000Y-91821000D01*
G37*
%TD.AperFunction*%
%TD*%
M02*
